# Blender 4.2.1 LTS
# www.blender.org
mtllib nube2.mtl
o Cube.006
v -2.548700 2.152509 3.541211
v -2.548700 1.124113 3.541211
v -2.548700 2.152509 4.278903
v -2.548700 1.124113 4.278903
v -3.470054 2.152509 3.541211
v -3.470054 1.124113 3.541211
v -3.470054 2.152509 4.278903
v -3.470054 1.124113 4.278903
v -2.395142 1.529630 3.418262
v -3.623612 1.529630 4.401850
v -2.395142 1.529630 4.401850
v -3.623612 1.529630 3.418262
v -3.537250 1.108624 3.691221
v -3.571004 1.100843 3.910057
v -3.537250 1.108623 4.128893
v -2.736057 1.108623 3.487409
v -3.009377 1.100843 3.460384
v -3.282697 1.108624 3.487409
v -2.398429 1.374854 3.420895
v -2.421446 1.254610 3.439323
v -2.478215 1.170339 3.484777
v -3.620325 1.712231 4.399218
v -3.597308 1.896828 4.380790
v -3.540538 2.053896 4.335337
v -2.398429 1.374854 4.399218
v -2.421446 1.254610 4.380790
v -2.478215 1.170340 4.335337
v -3.620325 1.374854 3.420896
v -3.597308 1.254610 3.439323
v -3.540538 1.170339 3.484777
v -2.736057 2.187022 4.332705
v -3.009377 2.204358 4.359730
v -3.282697 2.187022 4.332705
v -2.481504 2.187022 3.691221
v -2.447750 2.204358 3.910057
v -2.481504 2.187022 4.128893
v -3.282697 1.108624 4.332705
v -3.009377 1.100843 4.359730
v -2.736057 1.108623 4.332705
v -3.537250 2.187022 4.128893
v -3.571004 2.204358 3.910057
v -3.537250 2.187022 3.691221
v -3.282697 2.187022 3.487409
v -3.009377 2.204358 3.460384
v -2.736057 2.187022 3.487409
v -2.481504 1.108623 4.128893
v -2.447750 1.100843 3.910057
v -2.481504 1.108624 3.691221
v -2.478215 2.053896 3.484777
v -2.421446 1.896828 3.439323
v -2.398429 1.712231 3.420895
v -3.540538 1.170340 4.335337
v -3.597308 1.254610 4.380790
v -3.620325 1.374854 4.399218
v -2.478215 2.053896 4.335337
v -2.421446 1.896828 4.380790
v -2.398429 1.712231 4.399218
v -3.540538 2.053896 3.484777
v -3.597308 1.896828 3.439323
v -3.620325 1.712231 3.420895
v -3.345286 1.529630 3.279946
v -3.009377 1.529630 3.233840
v -2.673466 1.529630 3.279946
v -2.222388 1.529630 3.641107
v -2.164803 1.529630 3.910057
v -2.222388 1.529630 4.179007
v -3.796367 1.529630 4.179007
v -3.853950 1.529630 3.910057
v -3.796367 1.529630 3.641107
v -2.673466 1.529630 4.540168
v -3.009377 1.529630 4.586274
v -3.345286 1.529630 4.540168
v -2.718085 2.260870 3.676831
v -3.009377 2.285874 3.664302
v -3.300669 2.260870 3.676831
v -2.702437 2.285874 3.910057
v -3.009377 2.313168 3.910057
v -3.316317 2.285874 3.910057
v -2.718085 2.260870 4.143283
v -3.009377 2.285874 4.155811
v -3.300669 2.260870 4.143283
v -2.675277 1.712550 4.536832
v -2.687952 1.899384 4.513486
v -2.716274 2.063446 4.451161
v -3.009377 1.712869 4.582716
v -3.009377 1.901940 4.557813
v -3.009377 2.071803 4.490362
v -3.343477 1.712550 4.536832
v -3.330803 1.899384 4.513486
v -3.302480 2.063446 4.451161
v -3.792200 1.712550 4.177557
v -3.763042 1.899384 4.167409
v -3.685199 2.063446 4.144732
v -3.849508 1.712869 3.910057
v -3.818404 1.901940 3.910057
v -3.734160 2.071803 3.910057
v -3.792200 1.712550 3.642557
v -3.763042 1.899384 3.652704
v -3.685199 2.063446 3.675380
v -3.300669 1.075480 3.676831
v -3.009377 1.064258 3.664303
v -2.718085 1.075480 3.676831
v -3.316317 1.064258 3.910057
v -3.009377 1.052008 3.910057
v -2.702437 1.064258 3.910057
v -3.300669 1.075480 4.143283
v -3.009377 1.064258 4.155811
v -2.718085 1.075480 4.143283
v -2.226553 1.712550 3.642557
v -2.255713 1.899384 3.652704
v -2.333555 2.063446 3.675380
v -2.169247 1.712869 3.910057
v -2.200350 1.901940 3.910057
v -2.284594 2.071803 3.910057
v -2.226553 1.712550 4.177557
v -2.255713 1.899384 4.167409
v -2.333555 2.063446 4.144732
v -3.343477 1.712550 3.283281
v -3.330803 1.899384 3.306628
v -3.302480 2.063446 3.368953
v -3.009377 1.712869 3.237397
v -3.009377 1.901940 3.262300
v -3.009377 2.071803 3.329751
v -2.675277 1.712550 3.283281
v -2.687952 1.899384 3.306628
v -2.716274 2.063446 3.368953
v -3.302480 1.166052 3.368953
v -3.330803 1.253462 3.306628
v -3.343477 1.374711 3.283281
v -3.009377 1.162302 3.329751
v -3.009377 1.252316 3.262300
v -3.009377 1.374567 3.237397
v -2.716274 1.166052 3.368953
v -2.687952 1.253462 3.306628
v -2.675277 1.374711 3.283281
v -2.333555 1.166052 3.675380
v -2.255713 1.253462 3.652705
v -2.226553 1.374711 3.642557
v -2.284594 1.162302 3.910057
v -2.200350 1.252316 3.910057
v -2.169247 1.374567 3.910057
v -2.333555 1.166052 4.144732
v -2.255713 1.253462 4.167409
v -2.226553 1.374711 4.177557
v -3.685199 1.166052 4.144732
v -3.763042 1.253462 4.167409
v -3.792200 1.374711 4.177557
v -3.734160 1.162302 3.910057
v -3.818404 1.252316 3.910057
v -3.849508 1.374567 3.910057
v -3.685199 1.166052 3.675380
v -3.763042 1.253462 3.652705
v -3.792200 1.374711 3.642557
v -2.716274 1.166052 4.451161
v -2.687952 1.253462 4.513486
v -2.675277 1.374711 4.536832
v -3.009377 1.162302 4.490362
v -3.009377 1.252316 4.557813
v -3.009377 1.374567 4.582716
v -3.302480 1.166052 4.451161
v -3.330803 1.253462 4.513486
v -3.343477 1.374711 4.536832
vn 0.1947 0.9502 -0.2433
vn -0.0000 0.9686 -0.2485
vn -0.0000 1.0000 -0.0000
vn 0.2011 0.9796 -0.0000
vn -0.1947 0.9502 -0.2433
vn -0.2011 0.9796 -0.0000
vn -0.0000 0.9686 0.2485
vn 0.1947 0.9502 0.2433
vn -0.1947 0.9502 0.2433
vn 0.4001 0.7683 -0.4996
vn 0.2071 0.8055 -0.5552
vn 0.4652 0.8429 -0.2706
vn -0.0000 0.8212 -0.5706
vn -0.2071 0.8055 -0.5552
vn -0.4001 0.7683 -0.4996
vn -0.4652 0.8429 -0.2706
vn -0.4861 0.8739 -0.0000
vn -0.4652 0.8429 0.2706
vn -0.4001 0.7683 0.4996
vn -0.2071 0.8055 0.5552
vn -0.0000 0.8212 0.5706
vn 0.2071 0.8055 0.5552
vn 0.4652 0.8429 0.2706
vn 0.4001 0.7683 0.4996
vn 0.4861 0.8739 -0.0000
vn 0.2905 0.0787 0.9536
vn 0.2830 0.2545 0.9247
vn -0.0000 0.2476 0.9689
vn -0.0000 0.0754 0.9972
vn 0.2502 0.5243 0.8139
vn -0.0000 0.5292 0.8485
vn -0.2830 0.2545 0.9247
vn -0.2905 0.0787 0.9536
vn -0.2503 0.5243 0.8139
vn 0.6251 -0.0020 0.7806
vn 0.6227 0.0869 0.7776
vn 0.2908 -0.0018 0.9568
vn 0.6009 0.2751 0.7505
vn 0.5269 0.5380 0.6580
vn -0.5269 0.5380 0.6580
vn -0.6009 0.2751 0.7505
vn -0.6227 0.0869 0.7776
vn -0.2908 -0.0018 0.9568
vn -0.6251 -0.0020 0.7806
vn -0.0000 -0.0018 1.0000
vn -0.8993 0.0928 0.4273
vn -0.8619 0.2962 0.4115
vn -0.9527 0.3040 -0.0000
vn -0.9956 0.0935 -0.0000
vn -0.7299 0.5873 0.3499
vn -0.7890 0.6144 -0.0000
vn -0.8619 0.2962 -0.4115
vn -0.8993 0.0928 -0.4273
vn -0.7299 0.5873 -0.3499
vn -0.9036 -0.0022 0.4284
vn -0.5269 0.5380 -0.6580
vn -0.6009 0.2751 -0.7505
vn -0.6227 0.0865 -0.7777
vn -0.9036 -0.0022 -0.4284
vn -0.6250 -0.0020 -0.7806
vn -1.0000 -0.0022 -0.0000
vn -0.0924 -0.9890 -0.1155
vn -0.0000 -0.9933 -0.1156
vn -0.0000 -1.0000 -0.0000
vn -0.0930 -0.9957 -0.0000
vn 0.0923 -0.9890 -0.1153
vn 0.0930 -0.9957 -0.0000
vn -0.0000 -0.9933 0.1156
vn -0.0923 -0.9890 0.1153
vn 0.0923 -0.9890 0.1154
vn -0.2284 -0.9309 -0.2852
vn -0.1157 -0.9431 -0.3118
vn -0.2531 -0.9563 -0.1465
vn -0.0000 -0.9490 -0.3152
vn 0.1157 -0.9431 -0.3118
vn 0.2284 -0.9309 -0.2852
vn 0.2531 -0.9563 -0.1465
vn 0.2570 -0.9664 -0.0000
vn 0.2531 -0.9563 0.1465
vn 0.2284 -0.9309 0.2852
vn 0.1157 -0.9431 0.3118
vn -0.0000 -0.9490 0.3152
vn -0.1157 -0.9431 0.3118
vn -0.2531 -0.9563 0.1465
vn -0.2283 -0.9309 0.2852
vn -0.2570 -0.9664 -0.0000
vn 0.8993 0.0928 -0.4273
vn 0.8619 0.2962 -0.4115
vn 0.9527 0.3040 -0.0000
vn 0.9956 0.0935 -0.0000
vn 0.7299 0.5873 -0.3499
vn 0.7890 0.6144 -0.0000
vn 0.8619 0.2962 0.4115
vn 0.8993 0.0928 0.4273
vn 0.7299 0.5873 0.3499
vn 0.6250 -0.0020 -0.7806
vn 0.6227 0.0869 -0.7776
vn 0.9036 -0.0022 -0.4284
vn 0.6009 0.2751 -0.7505
vn 0.5269 0.5380 -0.6580
vn 0.9036 -0.0022 0.4284
vn 1.0000 -0.0022 -0.0000
vn -0.2905 0.0787 -0.9536
vn -0.2830 0.2545 -0.9247
vn -0.0000 0.2476 -0.9689
vn -0.0000 0.0754 -0.9972
vn -0.2502 0.5243 -0.8139
vn -0.0000 0.5292 -0.8485
vn 0.2830 0.2545 -0.9247
vn 0.2905 0.0787 -0.9536
vn 0.2503 0.5243 -0.8139
vn -0.2908 -0.0018 -0.9568
vn 0.2908 -0.0018 -0.9568
vn -0.0000 -0.0018 -1.0000
vn -0.1930 -0.7522 -0.6300
vn -0.2672 -0.3990 -0.8772
vn -0.0000 -0.3902 -0.9207
vn -0.0000 -0.7533 -0.6577
vn -0.2896 -0.1151 -0.9502
vn -0.0000 -0.1105 -0.9939
vn 0.2672 -0.3990 -0.8772
vn 0.1931 -0.7522 -0.6300
vn 0.2896 -0.1151 -0.9502
vn -0.4015 -0.7664 -0.5015
vn -0.5654 -0.4262 -0.7062
vn -0.6200 -0.1265 -0.7743
vn 0.6200 -0.1264 -0.7743
vn 0.5654 -0.4262 -0.7062
vn 0.4015 -0.7664 -0.5015
vn 0.5383 -0.8025 -0.2573
vn 0.8036 -0.4564 -0.3819
vn 0.8839 -0.4678 -0.0000
vn 0.5730 -0.8196 -0.0000
vn 0.8948 -0.1354 -0.4254
vn 0.9905 -0.1376 -0.0000
vn 0.8036 -0.4564 0.3819
vn 0.5383 -0.8026 0.2572
vn 0.8948 -0.1354 0.4254
vn 0.6200 -0.1264 0.7743
vn 0.5654 -0.4262 0.7062
vn 0.4015 -0.7664 0.5015
vn -0.5383 -0.8026 0.2572
vn -0.8036 -0.4565 0.3819
vn -0.8839 -0.4678 -0.0000
vn -0.5730 -0.8196 -0.0000
vn -0.8948 -0.1354 0.4254
vn -0.9905 -0.1376 -0.0000
vn -0.8036 -0.4564 -0.3819
vn -0.5383 -0.8026 -0.2572
vn -0.8948 -0.1354 -0.4254
vn -0.4015 -0.7664 0.5015
vn -0.5654 -0.4262 0.7062
vn -0.6200 -0.1264 0.7743
vn 0.1930 -0.7522 0.6300
vn 0.2672 -0.3990 0.8772
vn -0.0000 -0.3902 0.9207
vn -0.0000 -0.7533 0.6577
vn 0.2896 -0.1151 0.9502
vn -0.0000 -0.1105 0.9939
vn -0.2672 -0.3990 0.8772
vn -0.1931 -0.7522 0.6300
vn -0.2896 -0.1151 0.9502
vt 0.687581 0.562500
vt 0.750021 0.562500
vt 0.750031 0.625000
vt 0.687613 0.625000
vt 0.812503 0.562500
vt 0.812504 0.625000
vt 0.750021 0.687500
vt 0.687581 0.687500
vt 0.812503 0.687500
vt 0.625000 0.500000
vt 0.687500 0.500000
vt 0.625258 0.562500
vt 0.750000 0.500000
vt 0.812500 0.500000
vt 0.875000 0.500000
vt 0.875000 0.562500
vt 0.875000 0.625000
vt 0.875000 0.687500
vt 0.875000 0.750000
vt 0.812500 0.750000
vt 0.750000 0.750000
vt 0.687500 0.750000
vt 0.625258 0.687500
vt 0.625000 0.750000
vt 0.625312 0.625000
vt 0.456141 0.812500
vt 0.506133 0.812500
vt 0.505386 0.875000
vt 0.453997 0.875000
vt 0.563690 0.812500
vt 0.563595 0.875000
vt 0.503574 0.937500
vt 0.448362 0.937500
vt 0.563368 0.937500
vt 0.418165 0.750000
vt 0.456448 0.750000
vt 0.417739 0.812500
vt 0.506246 0.750000
vt 0.563725 0.750000
vt 0.625000 0.812500
vt 0.625000 0.875000
vt 0.625000 0.937500
vt 0.625000 1.000000
vt 0.563062 1.000000
vt 0.501124 1.000000
vt 0.439185 1.000000
vt 0.405804 0.937500
vt 0.377247 1.000000
vt 0.414755 0.875000
vt 0.448362 0.062500
vt 0.503574 0.062500
vt 0.505386 0.125000
vt 0.453997 0.125000
vt 0.563368 0.062500
vt 0.563595 0.125000
vt 0.506132 0.187500
vt 0.456141 0.187500
vt 0.563688 0.187500
vt 0.377247 0.000000
vt 0.439185 0.000000
vt 0.405804 0.062500
vt 0.501124 0.000000
vt 0.563062 0.000000
vt 0.625000 0.000000
vt 0.625000 0.062500
vt 0.625000 0.125000
vt 0.625000 0.187500
vt 0.625000 0.250000
vt 0.563701 0.250000
vt 0.506238 0.250000
vt 0.456447 0.250000
vt 0.417739 0.187500
vt 0.418165 0.250000
vt 0.414755 0.125000
vt 0.187204 0.562500
vt 0.247634 0.562500
vt 0.246559 0.625000
vt 0.187070 0.625000
vt 0.303548 0.562500
vt 0.300026 0.625000
vt 0.247634 0.687500
vt 0.187204 0.687500
vt 0.303548 0.687500
vt 0.125000 0.500000
vt 0.187500 0.500000
vt 0.125000 0.562500
vt 0.250000 0.500000
vt 0.312500 0.500000
vt 0.375000 0.500000
vt 0.346558 0.562500
vt 0.340590 0.625000
vt 0.346558 0.687500
vt 0.375000 0.750000
vt 0.312500 0.750000
vt 0.250000 0.750000
vt 0.187500 0.750000
vt 0.125000 0.687500
vt 0.125000 0.750000
vt 0.125000 0.625000
vt 0.456450 0.562500
vt 0.506261 0.562500
vt 0.506269 0.625000
vt 0.456451 0.625000
vt 0.563784 0.562500
vt 0.563814 0.625000
vt 0.506261 0.687500
vt 0.456450 0.687500
vt 0.563784 0.687500
vt 0.418165 0.500000
vt 0.456448 0.500000
vt 0.418165 0.562500
vt 0.506246 0.500000
vt 0.563725 0.500000
vt 0.418165 0.687500
vt 0.418165 0.625000
vt 0.456447 0.312500
vt 0.506238 0.312500
vt 0.506238 0.375000
vt 0.456447 0.375000
vt 0.563701 0.312500
vt 0.563701 0.375000
vt 0.506239 0.437500
vt 0.456448 0.437500
vt 0.563703 0.437500
vt 0.418165 0.312500
vt 0.625000 0.312500
vt 0.625000 0.375000
vt 0.625000 0.437500
vt 0.418165 0.437500
vt 0.418165 0.375000
vt 0.376201 0.312500
vt 0.381238 0.312500
vt 0.381238 0.375000
vt 0.376201 0.375000
vt 0.393947 0.312500
vt 0.393947 0.375000
vt 0.381131 0.437500
vt 0.375973 0.437500
vt 0.393934 0.437500
vt 0.375000 0.250000
vt 0.376201 0.250000
vt 0.375000 0.312500
vt 0.381238 0.250000
vt 0.393947 0.250000
vt 0.393840 0.500000
vt 0.380378 0.500000
vt 0.373620 0.500000
vt 0.375000 0.437500
vt 0.375000 0.375000
vt 0.367021 0.562500
vt 0.378765 0.562500
vt 0.377797 0.625000
vt 0.363727 0.625000
vt 0.393638 0.562500
vt 0.393517 0.625000
vt 0.378765 0.687500
vt 0.367021 0.687500
vt 0.393638 0.687500
vt 0.393840 0.750000
vt 0.380378 0.750000
vt 0.373620 0.750000
vt 0.375868 0.062500
vt 0.378574 0.062500
vt 0.380386 0.125000
vt 0.376095 0.125000
vt 0.385862 0.062500
vt 0.391497 0.125000
vt 0.381132 0.187500
vt 0.376188 0.187500
vt 0.393641 0.187500
vt 0.375000 0.000000
vt 0.375562 0.000000
vt 0.375000 0.062500
vt 0.376124 0.000000
vt 0.376685 0.000000
vt 0.375000 0.187500
vt 0.375000 0.125000
vt 0.375959 0.812500
vt 0.381024 0.812500
vt 0.380386 0.875000
vt 0.376095 0.875000
vt 0.393628 0.812500
vt 0.391497 0.875000
vt 0.378574 0.937500
vt 0.375868 0.937500
vt 0.385862 0.937500
vt 0.375000 0.812500
vt 0.376685 1.000000
vt 0.376124 1.000000
vt 0.375562 1.000000
vt 0.375000 0.937500
vt 0.375000 1.000000
vt 0.375000 0.875000
s 1
usemtl Material.001
f 73/1/1 74/2/2 77/3/3 76/4/4
f 74/2/2 75/5/5 78/6/6 77/3/3
f 76/4/4 77/3/3 80/7/7 79/8/8
f 77/3/3 78/6/6 81/9/9 80/7/7
f 1/10/10 45/11/11 73/1/1 34/12/12
f 45/11/11 44/13/13 74/2/2 73/1/1
f 44/13/13 43/14/14 75/5/5 74/2/2
f 43/14/14 5/15/15 42/16/16 75/5/5
f 75/5/5 42/16/16 41/17/17 78/6/6
f 78/6/6 41/17/17 40/18/18 81/9/9
f 81/9/9 40/18/18 7/19/19 33/20/20
f 80/7/7 81/9/9 33/20/20 32/21/21
f 79/8/8 80/7/7 32/21/21 31/22/22
f 36/23/23 79/8/8 31/22/22 3/24/24
f 35/25/25 76/4/4 79/8/8 36/23/23
f 34/12/12 73/1/1 76/4/4 35/25/25
f 82/26/26 83/27/27 86/28/28 85/29/29
f 83/27/27 84/30/30 87/31/31 86/28/28
f 85/29/29 86/28/28 89/32/32 88/33/33
f 86/28/28 87/31/31 90/34/34 89/32/32
f 11/35/35 57/36/36 82/26/26 70/37/37
f 57/36/36 56/38/38 83/27/27 82/26/26
f 56/38/38 55/39/39 84/30/30 83/27/27
f 55/39/39 3/24/24 31/40/22 84/30/30
f 84/30/30 31/40/22 32/41/21 87/31/31
f 87/31/31 32/41/21 33/42/20 90/34/34
f 90/34/34 33/42/20 7/43/19 24/44/40
f 89/32/32 90/34/34 24/44/40 23/45/41
f 88/33/33 89/32/32 23/45/41 22/46/42
f 72/47/43 88/33/33 22/46/42 10/48/44
f 71/49/45 85/29/29 88/33/33 72/47/43
f 70/37/37 82/26/26 85/29/29 71/49/45
f 91/50/46 92/51/47 95/52/48 94/53/49
f 92/51/47 93/54/50 96/55/51 95/52/48
f 94/53/49 95/52/48 98/56/52 97/57/53
f 95/52/48 96/55/51 99/58/54 98/56/52
f 10/59/44 22/60/42 91/50/46 67/61/55
f 22/60/42 23/62/41 92/51/47 91/50/46
f 23/62/41 24/63/40 93/54/50 92/51/47
f 24/63/40 7/64/19 40/65/18 93/54/50
f 93/54/50 40/65/18 41/66/17 96/55/51
f 96/55/51 41/66/17 42/67/16 99/58/54
f 99/58/54 42/67/16 5/68/15 58/69/56
f 98/56/52 99/58/54 58/69/56 59/70/57
f 97/57/53 98/56/52 59/70/57 60/71/58
f 69/72/59 97/57/53 60/71/58 12/73/60
f 68/74/61 94/53/49 97/57/53 69/72/59
f 67/61/55 91/50/46 94/53/49 68/74/61
f 100/75/62 101/76/63 104/77/64 103/78/65
f 101/76/63 102/79/66 105/80/67 104/77/64
f 103/78/65 104/77/64 107/81/68 106/82/69
f 104/77/64 105/80/67 108/83/70 107/81/68
f 6/84/71 18/85/72 100/75/62 13/86/73
f 18/85/72 17/87/74 101/76/63 100/75/62
f 17/87/74 16/88/75 102/79/66 101/76/63
f 16/88/75 2/89/76 48/90/77 102/79/66
f 102/79/66 48/90/77 47/91/78 105/80/67
f 105/80/67 47/91/78 46/92/79 108/83/70
f 108/83/70 46/92/79 4/93/80 39/94/81
f 107/81/68 108/83/70 39/94/81 38/95/82
f 106/82/69 107/81/68 38/95/82 37/96/83
f 15/97/84 106/82/69 37/96/83 8/98/85
f 14/99/86 103/78/65 106/82/69 15/97/84
f 13/86/73 100/75/62 103/78/65 14/99/86
f 109/100/87 110/101/88 113/102/89 112/103/90
f 110/101/88 111/104/91 114/105/92 113/102/89
f 112/103/90 113/102/89 116/106/93 115/107/94
f 113/102/89 114/105/92 117/108/95 116/106/93
f 9/109/96 51/110/97 109/100/87 64/111/98
f 51/110/97 50/112/99 110/101/88 109/100/87
f 50/112/99 49/113/100 111/104/91 110/101/88
f 49/113/100 1/10/10 34/12/12 111/104/91
f 111/104/91 34/12/12 35/25/25 114/105/92
f 114/105/92 35/25/25 36/23/23 117/108/95
f 117/108/95 36/23/23 3/24/24 55/39/39
f 116/106/93 117/108/95 55/39/39 56/38/38
f 115/107/94 116/106/93 56/38/38 57/36/36
f 66/114/101 115/107/94 57/36/36 11/35/35
f 65/115/102 112/103/90 115/107/94 66/114/101
f 64/111/98 109/100/87 112/103/90 65/115/102
f 118/116/103 119/117/104 122/118/105 121/119/106
f 119/117/104 120/120/107 123/121/108 122/118/105
f 121/119/106 122/118/105 125/122/109 124/123/110
f 122/118/105 123/121/108 126/124/111 125/122/109
f 12/73/60 60/71/58 118/116/103 61/125/112
f 60/71/58 59/70/57 119/117/104 118/116/103
f 59/70/57 58/69/56 120/120/107 119/117/104
f 58/69/56 5/68/15 43/126/14 120/120/107
f 120/120/107 43/126/14 44/127/13 123/121/108
f 123/121/108 44/127/13 45/128/11 126/124/111
f 126/124/111 45/128/11 1/10/10 49/113/100
f 125/122/109 126/124/111 49/113/100 50/112/99
f 124/123/110 125/122/109 50/112/99 51/110/97
f 63/129/113 124/123/110 51/110/97 9/109/96
f 62/130/114 121/119/106 124/123/110 63/129/113
f 61/125/112 118/116/103 121/119/106 62/130/114
f 127/131/115 128/132/116 131/133/117 130/134/118
f 128/132/116 129/135/119 132/136/120 131/133/117
f 130/134/118 131/133/117 134/137/121 133/138/122
f 131/133/117 132/136/120 135/139/123 134/137/121
f 6/140/71 30/141/124 127/131/115 18/142/72
f 30/141/124 29/143/125 128/132/116 127/131/115
f 29/143/125 28/144/126 129/135/119 128/132/116
f 28/144/126 12/73/60 61/125/112 129/135/119
f 129/135/119 61/125/112 62/130/114 132/136/120
f 132/136/120 62/130/114 63/129/113 135/139/123
f 135/139/123 63/129/113 9/109/96 19/145/127
f 134/137/121 135/139/123 19/145/127 20/146/128
f 133/138/122 134/137/121 20/146/128 21/147/129
f 16/148/75 133/138/122 21/147/129 2/89/76
f 17/149/74 130/134/118 133/138/122 16/148/75
f 18/142/72 127/131/115 130/134/118 17/149/74
f 136/150/130 137/151/131 140/152/132 139/153/133
f 137/151/131 138/154/134 141/155/135 140/152/132
f 139/153/133 140/152/132 143/156/136 142/157/137
f 140/152/132 141/155/135 144/158/138 143/156/136
f 2/89/76 21/147/129 136/150/130 48/90/77
f 21/147/129 20/146/128 137/151/131 136/150/130
f 20/146/128 19/145/127 138/154/134 137/151/131
f 19/145/127 9/109/96 64/111/98 138/154/134
f 138/154/134 64/111/98 65/115/102 141/155/135
f 141/155/135 65/115/102 66/114/101 144/158/138
f 144/158/138 66/114/101 11/35/35 25/159/139
f 143/156/136 144/158/138 25/159/139 26/160/140
f 142/157/137 143/156/136 26/160/140 27/161/141
f 46/92/79 142/157/137 27/161/141 4/93/80
f 47/91/78 139/153/133 142/157/137 46/92/79
f 48/90/77 136/150/130 139/153/133 47/91/78
f 145/162/142 146/163/143 149/164/144 148/165/145
f 146/163/143 147/166/146 150/167/147 149/164/144
f 148/165/145 149/164/144 152/168/148 151/169/149
f 149/164/144 150/167/147 153/170/150 152/168/148
f 8/171/85 52/172/151 145/162/142 15/173/84
f 52/172/151 53/174/152 146/163/143 145/162/142
f 53/174/152 54/175/153 147/166/146 146/163/143
f 54/175/153 10/59/44 67/61/55 147/166/146
f 147/166/146 67/61/55 68/74/61 150/167/147
f 150/167/147 68/74/61 69/72/59 153/170/150
f 153/170/150 69/72/59 12/73/60 28/144/126
f 152/168/148 153/170/150 28/144/126 29/143/125
f 151/169/149 152/168/148 29/143/125 30/141/124
f 13/176/73 151/169/149 30/141/124 6/140/71
f 14/177/86 148/165/145 151/169/149 13/176/73
f 15/173/84 145/162/142 148/165/145 14/177/86
f 154/178/154 155/179/155 158/180/156 157/181/157
f 155/179/155 156/182/158 159/183/159 158/180/156
f 157/181/157 158/180/156 161/184/160 160/185/161
f 158/180/156 159/183/159 162/186/162 161/184/160
f 4/93/80 27/161/141 154/178/154 39/187/81
f 27/161/141 26/160/140 155/179/155 154/178/154
f 26/160/140 25/159/139 156/182/158 155/179/155
f 25/159/139 11/35/35 70/37/37 156/182/158
f 156/182/158 70/37/37 71/49/45 159/183/159
f 159/183/159 71/49/45 72/47/43 162/186/162
f 162/186/162 72/47/43 10/48/44 54/188/153
f 161/184/160 162/186/162 54/188/153 53/189/152
f 160/185/161 161/184/160 53/189/152 52/190/151
f 37/191/83 160/185/161 52/190/151 8/192/85
f 38/193/82 157/181/157 160/185/161 37/191/83
f 39/187/81 154/178/154 157/181/157 38/193/82
o Cube.001
v -2.019435 2.042276 3.572042
v -2.019435 1.183721 3.572042
v -2.019435 2.042276 4.244128
v -2.019435 1.183721 4.244129
v -2.749460 2.042276 3.572042
v -2.749460 1.183721 3.572042
v -2.749460 2.042276 4.244128
v -2.749460 1.183721 4.244129
v -1.897765 1.522266 3.460028
v -2.871130 1.522266 4.356142
v -1.897765 1.522266 4.356142
v -2.871130 1.522266 3.460028
v -2.802702 1.170790 3.708711
v -2.829447 1.164294 3.908086
v -2.802702 1.170789 4.107460
v -2.167886 1.170789 3.523026
v -2.384448 1.164294 3.498403
v -2.601010 1.170790 3.523026
v -1.900370 1.393052 3.462426
v -1.918607 1.292666 3.479216
v -1.963587 1.222313 3.520627
v -2.868526 1.674710 4.353744
v -2.850288 1.828821 4.336955
v -2.805307 1.959949 4.295544
v -1.900370 1.393052 4.353744
v -1.918607 1.292666 4.336955
v -1.963587 1.222313 4.295544
v -2.868526 1.393052 3.462427
v -2.850288 1.292666 3.479216
v -2.805307 1.222313 3.520627
v -2.167886 2.071089 4.293146
v -2.384448 2.085562 4.317768
v -2.601010 2.071089 4.293146
v -1.966193 2.071089 3.708711
v -1.939449 2.085562 3.908085
v -1.966193 2.071089 4.107460
v -2.601010 1.170790 4.293146
v -2.384448 1.164294 4.317768
v -2.167886 1.170789 4.293146
v -2.802702 2.071089 4.107460
v -2.829447 2.085562 3.908085
v -2.802702 2.071089 3.708711
v -2.601010 2.071089 3.523025
v -2.384448 2.085562 3.498403
v -2.167886 2.071089 3.523025
v -1.966193 1.170789 4.107460
v -1.939449 1.164294 3.908086
v -1.966193 1.170790 3.708711
v -1.963587 1.959949 3.520627
v -1.918607 1.828821 3.479216
v -1.900370 1.674710 3.462426
v -2.805307 1.222313 4.295544
v -2.850288 1.292666 4.336955
v -2.868526 1.393052 4.353744
v -1.963587 1.959949 4.295544
v -1.918607 1.828821 4.336955
v -1.900370 1.674710 4.353744
v -2.805307 1.959949 3.520627
v -2.850288 1.828821 3.479216
v -2.868526 1.674710 3.462426
v -2.650602 1.522266 3.334012
v -2.384448 1.522266 3.292007
v -2.118292 1.522266 3.334012
v -1.760885 1.522266 3.663054
v -1.715258 1.522266 3.908086
v -1.760885 1.522266 4.153117
v -3.008010 1.522266 4.153117
v -3.053636 1.522266 3.908086
v -3.008010 1.522266 3.663054
v -2.118292 1.522266 4.482159
v -2.384448 1.522266 4.524164
v -2.650602 1.522266 4.482159
v -2.153645 2.132741 3.695601
v -2.384448 2.153616 3.684187
v -2.615250 2.132741 3.695601
v -2.141247 2.153616 3.908085
v -2.384448 2.176402 3.908085
v -2.627648 2.153616 3.908085
v -2.153645 2.132741 4.120570
v -2.384448 2.153616 4.131984
v -2.615250 2.132741 4.120570
v -2.119727 1.674977 4.479120
v -2.129770 1.830955 4.457850
v -2.152210 1.967922 4.401068
v -2.384448 1.675243 4.520923
v -2.384448 1.833089 4.498235
v -2.384448 1.974899 4.436782
v -2.649168 1.674977 4.479120
v -2.639126 1.830955 4.457850
v -2.616685 1.967922 4.401068
v -3.004709 1.674977 4.151795
v -2.981606 1.830955 4.142550
v -2.919928 1.967922 4.121890
v -3.050116 1.675243 3.908086
v -3.025471 1.833089 3.908085
v -2.958722 1.974899 3.908085
v -3.004709 1.674977 3.664375
v -2.981606 1.830955 3.673620
v -2.919928 1.967922 3.694279
v -2.615250 1.143120 3.695601
v -2.384448 1.133751 3.684187
v -2.153645 1.143120 3.695601
v -2.627648 1.133751 3.908086
v -2.384448 1.123524 3.908086
v -2.141247 1.133751 3.908086
v -2.615250 1.143120 4.120570
v -2.384448 1.133751 4.131984
v -2.153645 1.143120 4.120570
v -1.764185 1.674977 3.664375
v -1.787290 1.830955 3.673620
v -1.848967 1.967922 3.694279
v -1.718779 1.675243 3.908086
v -1.743424 1.833089 3.908085
v -1.810173 1.974899 3.908085
v -1.764185 1.674977 4.151795
v -1.787290 1.830955 4.142550
v -1.848967 1.967922 4.121890
v -2.649168 1.674977 3.337051
v -2.639126 1.830955 3.358321
v -2.616685 1.967922 3.415103
v -2.384448 1.675243 3.295247
v -2.384448 1.833089 3.317936
v -2.384448 1.974899 3.379389
v -2.119727 1.674977 3.337051
v -2.129770 1.830955 3.358321
v -2.152210 1.967922 3.415103
v -2.616685 1.218734 3.415103
v -2.639126 1.291708 3.358321
v -2.649168 1.392932 3.337051
v -2.384448 1.215603 3.379389
v -2.384448 1.290751 3.317936
v -2.384448 1.392812 3.295247
v -2.152210 1.218734 3.415103
v -2.129770 1.291708 3.358321
v -2.119727 1.392932 3.337051
v -1.848967 1.218734 3.694280
v -1.787290 1.291708 3.673620
v -1.764185 1.392932 3.664375
v -1.810173 1.215603 3.908086
v -1.743424 1.290751 3.908086
v -1.718779 1.392812 3.908086
v -1.848967 1.218734 4.121890
v -1.787290 1.291708 4.142550
v -1.764185 1.392932 4.151795
v -2.919928 1.218734 4.121890
v -2.981606 1.291708 4.142550
v -3.004709 1.392932 4.151795
v -2.958722 1.215603 3.908086
v -3.025471 1.290751 3.908086
v -3.050116 1.392812 3.908086
v -2.919928 1.218734 3.694280
v -2.981606 1.291708 3.673620
v -3.004709 1.392932 3.664375
v -2.152210 1.218734 4.401068
v -2.129770 1.291708 4.457850
v -2.119727 1.392932 4.479120
v -2.384448 1.215603 4.436782
v -2.384448 1.290751 4.498235
v -2.384448 1.392812 4.520923
v -2.616685 1.218734 4.401068
v -2.639126 1.291708 4.457850
v -2.649168 1.392932 4.479120
vn 0.2057 0.9527 -0.2235
vn -0.0000 0.9735 -0.2288
vn -0.0000 1.0000 -0.0000
vn 0.2115 0.9774 -0.0000
vn -0.2057 0.9527 -0.2235
vn -0.2115 0.9774 -0.0000
vn -0.0000 0.9735 0.2288
vn 0.2057 0.9527 0.2235
vn -0.2057 0.9527 0.2235
vn 0.4263 0.7771 -0.4630
vn 0.2232 0.8241 -0.5205
vn 0.4872 0.8378 -0.2465
vn -0.0000 0.8435 -0.5371
vn -0.2232 0.8241 -0.5205
vn -0.4263 0.7771 -0.4630
vn -0.4872 0.8378 -0.2465
vn -0.5057 0.8627 -0.0000
vn -0.4872 0.8378 0.2465
vn -0.4263 0.7771 0.4630
vn -0.2232 0.8241 0.5205
vn -0.0000 0.8435 0.5371
vn 0.2232 0.8241 0.5205
vn 0.4872 0.8378 0.2465
vn 0.4263 0.7771 0.4630
vn 0.5057 0.8627 -0.0000
vn 0.3294 0.0847 0.9404
vn 0.3194 0.2725 0.9076
vn -0.0000 0.2686 0.9632
vn -0.0000 0.0822 0.9966
vn 0.2778 0.5525 0.7859
vn -0.0000 0.5626 0.8267
vn -0.3194 0.2726 0.9076
vn -0.3294 0.0847 0.9404
vn -0.2779 0.5525 0.7858
vn 0.6773 -0.0021 0.7357
vn 0.6746 0.0893 0.7327
vn 0.3300 -0.0020 0.9440
vn 0.6498 0.2823 0.7058
vn 0.5662 0.5487 0.6150
vn -0.5662 0.5487 0.6150
vn -0.6497 0.2824 0.7058
vn -0.6746 0.0893 0.7327
vn -0.3300 -0.0020 0.9440
vn -0.6773 -0.0021 0.7357
vn -0.0000 -0.0019 1.0000
vn -0.9204 0.0901 0.3804
vn -0.8843 0.2884 0.3672
vn -0.9571 0.2899 -0.0000
vn -0.9960 0.0888 -0.0000
vn -0.7544 0.5761 0.3146
vn -0.8042 0.5944 -0.0000
vn -0.8843 0.2884 -0.3672
vn -0.9204 0.0901 -0.3804
vn -0.7544 0.5761 -0.3146
vn -0.9245 -0.0021 0.3812
vn -0.5662 0.5487 -0.6150
vn -0.6498 0.2823 -0.7058
vn -0.6746 0.0889 -0.7328
vn -0.9245 -0.0021 -0.3812
vn -0.6773 -0.0021 -0.7357
vn -1.0000 -0.0021 -0.0000
vn -0.0974 -0.9896 -0.1059
vn -0.0000 -0.9944 -0.1060
vn -0.0000 -1.0000 -0.0000
vn -0.0980 -0.9952 -0.0000
vn 0.0973 -0.9896 -0.1058
vn 0.0980 -0.9952 -0.0000
vn -0.0000 -0.9944 0.1060
vn -0.0973 -0.9896 0.1058
vn 0.0973 -0.9896 0.1058
vn -0.2415 -0.9343 -0.2623
vn -0.1228 -0.9498 -0.2878
vn -0.2662 -0.9545 -0.1340
vn -0.0000 -0.9567 -0.2911
vn 0.1227 -0.9498 -0.2878
vn 0.2415 -0.9343 -0.2623
vn 0.2662 -0.9545 -0.1340
vn 0.2698 -0.9629 -0.0000
vn 0.2662 -0.9545 0.1340
vn 0.2415 -0.9343 0.2623
vn 0.1228 -0.9498 0.2878
vn -0.0000 -0.9567 0.2911
vn -0.1228 -0.9498 0.2878
vn -0.2662 -0.9545 0.1340
vn -0.2415 -0.9343 0.2623
vn -0.2698 -0.9629 -0.0000
vn 0.9204 0.0901 -0.3804
vn 0.8843 0.2884 -0.3672
vn 0.9571 0.2899 -0.0000
vn 0.9960 0.0888 -0.0000
vn 0.7544 0.5761 -0.3146
vn 0.8042 0.5944 -0.0000
vn 0.8843 0.2884 0.3672
vn 0.9204 0.0901 0.3804
vn 0.7544 0.5761 0.3146
vn 0.6773 -0.0021 -0.7357
vn 0.6746 0.0893 -0.7327
vn 0.9245 -0.0021 -0.3812
vn 0.6498 0.2823 -0.7058
vn 0.5662 0.5487 -0.6150
vn 0.9245 -0.0021 0.3812
vn 1.0000 -0.0021 -0.0000
vn -0.3294 0.0847 -0.9404
vn -0.3194 0.2726 -0.9076
vn -0.0000 0.2686 -0.9632
vn -0.0000 0.0822 -0.9966
vn -0.2778 0.5525 -0.7859
vn -0.0000 0.5626 -0.8267
vn 0.3194 0.2726 -0.9076
vn 0.3294 0.0847 -0.9404
vn 0.2779 0.5525 -0.7858
vn -0.3300 -0.0020 -0.9440
vn 0.3300 -0.0020 -0.9440
vn -0.0000 -0.0019 -1.0000
vn -0.2097 -0.7756 -0.5953
vn -0.2993 -0.4242 -0.8547
vn -0.0000 -0.4197 -0.9077
vn -0.0000 -0.7808 -0.6247
vn -0.3282 -0.1238 -0.9365
vn -0.0000 -0.1205 -0.9927
vn 0.2993 -0.4242 -0.8547
vn 0.2097 -0.7756 -0.5953
vn 0.3282 -0.1238 -0.9365
vn -0.4279 -0.7752 -0.4648
vn -0.6095 -0.4361 -0.6621
vn -0.6716 -0.1300 -0.7294
vn 0.6716 -0.1300 -0.7295
vn 0.6095 -0.4361 -0.6621
vn 0.4279 -0.7752 -0.4648
vn 0.5612 -0.7941 -0.2333
vn 0.8272 -0.4459 -0.3419
vn 0.8936 -0.4489 -0.0000
vn 0.5931 -0.8051 -0.0000
vn 0.9161 -0.1315 -0.3788
vn 0.9914 -0.1307 -0.0000
vn 0.8272 -0.4459 0.3419
vn 0.5612 -0.7941 0.2333
vn 0.9161 -0.1315 0.3788
vn 0.6716 -0.1300 0.7295
vn 0.6095 -0.4361 0.6621
vn 0.4279 -0.7752 0.4648
vn -0.5612 -0.7941 0.2333
vn -0.8272 -0.4459 0.3419
vn -0.8936 -0.4488 -0.0000
vn -0.5931 -0.8051 -0.0000
vn -0.9161 -0.1315 0.3788
vn -0.9914 -0.1307 -0.0000
vn -0.8272 -0.4459 -0.3419
vn -0.5612 -0.7941 -0.2333
vn -0.9161 -0.1315 -0.3788
vn -0.4279 -0.7751 0.4648
vn -0.6095 -0.4361 0.6621
vn -0.6716 -0.1300 0.7295
vn 0.2097 -0.7756 0.5953
vn 0.2993 -0.4242 0.8547
vn -0.0000 -0.4197 0.9077
vn -0.0000 -0.7808 0.6247
vn 0.3282 -0.1238 0.9365
vn -0.0000 -0.1205 0.9927
vn -0.2993 -0.4242 0.8547
vn -0.2097 -0.7756 0.5953
vn -0.3282 -0.1238 0.9365
vt 0.687581 0.562500
vt 0.750021 0.562500
vt 0.750031 0.625000
vt 0.687613 0.625000
vt 0.812503 0.562500
vt 0.812504 0.625000
vt 0.750021 0.687500
vt 0.687581 0.687500
vt 0.812503 0.687500
vt 0.625000 0.500000
vt 0.687500 0.500000
vt 0.625258 0.562500
vt 0.750000 0.500000
vt 0.812500 0.500000
vt 0.875000 0.500000
vt 0.875000 0.562500
vt 0.875000 0.625000
vt 0.875000 0.687500
vt 0.875000 0.750000
vt 0.812500 0.750000
vt 0.750000 0.750000
vt 0.687500 0.750000
vt 0.625258 0.687500
vt 0.625000 0.750000
vt 0.625312 0.625000
vt 0.456141 0.812500
vt 0.506133 0.812500
vt 0.505386 0.875000
vt 0.453997 0.875000
vt 0.563690 0.812500
vt 0.563595 0.875000
vt 0.503574 0.937500
vt 0.448362 0.937500
vt 0.563368 0.937500
vt 0.418165 0.750000
vt 0.456448 0.750000
vt 0.417739 0.812500
vt 0.506246 0.750000
vt 0.563725 0.750000
vt 0.625000 0.812500
vt 0.625000 0.875000
vt 0.625000 0.937500
vt 0.625000 1.000000
vt 0.563062 1.000000
vt 0.501124 1.000000
vt 0.439185 1.000000
vt 0.405804 0.937500
vt 0.377247 1.000000
vt 0.414755 0.875000
vt 0.448362 0.062500
vt 0.503574 0.062500
vt 0.505386 0.125000
vt 0.453997 0.125000
vt 0.563368 0.062500
vt 0.563595 0.125000
vt 0.506132 0.187500
vt 0.456141 0.187500
vt 0.563688 0.187500
vt 0.377247 0.000000
vt 0.439185 0.000000
vt 0.405804 0.062500
vt 0.501124 0.000000
vt 0.563062 0.000000
vt 0.625000 0.000000
vt 0.625000 0.062500
vt 0.625000 0.125000
vt 0.625000 0.187500
vt 0.625000 0.250000
vt 0.563701 0.250000
vt 0.506238 0.250000
vt 0.456447 0.250000
vt 0.417739 0.187500
vt 0.418165 0.250000
vt 0.414755 0.125000
vt 0.187204 0.562500
vt 0.247634 0.562500
vt 0.246559 0.625000
vt 0.187070 0.625000
vt 0.303548 0.562500
vt 0.300026 0.625000
vt 0.247634 0.687500
vt 0.187204 0.687500
vt 0.303548 0.687500
vt 0.125000 0.500000
vt 0.187500 0.500000
vt 0.125000 0.562500
vt 0.250000 0.500000
vt 0.312500 0.500000
vt 0.375000 0.500000
vt 0.346558 0.562500
vt 0.340590 0.625000
vt 0.346558 0.687500
vt 0.375000 0.750000
vt 0.312500 0.750000
vt 0.250000 0.750000
vt 0.187500 0.750000
vt 0.125000 0.687500
vt 0.125000 0.750000
vt 0.125000 0.625000
vt 0.456450 0.562500
vt 0.506261 0.562500
vt 0.506269 0.625000
vt 0.456451 0.625000
vt 0.563784 0.562500
vt 0.563814 0.625000
vt 0.506261 0.687500
vt 0.456450 0.687500
vt 0.563784 0.687500
vt 0.418165 0.500000
vt 0.456448 0.500000
vt 0.418165 0.562500
vt 0.506246 0.500000
vt 0.563725 0.500000
vt 0.418165 0.687500
vt 0.418165 0.625000
vt 0.456447 0.312500
vt 0.506238 0.312500
vt 0.506238 0.375000
vt 0.456447 0.375000
vt 0.563701 0.312500
vt 0.563701 0.375000
vt 0.506239 0.437500
vt 0.456448 0.437500
vt 0.563703 0.437500
vt 0.418165 0.312500
vt 0.625000 0.312500
vt 0.625000 0.375000
vt 0.625000 0.437500
vt 0.418165 0.437500
vt 0.418165 0.375000
vt 0.376201 0.312500
vt 0.381238 0.312500
vt 0.381238 0.375000
vt 0.376201 0.375000
vt 0.393947 0.312500
vt 0.393947 0.375000
vt 0.381131 0.437500
vt 0.375973 0.437500
vt 0.393934 0.437500
vt 0.375000 0.250000
vt 0.376201 0.250000
vt 0.375000 0.312500
vt 0.381238 0.250000
vt 0.393947 0.250000
vt 0.393840 0.500000
vt 0.380378 0.500000
vt 0.373620 0.500000
vt 0.375000 0.437500
vt 0.375000 0.375000
vt 0.367021 0.562500
vt 0.378765 0.562500
vt 0.377797 0.625000
vt 0.363727 0.625000
vt 0.393638 0.562500
vt 0.393517 0.625000
vt 0.378765 0.687500
vt 0.367021 0.687500
vt 0.393638 0.687500
vt 0.393840 0.750000
vt 0.380378 0.750000
vt 0.373620 0.750000
vt 0.375868 0.062500
vt 0.378574 0.062500
vt 0.380386 0.125000
vt 0.376095 0.125000
vt 0.385862 0.062500
vt 0.391497 0.125000
vt 0.381132 0.187500
vt 0.376188 0.187500
vt 0.393641 0.187500
vt 0.375000 0.000000
vt 0.375562 0.000000
vt 0.375000 0.062500
vt 0.376124 0.000000
vt 0.376685 0.000000
vt 0.375000 0.187500
vt 0.375000 0.125000
vt 0.375959 0.812500
vt 0.381024 0.812500
vt 0.380386 0.875000
vt 0.376095 0.875000
vt 0.393628 0.812500
vt 0.391497 0.875000
vt 0.378574 0.937500
vt 0.375868 0.937500
vt 0.385862 0.937500
vt 0.375000 0.812500
vt 0.376685 1.000000
vt 0.376124 1.000000
vt 0.375562 1.000000
vt 0.375000 0.937500
vt 0.375000 1.000000
vt 0.375000 0.875000
s 1
usemtl Material.001
f 235/194/163 236/195/164 239/196/165 238/197/166
f 236/195/164 237/198/167 240/199/168 239/196/165
f 238/197/166 239/196/165 242/200/169 241/201/170
f 239/196/165 240/199/168 243/202/171 242/200/169
f 163/203/172 207/204/173 235/194/163 196/205/174
f 207/204/173 206/206/175 236/195/164 235/194/163
f 206/206/175 205/207/176 237/198/167 236/195/164
f 205/207/176 167/208/177 204/209/178 237/198/167
f 237/198/167 204/209/178 203/210/179 240/199/168
f 240/199/168 203/210/179 202/211/180 243/202/171
f 243/202/171 202/211/180 169/212/181 195/213/182
f 242/200/169 243/202/171 195/213/182 194/214/183
f 241/201/170 242/200/169 194/214/183 193/215/184
f 198/216/185 241/201/170 193/215/184 165/217/186
f 197/218/187 238/197/166 241/201/170 198/216/185
f 196/205/174 235/194/163 238/197/166 197/218/187
f 244/219/188 245/220/189 248/221/190 247/222/191
f 245/220/189 246/223/192 249/224/193 248/221/190
f 247/222/191 248/221/190 251/225/194 250/226/195
f 248/221/190 249/224/193 252/227/196 251/225/194
f 173/228/197 219/229/198 244/219/188 232/230/199
f 219/229/198 218/231/200 245/220/189 244/219/188
f 218/231/200 217/232/201 246/223/192 245/220/189
f 217/232/201 165/217/186 193/233/184 246/223/192
f 246/223/192 193/233/184 194/234/183 249/224/193
f 249/224/193 194/234/183 195/235/182 252/227/196
f 252/227/196 195/235/182 169/236/181 186/237/202
f 251/225/194 252/227/196 186/237/202 185/238/203
f 250/226/195 251/225/194 185/238/203 184/239/204
f 234/240/205 250/226/195 184/239/204 172/241/206
f 233/242/207 247/222/191 250/226/195 234/240/205
f 232/230/199 244/219/188 247/222/191 233/242/207
f 253/243/208 254/244/209 257/245/210 256/246/211
f 254/244/209 255/247/212 258/248/213 257/245/210
f 256/246/211 257/245/210 260/249/214 259/250/215
f 257/245/210 258/248/213 261/251/216 260/249/214
f 172/252/206 184/253/204 253/243/208 229/254/217
f 184/253/204 185/255/203 254/244/209 253/243/208
f 185/255/203 186/256/202 255/247/212 254/244/209
f 186/256/202 169/257/181 202/258/180 255/247/212
f 255/247/212 202/258/180 203/259/179 258/248/213
f 258/248/213 203/259/179 204/260/178 261/251/216
f 261/251/216 204/260/178 167/261/177 220/262/218
f 260/249/214 261/251/216 220/262/218 221/263/219
f 259/250/215 260/249/214 221/263/219 222/264/220
f 231/265/221 259/250/215 222/264/220 174/266/222
f 230/267/223 256/246/211 259/250/215 231/265/221
f 229/254/217 253/243/208 256/246/211 230/267/223
f 262/268/224 263/269/225 266/270/226 265/271/227
f 263/269/225 264/272/228 267/273/229 266/270/226
f 265/271/227 266/270/226 269/274/230 268/275/231
f 266/270/226 267/273/229 270/276/232 269/274/230
f 168/277/233 180/278/234 262/268/224 175/279/235
f 180/278/234 179/280/236 263/269/225 262/268/224
f 179/280/236 178/281/237 264/272/228 263/269/225
f 178/281/237 164/282/238 210/283/239 264/272/228
f 264/272/228 210/283/239 209/284/240 267/273/229
f 267/273/229 209/284/240 208/285/241 270/276/232
f 270/276/232 208/285/241 166/286/242 201/287/243
f 269/274/230 270/276/232 201/287/243 200/288/244
f 268/275/231 269/274/230 200/288/244 199/289/245
f 177/290/246 268/275/231 199/289/245 170/291/247
f 176/292/248 265/271/227 268/275/231 177/290/246
f 175/279/235 262/268/224 265/271/227 176/292/248
f 271/293/249 272/294/250 275/295/251 274/296/252
f 272/294/250 273/297/253 276/298/254 275/295/251
f 274/296/252 275/295/251 278/299/255 277/300/256
f 275/295/251 276/298/254 279/301/257 278/299/255
f 171/302/258 213/303/259 271/293/249 226/304/260
f 213/303/259 212/305/261 272/294/250 271/293/249
f 212/305/261 211/306/262 273/297/253 272/294/250
f 211/306/262 163/203/172 196/205/174 273/297/253
f 273/297/253 196/205/174 197/218/187 276/298/254
f 276/298/254 197/218/187 198/216/185 279/301/257
f 279/301/257 198/216/185 165/217/186 217/232/201
f 278/299/255 279/301/257 217/232/201 218/231/200
f 277/300/256 278/299/255 218/231/200 219/229/198
f 228/307/263 277/300/256 219/229/198 173/228/197
f 227/308/264 274/296/252 277/300/256 228/307/263
f 226/304/260 271/293/249 274/296/252 227/308/264
f 280/309/265 281/310/266 284/311/267 283/312/268
f 281/310/266 282/313/269 285/314/270 284/311/267
f 283/312/268 284/311/267 287/315/271 286/316/272
f 284/311/267 285/314/270 288/317/273 287/315/271
f 174/266/222 222/264/220 280/309/265 223/318/274
f 222/264/220 221/263/219 281/310/266 280/309/265
f 221/263/219 220/262/218 282/313/269 281/310/266
f 220/262/218 167/261/177 205/319/176 282/313/269
f 282/313/269 205/319/176 206/320/175 285/314/270
f 285/314/270 206/320/175 207/321/173 288/317/273
f 288/317/273 207/321/173 163/203/172 211/306/262
f 287/315/271 288/317/273 211/306/262 212/305/261
f 286/316/272 287/315/271 212/305/261 213/303/259
f 225/322/275 286/316/272 213/303/259 171/302/258
f 224/323/276 283/312/268 286/316/272 225/322/275
f 223/318/274 280/309/265 283/312/268 224/323/276
f 289/324/277 290/325/278 293/326/279 292/327/280
f 290/325/278 291/328/281 294/329/282 293/326/279
f 292/327/280 293/326/279 296/330/283 295/331/284
f 293/326/279 294/329/282 297/332/285 296/330/283
f 168/333/233 192/334/286 289/324/277 180/335/234
f 192/334/286 191/336/287 290/325/278 289/324/277
f 191/336/287 190/337/288 291/328/281 290/325/278
f 190/337/288 174/266/222 223/318/274 291/328/281
f 291/328/281 223/318/274 224/323/276 294/329/282
f 294/329/282 224/323/276 225/322/275 297/332/285
f 297/332/285 225/322/275 171/302/258 181/338/289
f 296/330/283 297/332/285 181/338/289 182/339/290
f 295/331/284 296/330/283 182/339/290 183/340/291
f 178/341/237 295/331/284 183/340/291 164/282/238
f 179/342/236 292/327/280 295/331/284 178/341/237
f 180/335/234 289/324/277 292/327/280 179/342/236
f 298/343/292 299/344/293 302/345/294 301/346/295
f 299/344/293 300/347/296 303/348/297 302/345/294
f 301/346/295 302/345/294 305/349/298 304/350/299
f 302/345/294 303/348/297 306/351/300 305/349/298
f 164/282/238 183/340/291 298/343/292 210/283/239
f 183/340/291 182/339/290 299/344/293 298/343/292
f 182/339/290 181/338/289 300/347/296 299/344/293
f 181/338/289 171/302/258 226/304/260 300/347/296
f 300/347/296 226/304/260 227/308/264 303/348/297
f 303/348/297 227/308/264 228/307/263 306/351/300
f 306/351/300 228/307/263 173/228/197 187/352/301
f 305/349/298 306/351/300 187/352/301 188/353/302
f 304/350/299 305/349/298 188/353/302 189/354/303
f 208/285/241 304/350/299 189/354/303 166/286/242
f 209/284/240 301/346/295 304/350/299 208/285/241
f 210/283/239 298/343/292 301/346/295 209/284/240
f 307/355/304 308/356/305 311/357/306 310/358/307
f 308/356/305 309/359/308 312/360/309 311/357/306
f 310/358/307 311/357/306 314/361/310 313/362/311
f 311/357/306 312/360/309 315/363/312 314/361/310
f 170/364/247 214/365/313 307/355/304 177/366/246
f 214/365/313 215/367/314 308/356/305 307/355/304
f 215/367/314 216/368/315 309/359/308 308/356/305
f 216/368/315 172/252/206 229/254/217 309/359/308
f 309/359/308 229/254/217 230/267/223 312/360/309
f 312/360/309 230/267/223 231/265/221 315/363/312
f 315/363/312 231/265/221 174/266/222 190/337/288
f 314/361/310 315/363/312 190/337/288 191/336/287
f 313/362/311 314/361/310 191/336/287 192/334/286
f 175/369/235 313/362/311 192/334/286 168/333/233
f 176/370/248 310/358/307 313/362/311 175/369/235
f 177/366/246 307/355/304 310/358/307 176/370/248
f 316/371/316 317/372/317 320/373/318 319/374/319
f 317/372/317 318/375/320 321/376/321 320/373/318
f 319/374/319 320/373/318 323/377/322 322/378/323
f 320/373/318 321/376/321 324/379/324 323/377/322
f 166/286/242 189/354/303 316/371/316 201/380/243
f 189/354/303 188/353/302 317/372/317 316/371/316
f 188/353/302 187/352/301 318/375/320 317/372/317
f 187/352/301 173/228/197 232/230/199 318/375/320
f 318/375/320 232/230/199 233/242/207 321/376/321
f 321/376/321 233/242/207 234/240/205 324/379/324
f 324/379/324 234/240/205 172/241/206 216/381/315
f 323/377/322 324/379/324 216/381/315 215/382/314
f 322/378/323 323/377/322 215/382/314 214/383/313
f 199/384/245 322/378/323 214/383/313 170/385/247
f 200/386/244 319/374/319 322/378/323 199/384/245
f 201/380/243 316/371/316 319/374/319 200/386/244
o Cube.002
v -3.339514 2.042276 3.572042
v -3.339514 1.183721 3.572042
v -3.339514 2.042276 4.244128
v -3.339514 1.183721 4.244129
v -4.069539 2.042276 3.572042
v -4.069539 1.183721 3.572042
v -4.069539 2.042276 4.244128
v -4.069539 1.183721 4.244129
v -3.217844 1.522266 3.460028
v -4.191209 1.522266 4.356142
v -3.217844 1.522266 4.356142
v -4.191209 1.522266 3.460028
v -4.122781 1.170790 3.708711
v -4.149526 1.164294 3.908086
v -4.122781 1.170789 4.107460
v -3.487965 1.170789 3.523026
v -3.704527 1.164294 3.498403
v -3.921089 1.170790 3.523026
v -3.220449 1.393052 3.462426
v -3.238686 1.292666 3.479216
v -3.283666 1.222313 3.520627
v -4.188604 1.674710 4.353744
v -4.170367 1.828821 4.336955
v -4.125386 1.959949 4.295544
v -3.220449 1.393052 4.353744
v -3.238686 1.292666 4.336955
v -3.283666 1.222313 4.295544
v -4.188604 1.393052 3.462427
v -4.170367 1.292666 3.479216
v -4.125386 1.222313 3.520627
v -3.487965 2.071089 4.293146
v -3.704527 2.085562 4.317768
v -3.921089 2.071089 4.293146
v -3.286272 2.071089 3.708711
v -3.259528 2.085562 3.908085
v -3.286272 2.071089 4.107460
v -3.921089 1.170790 4.293146
v -3.704527 1.164294 4.317768
v -3.487965 1.170789 4.293146
v -4.122781 2.071089 4.107460
v -4.149526 2.085562 3.908085
v -4.122781 2.071089 3.708711
v -3.921089 2.071089 3.523025
v -3.704527 2.085562 3.498403
v -3.487965 2.071089 3.523025
v -3.286272 1.170789 4.107460
v -3.259528 1.164294 3.908086
v -3.286272 1.170790 3.708711
v -3.283666 1.959949 3.520627
v -3.238686 1.828821 3.479216
v -3.220449 1.674710 3.462426
v -4.125386 1.222313 4.295544
v -4.170367 1.292666 4.336955
v -4.188604 1.393052 4.353744
v -3.283666 1.959949 4.295544
v -3.238686 1.828821 4.336955
v -3.220449 1.674710 4.353744
v -4.125386 1.959949 3.520627
v -4.170367 1.828821 3.479216
v -4.188604 1.674710 3.462426
v -3.970681 1.522266 3.334012
v -3.704527 1.522266 3.292007
v -3.438371 1.522266 3.334012
v -3.080964 1.522266 3.663054
v -3.035337 1.522266 3.908086
v -3.080964 1.522266 4.153117
v -4.328090 1.522266 4.153117
v -4.373715 1.522266 3.908086
v -4.328090 1.522266 3.663054
v -3.438371 1.522266 4.482159
v -3.704527 1.522266 4.524164
v -3.970681 1.522266 4.482159
v -3.473724 2.132741 3.695601
v -3.704527 2.153616 3.684187
v -3.935329 2.132741 3.695601
v -3.461326 2.153616 3.908085
v -3.704527 2.176402 3.908085
v -3.947727 2.153616 3.908085
v -3.473724 2.132741 4.120570
v -3.704527 2.153616 4.131984
v -3.935329 2.132741 4.120570
v -3.439806 1.674977 4.479120
v -3.449849 1.830955 4.457850
v -3.472290 1.967922 4.401068
v -3.704527 1.675243 4.520923
v -3.704527 1.833089 4.498235
v -3.704527 1.974899 4.436782
v -3.969247 1.674977 4.479120
v -3.959205 1.830955 4.457850
v -3.936764 1.967922 4.401068
v -4.324788 1.674977 4.151795
v -4.301684 1.830955 4.142550
v -4.240007 1.967922 4.121890
v -4.370195 1.675243 3.908086
v -4.345551 1.833089 3.908085
v -4.278801 1.974899 3.908085
v -4.324788 1.674977 3.664375
v -4.301684 1.830955 3.673620
v -4.240007 1.967922 3.694279
v -3.935329 1.143120 3.695601
v -3.704527 1.133751 3.684187
v -3.473724 1.143120 3.695601
v -3.947727 1.133751 3.908086
v -3.704527 1.123524 3.908086
v -3.461326 1.133751 3.908086
v -3.935329 1.143120 4.120570
v -3.704527 1.133751 4.131984
v -3.473724 1.143120 4.120570
v -3.084264 1.674977 3.664375
v -3.107369 1.830955 3.673620
v -3.169046 1.967922 3.694279
v -3.038858 1.675243 3.908086
v -3.063503 1.833089 3.908085
v -3.130252 1.974899 3.908085
v -3.084264 1.674977 4.151795
v -3.107369 1.830955 4.142550
v -3.169046 1.967922 4.121890
v -3.969247 1.674977 3.337051
v -3.959205 1.830955 3.358321
v -3.936764 1.967922 3.415103
v -3.704527 1.675243 3.295247
v -3.704527 1.833089 3.317936
v -3.704527 1.974899 3.379389
v -3.439806 1.674977 3.337051
v -3.449849 1.830955 3.358321
v -3.472290 1.967922 3.415103
v -3.936764 1.218734 3.415103
v -3.959205 1.291708 3.358321
v -3.969247 1.392932 3.337051
v -3.704527 1.215603 3.379389
v -3.704527 1.290751 3.317936
v -3.704527 1.392812 3.295247
v -3.472290 1.218734 3.415103
v -3.449849 1.291708 3.358321
v -3.439806 1.392932 3.337051
v -3.169046 1.218734 3.694280
v -3.107369 1.291708 3.673620
v -3.084264 1.392932 3.664375
v -3.130252 1.215603 3.908086
v -3.063503 1.290751 3.908086
v -3.038858 1.392812 3.908086
v -3.169046 1.218734 4.121890
v -3.107369 1.291708 4.142550
v -3.084264 1.392932 4.151795
v -4.240007 1.218734 4.121890
v -4.301684 1.291708 4.142550
v -4.324788 1.392932 4.151795
v -4.278801 1.215603 3.908086
v -4.345551 1.290751 3.908086
v -4.370195 1.392812 3.908086
v -4.240007 1.218734 3.694280
v -4.301684 1.291708 3.673620
v -4.324788 1.392932 3.664375
v -3.472290 1.218734 4.401068
v -3.449849 1.291708 4.457850
v -3.439806 1.392932 4.479120
v -3.704527 1.215603 4.436782
v -3.704527 1.290751 4.498235
v -3.704527 1.392812 4.520923
v -3.936764 1.218734 4.401068
v -3.959205 1.291708 4.457850
v -3.969247 1.392932 4.479120
vn 0.2057 0.9527 -0.2235
vn -0.0000 0.9735 -0.2288
vn -0.0000 1.0000 -0.0000
vn 0.2115 0.9774 -0.0000
vn -0.2057 0.9527 -0.2235
vn -0.2115 0.9774 -0.0000
vn -0.0000 0.9735 0.2288
vn 0.2057 0.9527 0.2235
vn -0.2057 0.9527 0.2235
vn 0.4263 0.7771 -0.4630
vn 0.2232 0.8241 -0.5205
vn 0.4872 0.8378 -0.2465
vn -0.0000 0.8435 -0.5371
vn -0.2232 0.8241 -0.5205
vn -0.4263 0.7771 -0.4630
vn -0.4872 0.8378 -0.2465
vn -0.5057 0.8627 -0.0000
vn -0.4872 0.8378 0.2465
vn -0.4263 0.7771 0.4630
vn -0.2232 0.8241 0.5205
vn -0.0000 0.8435 0.5371
vn 0.2232 0.8241 0.5205
vn 0.4872 0.8378 0.2465
vn 0.4263 0.7771 0.4630
vn 0.5057 0.8627 -0.0000
vn 0.3294 0.0847 0.9404
vn 0.3194 0.2725 0.9076
vn -0.0000 0.2686 0.9632
vn -0.0000 0.0822 0.9966
vn 0.2778 0.5525 0.7859
vn -0.0000 0.5626 0.8267
vn -0.3194 0.2726 0.9076
vn -0.3294 0.0847 0.9404
vn -0.2779 0.5525 0.7858
vn 0.6773 -0.0021 0.7357
vn 0.6746 0.0893 0.7327
vn 0.3300 -0.0020 0.9440
vn 0.6498 0.2823 0.7058
vn 0.5662 0.5487 0.6150
vn -0.5662 0.5487 0.6150
vn -0.6497 0.2824 0.7058
vn -0.6746 0.0893 0.7327
vn -0.3300 -0.0020 0.9440
vn -0.6773 -0.0021 0.7357
vn -0.0000 -0.0019 1.0000
vn -0.9204 0.0901 0.3804
vn -0.8843 0.2884 0.3672
vn -0.9571 0.2899 -0.0000
vn -0.9960 0.0888 -0.0000
vn -0.7544 0.5761 0.3146
vn -0.8042 0.5944 -0.0000
vn -0.8843 0.2884 -0.3672
vn -0.9204 0.0901 -0.3804
vn -0.7544 0.5761 -0.3146
vn -0.9245 -0.0021 0.3812
vn -0.5662 0.5487 -0.6150
vn -0.6498 0.2823 -0.7058
vn -0.6746 0.0889 -0.7328
vn -0.9245 -0.0021 -0.3812
vn -0.6773 -0.0021 -0.7357
vn -1.0000 -0.0021 -0.0000
vn -0.0974 -0.9896 -0.1059
vn -0.0000 -0.9944 -0.1060
vn -0.0000 -1.0000 -0.0000
vn -0.0980 -0.9952 -0.0000
vn 0.0973 -0.9896 -0.1058
vn 0.0980 -0.9952 -0.0000
vn -0.0000 -0.9944 0.1060
vn -0.0973 -0.9896 0.1058
vn 0.0973 -0.9896 0.1058
vn -0.2415 -0.9343 -0.2623
vn -0.1228 -0.9498 -0.2878
vn -0.2662 -0.9545 -0.1340
vn -0.0000 -0.9567 -0.2911
vn 0.1227 -0.9498 -0.2878
vn 0.2415 -0.9343 -0.2623
vn 0.2662 -0.9545 -0.1340
vn 0.2698 -0.9629 -0.0000
vn 0.2662 -0.9545 0.1340
vn 0.2415 -0.9343 0.2623
vn 0.1228 -0.9498 0.2878
vn -0.0000 -0.9567 0.2911
vn -0.1228 -0.9498 0.2878
vn -0.2662 -0.9545 0.1340
vn -0.2415 -0.9343 0.2623
vn -0.2698 -0.9629 -0.0000
vn 0.9204 0.0901 -0.3804
vn 0.8843 0.2884 -0.3672
vn 0.9571 0.2899 -0.0000
vn 0.9960 0.0888 -0.0000
vn 0.7544 0.5761 -0.3146
vn 0.8042 0.5944 -0.0000
vn 0.8843 0.2884 0.3672
vn 0.9204 0.0901 0.3804
vn 0.7544 0.5761 0.3146
vn 0.6773 -0.0021 -0.7357
vn 0.6746 0.0893 -0.7327
vn 0.9245 -0.0021 -0.3812
vn 0.6498 0.2823 -0.7058
vn 0.5662 0.5487 -0.6150
vn 0.9245 -0.0021 0.3812
vn 1.0000 -0.0021 -0.0000
vn -0.3294 0.0847 -0.9404
vn -0.3194 0.2726 -0.9076
vn -0.0000 0.2686 -0.9632
vn -0.0000 0.0822 -0.9966
vn -0.2778 0.5525 -0.7859
vn -0.0000 0.5626 -0.8267
vn 0.3194 0.2726 -0.9076
vn 0.3294 0.0847 -0.9404
vn 0.2779 0.5525 -0.7858
vn -0.3300 -0.0020 -0.9440
vn 0.3300 -0.0020 -0.9440
vn -0.0000 -0.0019 -1.0000
vn -0.2097 -0.7756 -0.5953
vn -0.2993 -0.4242 -0.8547
vn -0.0000 -0.4197 -0.9077
vn -0.0000 -0.7808 -0.6247
vn -0.3282 -0.1238 -0.9365
vn -0.0000 -0.1205 -0.9927
vn 0.2993 -0.4242 -0.8547
vn 0.2097 -0.7756 -0.5953
vn 0.3282 -0.1238 -0.9365
vn -0.4279 -0.7752 -0.4648
vn -0.6095 -0.4361 -0.6621
vn -0.6716 -0.1300 -0.7294
vn 0.6716 -0.1300 -0.7295
vn 0.6095 -0.4361 -0.6621
vn 0.4279 -0.7752 -0.4648
vn 0.5612 -0.7941 -0.2333
vn 0.8272 -0.4459 -0.3419
vn 0.8936 -0.4489 -0.0000
vn 0.5931 -0.8051 -0.0000
vn 0.9161 -0.1315 -0.3788
vn 0.9914 -0.1307 -0.0000
vn 0.8272 -0.4459 0.3419
vn 0.5612 -0.7941 0.2333
vn 0.9161 -0.1315 0.3788
vn 0.6716 -0.1300 0.7295
vn 0.6095 -0.4361 0.6621
vn 0.4279 -0.7752 0.4648
vn -0.5612 -0.7941 0.2333
vn -0.8272 -0.4459 0.3419
vn -0.8936 -0.4488 -0.0000
vn -0.5931 -0.8051 -0.0000
vn -0.9161 -0.1315 0.3788
vn -0.9914 -0.1307 -0.0000
vn -0.8272 -0.4459 -0.3419
vn -0.5612 -0.7941 -0.2333
vn -0.9161 -0.1315 -0.3788
vn -0.4279 -0.7751 0.4648
vn -0.6095 -0.4361 0.6621
vn -0.6716 -0.1300 0.7295
vn 0.2097 -0.7756 0.5953
vn 0.2993 -0.4242 0.8547
vn -0.0000 -0.4197 0.9077
vn -0.0000 -0.7808 0.6247
vn 0.3282 -0.1238 0.9365
vn -0.0000 -0.1205 0.9927
vn -0.2993 -0.4242 0.8547
vn -0.2097 -0.7756 0.5953
vn -0.3282 -0.1238 0.9365
vt 0.687581 0.562500
vt 0.750021 0.562500
vt 0.750031 0.625000
vt 0.687613 0.625000
vt 0.812503 0.562500
vt 0.812504 0.625000
vt 0.750021 0.687500
vt 0.687581 0.687500
vt 0.812503 0.687500
vt 0.625000 0.500000
vt 0.687500 0.500000
vt 0.625258 0.562500
vt 0.750000 0.500000
vt 0.812500 0.500000
vt 0.875000 0.500000
vt 0.875000 0.562500
vt 0.875000 0.625000
vt 0.875000 0.687500
vt 0.875000 0.750000
vt 0.812500 0.750000
vt 0.750000 0.750000
vt 0.687500 0.750000
vt 0.625258 0.687500
vt 0.625000 0.750000
vt 0.625312 0.625000
vt 0.456141 0.812500
vt 0.506133 0.812500
vt 0.505386 0.875000
vt 0.453997 0.875000
vt 0.563690 0.812500
vt 0.563595 0.875000
vt 0.503574 0.937500
vt 0.448362 0.937500
vt 0.563368 0.937500
vt 0.418165 0.750000
vt 0.456448 0.750000
vt 0.417739 0.812500
vt 0.506246 0.750000
vt 0.563725 0.750000
vt 0.625000 0.812500
vt 0.625000 0.875000
vt 0.625000 0.937500
vt 0.625000 1.000000
vt 0.563062 1.000000
vt 0.501124 1.000000
vt 0.439185 1.000000
vt 0.405804 0.937500
vt 0.377247 1.000000
vt 0.414755 0.875000
vt 0.448362 0.062500
vt 0.503574 0.062500
vt 0.505386 0.125000
vt 0.453997 0.125000
vt 0.563368 0.062500
vt 0.563595 0.125000
vt 0.506132 0.187500
vt 0.456141 0.187500
vt 0.563688 0.187500
vt 0.377247 0.000000
vt 0.439185 0.000000
vt 0.405804 0.062500
vt 0.501124 0.000000
vt 0.563062 0.000000
vt 0.625000 0.000000
vt 0.625000 0.062500
vt 0.625000 0.125000
vt 0.625000 0.187500
vt 0.625000 0.250000
vt 0.563701 0.250000
vt 0.506238 0.250000
vt 0.456447 0.250000
vt 0.417739 0.187500
vt 0.418165 0.250000
vt 0.414755 0.125000
vt 0.187204 0.562500
vt 0.247634 0.562500
vt 0.246559 0.625000
vt 0.187070 0.625000
vt 0.303548 0.562500
vt 0.300026 0.625000
vt 0.247634 0.687500
vt 0.187204 0.687500
vt 0.303548 0.687500
vt 0.125000 0.500000
vt 0.187500 0.500000
vt 0.125000 0.562500
vt 0.250000 0.500000
vt 0.312500 0.500000
vt 0.375000 0.500000
vt 0.346558 0.562500
vt 0.340590 0.625000
vt 0.346558 0.687500
vt 0.375000 0.750000
vt 0.312500 0.750000
vt 0.250000 0.750000
vt 0.187500 0.750000
vt 0.125000 0.687500
vt 0.125000 0.750000
vt 0.125000 0.625000
vt 0.456450 0.562500
vt 0.506261 0.562500
vt 0.506269 0.625000
vt 0.456451 0.625000
vt 0.563784 0.562500
vt 0.563814 0.625000
vt 0.506261 0.687500
vt 0.456450 0.687500
vt 0.563784 0.687500
vt 0.418165 0.500000
vt 0.456448 0.500000
vt 0.418165 0.562500
vt 0.506246 0.500000
vt 0.563725 0.500000
vt 0.418165 0.687500
vt 0.418165 0.625000
vt 0.456447 0.312500
vt 0.506238 0.312500
vt 0.506238 0.375000
vt 0.456447 0.375000
vt 0.563701 0.312500
vt 0.563701 0.375000
vt 0.506239 0.437500
vt 0.456448 0.437500
vt 0.563703 0.437500
vt 0.418165 0.312500
vt 0.625000 0.312500
vt 0.625000 0.375000
vt 0.625000 0.437500
vt 0.418165 0.437500
vt 0.418165 0.375000
vt 0.376201 0.312500
vt 0.381238 0.312500
vt 0.381238 0.375000
vt 0.376201 0.375000
vt 0.393947 0.312500
vt 0.393947 0.375000
vt 0.381131 0.437500
vt 0.375973 0.437500
vt 0.393934 0.437500
vt 0.375000 0.250000
vt 0.376201 0.250000
vt 0.375000 0.312500
vt 0.381238 0.250000
vt 0.393947 0.250000
vt 0.393840 0.500000
vt 0.380378 0.500000
vt 0.373620 0.500000
vt 0.375000 0.437500
vt 0.375000 0.375000
vt 0.367021 0.562500
vt 0.378765 0.562500
vt 0.377797 0.625000
vt 0.363727 0.625000
vt 0.393638 0.562500
vt 0.393517 0.625000
vt 0.378765 0.687500
vt 0.367021 0.687500
vt 0.393638 0.687500
vt 0.393840 0.750000
vt 0.380378 0.750000
vt 0.373620 0.750000
vt 0.375868 0.062500
vt 0.378574 0.062500
vt 0.380386 0.125000
vt 0.376095 0.125000
vt 0.385862 0.062500
vt 0.391497 0.125000
vt 0.381132 0.187500
vt 0.376188 0.187500
vt 0.393641 0.187500
vt 0.375000 0.000000
vt 0.375562 0.000000
vt 0.375000 0.062500
vt 0.376124 0.000000
vt 0.376685 0.000000
vt 0.375000 0.187500
vt 0.375000 0.125000
vt 0.375959 0.812500
vt 0.381024 0.812500
vt 0.380386 0.875000
vt 0.376095 0.875000
vt 0.393628 0.812500
vt 0.391497 0.875000
vt 0.378574 0.937500
vt 0.375868 0.937500
vt 0.385862 0.937500
vt 0.375000 0.812500
vt 0.376685 1.000000
vt 0.376124 1.000000
vt 0.375562 1.000000
vt 0.375000 0.937500
vt 0.375000 1.000000
vt 0.375000 0.875000
s 1
usemtl Material.001
f 397/387/325 398/388/326 401/389/327 400/390/328
f 398/388/326 399/391/329 402/392/330 401/389/327
f 400/390/328 401/389/327 404/393/331 403/394/332
f 401/389/327 402/392/330 405/395/333 404/393/331
f 325/396/334 369/397/335 397/387/325 358/398/336
f 369/397/335 368/399/337 398/388/326 397/387/325
f 368/399/337 367/400/338 399/391/329 398/388/326
f 367/400/338 329/401/339 366/402/340 399/391/329
f 399/391/329 366/402/340 365/403/341 402/392/330
f 402/392/330 365/403/341 364/404/342 405/395/333
f 405/395/333 364/404/342 331/405/343 357/406/344
f 404/393/331 405/395/333 357/406/344 356/407/345
f 403/394/332 404/393/331 356/407/345 355/408/346
f 360/409/347 403/394/332 355/408/346 327/410/348
f 359/411/349 400/390/328 403/394/332 360/409/347
f 358/398/336 397/387/325 400/390/328 359/411/349
f 406/412/350 407/413/351 410/414/352 409/415/353
f 407/413/351 408/416/354 411/417/355 410/414/352
f 409/415/353 410/414/352 413/418/356 412/419/357
f 410/414/352 411/417/355 414/420/358 413/418/356
f 335/421/359 381/422/360 406/412/350 394/423/361
f 381/422/360 380/424/362 407/413/351 406/412/350
f 380/424/362 379/425/363 408/416/354 407/413/351
f 379/425/363 327/410/348 355/426/346 408/416/354
f 408/416/354 355/426/346 356/427/345 411/417/355
f 411/417/355 356/427/345 357/428/344 414/420/358
f 414/420/358 357/428/344 331/429/343 348/430/364
f 413/418/356 414/420/358 348/430/364 347/431/365
f 412/419/357 413/418/356 347/431/365 346/432/366
f 396/433/367 412/419/357 346/432/366 334/434/368
f 395/435/369 409/415/353 412/419/357 396/433/367
f 394/423/361 406/412/350 409/415/353 395/435/369
f 415/436/370 416/437/371 419/438/372 418/439/373
f 416/437/371 417/440/374 420/441/375 419/438/372
f 418/439/373 419/438/372 422/442/376 421/443/377
f 419/438/372 420/441/375 423/444/378 422/442/376
f 334/445/368 346/446/366 415/436/370 391/447/379
f 346/446/366 347/448/365 416/437/371 415/436/370
f 347/448/365 348/449/364 417/440/374 416/437/371
f 348/449/364 331/450/343 364/451/342 417/440/374
f 417/440/374 364/451/342 365/452/341 420/441/375
f 420/441/375 365/452/341 366/453/340 423/444/378
f 423/444/378 366/453/340 329/454/339 382/455/380
f 422/442/376 423/444/378 382/455/380 383/456/381
f 421/443/377 422/442/376 383/456/381 384/457/382
f 393/458/383 421/443/377 384/457/382 336/459/384
f 392/460/385 418/439/373 421/443/377 393/458/383
f 391/447/379 415/436/370 418/439/373 392/460/385
f 424/461/386 425/462/387 428/463/388 427/464/389
f 425/462/387 426/465/390 429/466/391 428/463/388
f 427/464/389 428/463/388 431/467/392 430/468/393
f 428/463/388 429/466/391 432/469/394 431/467/392
f 330/470/395 342/471/396 424/461/386 337/472/397
f 342/471/396 341/473/398 425/462/387 424/461/386
f 341/473/398 340/474/399 426/465/390 425/462/387
f 340/474/399 326/475/400 372/476/401 426/465/390
f 426/465/390 372/476/401 371/477/402 429/466/391
f 429/466/391 371/477/402 370/478/403 432/469/394
f 432/469/394 370/478/403 328/479/404 363/480/405
f 431/467/392 432/469/394 363/480/405 362/481/406
f 430/468/393 431/467/392 362/481/406 361/482/407
f 339/483/408 430/468/393 361/482/407 332/484/409
f 338/485/410 427/464/389 430/468/393 339/483/408
f 337/472/397 424/461/386 427/464/389 338/485/410
f 433/486/411 434/487/412 437/488/413 436/489/414
f 434/487/412 435/490/415 438/491/416 437/488/413
f 436/489/414 437/488/413 440/492/417 439/493/418
f 437/488/413 438/491/416 441/494/419 440/492/417
f 333/495/420 375/496/421 433/486/411 388/497/422
f 375/496/421 374/498/423 434/487/412 433/486/411
f 374/498/423 373/499/424 435/490/415 434/487/412
f 373/499/424 325/396/334 358/398/336 435/490/415
f 435/490/415 358/398/336 359/411/349 438/491/416
f 438/491/416 359/411/349 360/409/347 441/494/419
f 441/494/419 360/409/347 327/410/348 379/425/363
f 440/492/417 441/494/419 379/425/363 380/424/362
f 439/493/418 440/492/417 380/424/362 381/422/360
f 390/500/425 439/493/418 381/422/360 335/421/359
f 389/501/426 436/489/414 439/493/418 390/500/425
f 388/497/422 433/486/411 436/489/414 389/501/426
f 442/502/427 443/503/428 446/504/429 445/505/430
f 443/503/428 444/506/431 447/507/432 446/504/429
f 445/505/430 446/504/429 449/508/433 448/509/434
f 446/504/429 447/507/432 450/510/435 449/508/433
f 336/459/384 384/457/382 442/502/427 385/511/436
f 384/457/382 383/456/381 443/503/428 442/502/427
f 383/456/381 382/455/380 444/506/431 443/503/428
f 382/455/380 329/454/339 367/512/338 444/506/431
f 444/506/431 367/512/338 368/513/337 447/507/432
f 447/507/432 368/513/337 369/514/335 450/510/435
f 450/510/435 369/514/335 325/396/334 373/499/424
f 449/508/433 450/510/435 373/499/424 374/498/423
f 448/509/434 449/508/433 374/498/423 375/496/421
f 387/515/437 448/509/434 375/496/421 333/495/420
f 386/516/438 445/505/430 448/509/434 387/515/437
f 385/511/436 442/502/427 445/505/430 386/516/438
f 451/517/439 452/518/440 455/519/441 454/520/442
f 452/518/440 453/521/443 456/522/444 455/519/441
f 454/520/442 455/519/441 458/523/445 457/524/446
f 455/519/441 456/522/444 459/525/447 458/523/445
f 330/526/395 354/527/448 451/517/439 342/528/396
f 354/527/448 353/529/449 452/518/440 451/517/439
f 353/529/449 352/530/450 453/521/443 452/518/440
f 352/530/450 336/459/384 385/511/436 453/521/443
f 453/521/443 385/511/436 386/516/438 456/522/444
f 456/522/444 386/516/438 387/515/437 459/525/447
f 459/525/447 387/515/437 333/495/420 343/531/451
f 458/523/445 459/525/447 343/531/451 344/532/452
f 457/524/446 458/523/445 344/532/452 345/533/453
f 340/534/399 457/524/446 345/533/453 326/475/400
f 341/535/398 454/520/442 457/524/446 340/534/399
f 342/528/396 451/517/439 454/520/442 341/535/398
f 460/536/454 461/537/455 464/538/456 463/539/457
f 461/537/455 462/540/458 465/541/459 464/538/456
f 463/539/457 464/538/456 467/542/460 466/543/461
f 464/538/456 465/541/459 468/544/462 467/542/460
f 326/475/400 345/533/453 460/536/454 372/476/401
f 345/533/453 344/532/452 461/537/455 460/536/454
f 344/532/452 343/531/451 462/540/458 461/537/455
f 343/531/451 333/495/420 388/497/422 462/540/458
f 462/540/458 388/497/422 389/501/426 465/541/459
f 465/541/459 389/501/426 390/500/425 468/544/462
f 468/544/462 390/500/425 335/421/359 349/545/463
f 467/542/460 468/544/462 349/545/463 350/546/464
f 466/543/461 467/542/460 350/546/464 351/547/465
f 370/478/403 466/543/461 351/547/465 328/479/404
f 371/477/402 463/539/457 466/543/461 370/478/403
f 372/476/401 460/536/454 463/539/457 371/477/402
f 469/548/466 470/549/467 473/550/468 472/551/469
f 470/549/467 471/552/470 474/553/471 473/550/468
f 472/551/469 473/550/468 476/554/472 475/555/473
f 473/550/468 474/553/471 477/556/474 476/554/472
f 332/557/409 376/558/475 469/548/466 339/559/408
f 376/558/475 377/560/476 470/549/467 469/548/466
f 377/560/476 378/561/477 471/552/470 470/549/467
f 378/561/477 334/445/368 391/447/379 471/552/470
f 471/552/470 391/447/379 392/460/385 474/553/471
f 474/553/471 392/460/385 393/458/383 477/556/474
f 477/556/474 393/458/383 336/459/384 352/530/450
f 476/554/472 477/556/474 352/530/450 353/529/449
f 475/555/473 476/554/472 353/529/449 354/527/448
f 337/562/397 475/555/473 354/527/448 330/526/395
f 338/563/410 472/551/469 475/555/473 337/562/397
f 339/559/408 469/548/466 472/551/469 338/563/410
f 478/564/478 479/565/479 482/566/480 481/567/481
f 479/565/479 480/568/482 483/569/483 482/566/480
f 481/567/481 482/566/480 485/570/484 484/571/485
f 482/566/480 483/569/483 486/572/486 485/570/484
f 328/479/404 351/547/465 478/564/478 363/573/405
f 351/547/465 350/546/464 479/565/479 478/564/478
f 350/546/464 349/545/463 480/568/482 479/565/479
f 349/545/463 335/421/359 394/423/361 480/568/482
f 480/568/482 394/423/361 395/435/369 483/569/483
f 483/569/483 395/435/369 396/433/367 486/572/486
f 486/572/486 396/433/367 334/434/368 378/574/477
f 485/570/484 486/572/486 378/574/477 377/575/476
f 484/571/485 485/570/484 377/575/476 376/576/475
f 361/577/407 484/571/485 376/576/475 332/578/409
f 362/579/406 481/567/481 484/571/485 361/577/407
f 363/573/405 478/564/478 481/567/481 362/579/406
