# Blender 4.2.1 LTS
# www.blender.org
mtllib peaks_apple.mtl
o Cono
v -1.149399 2.489685 -0.456070
v -1.060424 2.489685 -0.447307
v -0.974868 2.489685 -0.421354
v -0.896020 2.489685 -0.379209
v -0.826908 2.489685 -0.322491
v -0.770190 2.489685 -0.253379
v -0.728045 2.489685 -0.174531
v -0.702092 2.489685 -0.088975
v -0.693328 2.489685 -0.000000
v -0.702092 2.489685 0.088975
v -0.728045 2.489685 0.174531
v -0.770190 2.489685 0.253379
v -0.826908 2.489685 0.322491
v -0.896020 2.489685 0.379209
v -0.974868 2.489685 0.421354
v -1.060424 2.489685 0.447307
v -1.149399 2.489685 0.456070
v -1.238374 2.489685 0.447307
v -1.323929 2.489685 0.421354
v -1.402778 2.489685 0.379209
v -1.471889 2.489685 0.322491
v -1.528607 2.489685 0.253379
v -1.570753 2.489685 0.174531
v -1.596706 2.489685 0.088975
v -1.605469 2.489685 -0.000000
v -1.596706 2.489685 -0.088975
v -1.570753 2.489685 -0.174531
v -1.528607 2.489685 -0.253379
v -1.471889 2.489685 -0.322491
v -1.402778 2.489685 -0.379209
v -1.323929 2.489685 -0.421354
v -1.238374 2.489685 -0.447307
v -1.149399 5.485373 0.000000
vn 0.0969 0.1498 -0.9840
vn 0.2870 0.1498 -0.9461
vn 0.4661 0.1498 -0.8720
vn 0.6272 0.1498 -0.7643
vn 0.7643 0.1498 -0.6272
vn 0.8720 0.1498 -0.4661
vn 0.9461 0.1498 -0.2870
vn 0.9840 0.1498 -0.0969
vn 0.9840 0.1498 0.0969
vn 0.9461 0.1498 0.2870
vn 0.8720 0.1498 0.4661
vn 0.7643 0.1498 0.6272
vn 0.6272 0.1498 0.7643
vn 0.4661 0.1498 0.8720
vn 0.2870 0.1498 0.9461
vn 0.0969 0.1498 0.9840
vn -0.0969 0.1498 0.9840
vn -0.2870 0.1498 0.9461
vn -0.4661 0.1498 0.8720
vn -0.6272 0.1498 0.7643
vn -0.7643 0.1498 0.6272
vn -0.8720 0.1498 0.4661
vn -0.9461 0.1498 0.2870
vn -0.9840 0.1498 0.0969
vn -0.9840 0.1498 -0.0969
vn -0.9461 0.1498 -0.2870
vn -0.8720 0.1498 -0.4661
vn -0.7643 0.1498 -0.6272
vn -0.6272 0.1498 -0.7643
vn -0.4661 0.1498 -0.8720
vn -0.0000 -1.0000 -0.0000
vn -0.2870 0.1498 -0.9461
vn -0.0969 0.1498 -0.9840
vt 0.250000 0.490000
vt 0.250000 0.250000
vt 0.296822 0.485388
vt 0.341844 0.471731
vt 0.383337 0.449553
vt 0.419706 0.419706
vt 0.449553 0.383337
vt 0.471731 0.341844
vt 0.485388 0.296822
vt 0.490000 0.250000
vt 0.485388 0.203178
vt 0.471731 0.158156
vt 0.449553 0.116663
vt 0.419706 0.080294
vt 0.383337 0.050447
vt 0.341844 0.028269
vt 0.296822 0.014612
vt 0.250000 0.010000
vt 0.203178 0.014612
vt 0.158156 0.028269
vt 0.116663 0.050447
vt 0.080294 0.080294
vt 0.050447 0.116663
vt 0.028269 0.158156
vt 0.014612 0.203178
vt 0.010000 0.250000
vt 0.014612 0.296822
vt 0.028269 0.341844
vt 0.050447 0.383337
vt 0.080294 0.419706
vt 0.116663 0.449553
vt 0.158156 0.471731
vt 0.750000 0.490000
vt 0.796822 0.485388
vt 0.841844 0.471731
vt 0.883337 0.449553
vt 0.919706 0.419706
vt 0.949553 0.383337
vt 0.971731 0.341844
vt 0.985388 0.296822
vt 0.990000 0.250000
vt 0.985388 0.203178
vt 0.971731 0.158156
vt 0.949553 0.116663
vt 0.919706 0.080294
vt 0.883337 0.050447
vt 0.841844 0.028269
vt 0.796822 0.014612
vt 0.750000 0.010000
vt 0.703178 0.014612
vt 0.658156 0.028269
vt 0.616663 0.050447
vt 0.580294 0.080294
vt 0.550447 0.116663
vt 0.528269 0.158156
vt 0.514612 0.203178
vt 0.510000 0.250000
vt 0.514612 0.296822
vt 0.528269 0.341844
vt 0.550447 0.383337
vt 0.580294 0.419706
vt 0.616663 0.449553
vt 0.658156 0.471731
vt 0.703178 0.485388
vt 0.203178 0.485388
s 0
usemtl Material.001
f 1/1/1 33/2/1 2/3/1
f 2/3/2 33/2/2 3/4/2
f 3/4/3 33/2/3 4/5/3
f 4/5/4 33/2/4 5/6/4
f 5/6/5 33/2/5 6/7/5
f 6/7/6 33/2/6 7/8/6
f 7/8/7 33/2/7 8/9/7
f 8/9/8 33/2/8 9/10/8
f 9/10/9 33/2/9 10/11/9
f 10/11/10 33/2/10 11/12/10
f 11/12/11 33/2/11 12/13/11
f 12/13/12 33/2/12 13/14/12
f 13/14/13 33/2/13 14/15/13
f 14/15/14 33/2/14 15/16/14
f 15/16/15 33/2/15 16/17/15
f 16/17/16 33/2/16 17/18/16
f 17/18/17 33/2/17 18/19/17
f 18/19/18 33/2/18 19/20/18
f 19/20/19 33/2/19 20/21/19
f 20/21/20 33/2/20 21/22/20
f 21/22/21 33/2/21 22/23/21
f 22/23/22 33/2/22 23/24/22
f 23/24/23 33/2/23 24/25/23
f 24/25/24 33/2/24 25/26/24
f 25/26/25 33/2/25 26/27/25
f 26/27/26 33/2/26 27/28/26
f 27/28/27 33/2/27 28/29/27
f 28/29/28 33/2/28 29/30/28
f 29/30/29 33/2/29 30/31/29
f 30/31/30 33/2/30 31/32/30
f 1/33/31 2/34/31 3/35/31 4/36/31 5/37/31 6/38/31 7/39/31 8/40/31 9/41/31 10/42/31 11/43/31 12/44/31 13/45/31 14/46/31 15/47/31 16/48/31 17/49/31 18/50/31 19/51/31 20/52/31 21/53/31 22/54/31 23/55/31 24/56/31 25/57/31 26/58/31 27/59/31 28/60/31 29/61/31 30/62/31 31/63/31 32/64/31
f 31/32/32 33/2/32 32/65/32
f 32/65/33 33/2/33 1/1/33
o Cono.002
v -0.719008 1.804253 0.327245
v -0.752376 1.822285 0.259876
v -0.775249 1.831142 0.186559
v -0.786750 1.830483 0.110110
v -0.786436 1.820334 0.033468
v -0.774319 1.801085 -0.040422
v -0.750865 1.773475 -0.108721
v -0.716975 1.738566 -0.168803
v -0.673951 1.697698 -0.218361
v -0.623447 1.652443 -0.255489
v -0.567404 1.604540 -0.278760
v -0.507976 1.555829 -0.287281
v -0.447445 1.508183 -0.280723
v -0.388139 1.463432 -0.259340
v -0.357455 1.408297 -0.222216
v -0.322209 1.354899 -0.165542
v -0.298473 1.311084 -0.101032
v -0.281113 1.261636 -0.016742
v -0.265299 1.256084 0.051622
v -0.245451 1.246969 0.138172
v -0.237367 1.261366 0.214788
v -0.226031 1.257412 0.283045
v -0.268083 1.310324 0.357221
v -0.285145 1.365430 0.408797
v -0.325319 1.458615 0.480877
v -0.345050 1.481188 0.486242
v -0.391206 1.562516 0.488917
v -0.450635 1.611227 0.497437
v -0.511165 1.658874 0.490880
v -0.570471 1.703624 0.469496
v -0.626274 1.743760 0.434108
v -0.676428 1.777738 0.386076
v 1.333306 4.178163 0.117510
vn -0.6429 0.5981 0.4785
vn -0.7058 0.6428 0.2978
vn -0.7382 0.6663 0.1053
vn -0.7389 0.6676 -0.0914
vn -0.7079 0.6465 -0.2845
vn -0.6464 0.6041 -0.4662
vn -0.5571 0.5420 -0.6292
vn -0.4438 0.4631 -0.7672
vn -0.3114 0.3705 -0.8751
vn -0.1650 0.2680 -0.9492
vn -0.0106 0.1598 -0.9871
vn 0.1462 0.0498 -0.9880
vn 0.2997 -0.0579 -0.9523
vn 0.5476 -0.2358 -0.8028
vn 0.6481 -0.3103 -0.6955
vn 0.7497 -0.3857 -0.5378
vn 0.8038 -0.4258 -0.4154
vn 0.8549 -0.4624 -0.2353
vn 0.8530 -0.4612 -0.2442
vn 0.8804 -0.4742 -0.0038
vn 0.8651 -0.4716 -0.1710
vn 0.6963 -0.3358 0.6343
vn 0.7139 -0.3478 0.6078
vn 0.6293 -0.2873 0.7221
vn 0.2427 -0.0184 0.9699
vn 0.1410 0.0475 0.9889
vn 0.1662 0.0304 0.9856
vn 0.0052 0.1429 0.9897
vn -0.1530 0.2536 0.9551
vn -0.3024 0.3583 0.8833
vn -0.7230 -0.6847 0.0919
vn -0.4372 0.4530 0.7770
vn -0.5522 0.5340 0.6403
vt 0.250000 0.490000
vt 0.250000 0.250000
vt 0.296822 0.485388
vt 0.341844 0.471731
vt 0.383337 0.449553
vt 0.419706 0.419706
vt 0.449553 0.383337
vt 0.471731 0.341844
vt 0.485388 0.296822
vt 0.490000 0.250000
vt 0.485388 0.203178
vt 0.471731 0.158156
vt 0.449553 0.116663
vt 0.419706 0.080294
vt 0.383337 0.050447
vt 0.341844 0.028269
vt 0.296822 0.014612
vt 0.250000 0.010000
vt 0.203178 0.014612
vt 0.158156 0.028269
vt 0.116663 0.050447
vt 0.080294 0.080294
vt 0.050447 0.116663
vt 0.028269 0.158156
vt 0.014612 0.203178
vt 0.010000 0.250000
vt 0.014612 0.296822
vt 0.028269 0.341844
vt 0.050447 0.383337
vt 0.080294 0.419706
vt 0.116663 0.449553
vt 0.158156 0.471731
vt 0.750000 0.490000
vt 0.796822 0.485388
vt 0.841844 0.471731
vt 0.883337 0.449553
vt 0.919706 0.419706
vt 0.949553 0.383337
vt 0.971731 0.341844
vt 0.985388 0.296822
vt 0.990000 0.250000
vt 0.985388 0.203178
vt 0.971731 0.158156
vt 0.949553 0.116663
vt 0.919706 0.080294
vt 0.883337 0.050447
vt 0.841844 0.028269
vt 0.796822 0.014612
vt 0.750000 0.010000
vt 0.703178 0.014612
vt 0.658156 0.028269
vt 0.616663 0.050447
vt 0.580294 0.080294
vt 0.550447 0.116663
vt 0.528269 0.158156
vt 0.514612 0.203178
vt 0.510000 0.250000
vt 0.514612 0.296822
vt 0.528269 0.341844
vt 0.550447 0.383337
vt 0.580294 0.419706
vt 0.616663 0.449553
vt 0.658156 0.471731
vt 0.703178 0.485388
vt 0.203178 0.485388
s 0
usemtl Material.001
f 34/66/34 66/67/34 35/68/34
f 35/68/35 66/67/35 36/69/35
f 36/69/36 66/67/36 37/70/36
f 37/70/37 66/67/37 38/71/37
f 38/71/38 66/67/38 39/72/38
f 39/72/39 66/67/39 40/73/39
f 40/73/40 66/67/40 41/74/40
f 41/74/41 66/67/41 42/75/41
f 42/75/42 66/67/42 43/76/42
f 43/76/43 66/67/43 44/77/43
f 44/77/44 66/67/44 45/78/44
f 45/78/45 66/67/45 46/79/45
f 46/79/46 66/67/46 47/80/46
f 47/80/47 66/67/47 48/81/47
f 48/81/48 66/67/48 49/82/48
f 49/82/49 66/67/49 50/83/49
f 50/83/50 66/67/50 51/84/50
f 51/84/51 66/67/51 52/85/51
f 52/85/52 66/67/52 53/86/52
f 53/86/53 66/67/53 54/87/53
f 54/87/54 66/67/54 55/88/54
f 55/88/55 66/67/55 56/89/55
f 56/89/56 66/67/56 57/90/56
f 57/90/57 66/67/57 58/91/57
f 58/91/58 66/67/58 59/92/58
f 59/92/59 66/67/59 60/93/59
f 60/93/60 66/67/60 61/94/60
f 61/94/61 66/67/61 62/95/61
f 62/95/62 66/67/62 63/96/62
f 63/96/63 66/67/63 64/97/63
f 34/98/64 35/99/64 36/100/64 37/101/64 38/102/64 39/103/64 40/104/64 41/105/64 42/106/64 43/107/64 44/108/64 45/109/64 46/110/64 47/111/64 48/112/64 49/113/64 50/114/64 51/115/64 52/116/64 53/117/64 54/118/64 55/119/64 56/120/64 57/121/64 58/122/64 59/123/64 60/124/64 61/125/64 62/126/64 63/127/64 64/128/64 65/129/64
f 64/97/65 66/67/65 65/130/65
f 65/130/66 66/67/66 34/66/66
o Cono.003
v -1.079909 1.792057 -0.432419
v -1.155409 1.796257 -0.416318
v -1.232468 1.791461 -0.412314
v -1.308125 1.777853 -0.420561
v -1.379472 1.755957 -0.440742
v -1.443767 1.726614 -0.472082
v -1.498540 1.690951 -0.513375
v -1.541686 1.650339 -0.563036
v -1.571547 1.606339 -0.619156
v -1.586974 1.560641 -0.679578
v -1.587376 1.515002 -0.741980
v -1.572737 1.471175 -0.803964
v -1.543619 1.430845 -0.863148
v -1.501142 1.395562 -0.917258
v -1.448729 1.349911 -0.940245
v -1.376850 1.309431 -0.962613
v -1.301925 1.278549 -0.971404
v -1.208671 1.244628 -0.969312
v -1.138617 1.251260 -0.967583
v -1.049607 1.257588 -0.965331
v -0.976998 1.284423 -0.953061
v -0.908403 1.292202 -0.946954
v -0.856891 1.351974 -0.884953
v -0.821319 1.412658 -0.852705
v -0.778347 1.511886 -0.791060
v -0.781896 1.533127 -0.769524
v -0.804582 1.609333 -0.720230
v -0.819221 1.653160 -0.658246
v -0.848339 1.693490 -0.599062
v -0.890816 1.728773 -0.544952
v -0.945021 1.757654 -0.497996
v -1.008870 1.779022 -0.459998
v -1.385998 3.657567 -2.729616
vn 0.1726 0.7758 0.6070
vn -0.0158 0.7782 0.6278
vn -0.2038 0.7559 0.6222
vn -0.3847 0.7094 0.5905
vn -0.5524 0.6404 0.5336
vn -0.7006 0.5510 0.4534
vn -0.8237 0.4442 0.3524
vn -0.9168 0.3237 0.2340
vn -0.9757 0.1938 0.1026
vn -0.9975 0.0594 -0.0370
vn -0.9810 -0.0741 -0.1793
vn -0.9263 -0.2014 -0.3185
vn -0.8354 -0.3172 -0.4490
vn -0.6573 -0.4505 -0.6041
vn -0.5067 -0.5196 -0.6879
vn -0.3235 -0.5698 -0.7555
vn -0.1960 -0.5873 -0.7853
vn 0.0752 -0.5841 -0.8082
vn 0.0621 -0.5855 -0.8083
vn 0.3279 -0.5293 -0.7825
vn 0.1372 -0.5784 -0.8042
vn 0.8412 -0.2067 -0.4996
vn 0.8324 -0.2170 -0.5099
vn 0.8978 -0.1268 -0.4218
vn 0.9732 0.2224 -0.0589
vn 0.9598 0.2805 0.0082
vn 0.9565 0.2912 0.0200
vn 0.8957 0.4158 0.1573
vn 0.8005 0.5276 0.2844
vn 0.6750 0.6223 0.3964
vn 0.0324 -0.7250 0.6880
vn 0.5245 0.6967 0.4895
vn 0.3549 0.7483 0.5604
vt 0.250000 0.490000
vt 0.250000 0.250000
vt 0.296822 0.485388
vt 0.341844 0.471731
vt 0.383337 0.449553
vt 0.419706 0.419706
vt 0.449553 0.383337
vt 0.471731 0.341844
vt 0.485388 0.296822
vt 0.490000 0.250000
vt 0.485388 0.203178
vt 0.471731 0.158156
vt 0.449553 0.116663
vt 0.419706 0.080294
vt 0.383337 0.050447
vt 0.341844 0.028269
vt 0.296822 0.014612
vt 0.250000 0.010000
vt 0.203178 0.014612
vt 0.158156 0.028269
vt 0.116663 0.050447
vt 0.080294 0.080294
vt 0.050447 0.116663
vt 0.028269 0.158156
vt 0.014612 0.203178
vt 0.010000 0.250000
vt 0.014612 0.296822
vt 0.028269 0.341844
vt 0.050447 0.383337
vt 0.080294 0.419706
vt 0.116663 0.449553
vt 0.158156 0.471731
vt 0.750000 0.490000
vt 0.796822 0.485388
vt 0.841844 0.471731
vt 0.883337 0.449553
vt 0.919706 0.419706
vt 0.949553 0.383337
vt 0.971731 0.341844
vt 0.985388 0.296822
vt 0.990000 0.250000
vt 0.985388 0.203178
vt 0.971731 0.158156
vt 0.949553 0.116663
vt 0.919706 0.080294
vt 0.883337 0.050447
vt 0.841844 0.028269
vt 0.796822 0.014612
vt 0.750000 0.010000
vt 0.703178 0.014612
vt 0.658156 0.028269
vt 0.616663 0.050447
vt 0.580294 0.080294
vt 0.550447 0.116663
vt 0.528269 0.158156
vt 0.514612 0.203178
vt 0.510000 0.250000
vt 0.514612 0.296822
vt 0.528269 0.341844
vt 0.550447 0.383337
vt 0.580294 0.419706
vt 0.616663 0.449553
vt 0.658156 0.471731
vt 0.703178 0.485388
vt 0.203178 0.485388
s 0
usemtl Material.001
f 67/131/67 99/132/67 68/133/67
f 68/133/68 99/132/68 69/134/68
f 69/134/69 99/132/69 70/135/69
f 70/135/70 99/132/70 71/136/70
f 71/136/71 99/132/71 72/137/71
f 72/137/72 99/132/72 73/138/72
f 73/138/73 99/132/73 74/139/73
f 74/139/74 99/132/74 75/140/74
f 75/140/75 99/132/75 76/141/75
f 76/141/76 99/132/76 77/142/76
f 77/142/77 99/132/77 78/143/77
f 78/143/78 99/132/78 79/144/78
f 79/144/79 99/132/79 80/145/79
f 80/145/80 99/132/80 81/146/80
f 81/146/81 99/132/81 82/147/81
f 82/147/82 99/132/82 83/148/82
f 83/148/83 99/132/83 84/149/83
f 84/149/84 99/132/84 85/150/84
f 85/150/85 99/132/85 86/151/85
f 86/151/86 99/132/86 87/152/86
f 87/152/87 99/132/87 88/153/87
f 88/153/88 99/132/88 89/154/88
f 89/154/89 99/132/89 90/155/89
f 90/155/90 99/132/90 91/156/90
f 91/156/91 99/132/91 92/157/91
f 92/157/92 99/132/92 93/158/92
f 93/158/93 99/132/93 94/159/93
f 94/159/94 99/132/94 95/160/94
f 95/160/95 99/132/95 96/161/95
f 96/161/96 99/132/96 97/162/96
f 67/163/97 68/164/97 69/165/97 70/166/97 71/167/97 72/168/97 73/169/97 74/170/97 75/171/97 76/172/97 77/173/97 78/174/97 79/175/97 80/176/97 81/177/97 82/178/97 83/179/97 84/180/97 85/181/97 86/182/97 87/183/97 88/184/97 89/185/97 90/186/97 91/187/97 92/188/97 93/189/97 94/190/97 95/191/97 96/192/97 97/193/97 98/194/97
f 97/162/98 99/132/98 98/195/98
f 98/195/99 99/132/99 67/131/99
o Cono.004
v -1.422406 2.011572 0.710413
v -1.363516 2.036753 0.667112
v -1.296147 2.053407 0.633036
v -1.222888 2.060896 0.609495
v -1.146555 2.058931 0.597394
v -1.070080 2.047588 0.597198
v -0.996403 2.027303 0.608915
v -0.928354 1.998855 0.632094
v -0.868550 1.963338 0.665844
v -0.819288 1.922116 0.708869
v -0.782462 1.876773 0.759514
v -0.759486 1.829053 0.815835
v -0.751243 1.780789 0.875666
v -0.758051 1.733835 0.936708
v -0.783821 1.674978 0.971796
v -0.828227 1.615760 1.014538
v -0.883171 1.565275 1.047358
v -0.957967 1.507113 1.076922
v -1.021951 1.494292 1.103308
v -1.102767 1.475988 1.136500
v -1.178170 1.482153 1.156972
v -1.242934 1.470946 1.178952
v -1.328001 1.515826 1.150324
v -1.387103 1.565206 1.142806
v -1.474006 1.650348 1.116509
v -1.484791 1.672287 1.098343
v -1.503296 1.753018 1.054848
v -1.526272 1.800739 0.998528
v -1.534514 1.849003 0.938697
v -1.527706 1.895957 0.877655
v -1.506109 1.939795 0.817747
v -1.470554 1.978834 0.761277
v -0.957624 3.774384 3.023003
vn -0.5957 0.6920 -0.4078
vn -0.4333 0.7594 -0.4854
vn -0.2557 0.8013 -0.5408
vn -0.0697 0.8170 -0.5724
vn 0.1181 0.8064 -0.5795
vn 0.3014 0.7701 -0.5622
vn 0.4742 0.7096 -0.5212
vn 0.6306 0.6268 -0.4577
vn 0.7652 0.5242 -0.3738
vn 0.8729 0.4051 -0.2720
vn 0.9492 0.2733 -0.1557
vn 0.9906 0.1335 -0.0288
vn 0.9945 -0.0090 0.1040
vn 0.9255 -0.2226 0.3063
vn 0.8460 -0.3351 0.4147
vn 0.7241 -0.4461 0.5261
vn 0.6277 -0.5070 0.5906
vn 0.4054 -0.5954 0.6936
vn 0.4173 -0.5922 0.6894
vn 0.1543 -0.6326 0.7589
vn 0.3471 -0.6119 0.7107
vn -0.5019 -0.5018 0.7045
vn -0.5067 -0.4995 0.7027
vn -0.6222 -0.4337 0.6517
vn -0.9126 -0.1269 0.3886
vn -0.9485 -0.0488 0.3130
vn -0.9422 -0.0657 0.3287
vn -0.9771 0.0785 0.1979
vn -0.9727 0.2231 0.0631
vn -0.9295 0.3621 -0.0701
vn -0.1349 -0.6883 -0.7127
vn -0.8495 0.4898 -0.1962
vn -0.7365 0.6011 -0.3102
vt 0.250000 0.490000
vt 0.250000 0.250000
vt 0.296822 0.485388
vt 0.341844 0.471731
vt 0.383337 0.449553
vt 0.419706 0.419706
vt 0.449553 0.383337
vt 0.471731 0.341844
vt 0.485388 0.296822
vt 0.490000 0.250000
vt 0.485388 0.203178
vt 0.471731 0.158156
vt 0.449553 0.116663
vt 0.419706 0.080294
vt 0.383337 0.050447
vt 0.341844 0.028269
vt 0.296822 0.014612
vt 0.250000 0.010000
vt 0.203178 0.014612
vt 0.158156 0.028269
vt 0.116663 0.050447
vt 0.080294 0.080294
vt 0.050447 0.116663
vt 0.028269 0.158156
vt 0.014612 0.203178
vt 0.010000 0.250000
vt 0.014612 0.296822
vt 0.028269 0.341844
vt 0.050447 0.383337
vt 0.080294 0.419706
vt 0.116663 0.449553
vt 0.158156 0.471731
vt 0.750000 0.490000
vt 0.796822 0.485388
vt 0.841844 0.471731
vt 0.883337 0.449553
vt 0.919706 0.419706
vt 0.949553 0.383337
vt 0.971731 0.341844
vt 0.985388 0.296822
vt 0.990000 0.250000
vt 0.985388 0.203178
vt 0.971731 0.158156
vt 0.949553 0.116663
vt 0.919706 0.080294
vt 0.883337 0.050447
vt 0.841844 0.028269
vt 0.796822 0.014612
vt 0.750000 0.010000
vt 0.703178 0.014612
vt 0.658156 0.028269
vt 0.616663 0.050447
vt 0.580294 0.080294
vt 0.550447 0.116663
vt 0.528269 0.158156
vt 0.514612 0.203178
vt 0.510000 0.250000
vt 0.514612 0.296822
vt 0.528269 0.341844
vt 0.550447 0.383337
vt 0.580294 0.419706
vt 0.616663 0.449553
vt 0.658156 0.471731
vt 0.703178 0.485388
vt 0.203178 0.485388
s 0
usemtl Material.001
f 100/196/100 132/197/100 101/198/100
f 101/198/101 132/197/101 102/199/101
f 102/199/102 132/197/102 103/200/102
f 103/200/103 132/197/103 104/201/103
f 104/201/104 132/197/104 105/202/104
f 105/202/105 132/197/105 106/203/105
f 106/203/106 132/197/106 107/204/106
f 107/204/107 132/197/107 108/205/107
f 108/205/108 132/197/108 109/206/108
f 109/206/109 132/197/109 110/207/109
f 110/207/110 132/197/110 111/208/110
f 111/208/111 132/197/111 112/209/111
f 112/209/112 132/197/112 113/210/112
f 113/210/113 132/197/113 114/211/113
f 114/211/114 132/197/114 115/212/114
f 115/212/115 132/197/115 116/213/115
f 116/213/116 132/197/116 117/214/116
f 117/214/117 132/197/117 118/215/117
f 118/215/118 132/197/118 119/216/118
f 119/216/119 132/197/119 120/217/119
f 120/217/120 132/197/120 121/218/120
f 121/218/121 132/197/121 122/219/121
f 122/219/122 132/197/122 123/220/122
f 123/220/123 132/197/123 124/221/123
f 124/221/124 132/197/124 125/222/124
f 125/222/125 132/197/125 126/223/125
f 126/223/126 132/197/126 127/224/126
f 127/224/127 132/197/127 128/225/127
f 128/225/128 132/197/128 129/226/128
f 129/226/129 132/197/129 130/227/129
f 100/228/130 101/229/130 102/230/130 103/231/130 104/232/130 105/233/130 106/234/130 107/235/130 108/236/130 109/237/130 110/238/130 111/239/130 112/240/130 113/241/130 114/242/130 115/243/130 116/244/130 117/245/130 118/246/130 119/247/130 120/248/130 121/249/130 122/250/130 123/251/130 124/252/130 125/253/130 126/254/130 127/255/130 128/256/130 129/257/130 130/258/130 131/259/130
f 130/227/131 132/197/131 131/260/131
f 131/260/132 132/197/132 100/196/132
o Cono.005
v -1.860884 2.140171 -0.190042
v -1.849769 2.150474 -0.114231
v -1.849055 2.149857 -0.036925
v -1.858770 2.138341 0.038905
v -1.878540 2.116370 0.110344
v -1.907605 2.084789 0.174647
v -1.944849 2.044810 0.229344
v -1.988841 1.997970 0.272331
v -2.037889 1.946070 0.301957
v -2.090110 1.891103 0.317084
v -2.143495 1.835183 0.317130
v -2.195994 1.780457 0.302094
v -2.245588 1.729029 0.272553
v -2.290373 1.682876 0.229642
v -2.302222 1.631613 0.178738
v -2.313340 1.584688 0.108170
v -2.312629 1.549473 0.034657
v -2.299721 1.512395 -0.056502
v -2.295489 1.516143 -0.126663
v -2.289691 1.518852 -0.215697
v -2.278497 1.544220 -0.289003
v -2.270238 1.549936 -0.357576
v -2.217027 1.617433 -0.409372
v -2.194066 1.681251 -0.446627
v -2.148559 1.787853 -0.491994
v -2.131290 1.812713 -0.488619
v -2.097359 1.897376 -0.467817
v -2.044860 1.952101 -0.452781
v -1.995265 2.003529 -0.423240
v -1.950480 2.049682 -0.380329
v -1.912226 2.088787 -0.325698
v -1.881974 2.119341 -0.261446
v -3.834426 3.685996 -0.073678
vn 0.5979 0.7779 -0.1934
vn 0.6119 0.7909 0.0007
vn 0.5980 0.7775 0.1947
vn 0.5566 0.7382 0.3811
vn 0.4894 0.6746 0.5526
vn 0.3991 0.5892 0.7025
vn 0.2893 0.4854 0.8250
vn 0.1643 0.3673 0.9155
vn 0.0290 0.2395 0.9705
vn -0.1112 0.1070 0.9880
vn -0.2510 -0.0250 0.9677
vn -0.3851 -0.1516 0.9104
vn -0.5082 -0.2678 0.8185
vn -0.6782 -0.4329 0.5938
vn -0.7421 -0.4984 0.4483
vn -0.7933 -0.5520 0.2568
vn -0.8116 -0.5721 0.1178
vn -0.8140 -0.5754 -0.0798
vn -0.8145 -0.5759 -0.0706
vn -0.7845 -0.5391 -0.3064
vn -0.8074 -0.5720 -0.1449
vn -0.4932 -0.2505 -0.8331
vn -0.5251 -0.2802 -0.8036
vn -0.4328 -0.1902 -0.8812
vn -0.0526 0.1701 -0.9840
vn 0.0180 0.2318 -0.9726
vn 0.0273 0.2404 -0.9703
vn 0.1631 0.3684 -0.9152
vn 0.2885 0.4867 -0.8246
vn 0.3986 0.5905 -0.7018
vn 0.8050 -0.5922 0.0361
vn 0.4891 0.6757 -0.5516
vn 0.5564 0.7390 -0.3799
vt 0.250000 0.490000
vt 0.250000 0.250000
vt 0.296822 0.485388
vt 0.341844 0.471731
vt 0.383337 0.449553
vt 0.419706 0.419706
vt 0.449553 0.383337
vt 0.471731 0.341844
vt 0.485388 0.296822
vt 0.490000 0.250000
vt 0.485388 0.203178
vt 0.471731 0.158156
vt 0.449553 0.116663
vt 0.419706 0.080294
vt 0.383337 0.050447
vt 0.341844 0.028269
vt 0.296822 0.014612
vt 0.250000 0.010000
vt 0.203178 0.014612
vt 0.158156 0.028269
vt 0.116663 0.050447
vt 0.080294 0.080294
vt 0.050447 0.116663
vt 0.028269 0.158156
vt 0.014612 0.203178
vt 0.010000 0.250000
vt 0.014612 0.296822
vt 0.028269 0.341844
vt 0.050447 0.383337
vt 0.080294 0.419706
vt 0.116663 0.449553
vt 0.158156 0.471731
vt 0.750000 0.490000
vt 0.796822 0.485388
vt 0.841844 0.471731
vt 0.883337 0.449553
vt 0.919706 0.419706
vt 0.949553 0.383337
vt 0.971731 0.341844
vt 0.985388 0.296822
vt 0.990000 0.250000
vt 0.985388 0.203178
vt 0.971731 0.158156
vt 0.949553 0.116663
vt 0.919706 0.080294
vt 0.883337 0.050447
vt 0.841844 0.028269
vt 0.796822 0.014612
vt 0.750000 0.010000
vt 0.703178 0.014612
vt 0.658156 0.028269
vt 0.616663 0.050447
vt 0.580294 0.080294
vt 0.550447 0.116663
vt 0.528269 0.158156
vt 0.514612 0.203178
vt 0.510000 0.250000
vt 0.514612 0.296822
vt 0.528269 0.341844
vt 0.550447 0.383337
vt 0.580294 0.419706
vt 0.616663 0.449553
vt 0.658156 0.471731
vt 0.703178 0.485388
vt 0.203178 0.485388
s 0
usemtl Material.001
f 133/261/133 165/262/133 134/263/133
f 134/263/134 165/262/134 135/264/134
f 135/264/135 165/262/135 136/265/135
f 136/265/136 165/262/136 137/266/136
f 137/266/137 165/262/137 138/267/137
f 138/267/138 165/262/138 139/268/138
f 139/268/139 165/262/139 140/269/139
f 140/269/140 165/262/140 141/270/140
f 141/270/141 165/262/141 142/271/141
f 142/271/142 165/262/142 143/272/142
f 143/272/143 165/262/143 144/273/143
f 144/273/144 165/262/144 145/274/144
f 145/274/145 165/262/145 146/275/145
f 146/275/146 165/262/146 147/276/146
f 147/276/147 165/262/147 148/277/147
f 148/277/148 165/262/148 149/278/148
f 149/278/149 165/262/149 150/279/149
f 150/279/150 165/262/150 151/280/150
f 151/280/151 165/262/151 152/281/151
f 152/281/152 165/262/152 153/282/152
f 153/282/153 165/262/153 154/283/153
f 154/283/154 165/262/154 155/284/154
f 155/284/155 165/262/155 156/285/155
f 156/285/156 165/262/156 157/286/156
f 157/286/157 165/262/157 158/287/157
f 158/287/158 165/262/158 159/288/158
f 159/288/159 165/262/159 160/289/159
f 160/289/160 165/262/160 161/290/160
f 161/290/161 165/262/161 162/291/161
f 162/291/162 165/262/162 163/292/162
f 133/293/163 134/294/163 135/295/163 136/296/163 137/297/163 138/298/163 139/299/163 140/300/163 141/301/163 142/302/163 143/303/163 144/304/163 145/305/163 146/306/163 147/307/163 148/308/163 149/309/163 150/310/163 151/311/163 152/312/163 153/313/163 154/314/163 155/315/163 156/316/163 157/317/163 158/318/163 159/319/163 160/320/163 161/321/163 162/322/163 163/323/163 164/324/163
f 163/292/164 165/262/164 164/325/164
f 164/325/165 165/262/165 133/261/165
o Cilindro
v -1.194070 3.174892 0.007976
v -0.961133 4.657708 -0.348674
v -1.184697 3.174892 0.008914
v -0.951760 4.657708 -0.347736
v -1.175685 3.174892 0.011692
v -0.942748 4.657708 -0.344959
v -1.167379 3.174892 0.016203
v -0.934442 4.657708 -0.340447
v -1.160098 3.174892 0.022274
v -0.927161 4.657708 -0.334377
v -1.154124 3.174892 0.029672
v -0.921187 4.657708 -0.326979
v -1.149684 3.174892 0.038111
v -0.916747 4.657708 -0.318539
v -1.146950 3.174892 0.047269
v -0.914013 4.657708 -0.309382
v -1.146027 3.174892 0.056792
v -0.913090 4.657708 -0.299858
v -1.146950 3.174892 0.066316
v -0.914013 4.657708 -0.290335
v -1.149684 3.174892 0.075474
v -0.916747 4.657708 -0.281177
v -1.154124 3.174892 0.083913
v -0.921187 4.657708 -0.272737
v -1.160098 3.174892 0.091311
v -0.927161 4.657708 -0.265340
v -1.167379 3.174892 0.097382
v -0.934442 4.657708 -0.259269
v -1.175685 3.174892 0.101893
v -0.942748 4.657708 -0.254758
v -1.184697 3.174892 0.104671
v -0.951760 4.657708 -0.251980
v -1.194070 3.174892 0.105609
v -0.961133 4.657708 -0.251042
v -1.203443 3.174892 0.104671
v -0.970506 4.657708 -0.251980
v -1.212455 3.174892 0.101893
v -0.979518 4.657708 -0.254758
v -1.220761 3.174892 0.097382
v -0.987824 4.657708 -0.259269
v -1.228042 3.174892 0.091311
v -0.995104 4.657708 -0.265340
v -1.234016 3.174892 0.083913
v -1.001079 4.657708 -0.272737
v -1.238456 3.174892 0.075474
v -1.005519 4.657708 -0.281177
v -1.241190 3.174892 0.066316
v -1.008253 4.657708 -0.290335
v -1.242113 3.174892 0.056792
v -1.009176 4.657708 -0.299858
v -1.241190 3.174892 0.047269
v -1.008253 4.657708 -0.309382
v -1.238456 3.174892 0.038111
v -1.005519 4.657708 -0.318539
v -1.234016 3.174892 0.029672
v -1.001079 4.657708 -0.326979
v -1.228042 3.174892 0.022274
v -0.995104 4.657708 -0.334377
v -1.220761 3.174892 0.016203
v -0.987824 4.657708 -0.340447
v -1.212455 3.174892 0.011692
v -0.979518 4.657708 -0.344959
v -1.203443 3.174892 0.008914
v -0.970506 4.657708 -0.347736
vn -0.0367 -0.4060 -0.9131
vn 0.0338 0.0036 -0.9994
vn 0.2200 0.0033 -0.9755
vn 0.1537 -0.4473 -0.8811
vn 0.3981 0.0031 -0.9173
vn 0.3314 -0.4709 -0.8176
vn 0.5650 0.0030 -0.8251
vn 0.4936 -0.4777 -0.7267
vn 0.7048 0.0031 -0.7094
vn 0.6381 -0.4683 -0.6112
vn 0.8231 0.0032 -0.5679
vn 0.7622 -0.4423 -0.4727
vn 0.9130 0.0035 -0.4080
vn 0.8618 -0.3997 -0.3123
vn 0.9719 0.0040 -0.2352
vn 0.9312 -0.3395 -0.1324
vn 0.9985 0.0049 -0.0551
vn 0.9630 -0.2623 0.0621
vn 0.9919 0.0066 0.1268
vn 0.9497 -0.1710 0.2625
vn 0.9523 0.0103 0.3051
vn 0.8874 -0.0774 0.4544
vn 0.8797 0.0234 0.4750
vn 0.7847 -0.0227 0.6194
vn 0.7683 0.0804 0.6350
vn 0.6560 -0.0103 0.7547
vn 0.6143 0.1756 0.7693
vn 0.5048 -0.0066 0.8632
vn 0.4313 0.2682 0.8615
vn 0.3354 -0.0050 0.9420
vn 0.2345 0.3461 0.9084
vn 0.1537 -0.0041 0.9881
vn 0.0367 0.4060 0.9131
vn -0.0338 -0.0036 0.9994
vn -0.1537 0.4473 0.8811
vn -0.2200 -0.0033 0.9755
vn -0.3314 0.4709 0.8176
vn -0.3981 -0.0031 0.9174
vn -0.4916 0.4777 0.7281
vn -0.5616 -0.0030 0.8274
vn -0.6381 0.4682 0.6112
vn -0.7048 -0.0031 0.7094
vn -0.7622 0.4423 0.4727
vn -0.8231 -0.0032 0.5679
vn -0.8618 0.3996 0.3124
vn -0.9130 -0.0035 0.4080
vn -0.9312 0.3395 0.1324
vn -0.9719 -0.0040 0.2352
vn -0.9630 0.2623 -0.0620
vn -0.9985 -0.0049 0.0550
vn -0.9497 0.1711 -0.2624
vn -0.9919 -0.0066 -0.1268
vn -0.8874 0.0773 -0.4544
vn -0.9523 -0.0103 -0.3050
vn -0.7846 0.0228 -0.6195
vn -0.8797 -0.0235 -0.4750
vn -0.6560 0.0103 -0.7547
vn -0.7683 -0.0804 -0.6351
vn -0.5049 0.0066 -0.8632
vn -0.6143 -0.1756 -0.7693
vn -0.3354 0.0050 -0.9420
vn -0.4313 -0.2682 -0.8614
vn -0.1538 0.0040 -0.9881
vn -0.2345 -0.3461 -0.9084
vt 1.000000 0.500000
vt 1.000000 1.000000
vt 0.968750 1.000000
vt 0.968750 0.500000
vt 0.937500 1.000000
vt 0.937500 0.500000
vt 0.906250 1.000000
vt 0.906250 0.500000
vt 0.875000 1.000000
vt 0.875000 0.500000
vt 0.843750 1.000000
vt 0.843750 0.500000
vt 0.812500 1.000000
vt 0.812500 0.500000
vt 0.781250 1.000000
vt 0.781250 0.500000
vt 0.750000 1.000000
vt 0.750000 0.500000
vt 0.718750 1.000000
vt 0.718750 0.500000
vt 0.687500 1.000000
vt 0.687500 0.500000
vt 0.656250 1.000000
vt 0.656250 0.500000
vt 0.625000 1.000000
vt 0.625000 0.500000
vt 0.593750 1.000000
vt 0.593750 0.500000
vt 0.562500 1.000000
vt 0.562500 0.500000
vt 0.531250 1.000000
vt 0.531250 0.500000
vt 0.500000 1.000000
vt 0.500000 0.500000
vt 0.468750 1.000000
vt 0.468750 0.500000
vt 0.437500 1.000000
vt 0.437500 0.500000
vt 0.406250 1.000000
vt 0.406250 0.500000
vt 0.375000 1.000000
vt 0.375000 0.500000
vt 0.343750 1.000000
vt 0.343750 0.500000
vt 0.312500 1.000000
vt 0.312500 0.500000
vt 0.281250 1.000000
vt 0.281250 0.500000
vt 0.250000 1.000000
vt 0.250000 0.500000
vt 0.218750 1.000000
vt 0.218750 0.500000
vt 0.187500 1.000000
vt 0.187500 0.500000
vt 0.156250 1.000000
vt 0.156250 0.500000
vt 0.125000 1.000000
vt 0.125000 0.500000
vt 0.093750 1.000000
vt 0.093750 0.500000
vt 0.062500 1.000000
vt 0.062500 0.500000
vt 0.296822 0.485388
vt 0.250000 0.490000
vt 0.203178 0.485388
vt 0.158156 0.471731
vt 0.116663 0.449553
vt 0.080294 0.419706
vt 0.050447 0.383337
vt 0.028269 0.341844
vt 0.014612 0.296822
vt 0.010000 0.250000
vt 0.014612 0.203178
vt 0.028269 0.158156
vt 0.050447 0.116663
vt 0.080294 0.080294
vt 0.116663 0.050447
vt 0.158156 0.028269
vt 0.203178 0.014612
vt 0.250000 0.010000
vt 0.296822 0.014612
vt 0.341844 0.028269
vt 0.383337 0.050447
vt 0.419706 0.080294
vt 0.449553 0.116663
vt 0.471731 0.158156
vt 0.485388 0.203178
vt 0.490000 0.250000
vt 0.485388 0.296822
vt 0.471731 0.341844
vt 0.449553 0.383337
vt 0.419706 0.419706
vt 0.383337 0.449553
vt 0.341844 0.471731
vt 0.031250 1.000000
vt 0.031250 0.500000
vt 0.000000 1.000000
vt 0.000000 0.500000
vt 0.750000 0.490000
vt 0.796822 0.485388
vt 0.841844 0.471731
vt 0.883337 0.449553
vt 0.919706 0.419706
vt 0.949553 0.383337
vt 0.971731 0.341844
vt 0.985388 0.296822
vt 0.990000 0.250000
vt 0.985388 0.203178
vt 0.971731 0.158156
vt 0.949553 0.116663
vt 0.919706 0.080294
vt 0.883337 0.050447
vt 0.841844 0.028269
vt 0.796822 0.014612
vt 0.750000 0.010000
vt 0.703178 0.014612
vt 0.658156 0.028269
vt 0.616663 0.050447
vt 0.580294 0.080294
vt 0.550447 0.116663
vt 0.528269 0.158156
vt 0.514612 0.203178
vt 0.510000 0.250000
vt 0.514612 0.296822
vt 0.528269 0.341844
vt 0.550447 0.383337
vt 0.580294 0.419706
vt 0.616663 0.449553
vt 0.658156 0.471731
vt 0.703178 0.485388
s 1
usemtl ramita
f 166/326/166 167/327/167 169/328/168 168/329/169
f 168/329/169 169/328/168 171/330/170 170/331/171
f 170/331/171 171/330/170 173/332/172 172/333/173
f 172/333/173 173/332/172 175/334/174 174/335/175
f 174/335/175 175/334/174 177/336/176 176/337/177
f 176/337/177 177/336/176 179/338/178 178/339/179
f 178/339/179 179/338/178 181/340/180 180/341/181
f 180/341/181 181/340/180 183/342/182 182/343/183
f 182/343/183 183/342/182 185/344/184 184/345/185
f 184/345/185 185/344/184 187/346/186 186/347/187
f 186/347/187 187/346/186 189/348/188 188/349/189
f 188/349/189 189/348/188 191/350/190 190/351/191
f 190/351/191 191/350/190 193/352/192 192/353/193
f 192/353/193 193/352/192 195/354/194 194/355/195
f 194/355/195 195/354/194 197/356/196 196/357/197
f 196/357/197 197/356/196 199/358/198 198/359/199
f 198/359/199 199/358/198 201/360/200 200/361/201
f 200/361/201 201/360/200 203/362/202 202/363/203
f 202/363/203 203/362/202 205/364/204 204/365/205
f 204/365/205 205/364/204 207/366/206 206/367/207
f 206/367/207 207/366/206 209/368/208 208/369/209
f 208/369/209 209/368/208 211/370/210 210/371/211
f 210/371/211 211/370/210 213/372/212 212/373/213
f 212/373/213 213/372/212 215/374/214 214/375/215
f 214/375/215 215/374/214 217/376/216 216/377/217
f 216/377/217 217/376/216 219/378/218 218/379/219
f 218/379/219 219/378/218 221/380/220 220/381/221
f 220/381/221 221/380/220 223/382/222 222/383/223
f 222/383/223 223/382/222 225/384/224 224/385/225
f 224/385/225 225/384/224 227/386/226 226/387/227
f 169/388/168 167/389/167 229/390/228 227/391/226 225/392/224 223/393/222 221/394/220 219/395/218 217/396/216 215/397/214 213/398/212 211/399/210 209/400/208 207/401/206 205/402/204 203/403/202 201/404/200 199/405/198 197/406/196 195/407/194 193/408/192 191/409/190 189/410/188 187/411/186 185/412/184 183/413/182 181/414/180 179/415/178 177/416/176 175/417/174 173/418/172 171/419/170
f 226/387/227 227/386/226 229/420/228 228/421/229
f 228/421/229 229/420/228 167/422/167 166/423/166
f 166/424/166 168/425/169 170/426/171 172/427/173 174/428/175 176/429/177 178/430/179 180/431/181 182/432/183 184/433/185 186/434/187 188/435/189 190/436/191 192/437/193 194/438/195 196/439/197 198/440/199 200/441/201 202/442/203 204/443/205 206/444/207 208/445/209 210/446/211 212/447/213 214/448/215 216/449/217 218/450/219 220/451/221 222/452/223 224/453/225 226/454/227 228/455/229
o Cilindro.001
v -1.017004 4.075612 -0.125163
v -0.934984 4.601562 0.292847
v -1.024372 4.075612 -0.119295
v -0.942353 4.601562 0.298715
v -1.032766 4.075612 -0.114995
v -0.950747 4.601562 0.303014
v -1.041864 4.075612 -0.112431
v -0.959844 4.601562 0.305579
v -1.051315 4.075612 -0.111699
v -0.969295 4.601562 0.306311
v -1.060756 4.075612 -0.112829
v -0.978737 4.601562 0.305181
v -1.069826 4.075612 -0.115776
v -0.987806 4.601562 0.302234
v -1.078174 4.075612 -0.120428
v -0.996155 4.601562 0.297582
v -1.085481 4.075612 -0.126605
v -1.003461 4.601562 0.291405
v -1.091465 4.075612 -0.134071
v -1.009446 4.601562 0.283939
v -1.095897 4.075612 -0.142538
v -1.013878 4.601562 0.275472
v -1.098606 4.075612 -0.151682
v -1.016587 4.601562 0.266328
v -1.099489 4.075612 -0.161150
v -1.017469 4.601562 0.256860
v -1.098510 4.075612 -0.170578
v -1.016490 4.601562 0.247432
v -1.095708 4.075612 -0.179605
v -1.013689 4.601562 0.238404
v -1.091191 4.075612 -0.187884
v -1.009172 4.601562 0.230126
v -1.085132 4.075612 -0.195096
v -1.003112 4.601562 0.222913
v -1.077764 4.075612 -0.200965
v -0.995744 4.601562 0.217045
v -1.069370 4.075612 -0.205264
v -0.987350 4.601562 0.212746
v -1.060272 4.075612 -0.207829
v -0.978253 4.601562 0.210181
v -1.050821 4.075612 -0.208560
v -0.968802 4.601562 0.209450
v -1.041380 4.075612 -0.207431
v -0.959360 4.601562 0.210579
v -1.032310 4.075612 -0.204483
v -0.950291 4.601562 0.213526
v -1.023962 4.075612 -0.199832
v -0.941942 4.601562 0.218178
v -1.016655 4.075612 -0.193654
v -0.934636 4.601562 0.224356
v -1.010671 4.075612 -0.186188
v -0.928651 4.601562 0.231822
v -1.006239 4.075612 -0.177721
v -0.924219 4.601562 0.240289
v -1.003530 4.075612 -0.168578
v -0.921510 4.601562 0.249432
v -1.002648 4.075612 -0.159110
v -0.920628 4.601562 0.258900
v -1.003626 4.075612 -0.149681
v -0.921606 4.601562 0.268329
v -1.006428 4.075612 -0.140654
v -0.924408 4.601562 0.277356
v -1.010945 4.075612 -0.132375
v -0.928925 4.601562 0.285635
vn 0.4530 -0.7815 0.4290
vn 0.6732 0.0100 0.7394
vn 0.5231 0.0092 0.8522
vn 0.3265 -0.8157 0.4776
vn 0.3550 0.0088 0.9348
vn 0.2090 -0.8329 0.5125
vn 0.1751 0.0085 0.9845
vn 0.0955 -0.8375 0.5380
vn -0.0098 0.0087 0.9999
vn -0.0192 -0.8310 0.5560
vn -0.1932 0.0091 0.9811
vn -0.1407 -0.8119 0.5667
vn -0.3692 0.0099 0.9293
vn -0.2750 -0.7757 0.5680
vn -0.5320 0.0114 0.8467
vn -0.4282 -0.7133 0.5549
vn -0.6767 0.0139 0.7361
vn -0.6030 -0.6083 0.5161
vn -0.7988 0.0187 0.6014
vn -0.7870 -0.4398 0.4327
vn -0.8946 0.0294 0.4459
vn -0.9336 -0.2137 0.2878
vn -0.9597 0.0660 0.2731
vn -0.9926 -0.0639 0.1036
vn -0.9719 0.2216 0.0795
vn -0.9961 -0.0291 -0.0828
vn -0.8864 0.4494 -0.1110
vn -0.9638 -0.0187 -0.2661
vn -0.7431 0.6174 -0.2581
vn -0.8976 -0.0140 -0.4407
vn -0.5923 0.7209 -0.3598
vn -0.7996 -0.0115 -0.6005
vn -0.4529 0.7815 -0.4291
vn -0.6732 -0.0100 -0.7394
vn -0.3265 0.8157 -0.4776
vn -0.5232 -0.0093 -0.8522
vn -0.2090 0.8329 -0.5125
vn -0.3550 -0.0087 -0.9348
vn -0.0966 0.8375 -0.5378
vn -0.1751 -0.0085 -0.9845
vn 0.0192 0.8310 -0.5559
vn 0.0098 -0.0087 -0.9999
vn 0.1407 0.8119 -0.5666
vn 0.1932 -0.0091 -0.9811
vn 0.2750 0.7757 -0.5680
vn 0.3692 -0.0099 -0.9293
vn 0.4282 0.7133 -0.5549
vn 0.5319 -0.0114 -0.8467
vn 0.6030 0.6083 -0.5161
vn 0.6767 -0.0139 -0.7361
vn 0.7870 0.4397 -0.4327
vn 0.7988 -0.0187 -0.6013
vn 0.9335 0.2137 -0.2878
vn 0.8946 -0.0294 -0.4459
vn 0.9926 0.0640 -0.1036
vn 0.9597 -0.0660 -0.2731
vn 0.9961 0.0290 0.0828
vn 0.9719 -0.2216 -0.0795
vn 0.9638 0.0187 0.2661
vn 0.8864 -0.4494 0.1110
vn 0.8976 0.0140 0.4407
vn 0.7431 -0.6174 0.2581
vn 0.7996 0.0115 0.6004
vn 0.5923 -0.7209 0.3598
vt 1.000000 0.500000
vt 1.000000 1.000000
vt 0.968750 1.000000
vt 0.968750 0.500000
vt 0.937500 1.000000
vt 0.937500 0.500000
vt 0.906250 1.000000
vt 0.906250 0.500000
vt 0.875000 1.000000
vt 0.875000 0.500000
vt 0.843750 1.000000
vt 0.843750 0.500000
vt 0.812500 1.000000
vt 0.812500 0.500000
vt 0.781250 1.000000
vt 0.781250 0.500000
vt 0.750000 1.000000
vt 0.750000 0.500000
vt 0.718750 1.000000
vt 0.718750 0.500000
vt 0.687500 1.000000
vt 0.687500 0.500000
vt 0.656250 1.000000
vt 0.656250 0.500000
vt 0.625000 1.000000
vt 0.625000 0.500000
vt 0.593750 1.000000
vt 0.593750 0.500000
vt 0.562500 1.000000
vt 0.562500 0.500000
vt 0.531250 1.000000
vt 0.531250 0.500000
vt 0.500000 1.000000
vt 0.500000 0.500000
vt 0.468750 1.000000
vt 0.468750 0.500000
vt 0.437500 1.000000
vt 0.437500 0.500000
vt 0.406250 1.000000
vt 0.406250 0.500000
vt 0.375000 1.000000
vt 0.375000 0.500000
vt 0.343750 1.000000
vt 0.343750 0.500000
vt 0.312500 1.000000
vt 0.312500 0.500000
vt 0.281250 1.000000
vt 0.281250 0.500000
vt 0.250000 1.000000
vt 0.250000 0.500000
vt 0.218750 1.000000
vt 0.218750 0.500000
vt 0.187500 1.000000
vt 0.187500 0.500000
vt 0.156250 1.000000
vt 0.156250 0.500000
vt 0.125000 1.000000
vt 0.125000 0.500000
vt 0.093750 1.000000
vt 0.093750 0.500000
vt 0.062500 1.000000
vt 0.062500 0.500000
vt 0.296822 0.485388
vt 0.250000 0.490000
vt 0.203178 0.485388
vt 0.158156 0.471731
vt 0.116663 0.449553
vt 0.080294 0.419706
vt 0.050447 0.383337
vt 0.028269 0.341844
vt 0.014612 0.296822
vt 0.010000 0.250000
vt 0.014612 0.203178
vt 0.028269 0.158156
vt 0.050447 0.116663
vt 0.080294 0.080294
vt 0.116663 0.050447
vt 0.158156 0.028269
vt 0.203178 0.014612
vt 0.250000 0.010000
vt 0.296822 0.014612
vt 0.341844 0.028269
vt 0.383337 0.050447
vt 0.419706 0.080294
vt 0.449553 0.116663
vt 0.471731 0.158156
vt 0.485388 0.203178
vt 0.490000 0.250000
vt 0.485388 0.296822
vt 0.471731 0.341844
vt 0.449553 0.383337
vt 0.419706 0.419706
vt 0.383337 0.449553
vt 0.341844 0.471731
vt 0.031250 1.000000
vt 0.031250 0.500000
vt 0.000000 1.000000
vt 0.000000 0.500000
vt 0.750000 0.490000
vt 0.796822 0.485388
vt 0.841844 0.471731
vt 0.883337 0.449553
vt 0.919706 0.419706
vt 0.949553 0.383337
vt 0.971731 0.341844
vt 0.985388 0.296822
vt 0.990000 0.250000
vt 0.985388 0.203178
vt 0.971731 0.158156
vt 0.949553 0.116663
vt 0.919706 0.080294
vt 0.883337 0.050447
vt 0.841844 0.028269
vt 0.796822 0.014612
vt 0.750000 0.010000
vt 0.703178 0.014612
vt 0.658156 0.028269
vt 0.616663 0.050447
vt 0.580294 0.080294
vt 0.550447 0.116663
vt 0.528269 0.158156
vt 0.514612 0.203178
vt 0.510000 0.250000
vt 0.514612 0.296822
vt 0.528269 0.341844
vt 0.550447 0.383337
vt 0.580294 0.419706
vt 0.616663 0.449553
vt 0.658156 0.471731
vt 0.703178 0.485388
s 1
usemtl ramita
f 230/456/230 231/457/231 233/458/232 232/459/233
f 232/459/233 233/458/232 235/460/234 234/461/235
f 234/461/235 235/460/234 237/462/236 236/463/237
f 236/463/237 237/462/236 239/464/238 238/465/239
f 238/465/239 239/464/238 241/466/240 240/467/241
f 240/467/241 241/466/240 243/468/242 242/469/243
f 242/469/243 243/468/242 245/470/244 244/471/245
f 244/471/245 245/470/244 247/472/246 246/473/247
f 246/473/247 247/472/246 249/474/248 248/475/249
f 248/475/249 249/474/248 251/476/250 250/477/251
f 250/477/251 251/476/250 253/478/252 252/479/253
f 252/479/253 253/478/252 255/480/254 254/481/255
f 254/481/255 255/480/254 257/482/256 256/483/257
f 256/483/257 257/482/256 259/484/258 258/485/259
f 258/485/259 259/484/258 261/486/260 260/487/261
f 260/487/261 261/486/260 263/488/262 262/489/263
f 262/489/263 263/488/262 265/490/264 264/491/265
f 264/491/265 265/490/264 267/492/266 266/493/267
f 266/493/267 267/492/266 269/494/268 268/495/269
f 268/495/269 269/494/268 271/496/270 270/497/271
f 270/497/271 271/496/270 273/498/272 272/499/273
f 272/499/273 273/498/272 275/500/274 274/501/275
f 274/501/275 275/500/274 277/502/276 276/503/277
f 276/503/277 277/502/276 279/504/278 278/505/279
f 278/505/279 279/504/278 281/506/280 280/507/281
f 280/507/281 281/506/280 283/508/282 282/509/283
f 282/509/283 283/508/282 285/510/284 284/511/285
f 284/511/285 285/510/284 287/512/286 286/513/287
f 286/513/287 287/512/286 289/514/288 288/515/289
f 288/515/289 289/514/288 291/516/290 290/517/291
f 233/518/232 231/519/231 293/520/292 291/521/290 289/522/288 287/523/286 285/524/284 283/525/282 281/526/280 279/527/278 277/528/276 275/529/274 273/530/272 271/531/270 269/532/268 267/533/266 265/534/264 263/535/262 261/536/260 259/537/258 257/538/256 255/539/254 253/540/252 251/541/250 249/542/248 247/543/246 245/544/244 243/545/242 241/546/240 239/547/238 237/548/236 235/549/234
f 290/517/291 291/516/290 293/550/292 292/551/293
f 292/551/293 293/550/292 231/552/231 230/553/230
f 230/554/230 232/555/233 234/556/235 236/557/237 238/558/239 240/559/241 242/560/243 244/561/245 246/562/247 248/563/249 250/564/251 252/565/253 254/566/255 256/567/257 258/568/259 260/569/261 262/570/263 264/571/265 266/572/267 268/573/269 270/574/271 272/575/273 274/576/275 276/577/277 278/578/279 280/579/281 282/580/283 284/581/285 286/582/287 288/583/289 290/584/291 292/585/293
o Cube
v -0.131825 3.567248 -0.903096
v -0.373429 1.433336 -0.695252
v -0.132965 3.286780 1.092246
v -0.456428 1.191159 0.783228
v -2.162639 3.399925 -1.090655
v -1.971299 1.247778 -0.808257
v -2.121027 3.527138 0.981542
v -1.939335 1.413282 0.747078
v -1.840111 0.912377 -0.487920
v -1.950453 1.047968 -0.032568
v -1.705130 0.880438 0.423599
v -0.704148 1.026774 -0.789503
v -1.215878 1.108119 -0.866375
v -1.660104 1.125472 -0.863363
v -0.057957 3.177094 -0.980023
v -0.091197 2.567760 -0.969341
v -0.256824 1.910531 -0.845389
v -2.092617 1.882524 0.918210
v -2.214259 2.531087 1.058672
v -2.213096 3.136162 1.068637
v -0.067231 2.812395 1.166823
v -0.107242 2.165497 1.132416
v -0.272316 1.570510 0.968347
v -2.263907 2.927874 -1.186226
v -2.267882 2.268980 -1.168329
v -2.137211 1.649559 -1.003543
v -0.524401 3.477034 1.252550
v -1.116551 3.627344 1.314231
v -1.715751 3.630538 1.186929
v 0.052525 3.666975 -0.486288
v 0.146854 3.653851 0.120024
v 0.051001 3.489161 0.708810
v -1.635447 1.217885 0.832482
v -1.204950 1.069240 0.876857
v -0.769661 1.076133 0.850055
v -2.303340 3.664745 0.553013
v -2.406605 3.702115 -0.077089
v -2.329369 3.579814 -0.691615
v -1.753967 3.591942 -1.235356
v -1.143201 3.728621 -1.271295
v -0.535064 3.701180 -1.120203
v -0.476751 0.977092 0.548109
v -0.373610 0.939083 0.043050
v -0.375057 0.997898 -0.387376
v -0.448334 3.834440 -0.603236
v -1.126332 3.893316 -0.712446
v -1.810040 3.878453 -0.722629
v -0.391724 3.829638 0.081906
v -1.114686 3.193727 0.024528
v -1.845267 3.919614 -0.034385
v -0.440993 3.857487 0.756053
v -1.110659 3.855479 0.759967
v -1.788580 3.724359 0.662041
v -0.678701 1.573666 1.189312
v -0.584789 2.215073 1.417102
v -0.548861 2.895139 1.459446
v -1.182806 1.641563 1.252162
v -1.157207 2.335075 1.503762
v -1.133385 3.035217 1.550568
v -1.685546 1.784704 1.167981
v -1.731402 2.461707 1.385628
v -1.722532 3.112200 1.413494
v -2.335494 1.810775 0.482749
v -2.526600 2.499793 0.538867
v -2.535888 3.156214 0.540536
v -2.424226 1.978523 -0.057649
v -2.645040 2.568115 -0.080548
v -2.663191 3.117413 -0.090544
v -2.364275 1.644075 -0.591562
v -2.560817 2.309715 -0.687060
v -2.567855 3.002160 -0.704468
v -1.678058 0.889688 -0.594571
v -1.224226 0.893582 -0.623973
v -0.602195 0.990093 -0.464132
v -1.646921 0.915597 -0.073423
v -1.279565 1.013168 -0.120106
v -0.833841 1.008007 -0.152300
v -1.573304 0.875860 0.409427
v -1.219362 0.845571 0.449616
v -0.785724 0.844998 0.451264
v -0.025938 1.809649 -0.427370
v 0.210259 2.495247 -0.469105
v 0.257999 3.150134 -0.468325
v 0.113356 1.903335 0.075490
v 0.255590 2.456278 0.107257
v 0.366917 3.064353 0.126121
v -0.038416 1.582901 0.572770
v 0.196579 2.228571 0.670716
v 0.248708 2.910742 0.702507
v -1.723990 1.653311 -1.208104
v -1.779450 2.323211 -1.433446
v -1.770287 3.017761 -1.461407
v -1.201500 1.709996 -1.234321
v -1.183083 2.431587 -1.477053
v -1.162889 3.146549 -1.514992
v -0.675886 1.835720 -1.112602
v -0.584939 2.533333 -1.315867
v -0.555357 3.194148 -1.341284
vn 0.1097 0.9931 -0.0410
vn 0.0227 0.9994 0.0245
vn 0.0048 0.9996 0.0277
vn 0.0234 0.9994 0.0251
vn -0.1651 0.9715 -0.1700
vn 0.0072 0.9982 0.0602
vn -0.0143 0.9991 0.0403
vn 0.1963 0.9576 0.2108
vn -0.0619 0.9910 0.1184
vn 0.6292 0.5430 -0.5561
vn 0.3421 0.6962 -0.6311
vn 0.6845 0.6871 -0.2434
vn 0.0294 0.7199 -0.6934
vn -0.3090 0.6328 -0.7100
vn -0.6113 0.4655 -0.6401
vn -0.6989 0.6263 -0.3455
vn -0.6946 0.7194 0.0021
vn -0.6262 0.7170 0.3063
vn -0.5672 0.6053 0.5584
vn -0.2978 0.7117 0.6363
vn -0.0010 0.6869 0.7268
vn 0.3464 0.5561 0.7555
vn 0.7289 0.5602 0.3935
vn 0.6338 0.3775 0.6751
vn 0.7283 0.6824 0.0627
vn 0.2398 -0.4630 0.8533
vn 0.2987 -0.2191 0.9289
vn -0.0658 -0.1966 0.9783
vn -0.1035 -0.4414 0.8913
vn 0.3404 0.1037 0.9345
vn -0.0137 0.1599 0.9870
vn -0.4077 -0.1642 0.8982
vn -0.4046 -0.3921 0.8262
vn -0.3752 0.1704 0.9111
vn 0.5223 -0.6283 0.5766
vn 0.6142 -0.4647 0.6379
vn 0.1762 -0.7245 0.6664
vn 0.6744 -0.2327 0.7007
vn 0.6875 0.0627 0.7234
vn -0.7147 0.1609 0.6807
vn -0.7219 -0.1390 0.6779
vn -0.6887 -0.3676 0.6250
vn -0.3610 -0.6256 0.6916
vn -0.6396 -0.5196 0.5665
vn -0.1136 -0.7224 0.6821
vn -0.8653 -0.4130 0.2841
vn -0.9273 -0.1608 0.3381
vn -0.9889 -0.1429 0.0413
vn -0.9198 -0.3832 0.0850
vn -0.9212 0.1851 0.3422
vn -0.9804 0.1968 0.0010
vn -0.9429 -0.1839 -0.2778
vn -0.8780 -0.4466 -0.1723
vn -0.9222 0.1632 -0.3507
vn -0.5439 -0.7934 0.2733
vn -0.6822 0.1314 -0.7193
vn -0.6763 -0.1784 -0.7147
vn -0.6246 -0.4390 -0.6459
vn -0.5504 -0.8249 -0.1291
vn -0.5729 -0.5942 -0.5646
vn -0.6972 -0.7127 0.0778
vn -0.1742 -0.9287 -0.3275
vn 0.0672 -0.9702 -0.2328
vn 0.0710 -0.9969 -0.0347
vn -0.0996 -0.9950 -0.0074
vn 0.2445 -0.9317 -0.2687
vn 0.0271 -0.9990 -0.0342
vn -0.0489 -0.9864 0.1569
vn -0.2195 -0.9538 0.2052
vn 0.0975 -0.9856 0.1384
vn -0.1986 -0.6488 -0.7346
vn 0.0672 -0.6666 -0.7423
vn 0.3343 -0.6758 -0.6569
vn 0.6811 -0.3940 -0.6171
vn 0.5807 -0.7577 -0.2977
vn 0.5464 -0.8351 -0.0639
vn 0.5139 -0.8124 0.2755
vn 0.8745 -0.3568 -0.3285
vn 0.9190 -0.1982 -0.3408
vn 0.9785 -0.2036 -0.0318
vn 0.9322 -0.3589 -0.0457
vn 0.9390 0.1267 -0.3197
vn 0.9926 0.1174 0.0316
vn 0.9261 -0.2293 0.2996
vn 0.8556 -0.4521 0.2519
vn 0.9258 0.0801 0.3694
vn 0.6853 -0.3236 -0.6525
vn 0.7168 -0.1713 -0.6759
vn 0.7310 0.1204 -0.6717
vn -0.2047 -0.4346 -0.8770
vn -0.2559 -0.1827 -0.9493
vn 0.1192 -0.1817 -0.9761
vn 0.1130 -0.4026 -0.9084
vn -0.2964 0.1502 -0.9432
vn 0.0708 0.1747 -0.9821
vn 0.4324 -0.1735 -0.8848
vn 0.4072 -0.3468 -0.8449
vn 0.4146 0.1516 -0.8973
vt 0.687500 0.562500
vt 0.750000 0.562500
vt 0.750000 0.625000
vt 0.687500 0.625000
vt 0.812500 0.562500
vt 0.812500 0.625000
vt 0.750000 0.687500
vt 0.687500 0.687500
vt 0.812500 0.687500
vt 0.625000 0.500000
vt 0.687500 0.500000
vt 0.625000 0.562500
vt 0.750000 0.500000
vt 0.812500 0.500000
vt 0.875000 0.500000
vt 0.875000 0.562500
vt 0.875000 0.625000
vt 0.875000 0.687500
vt 0.875000 0.750000
vt 0.812500 0.750000
vt 0.750000 0.750000
vt 0.687500 0.750000
vt 0.625000 0.687500
vt 0.625000 0.750000
vt 0.625000 0.625000
vt 0.437500 0.812500
vt 0.500000 0.812500
vt 0.500000 0.875000
vt 0.437500 0.875000
vt 0.562500 0.812500
vt 0.562500 0.875000
vt 0.500000 0.937500
vt 0.437500 0.937500
vt 0.562500 0.937500
vt 0.375000 0.750000
vt 0.437500 0.750000
vt 0.375000 0.812500
vt 0.500000 0.750000
vt 0.562500 0.750000
vt 0.625000 0.812500
vt 0.625000 0.875000
vt 0.625000 0.937500
vt 0.625000 1.000000
vt 0.562500 1.000000
vt 0.500000 1.000000
vt 0.437500 1.000000
vt 0.375000 0.937500
vt 0.375000 1.000000
vt 0.375000 0.875000
vt 0.437500 0.062500
vt 0.500000 0.062500
vt 0.500000 0.125000
vt 0.437500 0.125000
vt 0.562500 0.062500
vt 0.562500 0.125000
vt 0.500000 0.187500
vt 0.437500 0.187500
vt 0.562500 0.187500
vt 0.375000 0.000000
vt 0.437500 0.000000
vt 0.375000 0.062500
vt 0.500000 0.000000
vt 0.562500 0.000000
vt 0.625000 0.000000
vt 0.625000 0.062500
vt 0.625000 0.125000
vt 0.625000 0.187500
vt 0.625000 0.250000
vt 0.562500 0.250000
vt 0.500000 0.250000
vt 0.437500 0.250000
vt 0.375000 0.187500
vt 0.375000 0.250000
vt 0.375000 0.125000
vt 0.187500 0.562500
vt 0.250000 0.562500
vt 0.250000 0.625000
vt 0.187500 0.625000
vt 0.312500 0.562500
vt 0.312500 0.625000
vt 0.250000 0.687500
vt 0.187500 0.687500
vt 0.312500 0.687500
vt 0.125000 0.500000
vt 0.187500 0.500000
vt 0.125000 0.562500
vt 0.250000 0.500000
vt 0.312500 0.500000
vt 0.375000 0.500000
vt 0.375000 0.562500
vt 0.375000 0.625000
vt 0.375000 0.687500
vt 0.312500 0.750000
vt 0.250000 0.750000
vt 0.187500 0.750000
vt 0.125000 0.687500
vt 0.125000 0.750000
vt 0.125000 0.625000
vt 0.437500 0.562500
vt 0.500000 0.562500
vt 0.500000 0.625000
vt 0.437500 0.625000
vt 0.562500 0.562500
vt 0.562500 0.625000
vt 0.500000 0.687500
vt 0.437500 0.687500
vt 0.562500 0.687500
vt 0.437500 0.500000
vt 0.500000 0.500000
vt 0.562500 0.500000
vt 0.437500 0.312500
vt 0.500000 0.312500
vt 0.500000 0.375000
vt 0.437500 0.375000
vt 0.562500 0.312500
vt 0.562500 0.375000
vt 0.500000 0.437500
vt 0.437500 0.437500
vt 0.562500 0.437500
vt 0.375000 0.312500
vt 0.625000 0.312500
vt 0.625000 0.375000
vt 0.625000 0.437500
vt 0.375000 0.437500
vt 0.375000 0.375000
s 1
usemtl Manzana
f 338/586/294 339/587/295 342/588/296 341/589/297
f 339/587/295 340/590/298 343/591/299 342/588/296
f 341/589/297 342/588/296 345/592/300 344/593/301
f 342/588/296 343/591/299 346/594/302 345/592/300
f 294/595/303 334/596/304 338/586/294 323/597/305
f 334/596/304 333/598/306 339/587/295 338/586/294
f 333/598/306 332/599/307 340/590/298 339/587/295
f 332/599/307 298/600/308 331/601/309 340/590/298
f 340/590/298 331/601/309 330/602/310 343/591/299
f 343/591/299 330/602/310 329/603/311 346/594/302
f 346/594/302 329/603/311 300/604/312 322/605/313
f 345/592/300 346/594/302 322/605/313 321/606/314
f 344/593/301 345/592/300 321/606/314 320/607/315
f 325/608/316 344/593/301 320/607/315 296/609/317
f 324/610/318 341/589/297 344/593/301 325/608/316
f 323/597/305 338/586/294 341/589/297 324/610/318
f 347/611/319 348/612/320 351/613/321 350/614/322
f 348/612/320 349/615/323 352/616/324 351/613/321
f 350/614/322 351/613/321 354/617/325 353/618/326
f 351/613/321 352/616/324 355/619/327 354/617/325
f 297/620/328 316/621/329 347/611/319 328/622/330
f 316/621/329 315/623/331 348/612/320 347/611/319
f 315/623/331 314/624/332 349/615/323 348/612/320
f 314/624/332 296/609/317 320/625/315 349/615/323
f 349/615/323 320/625/315 321/626/314 352/616/324
f 352/616/324 321/626/314 322/627/313 355/619/327
f 355/619/327 322/627/313 300/628/312 313/629/333
f 354/617/325 355/619/327 313/629/333 312/630/334
f 353/618/326 354/617/325 312/630/334 311/631/335
f 326/632/336 353/618/326 311/631/335 301/633/337
f 327/634/338 350/614/322 353/618/326 326/632/336
f 328/622/330 347/611/319 350/614/322 327/634/338
f 356/635/339 357/636/340 360/637/341 359/638/342
f 357/636/340 358/639/343 361/640/344 360/637/341
f 359/638/342 360/637/341 363/641/345 362/642/346
f 360/637/341 361/640/344 364/643/347 363/641/345
f 301/644/337 311/645/335 356/635/339 304/646/348
f 311/645/335 312/647/334 357/636/340 356/635/339
f 312/647/334 313/648/333 358/639/343 357/636/340
f 313/648/333 300/649/312 329/650/311 358/639/343
f 358/639/343 329/650/311 330/651/310 361/640/344
f 361/640/344 330/651/310 331/652/309 364/643/347
f 364/643/347 331/652/309 298/653/308 317/654/349
f 363/641/345 364/643/347 317/654/349 318/655/350
f 362/642/346 363/641/345 318/655/350 319/656/351
f 302/657/352 362/642/346 319/656/351 299/658/353
f 303/659/354 359/638/342 362/642/346 302/657/352
f 304/646/348 356/635/339 359/638/342 303/659/354
f 365/660/355 366/661/356 369/662/357 368/663/358
f 366/661/356 367/664/359 370/665/360 369/662/357
f 368/663/358 369/662/357 372/666/361 371/667/362
f 369/662/357 370/665/360 373/668/363 372/666/361
f 299/669/353 307/670/364 365/660/355 302/671/352
f 307/670/364 306/672/365 366/661/356 365/660/355
f 306/672/365 305/673/366 367/664/359 366/661/356
f 305/673/366 295/674/367 337/675/368 367/664/359
f 367/664/359 337/675/368 336/676/369 370/665/360
f 370/665/360 336/676/369 335/677/370 373/668/363
f 373/668/363 335/677/370 297/620/328 328/678/330
f 372/666/361 373/668/363 328/678/330 327/679/338
f 371/667/362 372/666/361 327/679/338 326/680/336
f 304/681/348 371/667/362 326/680/336 301/682/337
f 303/683/354 368/663/358 371/667/362 304/681/348
f 302/671/352 365/660/355 368/663/358 303/683/354
f 374/684/371 375/685/372 378/686/373 377/687/374
f 375/685/372 376/688/375 379/689/376 378/686/373
f 377/687/374 378/686/373 381/690/377 380/691/378
f 378/686/373 379/689/376 382/692/379 381/690/377
f 295/674/367 310/693/380 374/684/371 337/675/368
f 310/693/380 309/694/381 375/685/372 374/684/371
f 309/694/381 308/695/382 376/688/375 375/685/372
f 308/695/382 294/595/303 323/597/305 376/688/375
f 376/688/375 323/597/305 324/610/318 379/689/376
f 379/689/376 324/610/318 325/608/316 382/692/379
f 382/692/379 325/608/316 296/609/317 314/624/332
f 381/690/377 382/692/379 314/624/332 315/623/331
f 380/691/378 381/690/377 315/623/331 316/621/329
f 335/677/370 380/691/378 316/621/329 297/620/328
f 336/676/369 377/687/374 380/691/378 335/677/370
f 337/675/368 374/684/371 377/687/374 336/676/369
f 383/696/383 384/697/384 387/698/385 386/699/386
f 384/697/384 385/700/387 388/701/388 387/698/385
f 386/699/386 387/698/385 390/702/389 389/703/390
f 387/698/385 388/701/388 391/704/391 390/702/389
f 299/658/353 319/656/351 383/696/383 307/705/364
f 319/656/351 318/655/350 384/697/384 383/696/383
f 318/655/350 317/654/349 385/700/387 384/697/384
f 317/654/349 298/653/308 332/706/307 385/700/387
f 385/700/387 332/706/307 333/707/306 388/701/388
f 388/701/388 333/707/306 334/708/304 391/704/391
f 391/704/391 334/708/304 294/595/303 308/695/382
f 390/702/389 391/704/391 308/695/382 309/694/381
f 389/703/390 390/702/389 309/694/381 310/693/380
f 305/709/366 389/703/390 310/693/380 295/674/367
f 306/710/365 386/699/386 389/703/390 305/709/366
f 307/705/364 383/696/383 386/699/386 306/710/365
