# Blender 4.2.1 LTS
# www.blender.org
mtllib portal.mtl
o Cube
v -0.873794 4.618240 -0.654548
v -0.873794 3.012368 -0.654548
v -0.873794 4.618240 0.654548
v -0.873794 3.012368 0.654548
v -1.060467 4.505223 -0.615725
v -1.060467 3.125385 -0.615725
v -1.060467 4.505223 0.615725
v -1.060467 3.125385 0.615725
v -1.074082 3.039420 -0.364316
v -1.080921 2.997396 0.000000
v -1.074082 3.039420 0.364316
v -0.911754 2.923580 -0.740291
v -0.967131 2.905308 -0.774318
v -1.022507 2.996417 -0.715271
v -0.860179 4.294578 -0.755064
v -0.853341 3.815304 -0.805951
v -0.860179 3.336030 -0.755064
v -1.074082 3.408867 0.700499
v -1.080921 3.815304 0.742684
v -1.074082 4.221741 0.700499
v -0.860179 4.294579 0.755064
v -0.853341 3.815304 0.805951
v -0.860179 3.336030 0.755064
v -1.074082 4.221741 -0.700499
v -1.080921 3.815304 -0.742684
v -1.074082 3.408867 -0.700499
v -0.911754 4.707028 0.740292
v -0.967131 4.725301 0.774318
v -1.022507 4.634191 0.715271
v -0.860179 4.750031 -0.389337
v -0.853340 4.817389 0.000000
v -0.860179 4.750031 0.389337
v -1.022507 2.996417 0.715271
v -0.967131 2.905308 0.774318
v -0.911754 2.923580 0.740291
v -1.074082 4.591188 0.364316
v -1.080921 4.633213 -0.000000
v -1.074082 4.591188 -0.364316
v -1.022507 4.634191 -0.715271
v -0.967131 4.725301 -0.774318
v -0.911754 4.707028 -0.740291
v -0.860179 2.880577 0.389337
v -0.853341 2.813220 0.000000
v -0.860179 2.880577 -0.389337
v -0.908112 4.958116 -0.408017
v -0.967131 4.982461 -0.423179
v -1.026149 4.849045 -0.395195
v -0.904942 5.045772 0.000000
v -0.967131 5.068565 0.000000
v -1.029319 4.919150 -0.000000
v -0.908112 4.958116 0.408017
v -0.967131 4.982461 0.423179
v -1.026149 4.849045 0.395195
v -0.908112 3.324666 0.944750
v -0.904942 3.815304 1.014884
v -0.908112 4.305943 0.944750
v -0.967131 3.317974 0.993136
v -0.967131 3.815304 1.066402
v -0.967131 4.312634 0.993136
v -1.026149 3.361989 0.907282
v -1.029319 3.815304 0.971388
v -1.026149 4.268619 0.907282
v -1.103214 3.397863 0.382872
v -1.113077 3.815304 0.401431
v -1.103214 4.232745 0.382872
v -1.113077 3.381284 -0.000000
v -1.123844 3.815304 -0.000000
v -1.113077 4.249324 0.000000
v -1.103214 3.397863 -0.382872
v -1.113077 3.815304 -0.401431
v -1.103214 4.232745 -0.382872
v -1.026149 2.781563 -0.395195
v -0.967131 2.648147 -0.423179
v -0.908112 2.672493 -0.408017
v -1.029319 2.711458 0.000000
v -0.967131 2.562043 0.000000
v -0.904942 2.584837 -0.000000
v -1.026149 2.781563 0.395195
v -0.967131 2.648147 0.423179
v -0.908113 2.672493 0.408017
v -0.831048 3.288792 -0.420340
v -0.821184 3.815304 -0.444928
v -0.831048 4.341816 -0.420340
v -0.821184 3.254663 0.000000
v -0.810417 3.815304 0.000000
v -0.821184 4.375945 0.000000
v -0.831048 3.288792 0.420340
v -0.821184 3.815304 0.444928
v -0.831048 4.341816 0.420340
v -1.026149 3.361989 -0.907282
v -1.029319 3.815304 -0.971388
v -1.026149 4.268619 -0.907282
v -0.967131 3.317974 -0.993136
v -0.967131 3.815304 -1.066402
v -0.967131 4.312634 -0.993136
v -0.908112 3.324666 -0.944750
v -0.904942 3.815304 -1.014884
v -0.908112 4.305943 -0.944750
vn 0.9762 0.1363 -0.1685
vn 0.9762 -0.1363 -0.1685
vn 0.9762 0.1363 0.1685
vn 0.9762 -0.1363 0.1685
vn -0.9827 0.1213 -0.1402
vn -0.9827 -0.1213 -0.1402
vn -0.9827 0.1213 0.1402
vn -0.9827 -0.1213 0.1402
vn -0.9887 -0.1327 -0.0691
vn -0.9910 -0.1340 -0.0000
vn -0.9887 -0.1327 0.0691
vn 0.7814 -0.4142 -0.4668
vn -0.2279 -0.6370 -0.7364
vn -0.9302 -0.2348 -0.2822
vn 0.9824 0.0672 -0.1743
vn 0.9853 -0.0000 -0.1707
vn 0.9824 -0.0672 -0.1743
vn -0.9857 -0.0634 0.1559
vn -0.9871 -0.0000 0.1603
vn -0.9857 0.0634 0.1559
vn 0.9824 0.0672 0.1743
vn 0.9853 -0.0000 0.1707
vn 0.9824 -0.0672 0.1743
vn -0.9857 0.0634 -0.1559
vn -0.9871 -0.0000 -0.1603
vn -0.9857 -0.0634 -0.1559
vn 0.7814 0.4142 0.4668
vn -0.2279 0.6370 0.7364
vn -0.9302 0.2348 0.2822
vn 0.9841 0.1536 -0.0890
vn 0.9880 0.1547 -0.0000
vn 0.9841 0.1536 0.0890
vn -0.9302 -0.2348 0.2822
vn -0.2279 -0.6370 0.7364
vn 0.7814 -0.4142 0.4668
vn -0.9887 0.1327 0.0691
vn -0.9910 0.1340 -0.0000
vn -0.9887 0.1327 -0.0691
vn -0.9302 0.2348 -0.2822
vn -0.2279 0.6370 -0.7364
vn 0.7814 0.4142 -0.4668
vn 0.9841 -0.1536 0.0890
vn 0.9880 -0.1547 -0.0000
vn 0.9841 -0.1536 -0.0890
vn 0.7501 0.6061 -0.2647
vn -0.3125 0.8687 -0.3844
vn -0.9483 0.2888 -0.1315
vn 0.7373 0.6755 -0.0000
vn -0.3497 0.9369 -0.0000
vn -0.9554 0.2953 -0.0000
vn 0.7501 0.6061 0.2647
vn -0.3125 0.8687 0.3844
vn -0.9483 0.2888 0.1315
vn 0.8205 -0.1815 0.5422
vn 0.8350 -0.0000 0.5503
vn 0.8205 0.1815 0.5422
vn -0.1618 -0.3061 0.9382
vn -0.1414 -0.0000 0.9900
vn -0.1618 0.3061 0.9382
vn -0.9184 -0.1205 0.3770
vn -0.9166 -0.0000 0.3998
vn -0.9184 0.1205 0.3770
vn -0.9968 -0.0537 0.0592
vn -0.9981 -0.0000 0.0609
vn -0.9968 0.0537 0.0592
vn -0.9985 -0.0547 -0.0000
vn -1.0000 -0.0000 -0.0000
vn -0.9985 0.0547 -0.0000
vn -0.9968 -0.0537 -0.0592
vn -0.9981 -0.0000 -0.0609
vn -0.9968 0.0537 -0.0592
vn -0.9483 -0.2888 -0.1315
vn -0.3125 -0.8687 -0.3844
vn 0.7501 -0.6061 -0.2647
vn -0.9554 -0.2953 -0.0000
vn -0.3497 -0.9369 -0.0000
vn 0.7373 -0.6755 -0.0000
vn -0.9483 -0.2888 0.1315
vn -0.3125 -0.8687 0.3844
vn 0.7501 -0.6061 0.2647
vn 0.9971 -0.0481 -0.0595
vn 0.9983 -0.0000 -0.0579
vn 0.9971 0.0481 -0.0595
vn 0.9989 -0.0477 -0.0000
vn 1.0000 -0.0000 -0.0000
vn 0.9989 0.0477 -0.0000
vn 0.9971 -0.0481 0.0595
vn 0.9983 -0.0000 0.0579
vn 0.9971 0.0481 0.0595
vn -0.9184 -0.1205 -0.3770
vn -0.9166 -0.0000 -0.3998
vn -0.9184 0.1205 -0.3770
vn -0.1618 -0.3061 -0.9382
vn -0.1414 -0.0000 -0.9900
vn -0.1618 0.3061 -0.9382
vn 0.8204 -0.1815 -0.5422
vn 0.8350 -0.0000 -0.5503
vn 0.8204 0.1815 -0.5422
vt 0.687500 0.562500
vt 0.750000 0.562500
vt 0.750000 0.625000
vt 0.687500 0.625000
vt 0.812500 0.562500
vt 0.812500 0.625000
vt 0.750000 0.687500
vt 0.687500 0.687500
vt 0.812500 0.687500
vt 0.625000 0.500000
vt 0.687500 0.500000
vt 0.625000 0.562500
vt 0.750000 0.500000
vt 0.812500 0.500000
vt 0.875000 0.500000
vt 0.875000 0.562500
vt 0.875000 0.625000
vt 0.875000 0.687500
vt 0.875000 0.750000
vt 0.812500 0.750000
vt 0.750000 0.750000
vt 0.687500 0.750000
vt 0.625000 0.687500
vt 0.625000 0.750000
vt 0.625000 0.625000
vt 0.437500 0.812500
vt 0.500000 0.812500
vt 0.500000 0.875000
vt 0.437500 0.875000
vt 0.562500 0.812500
vt 0.562500 0.875000
vt 0.500000 0.937500
vt 0.437500 0.937500
vt 0.562500 0.937500
vt 0.375000 0.750000
vt 0.437500 0.750000
vt 0.375000 0.812500
vt 0.500000 0.750000
vt 0.562500 0.750000
vt 0.625000 0.812500
vt 0.625000 0.875000
vt 0.625000 0.937500
vt 0.625000 1.000000
vt 0.562500 1.000000
vt 0.500000 1.000000
vt 0.437500 1.000000
vt 0.375000 0.937500
vt 0.375000 1.000000
vt 0.375000 0.875000
vt 0.437500 0.062500
vt 0.500000 0.062500
vt 0.500000 0.125000
vt 0.437500 0.125000
vt 0.562500 0.062500
vt 0.562500 0.125000
vt 0.500000 0.187500
vt 0.437500 0.187500
vt 0.562500 0.187500
vt 0.375000 0.000000
vt 0.437500 0.000000
vt 0.375000 0.062500
vt 0.500000 0.000000
vt 0.562500 0.000000
vt 0.625000 0.000000
vt 0.625000 0.062500
vt 0.625000 0.125000
vt 0.625000 0.187500
vt 0.625000 0.250000
vt 0.562500 0.250000
vt 0.500000 0.250000
vt 0.437500 0.250000
vt 0.375000 0.187500
vt 0.375000 0.250000
vt 0.375000 0.125000
vt 0.187500 0.562500
vt 0.250000 0.562500
vt 0.250000 0.625000
vt 0.187500 0.625000
vt 0.312500 0.562500
vt 0.312500 0.625000
vt 0.250000 0.687500
vt 0.187500 0.687500
vt 0.312500 0.687500
vt 0.125000 0.500000
vt 0.187500 0.500000
vt 0.125000 0.562500
vt 0.250000 0.500000
vt 0.312500 0.500000
vt 0.375000 0.500000
vt 0.375000 0.562500
vt 0.375000 0.625000
vt 0.375000 0.687500
vt 0.312500 0.750000
vt 0.250000 0.750000
vt 0.187500 0.750000
vt 0.125000 0.687500
vt 0.125000 0.750000
vt 0.125000 0.625000
vt 0.437500 0.562500
vt 0.500000 0.562500
vt 0.500000 0.625000
vt 0.437500 0.625000
vt 0.562500 0.562500
vt 0.562500 0.625000
vt 0.500000 0.687500
vt 0.437500 0.687500
vt 0.562500 0.687500
vt 0.437500 0.500000
vt 0.500000 0.500000
vt 0.562500 0.500000
vt 0.437500 0.312500
vt 0.500000 0.312500
vt 0.500000 0.375000
vt 0.437500 0.375000
vt 0.562500 0.312500
vt 0.562500 0.375000
vt 0.500000 0.437500
vt 0.437500 0.437500
vt 0.562500 0.437500
vt 0.375000 0.312500
vt 0.625000 0.312500
vt 0.625000 0.375000
vt 0.625000 0.437500
vt 0.375000 0.437500
vt 0.375000 0.375000
s 1
usemtl Material
f 45/1/45 46/2/46 49/3/49 48/4/48
f 46/2/46 47/5/47 50/6/50 49/3/49
f 48/4/48 49/3/49 52/7/52 51/8/51
f 49/3/49 50/6/50 53/9/53 52/7/52
f 1/10/1 41/11/41 45/1/45 30/12/30
f 41/11/41 40/13/40 46/2/46 45/1/45
f 40/13/40 39/14/39 47/5/47 46/2/46
f 39/14/39 5/15/5 38/16/38 47/5/47
f 47/5/47 38/16/38 37/17/37 50/6/50
f 50/6/50 37/17/37 36/18/36 53/9/53
f 53/9/53 36/18/36 7/19/7 29/20/29
f 52/7/52 53/9/53 29/20/29 28/21/28
f 51/8/51 52/7/52 28/21/28 27/22/27
f 32/23/32 51/8/51 27/22/27 3/24/3
f 31/25/31 48/4/48 51/8/51 32/23/32
f 30/12/30 45/1/45 48/4/48 31/25/31
f 54/26/54 55/27/55 58/28/58 57/29/57
f 55/27/55 56/30/56 59/31/59 58/28/58
f 57/29/57 58/28/58 61/32/61 60/33/60
f 58/28/58 59/31/59 62/34/62 61/32/61
f 4/35/4 23/36/23 54/26/54 35/37/35
f 23/36/23 22/38/22 55/27/55 54/26/54
f 22/38/22 21/39/21 56/30/56 55/27/55
f 21/39/21 3/24/3 27/40/27 56/30/56
f 56/30/56 27/40/27 28/41/28 59/31/59
f 59/31/59 28/41/28 29/42/29 62/34/62
f 62/34/62 29/42/29 7/43/7 20/44/20
f 61/32/61 62/34/62 20/44/20 19/45/19
f 60/33/60 61/32/61 19/45/19 18/46/18
f 33/47/33 60/33/60 18/46/18 8/48/8
f 34/49/34 57/29/57 60/33/60 33/47/33
f 35/37/35 54/26/54 57/29/57 34/49/34
f 63/50/63 64/51/64 67/52/67 66/53/66
f 64/51/64 65/54/65 68/55/68 67/52/67
f 66/53/66 67/52/67 70/56/70 69/57/69
f 67/52/67 68/55/68 71/58/71 70/56/70
f 8/59/8 18/60/18 63/50/63 11/61/11
f 18/60/18 19/62/19 64/51/64 63/50/63
f 19/62/19 20/63/20 65/54/65 64/51/64
f 20/63/20 7/64/7 36/65/36 65/54/65
f 65/54/65 36/65/36 37/66/37 68/55/68
f 68/55/68 37/66/37 38/67/38 71/58/71
f 71/58/71 38/67/38 5/68/5 24/69/24
f 70/56/70 71/58/71 24/69/24 25/70/25
f 69/57/69 70/56/70 25/70/25 26/71/26
f 9/72/9 69/57/69 26/71/26 6/73/6
f 10/74/10 66/53/66 69/57/69 9/72/9
f 11/61/11 63/50/63 66/53/66 10/74/10
f 72/75/72 73/76/73 76/77/76 75/78/75
f 73/76/73 74/79/74 77/80/77 76/77/76
f 75/78/75 76/77/76 79/81/79 78/82/78
f 76/77/76 77/80/77 80/83/80 79/81/79
f 6/84/6 14/85/14 72/75/72 9/86/9
f 14/85/14 13/87/13 73/76/73 72/75/72
f 13/87/13 12/88/12 74/79/74 73/76/73
f 12/88/12 2/89/2 44/90/44 74/79/74
f 74/79/74 44/90/44 43/91/43 77/80/77
f 77/80/77 43/91/43 42/92/42 80/83/80
f 80/83/80 42/92/42 4/35/4 35/93/35
f 79/81/79 80/83/80 35/93/35 34/94/34
f 78/82/78 79/81/79 34/94/34 33/95/33
f 11/96/11 78/82/78 33/95/33 8/97/8
f 10/98/10 75/78/75 78/82/78 11/96/11
f 9/86/9 72/75/72 75/78/75 10/98/10
f 81/99/81 82/100/82 85/101/85 84/102/84
f 82/100/82 83/103/83 86/104/86 85/101/85
f 84/102/84 85/101/85 88/105/88 87/106/87
f 85/101/85 86/104/86 89/107/89 88/105/88
f 2/89/2 17/108/17 81/99/81 44/90/44
f 17/108/17 16/109/16 82/100/82 81/99/81
f 16/109/16 15/110/15 83/103/83 82/100/82
f 15/110/15 1/10/1 30/12/30 83/103/83
f 83/103/83 30/12/30 31/25/31 86/104/86
f 86/104/86 31/25/31 32/23/32 89/107/89
f 89/107/89 32/23/32 3/24/3 21/39/21
f 88/105/88 89/107/89 21/39/21 22/38/22
f 87/106/87 88/105/88 22/38/22 23/36/23
f 42/92/42 87/106/87 23/36/23 4/35/4
f 43/91/43 84/102/84 87/106/87 42/92/42
f 44/90/44 81/99/81 84/102/84 43/91/43
f 90/111/90 91/112/91 94/113/94 93/114/93
f 91/112/91 92/115/92 95/116/95 94/113/94
f 93/114/93 94/113/94 97/117/97 96/118/96
f 94/113/94 95/116/95 98/119/98 97/117/97
f 6/73/6 26/71/26 90/111/90 14/120/14
f 26/71/26 25/70/25 91/112/91 90/111/90
f 25/70/25 24/69/24 92/115/92 91/112/91
f 24/69/24 5/68/5 39/121/39 92/115/92
f 92/115/92 39/121/39 40/122/40 95/116/95
f 95/116/95 40/122/40 41/123/41 98/119/98
f 98/119/98 41/123/41 1/10/1 15/110/15
f 97/117/97 98/119/98 15/110/15 16/109/16
f 96/118/96 97/117/97 16/109/16 17/108/17
f 12/124/12 96/118/96 17/108/17 2/89/2
f 13/125/13 93/114/93 96/118/96 12/124/12
f 14/120/14 90/111/90 93/114/93 13/125/13
