# Blender 4.4.3
# www.blender.org
mtllib worm_tail.mtl
o Cubo
v -0.271162 -0.057021 0.855734
v -0.307179 0.571930 0.847235
v -0.155168 -0.282356 -0.666376
v -0.204120 -0.013938 -0.730009
v 0.347922 -0.057021 0.855734
v 0.383938 0.571931 0.847235
v 0.189916 -0.282356 -0.666376
v 0.209123 -0.013937 -0.730009
v -0.333606 -0.224305 0.262251
v -0.417818 0.420030 0.221211
v 0.402683 -0.224305 0.262251
v 0.476979 0.420031 0.221211
v -0.354251 -0.201511 0.489096
v -0.349517 -0.168505 0.665097
v -0.316106 -0.115105 0.788294
v -0.323685 0.076244 0.877122
v -0.358327 0.266587 0.886376
v -0.346897 0.450823 0.872297
v -0.378749 0.299456 -0.061160
v -0.323054 0.174648 -0.345040
v -0.258843 0.062762 -0.583334
v -0.213558 -0.083758 -0.769436
v -0.206486 -0.168641 -0.776497
v -0.182579 -0.239819 -0.731194
v 0.116964 -0.307480 -0.712620
v 0.017690 -0.319463 -0.735751
v -0.081846 -0.307480 -0.712619
v -0.121818 -0.016096 -0.788011
v -0.001969 -0.017819 -0.817243
v 0.120919 -0.016096 -0.788011
v 0.221652 -0.083758 -0.769436
v 0.222206 -0.168641 -0.776497
v 0.208703 -0.239819 -0.731194
v 0.356552 -0.247855 -0.006030
v 0.298249 -0.268863 -0.279265
v 0.237519 -0.281103 -0.515221
v 0.502451 0.519235 0.460490
v 0.492027 0.580875 0.646099
v 0.444368 0.593718 0.775994
v 0.423656 0.450823 0.872297
v 0.435087 0.266587 0.886376
v 0.400445 0.076244 0.877123
v -0.144023 -0.100421 0.879027
v 0.038380 -0.122505 0.890685
v 0.220783 -0.100421 0.879027
v 0.243994 0.627487 0.870393
v 0.038379 0.655678 0.882069
v -0.167235 0.627487 0.870393
v -0.194697 -0.281103 -0.515221
v -0.245355 -0.268863 -0.279265
v -0.294540 -0.247855 -0.006030
v -0.367884 0.593718 0.775994
v -0.417467 0.580875 0.646099
v -0.433116 0.519235 0.460490
v 0.392746 -0.115105 0.788294
v 0.425317 -0.168505 0.665097
v 0.427770 -0.201511 0.489096
v 0.271400 0.062762 -0.583334
v 0.349471 0.174649 -0.345040
v 0.422269 0.299456 -0.061160
v -0.221361 0.510640 0.215441
v 0.028651 0.540844 0.213517
v 0.279127 0.510640 0.215441
v 0.230992 -0.314915 0.268023
v 0.035467 -0.345119 0.269946
v -0.160521 -0.314915 0.268023
v 0.580405 0.274048 0.230510
v 0.592746 0.097863 0.241731
v 0.528629 -0.078323 0.252953
v -0.518998 0.274048 0.230510
v -0.528627 0.097862 0.241731
v -0.461799 -0.078324 0.252953
v -0.410214 -0.124033 -0.019012
v -0.472389 0.025548 -0.034560
v -0.466800 0.175381 -0.049143
v -0.342043 -0.169801 -0.298102
v -0.395090 -0.049128 -0.319873
v -0.393543 0.073566 -0.333923
v -0.265535 -0.208661 -0.545037
v -0.304906 -0.116248 -0.576321
v -0.307442 -0.017230 -0.582366
v -0.089729 -0.265467 -0.840139
v -0.103159 -0.200863 -0.899605
v -0.111625 -0.116491 -0.883548
v 0.010392 -0.276127 -0.876242
v 0.003500 -0.211651 -0.940825
v -0.001205 -0.125599 -0.922969
v 0.111562 -0.265467 -0.840139
v 0.112346 -0.200863 -0.899605
v 0.112175 -0.116491 -0.883548
v 0.560050 -0.038128 0.482833
v 0.626119 0.158975 0.475223
v 0.611688 0.355965 0.467182
v 0.554053 0.001991 0.662542
v 0.616460 0.207085 0.659039
v 0.600004 0.411280 0.652094
v 0.503420 0.045790 0.792022
v 0.555561 0.242460 0.794195
v 0.538879 0.436186 0.785120
v 0.237423 0.073070 0.926387
v 0.253721 0.280945 0.941234
v 0.249317 0.480011 0.922428
v 0.038380 0.065107 0.943101
v 0.038380 0.285752 0.959602
v 0.038379 0.496782 0.939368
v -0.160663 0.073070 0.926387
v -0.176961 0.280945 0.941234
v -0.172557 0.480011 0.922428
v -0.171384 -0.302934 0.493321
v 0.037151 -0.336743 0.494868
v 0.245491 -0.302934 0.493321
v -0.169167 -0.274435 0.669379
v 0.038016 -0.309758 0.671918
v 0.245140 -0.274435 0.669379
v -0.153938 -0.212047 0.796075
v 0.038334 -0.244635 0.802053
v 0.230599 -0.212047 0.796075
v 0.295593 0.620771 0.456695
v 0.034276 0.654693 0.455578
v -0.226846 0.620771 0.456695
v 0.290636 0.687705 0.645257
v 0.037164 0.723929 0.646158
v -0.216250 0.687705 0.645257
v 0.266001 0.694024 0.781067
v 0.038227 0.729555 0.786336
v -0.189538 0.694024 0.781067
v 0.154261 0.101091 -0.607755
v 0.002334 0.110513 -0.623992
v -0.147155 0.101091 -0.607755
v 0.200101 0.234456 -0.358429
v 0.010349 0.253231 -0.365554
v -0.177822 0.234455 -0.358429
v 0.244799 0.376102 -0.069430
v 0.019978 0.401506 -0.072520
v -0.203933 0.376102 -0.069430
v -0.093681 -0.326982 -0.519648
v 0.023920 -0.343010 -0.528650
v 0.140422 -0.326982 -0.519648
v -0.116334 -0.330690 -0.273596
v 0.028897 -0.351487 -0.274191
v 0.172956 -0.330690 -0.273596
v -0.140523 -0.324753 0.001275
v 0.032735 -0.350409 0.003400
v 0.205135 -0.324753 0.001275
v 0.300709 -0.208661 -0.545037
v 0.331160 -0.116248 -0.576321
v 0.326115 -0.017230 -0.582366
v 0.388678 -0.169801 -0.298102
v 0.434335 -0.049128 -0.319873
v 0.425811 0.073566 -0.333923
v 0.468002 -0.124032 -0.019012
v 0.525103 0.025549 -0.034560
v 0.514490 0.175382 -0.049143
v -0.426816 0.045790 0.792022
v -0.479000 0.242460 0.794195
v -0.462360 0.436186 0.785120
v -0.478536 0.001991 0.662542
v -0.541280 0.207085 0.659039
v -0.525163 0.411280 0.652094
v -0.487479 -0.038128 0.482833
v -0.554692 0.158975 0.475223
v -0.541405 0.355964 0.467182
vn -0.8379 -0.5381 -0.0913
vn -0.9657 -0.1869 -0.1802
vn -0.9469 -0.2175 -0.2369
vn -0.8160 -0.5623 -0.1343
vn -0.9163 0.2666 -0.2990
vn -0.9033 0.2382 -0.3568
vn -0.9143 -0.2425 -0.3244
vn -0.7891 -0.5811 -0.1988
vn -0.8772 0.2028 -0.4353
vn -0.6260 -0.7798 0.0024
vn -0.8599 -0.5088 -0.0416
vn -0.6033 -0.7970 -0.0304
vn -0.9809 -0.1561 -0.1157
vn -0.9292 0.2865 -0.2333
vn -0.6282 0.6926 -0.3545
vn -0.6120 0.6829 -0.3989
vn -0.6041 0.6630 -0.4421
vn -0.5960 0.6273 -0.5013
vn -0.5719 0.5871 -0.5729
vn -0.7670 0.2312 -0.5985
vn -0.8252 -0.2568 -0.5031
vn -0.6992 -0.6421 -0.3144
vn -0.5629 -0.8193 -0.1089
vn -0.5382 -0.8243 -0.1757
vn -0.5830 -0.8102 -0.0612
vn -0.4563 -0.7637 -0.4566
vn -0.5501 -0.2627 -0.7927
vn -0.0032 -0.2564 -0.9666
vn 0.0089 -0.8263 -0.5632
vn -0.4933 0.3422 -0.7997
vn -0.0124 0.4106 -0.9117
vn 0.5375 -0.2180 -0.8146
vn 0.4733 -0.7277 -0.4964
vn 0.4577 0.3783 -0.8046
vn -0.3175 -0.9258 -0.2050
vn -0.3184 0.6985 -0.6409
vn -0.0029 0.7554 -0.6553
vn 0.2990 0.7043 -0.6438
vn 0.5344 0.6039 -0.5913
vn 0.7257 0.2813 -0.6279
vn 0.8114 -0.1863 -0.5540
vn 0.7167 -0.5914 -0.3696
vn 0.3320 -0.9145 -0.2311
vn 0.5601 -0.8005 -0.2134
vn 0.0035 -0.9750 -0.2221
vn 0.8809 -0.4710 0.0471
vn 0.9925 -0.1212 -0.0176
vn 0.9647 -0.0914 0.2471
vn 0.8596 -0.4227 0.2869
vn 0.9431 0.3046 -0.1333
vn 0.9379 0.3135 0.1485
vn 0.7873 -0.0510 0.6145
vn 0.7169 -0.3264 0.6160
vn 0.7874 0.2833 0.5475
vn 0.6309 -0.7757 -0.0140
vn 0.8639 -0.4987 -0.0699
vn 0.6511 -0.7548 0.0797
vn 0.9777 -0.1431 -0.1539
vn 0.9167 0.2930 -0.2718
vn 0.6172 0.6886 -0.3807
vn 0.6560 0.7032 -0.2741
vn 0.6931 0.7208 -0.0082
vn 0.6256 0.6580 0.4192
vn 0.4333 0.4837 0.7604
vn 0.4742 0.2212 0.8522
vn 0.4651 -0.0140 0.8851
vn 0.4407 -0.2187 0.8706
vn 0.5522 -0.5735 0.6052
vn 0.3927 -0.3985 0.8289
vn 0.6448 -0.7028 0.3004
vn 0.1847 -0.1758 0.9670
vn 0.1919 0.0058 0.9814
vn -0.0000 0.0110 0.9999
vn -0.0000 -0.1742 0.9847
vn 0.1943 0.2099 0.9582
vn -0.0000 0.2200 0.9755
vn -0.1919 0.0058 0.9814
vn -0.1847 -0.1758 0.9669
vn -0.1943 0.2100 0.9582
vn 0.2064 -0.4283 0.8798
vn 0.2290 0.5548 0.7998
vn 0.0001 0.5803 0.8144
vn -0.2289 0.5546 0.8000
vn -0.4328 0.4834 0.7609
vn -0.4737 0.2210 0.8525
vn -0.4648 -0.0140 0.8853
vn -0.4404 -0.2186 0.8708
vn -0.2063 -0.4282 0.8798
vn -0.3925 -0.3984 0.8290
vn -0.0000 -0.4365 0.8997
vn -0.3321 -0.9381 0.0990
vn 0.0002 -0.9952 0.0981
vn 0.0002 -0.9515 0.3077
vn -0.3337 -0.8908 0.3083
vn 0.3333 -0.9381 0.0942
vn 0.3346 -0.8914 0.3057
vn 0.0001 -0.7596 0.6503
vn -0.2810 -0.7231 0.6310
vn 0.2815 -0.7235 0.6303
vn -0.3174 -0.9479 0.0263
vn -0.6482 -0.7560 0.0912
vn 0.0003 -0.9995 0.0313
vn 0.3195 -0.9474 0.0195
vn -0.5508 -0.5729 0.6069
vn -0.6425 -0.7023 0.3065
vn 0.2803 0.8899 -0.3599
vn 0.0001 0.9254 -0.3789
vn 0.0002 0.9829 -0.1841
vn 0.3146 0.9382 -0.1443
vn -0.2815 0.8931 -0.3510
vn -0.3145 0.9392 -0.1379
vn 0.0003 0.9473 0.3203
vn 0.3039 0.8946 0.3276
vn -0.3031 0.8941 0.3298
vn 0.2582 0.8678 -0.4246
vn -0.0001 0.9031 -0.4294
vn -0.2605 0.8724 -0.4136
vn -0.6610 0.7063 -0.2533
vn -0.6927 0.7212 0.0051
vn -0.6236 0.6570 0.4237
vn 0.2361 0.8180 -0.5245
vn -0.0009 0.8531 -0.5218
vn -0.0006 0.8841 -0.4674
vn 0.2396 0.8473 -0.4740
vn -0.2451 0.8210 -0.5156
vn -0.2460 0.8518 -0.4625
vn -0.0003 0.8962 -0.4436
vn 0.2462 0.8602 -0.4466
vn -0.2504 0.8652 -0.4344
vn 0.5629 0.6378 -0.5257
vn 0.5939 0.6811 -0.4282
vn 0.5782 0.6665 -0.4706
vn -0.2793 -0.9574 -0.0733
vn 0.0014 -0.9972 -0.0750
vn 0.0008 -0.9999 -0.0135
vn -0.2919 -0.9562 -0.0213
vn 0.2876 -0.9537 -0.0883
vn 0.2982 -0.9539 -0.0328
vn 0.0005 -0.9999 0.0136
vn -0.3039 -0.9527 0.0052
vn 0.3078 -0.9514 -0.0036
vn 0.5829 -0.7999 -0.1430
vn 0.5977 -0.7968 -0.0888
vn 0.6124 -0.7888 -0.0520
vn 0.8062 -0.5354 -0.2517
vn 0.9058 -0.1808 -0.3833
vn 0.9404 -0.1740 -0.2921
vn 0.8287 -0.5301 -0.1795
vn 0.8401 0.2491 -0.4819
vn 0.8740 0.2683 -0.4052
vn 0.9603 -0.1607 -0.2281
vn 0.8455 -0.5183 -0.1281
vn 0.8951 0.2826 -0.3448
vn -0.7147 -0.3260 0.6188
vn -0.7843 -0.0513 0.6183
vn -0.9608 -0.0928 0.2614
vn -0.8559 -0.4231 0.2972
vn -0.7843 0.2823 0.5524
vn -0.9356 0.3122 0.1647
vn -0.9919 -0.1263 0.0091
vn -0.8776 -0.4747 0.0665
vn -0.9474 0.3024 -0.1049
vt 0.437500 0.123853
vt 0.500000 0.125257
vt 0.500000 0.165933
vt 0.437500 0.165182
vt 0.562500 0.123853
vt 0.562500 0.165182
vt 0.500000 0.210812
vt 0.437500 0.209664
vt 0.562500 0.209664
vt 0.375000 0.077062
vt 0.437500 0.088048
vt 0.375000 0.120296
vt 0.500000 0.090378
vt 0.562500 0.088048
vt 0.625000 0.077062
vt 0.625000 0.120296
vt 0.625000 0.163531
vt 0.625000 0.206765
vt 0.625000 0.250000
vt 0.562500 0.258830
vt 0.500000 0.260703
vt 0.437500 0.258830
vt 0.375000 0.206765
vt 0.375000 0.250000
vt 0.375000 0.163531
vt 0.437500 0.315192
vt 0.500000 0.316246
vt 0.500000 0.375000
vt 0.437500 0.375000
vt 0.562500 0.315192
vt 0.562500 0.375000
vt 0.500000 0.433754
vt 0.437500 0.434808
vt 0.562500 0.434808
vt 0.375000 0.312500
vt 0.625000 0.312500
vt 0.625000 0.375000
vt 0.625000 0.437500
vt 0.625000 0.500000
vt 0.562500 0.491153
vt 0.500000 0.489297
vt 0.437500 0.491153
vt 0.375000 0.437500
vt 0.375000 0.500000
vt 0.375000 0.375000
vt 0.437500 0.685678
vt 0.500000 0.685763
vt 0.500000 0.711874
vt 0.437500 0.711198
vt 0.562500 0.685678
vt 0.562500 0.711198
vt 0.500000 0.739192
vt 0.437500 0.736893
vt 0.562500 0.736893
vt 0.375000 0.656959
vt 0.437500 0.656959
vt 0.375000 0.685537
vt 0.500000 0.656959
vt 0.562500 0.656959
vt 0.625000 0.656959
vt 0.625000 0.685537
vt 0.625000 0.710072
vt 0.625000 0.732286
vt 0.625000 0.750000
vt 0.562500 0.769853
vt 0.500000 0.774019
vt 0.437500 0.769853
vt 0.375000 0.732286
vt 0.375000 0.750000
vt 0.375000 0.710072
vt 0.437500 0.818749
vt 0.500000 0.821207
vt 0.500000 0.877402
vt 0.437500 0.876651
vt 0.562500 0.818749
vt 0.562500 0.876651
vt 0.500000 0.937800
vt 0.437500 0.937706
vt 0.562500 0.937706
vt 0.375000 0.812500
vt 0.625000 0.812500
vt 0.625000 0.875000
vt 0.625000 0.937500
vt 0.625000 1.000000
vt 0.562500 1.000000
vt 0.500000 1.000000
vt 0.437500 1.000000
vt 0.375000 0.937500
vt 0.375000 1.000000
vt 0.375000 0.875000
vt 0.187500 0.688620
vt 0.250000 0.686420
vt 0.250000 0.709805
vt 0.187500 0.710512
vt 0.312500 0.685591
vt 0.312500 0.709588
vt 0.250000 0.730527
vt 0.187500 0.730615
vt 0.312500 0.730650
vt 0.125000 0.672938
vt 0.187500 0.661786
vt 0.125000 0.692204
vt 0.250000 0.658290
vt 0.312500 0.657125
vt 0.312500 0.750000
vt 0.250000 0.750000
vt 0.187500 0.750000
vt 0.125000 0.730735
vt 0.125000 0.750000
vt 0.125000 0.711469
vt 0.687500 0.685591
vt 0.750000 0.686419
vt 0.750000 0.709805
vt 0.687500 0.709588
vt 0.812500 0.688620
vt 0.812500 0.710512
vt 0.750000 0.730527
vt 0.687500 0.730650
vt 0.812500 0.730615
vt 0.687500 0.657125
vt 0.750000 0.658290
vt 0.812500 0.661786
vt 0.875000 0.672938
vt 0.875000 0.692204
vt 0.875000 0.711469
vt 0.875000 0.730735
vt 0.875000 0.750000
vt 0.812500 0.750000
vt 0.750000 0.750000
vt 0.687500 0.750000
vt 0.687500 0.542919
vt 0.750000 0.543027
vt 0.750000 0.584805
vt 0.687500 0.584480
vt 0.812500 0.543115
vt 0.812500 0.585512
vt 0.750000 0.623919
vt 0.687500 0.623078
vt 0.812500 0.626120
vt 0.687500 0.500000
vt 0.625000 0.542182
vt 0.750000 0.500000
vt 0.812500 0.500000
vt 0.875000 0.500000
vt 0.875000 0.543235
vt 0.875000 0.586469
vt 0.875000 0.629704
vt 0.625000 0.622929
vt 0.625000 0.584204
vt 0.187500 0.543115
vt 0.250000 0.543027
vt 0.250000 0.584805
vt 0.187500 0.585512
vt 0.312500 0.542919
vt 0.312500 0.584480
vt 0.250000 0.623919
vt 0.187500 0.626120
vt 0.312500 0.623078
vt 0.125000 0.500000
vt 0.187500 0.500000
vt 0.125000 0.543235
vt 0.250000 0.500000
vt 0.312500 0.500000
vt 0.375000 0.542182
vt 0.375000 0.584204
vt 0.375000 0.622929
vt 0.125000 0.629704
vt 0.125000 0.586469
vt 0.437500 0.540129
vt 0.500000 0.539105
vt 0.500000 0.583401
vt 0.437500 0.583702
vt 0.562500 0.540129
vt 0.562500 0.583702
vt 0.500000 0.622829
vt 0.437500 0.622866
vt 0.562500 0.622866
vt 0.437500 0.019380
vt 0.500000 0.019432
vt 0.500000 0.039863
vt 0.437500 0.039446
vt 0.562500 0.019380
vt 0.562500 0.039446
vt 0.500000 0.062624
vt 0.437500 0.061261
vt 0.562500 0.061261
vt 0.375000 0.000000
vt 0.437500 0.000000
vt 0.375000 0.019265
vt 0.500000 0.000000
vt 0.562500 0.000000
vt 0.625000 0.000000
vt 0.625000 0.019265
vt 0.625000 0.038531
vt 0.625000 0.057796
vt 0.375000 0.057796
vt 0.375000 0.038531
s 1
usemtl Material.009
f 73/1/1 74/2/2 77/3/3 76/4/4
f 74/2/2 75/5/5 78/6/6 77/3/3
f 76/4/4 77/3/3 80/7/7 79/8/8
f 77/3/3 78/6/6 81/9/9 80/7/7
f 9/10/10 72/11/11 73/1/1 51/12/12
f 72/11/11 71/13/13 74/2/2 73/1/1
f 71/13/13 70/14/14 75/5/5 74/2/2
f 70/14/14 10/15/15 19/16/16 75/5/5
f 75/5/5 19/16/16 20/17/17 78/6/6
f 78/6/6 20/17/17 21/18/18 81/9/9
f 81/9/9 21/18/18 4/19/19 22/20/20
f 80/7/7 81/9/9 22/20/20 23/21/21
f 79/8/8 80/7/7 23/21/21 24/22/22
f 49/23/23 79/8/8 24/22/22 3/24/24
f 50/25/25 76/4/4 79/8/8 49/23/23
f 51/12/12 73/1/1 76/4/4 50/25/25
f 82/26/26 83/27/27 86/28/28 85/29/29
f 83/27/27 84/30/30 87/31/31 86/28/28
f 85/29/29 86/28/28 89/32/32 88/33/33
f 86/28/28 87/31/31 90/34/34 89/32/32
f 3/24/24 24/22/22 82/26/26 27/35/35
f 24/22/22 23/21/21 83/27/27 82/26/26
f 23/21/21 22/20/20 84/30/30 83/27/27
f 22/20/20 4/19/19 28/36/36 84/30/30
f 84/30/30 28/36/36 29/37/37 87/31/31
f 87/31/31 29/37/37 30/38/38 90/34/34
f 90/34/34 30/38/38 8/39/39 31/40/40
f 89/32/32 90/34/34 31/40/40 32/41/41
f 88/33/33 89/32/32 32/41/41 33/42/42
f 25/43/43 88/33/33 33/42/42 7/44/44
f 26/45/45 85/29/29 88/33/33 25/43/43
f 27/35/35 82/26/26 85/29/29 26/45/45
f 91/46/46 92/47/47 95/48/48 94/49/49
f 92/47/47 93/50/50 96/51/51 95/48/48
f 94/49/49 95/48/48 98/52/52 97/53/53
f 95/48/48 96/51/51 99/54/54 98/52/52
f 11/55/55 69/56/56 91/46/46 57/57/57
f 69/56/56 68/58/58 92/47/47 91/46/46
f 68/58/58 67/59/59 93/50/50 92/47/47
f 67/59/59 12/60/60 37/61/61 93/50/50
f 93/50/50 37/61/61 38/62/62 96/51/51
f 96/51/51 38/62/62 39/63/63 99/54/54
f 99/54/54 39/63/63 6/64/64 40/65/65
f 98/52/52 99/54/54 40/65/65 41/66/66
f 97/53/53 98/52/52 41/66/66 42/67/67
f 55/68/68 97/53/53 42/67/67 5/69/69
f 56/70/70 94/49/49 97/53/53 55/68/68
f 57/57/57 91/46/46 94/49/49 56/70/70
f 100/71/71 101/72/72 104/73/73 103/74/74
f 101/72/72 102/75/75 105/76/76 104/73/73
f 103/74/74 104/73/73 107/77/77 106/78/78
f 104/73/73 105/76/76 108/79/79 107/77/77
f 5/69/69 42/67/67 100/71/71 45/80/80
f 42/67/67 41/66/66 101/72/72 100/71/71
f 41/66/66 40/65/65 102/75/75 101/72/72
f 40/65/65 6/64/64 46/81/81 102/75/75
f 102/75/75 46/81/81 47/82/82 105/76/76
f 105/76/76 47/82/82 48/83/83 108/79/79
f 108/79/79 48/83/83 2/84/84 18/85/85
f 107/77/77 108/79/79 18/85/85 17/86/86
f 106/78/78 107/77/77 17/86/86 16/87/87
f 43/88/88 106/78/78 16/87/87 1/89/89
f 44/90/90 103/74/74 106/78/78 43/88/88
f 45/80/80 100/71/71 103/74/74 44/90/90
f 109/91/91 110/92/92 113/93/93 112/94/94
f 110/92/92 111/95/95 114/96/96 113/93/93
f 112/94/94 113/93/93 116/97/97 115/98/98
f 113/93/93 114/96/96 117/99/99 116/97/97
f 9/100/10 66/101/100 109/91/91 13/102/101
f 66/101/100 65/103/102 110/92/92 109/91/91
f 65/103/102 64/104/103 111/95/95 110/92/92
f 64/104/103 11/55/55 57/57/57 111/95/95
f 111/95/95 57/57/57 56/70/70 114/96/96
f 114/96/96 56/70/70 55/68/68 117/99/99
f 117/99/99 55/68/68 5/69/69 45/105/80
f 116/97/97 117/99/99 45/105/80 44/106/90
f 115/98/98 116/97/97 44/106/90 43/107/88
f 15/108/104 115/98/98 43/107/88 1/109/89
f 14/110/105 112/94/94 115/98/98 15/108/104
f 13/102/101 109/91/91 112/94/94 14/110/105
f 118/111/106 119/112/107 122/113/108 121/114/109
f 119/112/107 120/115/110 123/116/111 122/113/108
f 121/114/109 122/113/108 125/117/112 124/118/113
f 122/113/108 123/116/111 126/119/114 125/117/112
f 12/60/60 63/120/115 118/111/106 37/61/61
f 63/120/115 62/121/116 119/112/107 118/111/106
f 62/121/116 61/122/117 120/115/110 119/112/107
f 61/122/117 10/123/15 54/124/118 120/115/110
f 120/115/110 54/124/118 53/125/119 123/116/111
f 123/116/111 53/125/119 52/126/120 126/119/114
f 126/119/114 52/126/120 2/127/84 48/128/83
f 125/117/112 126/119/114 48/128/83 47/129/82
f 124/118/113 125/117/112 47/129/82 46/130/81
f 39/63/63 124/118/113 46/130/81 6/64/64
f 38/62/62 121/114/109 124/118/113 39/63/63
f 37/61/61 118/111/106 121/114/109 38/62/62
f 127/131/121 128/132/122 131/133/123 130/134/124
f 128/132/122 129/135/125 132/136/126 131/133/123
f 130/134/124 131/133/123 134/137/127 133/138/128
f 131/133/123 132/136/126 135/139/129 134/137/127
f 8/39/39 30/140/38 127/131/121 58/141/130
f 30/140/38 29/142/37 128/132/122 127/131/121
f 29/142/37 28/143/36 129/135/125 128/132/122
f 28/143/36 4/144/19 21/145/18 129/135/125
f 129/135/125 21/145/18 20/146/17 132/136/126
f 132/136/126 20/146/17 19/147/16 135/139/129
f 135/139/129 19/147/16 10/123/15 61/122/117
f 134/137/127 135/139/129 61/122/117 62/121/116
f 133/138/128 134/137/127 62/121/116 63/120/115
f 60/148/131 133/138/128 63/120/115 12/60/60
f 59/149/132 130/134/124 133/138/128 60/148/131
f 58/141/130 127/131/121 130/134/124 59/149/132
f 136/150/133 137/151/134 140/152/135 139/153/136
f 137/151/134 138/154/137 141/155/138 140/152/135
f 139/153/136 140/152/135 143/156/139 142/157/140
f 140/152/135 141/155/138 144/158/141 143/156/139
f 3/159/24 27/160/35 136/150/133 49/161/23
f 27/160/35 26/162/45 137/151/134 136/150/133
f 26/162/45 25/163/43 138/154/137 137/151/134
f 25/163/43 7/44/44 36/164/142 138/154/137
f 138/154/137 36/164/142 35/165/143 141/155/138
f 141/155/138 35/165/143 34/166/144 144/158/141
f 144/158/141 34/166/144 11/55/55 64/104/103
f 143/156/139 144/158/141 64/104/103 65/103/102
f 142/157/140 143/156/139 65/103/102 66/101/100
f 51/167/12 142/157/140 66/101/100 9/100/10
f 50/168/25 139/153/136 142/157/140 51/167/12
f 49/161/23 136/150/133 139/153/136 50/168/25
f 145/169/145 146/170/146 149/171/147 148/172/148
f 146/170/146 147/173/149 150/174/150 149/171/147
f 148/172/148 149/171/147 152/175/151 151/176/152
f 149/171/147 150/174/150 153/177/153 152/175/151
f 7/44/44 33/42/42 145/169/145 36/164/142
f 33/42/42 32/41/41 146/170/146 145/169/145
f 32/41/41 31/40/40 147/173/149 146/170/146
f 31/40/40 8/39/39 58/141/130 147/173/149
f 147/173/149 58/141/130 59/149/132 150/174/150
f 150/174/150 59/149/132 60/148/131 153/177/153
f 153/177/153 60/148/131 12/60/60 67/59/59
f 152/175/151 153/177/153 67/59/59 68/58/58
f 151/176/152 152/175/151 68/58/58 69/56/56
f 34/166/144 151/176/152 69/56/56 11/55/55
f 35/165/143 148/172/148 151/176/152 34/166/144
f 36/164/142 145/169/145 148/172/148 35/165/143
f 154/178/154 155/179/155 158/180/156 157/181/157
f 155/179/155 156/182/158 159/183/159 158/180/156
f 157/181/157 158/180/156 161/184/160 160/185/161
f 158/180/156 159/183/159 162/186/162 161/184/160
f 1/187/89 16/188/87 154/178/154 15/189/104
f 16/188/87 17/190/86 155/179/155 154/178/154
f 17/190/86 18/191/85 156/182/158 155/179/155
f 18/191/85 2/192/84 52/193/120 156/182/158
f 156/182/158 52/193/120 53/194/119 159/183/159
f 159/183/159 53/194/119 54/195/118 162/186/162
f 162/186/162 54/195/118 10/15/15 70/14/14
f 161/184/160 162/186/162 70/14/14 71/13/13
f 160/185/161 161/184/160 71/13/13 72/11/11
f 13/196/101 160/185/161 72/11/11 9/10/10
f 14/197/105 157/181/157 160/185/161 13/196/101
f 15/189/104 154/178/154 157/181/157 14/197/105
o Cubo.001
v -0.227485 0.367237 0.842334
v -0.302389 0.784034 0.898292
v -0.157639 -0.202850 -0.212728
v -0.206591 0.065569 -0.053465
v 0.287768 0.367237 0.842334
v 0.336144 0.784035 0.898292
v 0.187447 -0.202849 -0.212728
v 0.206652 0.065569 -0.053465
v -0.315046 -0.056401 0.314296
v -0.420762 0.517216 0.369041
v 0.378092 -0.056401 0.314296
v 0.465050 0.517217 0.369041
v -0.317935 0.044617 0.488303
v -0.299321 0.161094 0.642571
v -0.264835 0.278221 0.765938
v -0.279536 0.470322 0.879944
v -0.322417 0.602203 0.910503
v -0.327301 0.716316 0.914186
v -0.381419 0.386421 0.226779
v -0.325583 0.256364 0.107435
v -0.261321 0.142544 0.010579
v -0.216028 -0.004252 -0.106705
v -0.208956 -0.089135 -0.166201
v -0.185049 -0.160313 -0.203560
v 0.114493 -0.227974 -0.252375
v 0.015219 -0.239957 -0.272763
v -0.084317 -0.227974 -0.252375
v -0.124288 0.063410 -0.057890
v -0.004440 0.061687 -0.059640
v 0.118449 0.063410 -0.057890
v 0.219182 -0.004251 -0.106705
v 0.219736 -0.089135 -0.166201
v 0.206233 -0.160313 -0.203560
v 0.344750 -0.131056 0.134276
v 0.293014 -0.178307 -0.027865
v 0.234703 -0.200215 -0.148437
v 0.481903 0.633472 0.531111
v 0.460810 0.721646 0.690230
v 0.402569 0.771181 0.820382
v 0.365075 0.716316 0.914186
v 0.367625 0.602203 0.910503
v 0.333389 0.470322 0.879944
v -0.119509 0.357801 0.862361
v 0.031369 0.353319 0.872212
v 0.181381 0.357801 0.862361
v 0.205048 0.828837 0.931768
v 0.013838 0.851084 0.948793
v -0.175294 0.828837 0.931768
v -0.196839 -0.200215 -0.148437
v -0.245196 -0.178307 -0.027865
v -0.288139 -0.131056 0.134276
v -0.365914 0.771181 0.820382
v -0.419171 0.721646 0.690230
v -0.436214 0.633471 0.531111
v 0.328637 0.278221 0.765938
v 0.365809 0.161094 0.642571
v 0.384297 0.044617 0.488303
v 0.268781 0.142544 0.010579
v 0.345819 0.256364 0.107435
v 0.415807 0.386421 0.226779
v -0.228163 0.597882 0.376740
v 0.020386 0.624770 0.379305
v 0.269813 0.597882 0.376740
v 0.215598 -0.137066 0.306598
v 0.033281 -0.163954 0.304031
v -0.149914 -0.137066 0.306598
v 0.563142 0.387256 0.356638
v 0.569597 0.230408 0.341668
v 0.502040 0.073559 0.326699
v -0.514604 0.387256 0.356638
v -0.515931 0.230407 0.341668
v -0.443243 0.073559 0.326699
v -0.403814 -0.013993 0.155073
v -0.468461 0.127430 0.180119
v -0.466374 0.269105 0.205574
v -0.341885 -0.081248 0.001500
v -0.395664 0.037008 0.036522
v -0.395156 0.157285 0.074807
v -0.267676 -0.128025 -0.118277
v -0.307139 -0.035914 -0.080363
v -0.309804 0.062803 -0.031778
v -0.092199 -0.185961 -0.260321
v -0.105629 -0.121356 -0.218249
v -0.114095 -0.036985 -0.144246
v 0.007922 -0.196621 -0.281792
v 0.001030 -0.132145 -0.235675
v -0.003675 -0.046092 -0.154704
v 0.109092 -0.185961 -0.260321
v 0.109876 -0.121356 -0.218249
v 0.109704 -0.036985 -0.144246
v 0.512665 0.178176 0.498268
v 0.584867 0.339372 0.510201
v 0.581229 0.500240 0.521641
v 0.487726 0.289271 0.655500
v 0.557045 0.443989 0.670362
v 0.554836 0.596089 0.681263
v 0.429368 0.393239 0.785819
v 0.485330 0.533876 0.807040
v 0.482055 0.665950 0.815307
v 0.193194 0.503587 0.933226
v 0.206028 0.643970 0.973687
v 0.204060 0.758729 0.975386
v 0.026352 0.510852 0.950422
v 0.020703 0.657954 0.994843
v 0.016008 0.777088 0.996953
v -0.140471 0.503587 0.933226
v -0.163668 0.643970 0.973687
v -0.170317 0.758729 0.975386
v -0.149806 -0.037964 0.482459
v 0.035127 -0.065363 0.480655
v 0.219089 -0.037964 0.482459
v -0.139443 0.084078 0.637285
v 0.035639 0.059436 0.636666
v 0.209524 0.084078 0.637285
v -0.124451 0.217905 0.764380
v 0.034480 0.200734 0.767327
v 0.192118 0.217905 0.764380
v 0.280032 0.716380 0.537449
v 0.020876 0.744106 0.539749
v -0.237285 0.716379 0.537449
v 0.267272 0.801281 0.699478
v 0.018245 0.828542 0.704060
v -0.229405 0.801281 0.699478
v 0.234432 0.841283 0.836746
v 0.015123 0.867018 0.846754
v -0.202310 0.841283 0.836746
v 0.151683 0.180718 0.029637
v -0.000226 0.190088 0.033944
v -0.149693 0.180718 0.029637
v 0.196775 0.314928 0.126126
v 0.007154 0.333290 0.131675
v -0.180834 0.314928 0.126126
v 0.239442 0.458872 0.239745
v 0.015063 0.482876 0.243982
v -0.208231 0.458872 0.239744
v -0.095947 -0.245939 -0.179691
v 0.021454 -0.261915 -0.194670
v 0.137750 -0.245939 -0.179691
v -0.117170 -0.238891 -0.049819
v 0.026463 -0.259273 -0.058632
v 0.168870 -0.238891 -0.049819
v -0.137477 -0.203759 0.120901
v 0.030385 -0.228016 0.116257
v 0.197213 -0.203759 0.120901
v 0.297862 -0.128024 -0.118277
v 0.328366 -0.035913 -0.080363
v 0.323413 0.062803 -0.031778
v 0.383193 -0.081248 0.001500
v 0.429281 0.037008 0.036522
v 0.421492 0.157285 0.074807
v 0.455357 -0.013993 0.155073
v 0.513909 0.127430 0.180119
v 0.505779 0.269106 0.205574
v -0.372073 0.393239 0.785819
v -0.435727 0.533876 0.807040
v -0.439560 0.665950 0.815307
v -0.427007 0.289270 0.655500
v -0.503161 0.443989 0.670362
v -0.507608 0.596088 0.681263
v -0.451004 0.178176 0.498268
v -0.528865 0.339371 0.510201
v -0.530861 0.500239 0.521641
vn -0.8339 -0.5517 -0.0142
vn -0.9459 -0.1496 -0.2878
vn -0.8611 -0.0511 -0.5058
vn -0.8394 -0.4842 -0.2469
vn -0.7715 0.3023 -0.5599
vn -0.6227 0.3548 -0.6974
vn -0.6994 0.1226 -0.7041
vn -0.7917 -0.3120 -0.5252
vn -0.4377 0.4433 -0.7822
vn -0.5429 -0.7718 0.3310
vn -0.8052 -0.5608 0.1929
vn -0.5707 -0.8055 0.1595
vn -0.9783 -0.1982 -0.0603
vn -0.8825 0.2832 -0.3754
vn -0.4909 0.6389 -0.5923
vn -0.3913 0.5853 -0.7102
vn -0.2826 0.5635 -0.7763
vn -0.1799 0.5748 -0.7983
vn -0.1047 0.6018 -0.7917
vn -0.2239 0.5566 -0.8000
vn -0.4443 0.3602 -0.8203
vn -0.6258 -0.0455 -0.7786
vn -0.6288 -0.7288 -0.2710
vn -0.5879 -0.5510 -0.5922
vn -0.5944 -0.8039 -0.0202
vn -0.3301 0.1268 -0.9354
vn -0.1845 0.5464 -0.8169
vn -0.0043 0.6109 -0.7917
vn -0.0153 0.1534 -0.9880
vn -0.0696 0.6396 -0.7655
vn -0.0008 0.6652 -0.7467
vn 0.1585 0.5727 -0.8043
vn 0.2941 0.1896 -0.9368
vn 0.0621 0.6441 -0.7624
vn -0.3615 -0.6113 -0.7040
vn -0.0309 0.6209 -0.7833
vn -0.0002 0.6256 -0.7801
vn 0.0286 0.6207 -0.7835
vn 0.0926 0.6031 -0.7923
vn 0.1917 0.5723 -0.7973
vn 0.3796 0.4254 -0.8215
vn 0.5805 0.0650 -0.8117
vn 0.3775 -0.5479 -0.7465
vn 0.5924 -0.4565 -0.6638
vn 0.0139 -0.6191 -0.7852
vn 0.7674 -0.5248 0.3684
vn 0.9706 -0.1880 0.1502
vn 0.8920 -0.1896 0.4103
vn 0.6770 -0.4861 0.5526
vn 0.9396 0.3050 -0.1556
vn 0.9396 0.3061 0.1532
vn 0.7262 -0.1743 0.6650
vn 0.5532 -0.4286 0.7144
vn 0.8195 0.2802 0.4999
vn 0.5591 -0.7685 0.3111
vn 0.8273 -0.5409 0.1518
vn 0.5090 -0.7110 0.4852
vn 0.9800 -0.1637 -0.1130
vn 0.8598 0.3045 -0.4098
vn 0.4762 0.6391 -0.6040
vn 0.5637 0.7094 -0.4232
vn 0.6245 0.7646 -0.1590
vn 0.6198 0.7555 0.2122
vn 0.4934 0.6670 0.5583
vn 0.5593 0.2233 0.7983
vn 0.4750 -0.1535 0.8665
vn 0.3690 -0.3731 0.8513
vn 0.3650 -0.5650 0.7399
vn 0.2860 -0.4905 0.8232
vn 0.4431 -0.6412 0.6265
vn 0.1674 -0.3574 0.9188
vn 0.2173 -0.1436 0.9655
vn 0.0005 -0.1464 0.9892
vn 0.0007 -0.3626 0.9319
vn 0.2536 0.2409 0.9368
vn -0.0009 0.2671 0.9637
vn -0.2161 -0.1575 0.9636
vn -0.1646 -0.3667 0.9156
vn -0.2577 0.2278 0.9390
vn 0.1432 -0.5009 0.8536
vn 0.2685 0.7694 0.5796
vn -0.0027 0.8136 0.5814
vn -0.2778 0.7632 0.5834
vn -0.5105 0.6533 0.5591
vn -0.5695 0.1953 0.7985
vn -0.4731 -0.1810 0.8622
vn -0.3630 -0.3913 0.8457
vn -0.1409 -0.5066 0.8506
vn -0.2804 -0.5012 0.8186
vn 0.0006 -0.5061 0.8625
vn -0.2407 -0.8043 0.5433
vn 0.0006 -0.8310 0.5563
vn 0.0006 -0.7347 0.6784
vn -0.2074 -0.7166 0.6659
vn 0.2453 -0.8048 0.5405
vn 0.2113 -0.7152 0.6662
vn 0.0005 -0.6273 0.7788
vn -0.1664 -0.6215 0.7655
vn 0.1693 -0.6184 0.7674
vn -0.2640 -0.8809 0.3928
vn -0.4960 -0.7149 0.4928
vn 0.0007 -0.9135 0.4069
vn 0.2694 -0.8824 0.3858
vn -0.3571 -0.5751 0.7360
vn -0.4326 -0.6484 0.6265
vn 0.2057 0.8322 -0.5149
vn 0.0003 0.8492 -0.5280
vn 0.0001 0.9331 -0.3595
vn 0.2320 0.9154 -0.3289
vn -0.2066 0.8308 -0.5167
vn -0.2342 0.9125 -0.3354
vn -0.0006 0.9990 -0.0448
vn 0.2518 0.9677 -0.0154
vn -0.2571 0.9662 -0.0213
vn 0.1735 0.7366 -0.6537
vn 0.0003 0.7515 -0.6597
vn -0.1751 0.7392 -0.6503
vn -0.5737 0.7011 -0.4235
vn -0.6384 0.7512 -0.1675
vn -0.6391 0.7409 0.2064
vn 0.0445 0.5855 -0.8094
vn -0.0004 0.5816 -0.8135
vn -0.0005 0.5903 -0.8072
vn 0.0837 0.5911 -0.8023
vn -0.0476 0.5878 -0.8076
vn -0.0884 0.5955 -0.7985
vn -0.0002 0.6525 -0.7577
vn 0.1299 0.6445 -0.7535
vn -0.1339 0.6498 -0.7482
vn 0.1597 0.5741 -0.8030
vn 0.3675 0.5804 -0.7267
vn 0.2571 0.5594 -0.7880
vn -0.3011 -0.9441 -0.1346
vn 0.0044 -0.9903 -0.1391
vn 0.0016 -0.9952 0.0984
vn -0.2828 -0.9556 0.0828
vn 0.3208 -0.9305 -0.1769
vn 0.2946 -0.9537 0.0604
vn 0.0009 -0.9679 0.2512
vn -0.2755 -0.9319 0.2361
vn 0.2828 -0.9328 0.2233
vn 0.6567 -0.6584 -0.3678
vn 0.6250 -0.7759 -0.0862
vn 0.5925 -0.7963 0.1216
vn 0.7668 -0.2098 -0.6066
vn 0.6274 0.2062 -0.7509
vn 0.8118 0.0192 -0.5836
vn 0.8436 -0.4106 -0.3459
vn 0.3769 0.4714 -0.7973
vn 0.5575 0.3838 -0.7361
vn 0.9251 -0.1006 -0.3661
vn 0.8536 -0.5134 -0.0881
vn 0.7243 0.3253 -0.6079
vn -0.5427 -0.4505 0.7089
vn -0.7219 -0.2091 0.6596
vn -0.8835 -0.2241 0.4114
vn -0.6618 -0.5058 0.5533
vn -0.8340 0.2466 0.4936
vn -0.9501 0.2739 0.1490
vn -0.9604 -0.2197 0.1712
vn -0.7480 -0.5414 0.3838
vn -0.9496 0.2783 -0.1444
vt 0.437500 0.123853
vt 0.500000 0.125257
vt 0.500000 0.165933
vt 0.437500 0.165182
vt 0.562500 0.123853
vt 0.562500 0.165182
vt 0.500000 0.210812
vt 0.437500 0.209664
vt 0.562500 0.209664
vt 0.375000 0.077062
vt 0.437500 0.088048
vt 0.375000 0.120296
vt 0.500000 0.090378
vt 0.562500 0.088048
vt 0.625000 0.077062
vt 0.625000 0.120296
vt 0.625000 0.163531
vt 0.625000 0.206765
vt 0.625000 0.250000
vt 0.562500 0.258830
vt 0.500000 0.260703
vt 0.437500 0.258830
vt 0.375000 0.206765
vt 0.375000 0.250000
vt 0.375000 0.163531
vt 0.437500 0.315192
vt 0.500000 0.316246
vt 0.500000 0.375000
vt 0.437500 0.375000
vt 0.562500 0.315192
vt 0.562500 0.375000
vt 0.500000 0.433754
vt 0.437500 0.434808
vt 0.562500 0.434808
vt 0.375000 0.312500
vt 0.625000 0.312500
vt 0.625000 0.375000
vt 0.625000 0.437500
vt 0.625000 0.500000
vt 0.562500 0.491153
vt 0.500000 0.489297
vt 0.437500 0.491153
vt 0.375000 0.437500
vt 0.375000 0.500000
vt 0.375000 0.375000
vt 0.437500 0.685678
vt 0.500000 0.685763
vt 0.500000 0.711874
vt 0.437500 0.711198
vt 0.562500 0.685678
vt 0.562500 0.711198
vt 0.500000 0.739192
vt 0.437500 0.736893
vt 0.562500 0.736893
vt 0.375000 0.656959
vt 0.437500 0.656959
vt 0.375000 0.685537
vt 0.500000 0.656959
vt 0.562500 0.656959
vt 0.625000 0.656959
vt 0.625000 0.685537
vt 0.625000 0.710072
vt 0.625000 0.732286
vt 0.625000 0.750000
vt 0.562500 0.769853
vt 0.500000 0.774019
vt 0.437500 0.769853
vt 0.375000 0.732286
vt 0.375000 0.750000
vt 0.375000 0.710072
vt 0.437500 0.818749
vt 0.500000 0.821207
vt 0.500000 0.877402
vt 0.437500 0.876651
vt 0.562500 0.818749
vt 0.562500 0.876651
vt 0.500000 0.937800
vt 0.437500 0.937706
vt 0.562500 0.937706
vt 0.375000 0.812500
vt 0.625000 0.812500
vt 0.625000 0.875000
vt 0.625000 0.937500
vt 0.625000 1.000000
vt 0.562500 1.000000
vt 0.500000 1.000000
vt 0.437500 1.000000
vt 0.375000 0.937500
vt 0.375000 1.000000
vt 0.375000 0.875000
vt 0.187500 0.688620
vt 0.250000 0.686420
vt 0.250000 0.709805
vt 0.187500 0.710512
vt 0.312500 0.685591
vt 0.312500 0.709588
vt 0.250000 0.730527
vt 0.187500 0.730615
vt 0.312500 0.730650
vt 0.125000 0.672938
vt 0.187500 0.661786
vt 0.125000 0.692204
vt 0.250000 0.658290
vt 0.312500 0.657125
vt 0.312500 0.750000
vt 0.250000 0.750000
vt 0.187500 0.750000
vt 0.125000 0.730735
vt 0.125000 0.750000
vt 0.125000 0.711469
vt 0.687500 0.685591
vt 0.750000 0.686419
vt 0.750000 0.709805
vt 0.687500 0.709588
vt 0.812500 0.688620
vt 0.812500 0.710512
vt 0.750000 0.730527
vt 0.687500 0.730650
vt 0.812500 0.730615
vt 0.687500 0.657125
vt 0.750000 0.658290
vt 0.812500 0.661786
vt 0.875000 0.672938
vt 0.875000 0.692204
vt 0.875000 0.711469
vt 0.875000 0.730735
vt 0.875000 0.750000
vt 0.812500 0.750000
vt 0.750000 0.750000
vt 0.687500 0.750000
vt 0.687500 0.542919
vt 0.750000 0.543027
vt 0.750000 0.584805
vt 0.687500 0.584480
vt 0.812500 0.543115
vt 0.812500 0.585512
vt 0.750000 0.623919
vt 0.687500 0.623078
vt 0.812500 0.626120
vt 0.687500 0.500000
vt 0.625000 0.542182
vt 0.750000 0.500000
vt 0.812500 0.500000
vt 0.875000 0.500000
vt 0.875000 0.543235
vt 0.875000 0.586469
vt 0.875000 0.629704
vt 0.625000 0.622929
vt 0.625000 0.584204
vt 0.187500 0.543115
vt 0.250000 0.543027
vt 0.250000 0.584805
vt 0.187500 0.585512
vt 0.312500 0.542919
vt 0.312500 0.584480
vt 0.250000 0.623919
vt 0.187500 0.626120
vt 0.312500 0.623078
vt 0.125000 0.500000
vt 0.187500 0.500000
vt 0.125000 0.543235
vt 0.250000 0.500000
vt 0.312500 0.500000
vt 0.375000 0.542182
vt 0.375000 0.584204
vt 0.375000 0.622929
vt 0.125000 0.629704
vt 0.125000 0.586469
vt 0.437500 0.540129
vt 0.500000 0.539105
vt 0.500000 0.583401
vt 0.437500 0.583702
vt 0.562500 0.540129
vt 0.562500 0.583702
vt 0.500000 0.622829
vt 0.437500 0.622866
vt 0.562500 0.622866
vt 0.437500 0.019380
vt 0.500000 0.019432
vt 0.500000 0.039863
vt 0.437500 0.039446
vt 0.562500 0.019380
vt 0.562500 0.039446
vt 0.500000 0.062624
vt 0.437500 0.061261
vt 0.562500 0.061261
vt 0.375000 0.000000
vt 0.437500 0.000000
vt 0.375000 0.019265
vt 0.500000 0.000000
vt 0.562500 0.000000
vt 0.625000 0.000000
vt 0.625000 0.019265
vt 0.625000 0.038531
vt 0.625000 0.057796
vt 0.375000 0.057796
vt 0.375000 0.038531
s 1
usemtl Material.010
f 235/198/163 236/199/164 239/200/165 238/201/166
f 236/199/164 237/202/167 240/203/168 239/200/165
f 238/201/166 239/200/165 242/204/169 241/205/170
f 239/200/165 240/203/168 243/206/171 242/204/169
f 171/207/172 234/208/173 235/198/163 213/209/174
f 234/208/173 233/210/175 236/199/164 235/198/163
f 233/210/175 232/211/176 237/202/167 236/199/164
f 232/211/176 172/212/177 181/213/178 237/202/167
f 237/202/167 181/213/178 182/214/179 240/203/168
f 240/203/168 182/214/179 183/215/180 243/206/171
f 243/206/171 183/215/180 166/216/181 184/217/182
f 242/204/169 243/206/171 184/217/182 185/218/183
f 241/205/170 242/204/169 185/218/183 186/219/184
f 211/220/185 241/205/170 186/219/184 165/221/186
f 212/222/187 238/201/166 241/205/170 211/220/185
f 213/209/174 235/198/163 238/201/166 212/222/187
f 244/223/188 245/224/189 248/225/190 247/226/191
f 245/224/189 246/227/192 249/228/193 248/225/190
f 247/226/191 248/225/190 251/229/194 250/230/195
f 248/225/190 249/228/193 252/231/196 251/229/194
f 165/221/186 186/219/184 244/223/188 189/232/197
f 186/219/184 185/218/183 245/224/189 244/223/188
f 185/218/183 184/217/182 246/227/192 245/224/189
f 184/217/182 166/216/181 190/233/198 246/227/192
f 246/227/192 190/233/198 191/234/199 249/228/193
f 249/228/193 191/234/199 192/235/200 252/231/196
f 252/231/196 192/235/200 170/236/201 193/237/202
f 251/229/194 252/231/196 193/237/202 194/238/203
f 250/230/195 251/229/194 194/238/203 195/239/204
f 187/240/205 250/230/195 195/239/204 169/241/206
f 188/242/207 247/226/191 250/230/195 187/240/205
f 189/232/197 244/223/188 247/226/191 188/242/207
f 253/243/208 254/244/209 257/245/210 256/246/211
f 254/244/209 255/247/212 258/248/213 257/245/210
f 256/246/211 257/245/210 260/249/214 259/250/215
f 257/245/210 258/248/213 261/251/216 260/249/214
f 173/252/217 231/253/218 253/243/208 219/254/219
f 231/253/218 230/255/220 254/244/209 253/243/208
f 230/255/220 229/256/221 255/247/212 254/244/209
f 229/256/221 174/257/222 199/258/223 255/247/212
f 255/247/212 199/258/223 200/259/224 258/248/213
f 258/248/213 200/259/224 201/260/225 261/251/216
f 261/251/216 201/260/225 168/261/226 202/262/227
f 260/249/214 261/251/216 202/262/227 203/263/228
f 259/250/215 260/249/214 203/263/228 204/264/229
f 217/265/230 259/250/215 204/264/229 167/266/231
f 218/267/232 256/246/211 259/250/215 217/265/230
f 219/254/219 253/243/208 256/246/211 218/267/232
f 262/268/233 263/269/234 266/270/235 265/271/236
f 263/269/234 264/272/237 267/273/238 266/270/235
f 265/271/236 266/270/235 269/274/239 268/275/240
f 266/270/235 267/273/238 270/276/241 269/274/239
f 167/266/231 204/264/229 262/268/233 207/277/242
f 204/264/229 203/263/228 263/269/234 262/268/233
f 203/263/228 202/262/227 264/272/237 263/269/234
f 202/262/227 168/261/226 208/278/243 264/272/237
f 264/272/237 208/278/243 209/279/244 267/273/238
f 267/273/238 209/279/244 210/280/245 270/276/241
f 270/276/241 210/280/245 164/281/246 180/282/247
f 269/274/239 270/276/241 180/282/247 179/283/248
f 268/275/240 269/274/239 179/283/248 178/284/249
f 205/285/250 268/275/240 178/284/249 163/286/251
f 206/287/252 265/271/236 268/275/240 205/285/250
f 207/277/242 262/268/233 265/271/236 206/287/252
f 271/288/253 272/289/254 275/290/255 274/291/256
f 272/289/254 273/292/257 276/293/258 275/290/255
f 274/291/256 275/290/255 278/294/259 277/295/260
f 275/290/255 276/293/258 279/296/261 278/294/259
f 171/297/172 228/298/262 271/288/253 175/299/263
f 228/298/262 227/300/264 272/289/254 271/288/253
f 227/300/264 226/301/265 273/292/257 272/289/254
f 226/301/265 173/252/217 219/254/219 273/292/257
f 273/292/257 219/254/219 218/267/232 276/293/258
f 276/293/258 218/267/232 217/265/230 279/296/261
f 279/296/261 217/265/230 167/266/231 207/302/242
f 278/294/259 279/296/261 207/302/242 206/303/252
f 277/295/260 278/294/259 206/303/252 205/304/250
f 177/305/266 277/295/260 205/304/250 163/306/251
f 176/307/267 274/291/256 277/295/260 177/305/266
f 175/299/263 271/288/253 274/291/256 176/307/267
f 280/308/268 281/309/269 284/310/270 283/311/271
f 281/309/269 282/312/272 285/313/273 284/310/270
f 283/311/271 284/310/270 287/314/274 286/315/275
f 284/310/270 285/313/273 288/316/276 287/314/274
f 174/257/222 225/317/277 280/308/268 199/258/223
f 225/317/277 224/318/278 281/309/269 280/308/268
f 224/318/278 223/319/279 282/312/272 281/309/269
f 223/319/279 172/320/177 216/321/280 282/312/272
f 282/312/272 216/321/280 215/322/281 285/313/273
f 285/313/273 215/322/281 214/323/282 288/316/276
f 288/316/276 214/323/282 164/324/246 210/325/245
f 287/314/274 288/316/276 210/325/245 209/326/244
f 286/315/275 287/314/274 209/326/244 208/327/243
f 201/260/225 286/315/275 208/327/243 168/261/226
f 200/259/224 283/311/271 286/315/275 201/260/225
f 199/258/223 280/308/268 283/311/271 200/259/224
f 289/328/283 290/329/284 293/330/285 292/331/286
f 290/329/284 291/332/287 294/333/288 293/330/285
f 292/331/286 293/330/285 296/334/289 295/335/290
f 293/330/285 294/333/288 297/336/291 296/334/289
f 170/236/201 192/337/200 289/328/283 220/338/292
f 192/337/200 191/339/199 290/329/284 289/328/283
f 191/339/199 190/340/198 291/332/287 290/329/284
f 190/340/198 166/341/181 183/342/180 291/332/287
f 291/332/287 183/342/180 182/343/179 294/333/288
f 294/333/288 182/343/179 181/344/178 297/336/291
f 297/336/291 181/344/178 172/320/177 223/319/279
f 296/334/289 297/336/291 223/319/279 224/318/278
f 295/335/290 296/334/289 224/318/278 225/317/277
f 222/345/293 295/335/290 225/317/277 174/257/222
f 221/346/294 292/331/286 295/335/290 222/345/293
f 220/338/292 289/328/283 292/331/286 221/346/294
f 298/347/295 299/348/296 302/349/297 301/350/298
f 299/348/296 300/351/299 303/352/300 302/349/297
f 301/350/298 302/349/297 305/353/301 304/354/302
f 302/349/297 303/352/300 306/355/303 305/353/301
f 165/356/186 189/357/197 298/347/295 211/358/185
f 189/357/197 188/359/207 299/348/296 298/347/295
f 188/359/207 187/360/205 300/351/299 299/348/296
f 187/360/205 169/241/206 198/361/304 300/351/299
f 300/351/299 198/361/304 197/362/305 303/352/300
f 303/352/300 197/362/305 196/363/306 306/355/303
f 306/355/303 196/363/306 173/252/217 226/301/265
f 305/353/301 306/355/303 226/301/265 227/300/264
f 304/354/302 305/353/301 227/300/264 228/298/262
f 213/364/174 304/354/302 228/298/262 171/297/172
f 212/365/187 301/350/298 304/354/302 213/364/174
f 211/358/185 298/347/295 301/350/298 212/365/187
f 307/366/307 308/367/308 311/368/309 310/369/310
f 308/367/308 309/370/311 312/371/312 311/368/309
f 310/369/310 311/368/309 314/372/313 313/373/314
f 311/368/309 312/371/312 315/374/315 314/372/313
f 169/241/206 195/239/204 307/366/307 198/361/304
f 195/239/204 194/238/203 308/367/308 307/366/307
f 194/238/203 193/237/202 309/370/311 308/367/308
f 193/237/202 170/236/201 220/338/292 309/370/311
f 309/370/311 220/338/292 221/346/294 312/371/312
f 312/371/312 221/346/294 222/345/293 315/374/315
f 315/374/315 222/345/293 174/257/222 229/256/221
f 314/372/313 315/374/315 229/256/221 230/255/220
f 313/373/314 314/372/313 230/255/220 231/253/218
f 196/363/306 313/373/314 231/253/218 173/252/217
f 197/362/305 310/369/310 313/373/314 196/363/306
f 198/361/304 307/366/307 310/369/310 197/362/305
f 316/375/316 317/376/317 320/377/318 319/378/319
f 317/376/317 318/379/320 321/380/321 320/377/318
f 319/378/319 320/377/318 323/381/322 322/382/323
f 320/377/318 321/380/321 324/383/324 323/381/322
f 163/384/251 178/385/249 316/375/316 177/386/266
f 178/385/249 179/387/248 317/376/317 316/375/316
f 179/387/248 180/388/247 318/379/320 317/376/317
f 180/388/247 164/389/246 214/390/282 318/379/320
f 318/379/320 214/390/282 215/391/281 321/380/321
f 321/380/321 215/391/281 216/392/280 324/383/324
f 324/383/324 216/392/280 172/212/177 232/211/176
f 323/381/322 324/383/324 232/211/176 233/210/175
f 322/382/323 323/381/322 233/210/175 234/208/173
f 175/393/263 322/382/323 234/208/173 171/207/172
f 176/394/267 319/378/319 322/382/323 175/393/263
f 177/386/266 316/375/316 319/378/319 176/394/267
