# Blender 4.2.1 LTS
# www.blender.org
mtllib body_worm.mtl
o Cube
v 2.677354 2.350704 3.680034
v 2.677354 2.367869 1.871239
v 2.677354 1.332101 3.668988
v 2.677354 1.349266 1.860193
v 1.425518 2.350704 3.680034
v 1.425518 2.367869 1.871239
v 1.425518 1.332101 3.668988
v 1.425518 1.349266 1.860193
v 2.885993 2.568377 3.329991
v 1.216878 0.928173 3.313966
v 2.885993 0.928173 3.313966
v 1.216878 2.568377 3.329991
v 2.885993 2.579059 2.204324
v 2.885993 0.938855 2.188299
v 1.216879 2.579059 2.204324
v 1.216878 0.938855 2.188299
v 1.334218 2.164998 1.865284
v 1.288357 1.867681 1.860156
v 1.334218 1.564270 1.858747
v 2.422793 2.439071 1.868302
v 2.051436 2.474115 1.866823
v 1.680079 2.439071 1.868302
v 2.881526 2.560142 2.032002
v 2.850254 2.519316 1.933408
v 2.773121 2.447729 1.886869
v 1.221346 0.996550 3.491918
v 1.252618 1.094483 3.597011
v 1.329751 1.218201 3.649484
v 2.881526 1.010552 2.016439
v 2.850254 1.110409 1.918810
v 2.773121 1.235051 1.873957
v 1.221346 2.560142 2.032002
v 1.252618 2.519316 1.933408
v 1.329751 2.447729 1.886869
v 2.422793 1.272948 3.673296
v 2.051436 1.243957 3.675464
v 1.680079 1.272948 3.673296
v 2.768653 2.147750 3.682852
v 2.814515 1.850391 3.682131
v 2.768653 1.547022 3.676314
v 1.680079 1.290196 1.855729
v 2.051436 1.261246 1.853489
v 2.422793 1.290196 1.855729
v 1.334218 1.547022 3.676314
v 1.288357 1.850391 3.682131
v 1.334218 2.147750 3.682852
v 1.680079 2.421823 3.685870
v 2.051436 2.456825 3.688798
v 2.422793 2.421823 3.685870
v 2.768653 1.564270 1.858747
v 2.814515 1.867681 1.860156
v 2.768653 2.164998 1.865284
v 2.773121 2.430880 3.662396
v 2.850254 2.503391 3.611609
v 2.881526 2.546140 3.507480
v 1.216878 0.894477 2.444268
v 1.216878 0.877605 2.748620
v 1.216878 0.888688 3.054229
v 2.773121 1.218201 3.649484
v 2.850254 1.094483 3.597011
v 2.881526 0.996550 3.491918
v 1.329751 2.430880 3.662396
v 1.252618 2.503391 3.611609
v 1.221346 2.546140 3.507481
v 1.595037 2.799031 3.332245
v 2.051436 2.875915 3.332996
v 2.507834 2.799031 3.332245
v 3.120712 2.196768 3.326361
v 3.198952 1.748275 3.321979
v 3.120712 1.299782 3.317597
v 0.982159 1.299782 3.317597
v 0.903920 1.748275 3.321979
v 0.982159 2.196768 3.326361
v 2.507834 0.697519 3.311713
v 2.051436 0.620635 3.310962
v 1.595037 0.697519 3.311713
v 2.885993 2.581780 3.070497
v 2.885993 2.588326 2.764969
v 2.885993 2.587568 2.460536
v 2.885993 0.888689 3.054229
v 2.885993 0.877605 2.748620
v 2.885993 0.894477 2.444268
v 1.216879 2.581780 3.070497
v 1.216878 2.588326 2.764969
v 1.216879 2.587568 2.460536
v 1.329751 1.235051 1.873957
v 1.252618 1.110409 1.918810
v 1.221346 1.010552 2.016439
v 2.507834 0.708202 2.186045
v 2.051436 0.631317 2.185294
v 1.595037 0.708202 2.186045
v 0.982159 1.310464 2.191930
v 0.903920 1.758957 2.196311
v 0.982159 2.207450 2.200693
v 3.120712 2.207450 2.200693
v 3.198952 1.758957 2.196311
v 3.120712 1.310464 2.191930
v 1.595037 2.809713 2.206578
v 2.051436 2.886597 2.207329
v 2.507834 2.809713 2.206577
v 2.447212 2.170493 3.693875
v 2.051436 2.187849 3.697718
v 1.655659 2.170493 3.693875
v 2.468473 1.864522 3.694111
v 2.051436 1.869253 3.698123
v 1.634399 1.864522 3.694111
v 2.447212 1.549882 3.686998
v 2.051436 1.541194 3.690505
v 1.655659 1.549882 3.686998
v 2.505374 0.778877 3.489776
v 2.488153 0.898260 3.595338
v 2.449672 1.060064 3.649154
v 2.051436 0.706414 3.489094
v 2.051436 0.833606 3.595032
v 2.051436 1.009155 3.649803
v 1.597497 0.778877 3.489776
v 1.614718 0.898260 3.595338
v 1.653199 1.060064 3.649154
v 0.987819 1.347636 3.495490
v 1.027437 1.413745 3.600693
v 1.133200 1.490656 3.653777
v 0.909957 1.771456 3.499793
v 0.952216 1.799823 3.605061
v 1.066678 1.827645 3.658571
v 0.987819 2.195165 3.504002
v 1.027437 2.185015 3.608678
v 1.133200 2.161736 3.660910
v 1.655659 2.187919 1.857535
v 2.051436 2.205336 1.855021
v 2.447212 2.187919 1.857535
v 1.634399 1.882008 1.851415
v 2.051436 1.886805 1.848488
v 2.468473 1.882008 1.851415
v 1.655659 1.567308 1.850658
v 2.051436 1.558681 1.847808
v 2.447212 1.567308 1.850658
v 3.115052 2.195165 3.504002
v 3.075434 2.185015 3.608678
v 2.969671 2.161736 3.660910
v 3.192915 1.771456 3.499793
v 3.150656 1.799823 3.605061
v 3.036194 1.827645 3.658571
v 3.115052 1.347636 3.495490
v 3.075434 1.413745 3.600693
v 2.969671 1.490657 3.653777
v 1.597497 2.763923 3.509716
v 1.614718 2.700500 3.614034
v 1.653199 2.592328 3.665533
v 2.051436 2.836498 3.510492
v 2.051436 2.766040 3.615091
v 2.051436 2.646134 3.667340
v 2.505374 2.763924 3.509716
v 2.488153 2.700500 3.614034
v 2.449673 2.592328 3.665533
v 1.595037 2.825659 2.462824
v 1.595037 2.828896 2.767268
v 1.595037 2.819871 3.072784
v 2.051436 2.905023 2.463586
v 2.051436 2.909086 2.768035
v 2.051436 2.899234 3.073547
v 2.507834 2.825659 2.462824
v 2.507834 2.828896 2.767268
v 2.507834 2.819870 3.072784
v 3.120712 2.203977 2.456850
v 3.120712 2.200741 2.761265
v 3.120712 2.198189 3.066811
v 3.198952 1.741022 2.452402
v 3.198952 1.732966 2.756795
v 3.198952 1.735234 3.062363
v 3.120712 1.278068 2.447954
v 3.120712 1.265190 2.752324
v 3.120712 1.272280 3.057914
v 0.982159 1.278068 2.447954
v 0.982159 1.265190 2.752324
v 0.982159 1.272280 3.057914
v 0.903920 1.741022 2.452402
v 0.903920 1.732966 2.756795
v 0.903920 1.735234 3.062363
v 0.982159 2.203977 2.456850
v 0.982159 2.200741 2.761265
v 0.982159 2.198189 3.066811
v 2.507834 0.656386 2.441980
v 2.507834 0.637035 2.746321
v 2.507834 0.650597 3.051941
v 2.051436 0.577022 2.441218
v 2.051436 0.556845 2.745555
v 2.051436 0.571234 3.051178
v 1.595037 0.656386 2.441980
v 1.595037 0.637035 2.746321
v 1.595037 0.650598 3.051941
v 2.449673 1.076936 1.871199
v 2.488153 0.914192 1.916487
v 2.505374 0.792880 2.014217
v 2.051436 1.026047 1.869724
v 2.051436 0.849544 1.915532
v 2.051436 0.720417 2.013453
v 1.653199 1.076936 1.871199
v 1.614718 0.914192 1.916487
v 1.597497 0.792880 2.014217
v 1.133200 1.507529 1.875822
v 1.027437 1.429677 1.921842
v 0.987819 1.361639 2.019931
v 1.066678 1.844537 1.878493
v 0.952216 1.815761 1.925561
v 0.909957 1.785459 2.024152
v 1.133200 2.178608 1.882956
v 1.027437 2.200947 1.929828
v 0.987819 2.209167 2.028442
v 2.969671 2.178608 1.882956
v 3.075435 2.200947 1.929828
v 3.115052 2.209167 2.028442
v 3.036194 1.844537 1.878493
v 3.150656 1.815761 1.925561
v 3.192915 1.785459 2.024152
v 2.969671 1.507529 1.875822
v 3.075434 1.429677 1.921843
v 3.115052 1.361639 2.019931
v 1.653199 2.609200 1.887578
v 1.614718 2.716431 1.935183
v 1.597497 2.777926 2.034156
v 2.051436 2.663026 1.887261
v 2.051436 2.781978 1.935591
v 2.051436 2.850501 2.034851
v 2.449672 2.609200 1.887578
v 2.488153 2.716431 1.935183
v 2.505374 2.777926 2.034156
vn 0.0664 0.0736 0.9951
vn 0.0521 0.0771 -0.9957
vn 0.0575 -0.0805 0.9951
vn 0.0463 -0.0453 -0.9979
vn -0.0664 0.0736 0.9951
vn -0.0521 0.0771 -0.9957
vn -0.0575 -0.0805 0.9951
vn -0.0463 -0.0453 -0.9979
vn 0.6991 0.7115 0.0716
vn -0.6833 -0.7031 0.1969
vn 0.6833 -0.7031 0.1969
vn -0.6991 0.7115 0.0716
vn 0.6989 0.7127 -0.0599
vn 0.6826 -0.6985 -0.2147
vn -0.6989 0.7127 -0.0599
vn -0.6826 -0.6985 -0.2147
vn -0.0590 0.0436 -0.9973
vn -0.0576 0.0116 -0.9983
vn -0.0544 -0.0177 -0.9984
vn 0.0243 0.0794 -0.9965
vn -0.0000 0.0781 -0.9969
vn -0.0243 0.0794 -0.9965
vn 0.6595 0.6971 -0.2813
vn 0.4588 0.5044 -0.7315
vn 0.1757 0.2159 -0.9605
vn -0.6006 -0.6359 0.4847
vn -0.3898 -0.4174 0.8209
vn -0.1597 -0.1873 0.9692
vn 0.5951 -0.6194 -0.5121
vn 0.3747 -0.3825 -0.8446
vn 0.1426 -0.1473 -0.9787
vn -0.6595 0.6971 -0.2813
vn -0.4588 0.5044 -0.7315
vn -0.1757 0.2159 -0.9605
vn 0.0259 -0.0824 0.9963
vn -0.0000 -0.0814 0.9967
vn -0.0259 -0.0824 0.9963
vn 0.0749 0.0313 0.9967
vn 0.0729 -0.0098 0.9973
vn 0.0680 -0.0470 0.9966
vn -0.0206 -0.0466 -0.9987
vn -0.0000 -0.0456 -0.9990
vn 0.0206 -0.0466 -0.9987
vn -0.0680 -0.0470 0.9966
vn -0.0729 -0.0098 0.9973
vn -0.0749 0.0313 0.9967
vn -0.0316 0.0769 0.9965
vn -0.0000 0.0757 0.9971
vn 0.0316 0.0769 0.9965
vn 0.0544 -0.0177 -0.9984
vn 0.0576 0.0116 -0.9983
vn 0.0590 0.0436 -0.9973
vn 0.1986 0.2222 0.9546
vn 0.4761 0.5092 0.7169
vn 0.6622 0.6948 0.2807
vn -0.7067 -0.7029 -0.0807
vn -0.7123 -0.7018 -0.0067
vn -0.7067 -0.7043 0.0666
vn 0.1597 -0.1873 0.9692
vn 0.3898 -0.4174 0.8209
vn 0.6006 -0.6359 0.4847
vn -0.1986 0.2222 0.9546
vn -0.4761 0.5092 0.7169
vn -0.6622 0.6948 0.2807
vn -0.3462 0.9298 0.1249
vn -0.0000 0.9893 0.1456
vn 0.3462 0.9298 0.1249
vn 0.9328 0.3595 0.0236
vn 0.9997 -0.0035 0.0256
vn 0.9266 -0.3647 0.0912
vn -0.9266 -0.3647 0.0912
vn -0.9997 -0.0035 0.0256
vn -0.9328 0.3595 0.0236
vn 0.3330 -0.9008 0.2789
vn -0.0000 -0.9520 0.3060
vn -0.3330 -0.9008 0.2789
vn 0.7105 0.7032 0.0257
vn 0.7140 0.7001 0.0066
vn 0.7105 0.7036 -0.0126
vn 0.7067 -0.7043 0.0666
vn 0.7123 -0.7018 -0.0067
vn 0.7067 -0.7029 -0.0807
vn -0.7105 0.7032 0.0257
vn -0.7140 0.7001 0.0066
vn -0.7105 0.7036 -0.0126
vn -0.1426 -0.1473 -0.9787
vn -0.3747 -0.3825 -0.8446
vn -0.5951 -0.6194 -0.5121
vn 0.3324 -0.8936 -0.3016
vn -0.0000 -0.9440 -0.3300
vn -0.3324 -0.8936 -0.3016
vn -0.9264 -0.3630 -0.1005
vn -0.9996 -0.0031 -0.0264
vn -0.9328 0.3599 -0.0174
vn 0.9328 0.3599 -0.0174
vn 0.9996 -0.0031 -0.0264
vn 0.9264 -0.3630 -0.1005
vn -0.3460 0.9317 -0.1104
vn -0.0000 0.9915 -0.1305
vn 0.3460 0.9317 -0.1104
vn 0.0226 0.0176 0.9996
vn -0.0000 0.0176 0.9998
vn -0.0226 0.0176 0.9996
vn 0.0223 -0.0107 0.9997
vn -0.0000 -0.0108 0.9999
vn -0.0223 -0.0107 0.9997
vn 0.0209 -0.0369 0.9991
vn -0.0000 -0.0370 0.9993
vn -0.0209 -0.0369 0.9991
vn 0.2742 -0.7662 0.5812
vn 0.1649 -0.4786 0.8624
vn 0.0662 -0.2126 0.9749
vn -0.0000 -0.7922 0.6102
vn -0.0000 -0.4854 0.8743
vn -0.0000 -0.2123 0.9772
vn -0.2742 -0.7662 0.5812
vn -0.1649 -0.4786 0.8624
vn -0.0662 -0.2126 0.9749
vn -0.8711 -0.3570 0.3373
vn -0.6062 -0.2463 0.7562
vn -0.2411 -0.1084 0.9644
vn -0.9748 -0.0064 0.2231
vn -0.7103 -0.0006 0.7039
vn -0.2791 -0.0037 0.9602
vn -0.9085 0.3613 0.2101
vn -0.6704 0.2725 0.6901
vn -0.2711 0.1144 0.9557
vn -0.0168 0.0323 -0.9993
vn -0.0000 0.0324 -0.9995
vn 0.0168 0.0323 -0.9993
vn -0.0168 0.0113 -0.9998
vn -0.0000 0.0113 -0.9999
vn 0.0168 0.0113 -0.9998
vn -0.0159 -0.0086 -0.9998
vn -0.0000 -0.0087 -1.0000
vn 0.0159 -0.0086 -0.9998
vn 0.9085 0.3613 0.2101
vn 0.6704 0.2725 0.6901
vn 0.2711 0.1144 0.9557
vn 0.9748 -0.0064 0.2231
vn 0.7103 -0.0006 0.7039
vn 0.2791 -0.0037 0.9602
vn 0.8711 -0.3570 0.3373
vn 0.6062 -0.2463 0.7562
vn 0.2411 -0.1084 0.9644
vn -0.3170 0.8790 0.3562
vn -0.2172 0.6204 0.7536
vn -0.0888 0.2659 0.9599
vn -0.0000 0.9231 0.3845
vn -0.0000 0.6400 0.7684
vn -0.0000 0.2687 0.9632
vn 0.3170 0.8790 0.3562
vn 0.2172 0.6204 0.7536
vn 0.0888 0.2659 0.9599
vn -0.3572 0.9335 -0.0315
vn -0.3607 0.9327 0.0088
vn -0.3573 0.9327 0.0488
vn -0.0000 0.9992 -0.0394
vn -0.0000 1.0000 0.0094
vn -0.0000 0.9983 0.0578
vn 0.3572 0.9335 -0.0315
vn 0.3607 0.9327 0.0088
vn 0.3573 0.9327 0.0488
vn 0.9363 0.3512 0.0018
vn 0.9374 0.3482 0.0033
vn 0.9363 0.3511 0.0048
vn 1.0000 -0.0017 -0.0032
vn 1.0000 -0.0013 -0.0000
vn 1.0000 -0.0017 0.0032
vn 0.9347 -0.3540 -0.0328
vn 0.9365 -0.3507 -0.0033
vn 0.9347 -0.3545 0.0258
vn -0.9347 -0.3540 -0.0328
vn -0.9365 -0.3507 -0.0033
vn -0.9347 -0.3545 0.0258
vn -1.0000 -0.0017 -0.0032
vn -1.0000 -0.0013 -0.0000
vn -1.0000 -0.0017 0.0032
vn -0.9363 0.3512 0.0018
vn -0.9374 0.3482 0.0033
vn -0.9363 0.3511 0.0048
vn 0.3543 -0.9274 -0.1203
vn 0.3597 -0.9330 -0.0089
vn 0.3543 -0.9296 0.1016
vn -0.0000 -0.9910 -0.1339
vn -0.0000 -1.0000 -0.0096
vn -0.0000 -0.9935 0.1139
vn -0.3543 -0.9274 -0.1203
vn -0.3597 -0.9330 -0.0089
vn -0.3543 -0.9296 0.1016
vn 0.0588 -0.1695 -0.9838
vn 0.1576 -0.4386 -0.8848
vn 0.2708 -0.7440 -0.6108
vn -0.0000 -0.1689 -0.9856
vn -0.0000 -0.4441 -0.8960
vn -0.0000 -0.7684 -0.6400
vn -0.0588 -0.1695 -0.9838
vn -0.1576 -0.4386 -0.8848
vn -0.2708 -0.7440 -0.6108
vn -0.2153 -0.0768 -0.9735
vn -0.5855 -0.2203 -0.7802
vn -0.8663 -0.3480 -0.3583
vn -0.2489 0.0163 -0.9684
vn -0.6873 0.0150 -0.7262
vn -0.9720 -0.0020 -0.2348
vn -0.2412 0.1211 -0.9629
vn -0.6483 0.2776 -0.7090
vn -0.9062 0.3644 -0.2144
vn 0.2412 0.1211 -0.9629
vn 0.6483 0.2776 -0.7090
vn 0.9062 0.3644 -0.2144
vn 0.2489 0.0163 -0.9684
vn 0.6873 0.0150 -0.7262
vn 0.9720 -0.0020 -0.2348
vn 0.2153 -0.0768 -0.9735
vn 0.5855 -0.2203 -0.7802
vn 0.8663 -0.3480 -0.3583
vn -0.0779 0.2530 -0.9643
vn -0.2079 0.6086 -0.7657
vn -0.3149 0.8799 -0.3558
vn -0.0000 0.2547 -0.9670
vn -0.0000 0.6259 -0.7799
vn -0.0000 0.9233 -0.3842
vn 0.0779 0.2530 -0.9643
vn 0.2079 0.6086 -0.7657
vn 0.3149 0.8799 -0.3558
vt 0.693249 0.562500
vt 0.751519 0.562500
vt 0.752210 0.625000
vt 0.695510 0.625000
vt 0.812690 0.562500
vt 0.812776 0.625000
vt 0.751519 0.687500
vt 0.693249 0.687500
vt 0.812690 0.687500
vt 0.625000 0.500000
vt 0.687500 0.500000
vt 0.643265 0.562500
vt 0.750000 0.500000
vt 0.812500 0.500000
vt 0.875000 0.500000
vt 0.875000 0.562500
vt 0.875000 0.625000
vt 0.875000 0.687500
vt 0.875000 0.750000
vt 0.812500 0.750000
vt 0.750000 0.750000
vt 0.687500 0.750000
vt 0.643264 0.687500
vt 0.625000 0.750000
vt 0.647097 0.625000
vt 0.553067 0.812500
vt 0.578506 0.812500
vt 0.578602 0.875000
vt 0.553534 0.875000
vt 0.602282 0.812500
vt 0.602156 0.875000
vt 0.579005 0.937500
vt 0.554785 0.937500
vt 0.602206 0.937500
vt 0.525011 0.750000
vt 0.553059 0.750000
vt 0.525106 0.812500
vt 0.578965 0.750000
vt 0.603790 0.750000
vt 0.625000 0.812500
vt 0.625000 0.875000
vt 0.625000 0.937500
vt 0.625000 1.000000
vt 0.602274 1.000000
vt 0.579549 1.000000
vt 0.556823 1.000000
vt 0.527756 0.937500
vt 0.534098 1.000000
vt 0.525769 0.875000
vt 0.554785 0.062500
vt 0.579005 0.062500
vt 0.578602 0.125000
vt 0.553534 0.125000
vt 0.602206 0.062500
vt 0.602156 0.125000
vt 0.578437 0.187500
vt 0.553058 0.187500
vt 0.602135 0.187500
vt 0.534098 0.000000
vt 0.556823 0.000000
vt 0.527756 0.062500
vt 0.579549 0.000000
vt 0.602274 0.000000
vt 0.625000 0.000000
vt 0.625000 0.062500
vt 0.625000 0.125000
vt 0.625000 0.187500
vt 0.625000 0.250000
vt 0.602133 0.250000
vt 0.578413 0.250000
vt 0.552990 0.250000
vt 0.525106 0.187500
vt 0.525011 0.250000
vt 0.525769 0.125000
vt 0.187218 0.562500
vt 0.247743 0.562500
vt 0.246718 0.625000
vt 0.187090 0.625000
vt 0.303961 0.562500
vt 0.300602 0.625000
vt 0.247743 0.687500
vt 0.187218 0.687500
vt 0.303961 0.687500
vt 0.125000 0.500000
vt 0.187500 0.500000
vt 0.125000 0.562500
vt 0.250000 0.500000
vt 0.312500 0.500000
vt 0.375000 0.500000
vt 0.347870 0.562500
vt 0.342177 0.625000
vt 0.347870 0.687500
vt 0.375000 0.750000
vt 0.312500 0.750000
vt 0.250000 0.750000
vt 0.187500 0.750000
vt 0.125000 0.687500
vt 0.125000 0.750000
vt 0.125000 0.625000
vt 0.553189 0.562500
vt 0.580001 0.562500
vt 0.580623 0.625000
vt 0.553266 0.625000
vt 0.608028 0.562500
vt 0.610143 0.625000
vt 0.580001 0.687500
vt 0.553189 0.687500
vt 0.608028 0.687500
vt 0.525011 0.500000
vt 0.553059 0.500000
vt 0.525011 0.562500
vt 0.578965 0.500000
vt 0.603790 0.500000
vt 0.525011 0.687500
vt 0.525011 0.625000
vt 0.552990 0.312500
vt 0.578413 0.312500
vt 0.578413 0.375000
vt 0.552990 0.375000
vt 0.602132 0.312500
vt 0.602132 0.375000
vt 0.578482 0.437500
vt 0.552999 0.437500
vt 0.602279 0.437500
vt 0.525011 0.312500
vt 0.625000 0.312500
vt 0.625000 0.375000
vt 0.625000 0.437500
vt 0.525011 0.437500
vt 0.525011 0.375000
vt 0.434154 0.312500
vt 0.462997 0.312500
vt 0.462996 0.375000
vt 0.434154 0.375000
vt 0.494252 0.312500
vt 0.494252 0.375000
vt 0.462997 0.437500
vt 0.434154 0.437500
vt 0.494253 0.437500
vt 0.410635 0.250000
vt 0.434154 0.250000
vt 0.410635 0.312500
vt 0.462997 0.250000
vt 0.494252 0.250000
vt 0.525011 0.312500
vt 0.525011 0.375000
vt 0.525011 0.437500
vt 0.525011 0.500000
vt 0.494253 0.500000
vt 0.462997 0.500000
vt 0.434154 0.500000
vt 0.410635 0.437500
vt 0.410635 0.500000
vt 0.410635 0.375000
vt 0.434154 0.562500
vt 0.462997 0.562500
vt 0.462996 0.625000
vt 0.434154 0.625000
vt 0.494252 0.562500
vt 0.494252 0.625000
vt 0.462997 0.687500
vt 0.434154 0.687500
vt 0.494253 0.687500
vt 0.410635 0.562500
vt 0.525011 0.625000
vt 0.525011 0.750000
vt 0.494252 0.750000
vt 0.462997 0.750000
vt 0.434154 0.750000
vt 0.410635 0.687500
vt 0.410635 0.750000
vt 0.410635 0.625000
vt 0.429889 0.062500
vt 0.462159 0.062500
vt 0.462728 0.125000
vt 0.432862 0.125000
vt 0.495869 0.062500
vt 0.494740 0.125000
vt 0.462963 0.187500
vt 0.433992 0.187500
vt 0.494313 0.187500
vt 0.388678 0.000000
vt 0.425033 0.000000
vt 0.404002 0.062500
vt 0.461388 0.000000
vt 0.497743 0.000000
vt 0.494252 0.250000
vt 0.462997 0.250000
vt 0.434154 0.250000
vt 0.410406 0.187500
vt 0.408805 0.125000
vt 0.433992 0.812500
vt 0.462963 0.812500
vt 0.462728 0.875000
vt 0.432862 0.875000
vt 0.494313 0.812500
vt 0.494740 0.875000
vt 0.462159 0.937500
vt 0.429889 0.937500
vt 0.495869 0.937500
vt 0.410635 0.750000
vt 0.410406 0.812500
vt 0.462996 0.750000
vt 0.494252 0.750000
vt 0.497743 1.000000
vt 0.461388 1.000000
vt 0.425033 1.000000
vt 0.404002 0.937500
vt 0.388678 1.000000
vt 0.408805 0.875000
vt 0.378537 0.812500
vt 0.384424 0.812500
vt 0.384126 0.875000
vt 0.378705 0.875000
vt 0.394344 0.812500
vt 0.393206 0.875000
vt 0.383154 0.937500
vt 0.378584 0.937500
vt 0.390183 0.937500
vt 0.376301 0.750000
vt 0.375000 0.812500
vt 0.383763 0.750000
vt 0.394419 0.750000
vt 0.385258 1.000000
vt 0.381839 1.000000
vt 0.378419 1.000000
vt 0.375000 0.937500
vt 0.375000 1.000000
vt 0.375000 0.875000
vt 0.378584 0.062500
vt 0.383154 0.062500
vt 0.384126 0.125000
vt 0.378705 0.125000
vt 0.390183 0.062500
vt 0.393206 0.125000
vt 0.384526 0.187500
vt 0.378755 0.187500
vt 0.394357 0.187500
vt 0.375000 0.000000
vt 0.378419 0.000000
vt 0.375000 0.062500
vt 0.381839 0.000000
vt 0.385258 0.000000
vt 0.394521 0.250000
vt 0.384583 0.250000
vt 0.378763 0.250000
vt 0.375000 0.187500
vt 0.375000 0.250000
vt 0.375000 0.125000
vt 0.370006 0.562500
vt 0.382224 0.562500
vt 0.381301 0.625000
vt 0.366864 0.625000
vt 0.394226 0.562500
vt 0.394111 0.625000
vt 0.382224 0.687500
vt 0.370006 0.687500
vt 0.394226 0.687500
vt 0.376301 0.500000
vt 0.383763 0.500000
vt 0.394419 0.500000
vt 0.410635 0.500000
vt 0.410635 0.562500
vt 0.410635 0.625000
vt 0.410635 0.687500
vt 0.378762 0.312500
vt 0.384584 0.312500
vt 0.384583 0.375000
vt 0.378762 0.375000
vt 0.394521 0.312500
vt 0.394521 0.375000
vt 0.384481 0.437500
vt 0.378545 0.437500
vt 0.394509 0.437500
vt 0.375000 0.312500
vt 0.410635 0.312500
vt 0.410635 0.375000
vt 0.410635 0.437500
vt 0.375000 0.437500
vt 0.375000 0.375000
s 1
usemtl Material.001
f 101/1/101 102/2/102 105/3/105 104/4/104
f 102/2/102 103/5/103 106/6/106 105/3/105
f 104/4/104 105/3/105 108/7/108 107/8/107
f 105/3/105 106/6/106 109/9/109 108/7/108
f 1/10/1 49/11/49 101/1/101 38/12/38
f 49/11/49 48/13/48 102/2/102 101/1/101
f 48/13/48 47/14/47 103/5/103 102/2/102
f 47/14/47 5/15/5 46/16/46 103/5/103
f 103/5/103 46/16/46 45/17/45 106/6/106
f 106/6/106 45/17/45 44/18/44 109/9/109
f 109/9/109 44/18/44 7/19/7 37/20/37
f 108/7/108 109/9/109 37/20/37 36/21/36
f 107/8/107 108/7/108 36/21/36 35/22/35
f 40/23/40 107/8/107 35/22/35 3/24/3
f 39/25/39 104/4/104 107/8/107 40/23/40
f 38/12/38 101/1/101 104/4/104 39/25/39
f 110/26/110 111/27/111 114/28/114 113/29/113
f 111/27/111 112/30/112 115/31/115 114/28/114
f 113/29/113 114/28/114 117/32/117 116/33/116
f 114/28/114 115/31/115 118/34/118 117/32/117
f 11/35/11 61/36/61 110/26/110 74/37/74
f 61/36/61 60/38/60 111/27/111 110/26/110
f 60/38/60 59/39/59 112/30/112 111/27/111
f 59/39/59 3/24/3 35/40/35 112/30/112
f 112/30/112 35/40/35 36/41/36 115/31/115
f 115/31/115 36/41/36 37/42/37 118/34/118
f 118/34/118 37/42/37 7/43/7 28/44/28
f 117/32/117 118/34/118 28/44/28 27/45/27
f 116/33/116 117/32/117 27/45/27 26/46/26
f 76/47/76 116/33/116 26/46/26 10/48/10
f 75/49/75 113/29/113 116/33/116 76/47/76
f 74/37/74 110/26/110 113/29/113 75/49/75
f 119/50/119 120/51/120 123/52/123 122/53/122
f 120/51/120 121/54/121 124/55/124 123/52/123
f 122/53/122 123/52/123 126/56/126 125/57/125
f 123/52/123 124/55/124 127/58/127 126/56/126
f 10/59/10 26/60/26 119/50/119 71/61/71
f 26/60/26 27/62/27 120/51/120 119/50/119
f 27/62/27 28/63/28 121/54/121 120/51/120
f 28/63/28 7/64/7 44/65/44 121/54/121
f 121/54/121 44/65/44 45/66/45 124/55/124
f 124/55/124 45/66/45 46/67/46 127/58/127
f 127/58/127 46/67/46 5/68/5 62/69/62
f 126/56/126 127/58/127 62/69/62 63/70/63
f 125/57/125 126/56/126 63/70/63 64/71/64
f 73/72/73 125/57/125 64/71/64 12/73/12
f 72/74/72 122/53/122 125/57/125 73/72/73
f 71/61/71 119/50/119 122/53/122 72/74/72
f 128/75/128 129/76/129 132/77/132 131/78/131
f 129/76/129 130/79/130 133/80/133 132/77/132
f 131/78/131 132/77/132 135/81/135 134/82/134
f 132/77/132 133/80/133 136/83/136 135/81/135
f 6/84/6 22/85/22 128/75/128 17/86/17
f 22/85/22 21/87/21 129/76/129 128/75/128
f 21/87/21 20/88/20 130/79/130 129/76/129
f 20/88/20 2/89/2 52/90/52 130/79/130
f 130/79/130 52/90/52 51/91/51 133/80/133
f 133/80/133 51/91/51 50/92/50 136/83/136
f 136/83/136 50/92/50 4/93/4 43/94/43
f 135/81/135 136/83/136 43/94/43 42/95/42
f 134/82/134 135/81/135 42/95/42 41/96/41
f 19/97/19 134/82/134 41/96/41 8/98/8
f 18/99/18 131/78/131 134/82/134 19/97/19
f 17/86/17 128/75/128 131/78/131 18/99/18
f 137/100/137 138/101/138 141/102/141 140/103/140
f 138/101/138 139/104/139 142/105/142 141/102/141
f 140/103/140 141/102/141 144/106/144 143/107/143
f 141/102/141 142/105/142 145/108/145 144/106/144
f 9/109/9 55/110/55 137/100/137 68/111/68
f 55/110/55 54/112/54 138/101/138 137/100/137
f 54/112/54 53/113/53 139/104/139 138/101/138
f 53/113/53 1/10/1 38/12/38 139/104/139
f 139/104/139 38/12/38 39/25/39 142/105/142
f 142/105/142 39/25/39 40/23/40 145/108/145
f 145/108/145 40/23/40 3/24/3 59/39/59
f 144/106/144 145/108/145 59/39/59 60/38/60
f 143/107/143 144/106/144 60/38/60 61/36/61
f 70/114/70 143/107/143 61/36/61 11/35/11
f 69/115/69 140/103/140 143/107/143 70/114/70
f 68/111/68 137/100/137 140/103/140 69/115/69
f 146/116/146 147/117/147 150/118/150 149/119/149
f 147/117/147 148/120/148 151/121/151 150/118/150
f 149/119/149 150/118/150 153/122/153 152/123/152
f 150/118/150 151/121/151 154/124/154 153/122/153
f 12/73/12 64/71/64 146/116/146 65/125/65
f 64/71/64 63/70/63 147/117/147 146/116/146
f 63/70/63 62/69/62 148/120/148 147/117/147
f 62/69/62 5/68/5 47/126/47 148/120/148
f 148/120/148 47/126/47 48/127/48 151/121/151
f 151/121/151 48/127/48 49/128/49 154/124/154
f 154/124/154 49/128/49 1/10/1 53/113/53
f 153/122/153 154/124/154 53/113/53 54/112/54
f 152/123/152 153/122/153 54/112/54 55/110/55
f 67/129/67 152/123/152 55/110/55 9/109/9
f 66/130/66 149/119/149 152/123/152 67/129/67
f 65/125/65 146/116/146 149/119/149 66/130/66
f 155/131/155 156/132/156 159/133/159 158/134/158
f 156/132/156 157/135/157 160/136/160 159/133/159
f 158/134/158 159/133/159 162/137/162 161/138/161
f 159/133/159 160/136/160 163/139/163 162/137/162
f 15/140/15 85/141/85 155/131/155 98/142/98
f 85/141/85 84/143/84 156/132/156 155/131/155
f 84/143/84 83/144/83 157/135/157 156/132/156
f 83/144/83 12/73/12 65/145/65 157/135/157
f 157/135/157 65/145/65 66/146/66 160/136/160
f 160/136/160 66/146/66 67/147/67 163/139/163
f 163/139/163 67/147/67 9/148/9 77/149/77
f 162/137/162 163/139/163 77/149/77 78/150/78
f 161/138/161 162/137/162 78/150/78 79/151/79
f 100/152/100 161/138/161 79/151/79 13/153/13
f 99/154/99 158/134/158 161/138/161 100/152/100
f 98/142/98 155/131/155 158/134/158 99/154/99
f 164/155/164 165/156/165 168/157/168 167/158/167
f 165/156/165 166/159/166 169/160/169 168/157/168
f 167/158/167 168/157/168 171/161/171 170/162/170
f 168/157/168 169/160/169 172/163/172 171/161/171
f 13/153/13 79/151/79 164/155/164 95/164/95
f 79/151/79 78/150/78 165/156/165 164/155/164
f 78/150/78 77/149/77 166/159/166 165/156/165
f 77/149/77 9/148/9 68/111/68 166/159/166
f 166/159/166 68/111/68 69/165/69 169/160/169
f 169/160/169 69/165/69 70/114/70 172/163/172
f 172/163/172 70/114/70 11/166/11 80/167/80
f 171/161/171 172/163/172 80/167/80 81/168/81
f 170/162/170 171/161/171 81/168/81 82/169/82
f 97/170/97 170/162/170 82/169/82 14/171/14
f 96/172/96 167/158/167 170/162/170 97/170/97
f 95/164/95 164/155/164 167/158/167 96/172/96
f 173/173/173 174/174/174 177/175/177 176/176/176
f 174/174/174 175/177/175 178/178/178 177/175/177
f 176/176/176 177/175/177 180/179/180 179/180/179
f 177/175/177 178/178/178 181/181/181 180/179/180
f 16/182/16 56/183/56 173/173/173 92/184/92
f 56/183/56 57/185/57 174/174/174 173/173/173
f 57/185/57 58/186/58 175/177/175 174/174/174
f 58/186/58 10/59/10 71/61/71 175/177/175
f 175/177/175 71/61/71 72/74/72 178/178/178
f 178/178/178 72/74/72 73/72/73 181/181/181
f 181/181/181 73/72/73 12/73/12 83/187/83
f 180/179/180 181/181/181 83/187/83 84/188/84
f 179/180/179 180/179/180 84/188/84 85/189/85
f 94/190/94 179/180/179 85/189/85 15/140/15
f 93/191/93 176/176/176 179/180/179 94/190/94
f 92/184/92 173/173/173 176/176/176 93/191/93
f 182/192/182 183/193/183 186/194/186 185/195/185
f 183/193/183 184/196/184 187/197/187 186/194/186
f 185/195/185 186/194/186 189/198/189 188/199/188
f 186/194/186 187/197/187 190/200/190 189/198/189
f 14/201/14 82/169/82 182/192/182 89/202/89
f 82/169/82 81/203/81 183/193/183 182/192/182
f 81/203/81 80/204/80 184/196/184 183/193/183
f 80/204/80 11/35/11 74/37/74 184/196/184
f 184/196/184 74/37/74 75/49/75 187/197/187
f 187/197/187 75/49/75 76/47/76 190/200/190
f 190/200/190 76/47/76 10/48/10 58/205/58
f 189/198/189 190/200/190 58/205/58 57/206/57
f 188/199/188 189/198/189 57/206/57 56/207/56
f 91/208/91 188/199/188 56/207/56 16/209/16
f 90/210/90 185/195/185 188/199/188 91/208/91
f 89/202/89 182/192/182 185/195/185 90/210/90
f 191/211/191 192/212/192 195/213/195 194/214/194
f 192/212/192 193/215/193 196/216/196 195/213/195
f 194/214/194 195/213/195 198/217/198 197/218/197
f 195/213/195 196/216/196 199/219/199 198/217/198
f 4/93/4 31/220/31 191/211/191 43/221/43
f 31/220/31 30/222/30 192/212/192 191/211/191
f 30/222/30 29/223/29 193/215/193 192/212/192
f 29/223/29 14/201/14 89/202/89 193/215/193
f 193/215/193 89/202/89 90/210/90 196/216/196
f 196/216/196 90/210/90 91/208/91 199/219/199
f 199/219/199 91/208/91 16/209/16 88/224/88
f 198/217/198 199/219/199 88/224/88 87/225/87
f 197/218/197 198/217/198 87/225/87 86/226/86
f 41/227/41 197/218/197 86/226/86 8/228/8
f 42/229/42 194/214/194 197/218/197 41/227/41
f 43/221/43 191/211/191 194/214/194 42/229/42
f 200/230/200 201/231/201 204/232/204 203/233/203
f 201/231/201 202/234/202 205/235/205 204/232/204
f 203/233/203 204/232/204 207/236/207 206/237/206
f 204/232/204 205/235/205 208/238/208 207/236/207
f 8/239/8 86/240/86 200/230/200 19/241/19
f 86/240/86 87/242/87 201/231/201 200/230/200
f 87/242/87 88/243/88 202/234/202 201/231/201
f 88/243/88 16/182/16 92/184/92 202/234/202
f 202/234/202 92/184/92 93/191/93 205/235/205
f 205/235/205 93/191/93 94/190/94 208/238/208
f 208/238/208 94/190/94 15/140/15 32/244/32
f 207/236/207 208/238/208 32/244/32 33/245/33
f 206/237/206 207/236/207 33/245/33 34/246/34
f 17/247/17 206/237/206 34/246/34 6/248/6
f 18/249/18 203/233/203 206/237/206 17/247/17
f 19/241/19 200/230/200 203/233/203 18/249/18
f 209/250/209 210/251/210 213/252/213 212/253/212
f 210/251/210 211/254/211 214/255/214 213/252/213
f 212/253/212 213/252/213 216/256/216 215/257/215
f 213/252/213 214/255/214 217/258/217 216/256/216
f 2/89/2 25/259/25 209/250/209 52/90/52
f 25/259/25 24/260/24 210/251/210 209/250/209
f 24/260/24 23/261/23 211/254/211 210/251/210
f 23/261/23 13/262/13 95/263/95 211/254/211
f 211/254/211 95/263/95 96/264/96 214/255/214
f 214/255/214 96/264/96 97/265/97 217/258/217
f 217/258/217 97/265/97 14/201/14 29/223/29
f 216/256/216 217/258/217 29/223/29 30/222/30
f 215/257/215 216/256/216 30/222/30 31/220/31
f 50/92/50 215/257/215 31/220/31 4/93/4
f 51/91/51 212/253/212 215/257/215 50/92/50
f 52/90/52 209/250/209 212/253/212 51/91/51
f 218/266/218 219/267/219 222/268/222 221/269/221
f 219/267/219 220/270/220 223/271/223 222/268/222
f 221/269/221 222/268/222 225/272/225 224/273/224
f 222/268/222 223/271/223 226/274/226 225/272/225
f 6/248/6 34/246/34 218/266/218 22/275/22
f 34/246/34 33/245/33 219/267/219 218/266/218
f 33/245/33 32/244/32 220/270/220 219/267/219
f 32/244/32 15/140/15 98/276/98 220/270/220
f 220/270/220 98/276/98 99/277/99 223/271/223
f 223/271/223 99/277/99 100/278/100 226/274/226
f 226/274/226 100/278/100 13/262/13 23/261/23
f 225/272/225 226/274/226 23/261/23 24/260/24
f 224/273/224 225/272/225 24/260/24 25/259/25
f 20/279/20 224/273/224 25/259/25 2/89/2
f 21/280/21 221/269/221 224/273/224 20/279/20
f 22/275/22 218/266/218 221/269/221 21/280/21
o Cube.002
v 2.677598 2.416299 3.638847
v 2.677598 2.432580 1.923234
v 2.677598 1.397699 3.627872
v 2.677598 1.413980 1.912259
v 1.425762 2.416299 3.638847
v 1.425762 2.432580 1.923234
v 1.425762 1.397699 3.627872
v 1.425762 1.413980 1.912259
v 2.886237 2.633799 3.306942
v 1.217122 0.993601 3.290941
v 2.886237 0.993601 3.290941
v 1.217122 2.633799 3.306942
v 2.886237 2.643931 2.239264
v 2.886237 1.003733 2.223263
v 1.217122 2.643931 2.239264
v 1.217122 1.003733 2.223263
v 1.334462 2.229707 1.917486
v 1.288601 1.932390 1.912477
v 1.334462 1.628981 1.910992
v 2.423037 2.503780 1.920483
v 2.051680 2.538823 1.919097
v 1.680323 2.503780 1.920483
v 2.881769 2.624929 2.075809
v 2.850498 2.584056 1.982275
v 2.773365 2.512446 1.938097
v 1.221590 1.062064 3.459759
v 1.252861 1.160048 3.559486
v 1.329994 1.283791 3.609317
v 2.881769 1.075345 2.060291
v 2.850498 1.175153 1.967740
v 2.773365 1.299772 1.925258
v 1.221590 2.624929 2.075809
v 1.252861 2.584056 1.982275
v 1.329995 2.512446 1.938097
v 2.423037 1.338549 3.631930
v 2.051680 1.309558 3.633971
v 1.680323 1.338549 3.631930
v 2.768897 2.213348 3.641420
v 2.814758 1.915991 3.640592
v 2.768897 1.612622 3.634926
v 1.680323 1.354908 1.907995
v 2.051680 1.325958 1.905857
v 2.423037 1.354908 1.907995
v 1.334462 1.612622 3.634926
v 1.288601 1.915991 3.640592
v 1.334462 2.213348 3.641420
v 1.680323 2.487420 3.644417
v 2.051680 2.522424 3.647212
v 2.423037 2.487420 3.644417
v 2.768897 1.628981 1.910992
v 2.814758 1.932390 1.912477
v 2.768898 2.229707 1.917486
v 2.773365 2.496465 3.622157
v 2.850498 2.568951 3.574022
v 2.881769 2.611649 3.475277
v 1.217122 0.959480 2.466025
v 1.217122 0.942757 2.754692
v 1.217122 0.953990 3.044563
v 2.773365 1.283791 3.609317
v 2.850498 1.160048 3.559486
v 2.881769 1.062064 3.459759
v 1.329994 2.496465 3.622157
v 1.252861 2.568951 3.574022
v 1.221590 2.611649 3.475278
v 1.595281 2.864452 3.309192
v 2.051680 2.941336 3.309942
v 2.508078 2.864452 3.309192
v 3.120956 2.262192 3.303317
v 3.199196 1.813700 3.298941
v 3.120956 1.365208 3.294566
v 0.982403 1.365208 3.294566
v 0.904163 1.813700 3.298941
v 0.982403 2.262192 3.303317
v 2.508078 0.762948 3.288691
v 2.051680 0.686064 3.287941
v 1.595281 0.762948 3.288691
v 2.886237 2.647075 3.060821
v 2.886237 2.653471 2.771035
v 2.886237 2.652565 2.482283
v 2.886237 0.953990 3.044563
v 2.886237 0.942757 2.754692
v 2.886237 0.959480 2.466025
v 1.217122 2.647075 3.060821
v 1.217122 2.653471 2.771035
v 1.217122 2.652565 2.482283
v 1.329995 1.299772 1.925258
v 1.252861 1.175153 1.967740
v 1.221590 1.075345 2.060291
v 2.508078 0.773080 2.221013
v 2.051680 0.696196 2.220263
v 1.595281 0.773080 2.221013
v 0.982403 1.375340 2.226888
v 0.904163 1.823832 2.231264
v 0.982403 2.272323 2.235639
v 3.120956 2.272323 2.235639
v 3.199196 1.823832 2.231264
v 3.120956 1.375340 2.226888
v 1.595281 2.874584 2.241514
v 2.051680 2.951468 2.242265
v 2.508078 2.874583 2.241514
v 2.447456 2.236096 3.651887
v 2.051680 2.253454 3.655540
v 1.655903 2.236096 3.651887
v 2.468717 1.930128 3.651962
v 2.051680 1.934861 3.655769
v 1.634642 1.930128 3.651962
v 2.447456 1.615487 3.645061
v 2.051680 1.606801 3.648383
v 1.655903 1.615487 3.645061
v 2.505618 0.844392 3.457622
v 2.488397 0.963826 3.557804
v 2.449916 1.125655 3.608927
v 2.051680 0.771929 3.456939
v 2.051680 0.899172 3.557482
v 2.051680 1.074747 3.609518
v 1.597741 0.844392 3.457622
v 1.614962 0.963826 3.557804
v 1.653443 1.125655 3.608927
v 0.988063 1.413149 3.463319
v 1.027681 1.479309 3.563135
v 1.133444 1.556246 3.613522
v 0.910200 1.836967 3.467607
v 0.952460 1.865386 3.567467
v 1.066921 1.893233 3.618234
v 0.988063 2.260675 3.471806
v 1.027681 2.250576 3.571086
v 1.133444 2.227323 3.620616
v 1.655903 2.252625 1.910147
v 2.051680 2.270040 1.907772
v 2.447456 2.252625 1.910147
v 1.634642 1.946713 1.904193
v 2.051680 1.951509 1.901419
v 2.468717 1.946713 1.904193
v 1.655903 1.632015 1.903321
v 2.051680 1.623387 1.900615
v 2.447456 1.632015 1.903321
v 3.115296 2.260675 3.471806
v 3.075678 2.250576 3.571086
v 2.969915 2.227323 3.620616
v 3.193159 1.836967 3.467607
v 3.150900 1.865386 3.567467
v 3.036438 1.893234 3.618234
v 3.115296 1.413149 3.463319
v 3.075678 1.479309 3.563135
v 2.969915 1.556246 3.613522
v 1.597741 2.829432 3.477504
v 1.614962 2.766059 3.576417
v 1.653443 2.657914 3.625211
v 2.051680 2.902006 3.478276
v 2.051680 2.831599 3.577452
v 2.051680 2.711720 3.626952
v 2.505618 2.829432 3.477504
v 2.488397 2.766059 3.576417
v 2.449917 2.657914 3.625211
v 1.595281 2.890655 2.484569
v 1.595281 2.894041 2.773333
v 1.595281 2.885165 3.063107
v 2.051680 2.970018 2.485331
v 2.051680 2.974230 2.774099
v 2.051680 2.964528 3.063869
v 2.508078 2.890655 2.484569
v 2.508078 2.894041 2.773333
v 2.508078 2.885165 3.063107
v 3.120956 2.268975 2.478600
v 3.120956 2.265888 2.767332
v 3.120956 2.263485 3.057137
v 3.199196 1.806022 2.474154
v 3.199196 1.798114 2.762863
v 3.199196 1.800532 3.052692
v 3.120956 1.343070 2.469708
v 3.120956 1.330341 2.758394
v 3.120956 1.337579 3.048246
v 0.982403 1.343069 2.469708
v 0.982403 1.330341 2.758394
v 0.982403 1.337579 3.048246
v 0.904163 1.806022 2.474154
v 0.904163 1.798114 2.762863
v 0.904163 1.800532 3.052692
v 0.982403 2.268975 2.478600
v 0.982403 2.265888 2.767332
v 0.982403 2.263485 3.057137
v 2.508078 0.721390 2.463739
v 2.508078 0.702188 2.752393
v 2.508078 0.715900 3.042277
v 2.051680 0.642027 2.462977
v 2.051680 0.621998 2.751627
v 2.051680 0.636536 3.041515
v 1.595281 0.721390 2.463739
v 1.595281 0.702188 2.752393
v 1.595281 0.715900 3.042277
v 2.449917 1.141658 1.922565
v 2.488397 0.978937 1.965441
v 2.505618 0.857673 2.058077
v 2.051680 1.090769 1.921141
v 2.051680 0.914289 1.964503
v 2.051680 0.785211 2.057317
v 1.653443 1.141658 1.922565
v 1.614962 0.978937 1.965441
v 1.597741 0.857673 2.058077
v 1.133444 1.572249 1.927160
v 1.027681 1.494420 1.970772
v 0.988063 1.426430 2.063774
v 1.066921 1.909256 1.929858
v 0.952460 1.880503 1.974488
v 0.910200 1.850249 2.067985
v 1.133444 2.243326 1.934254
v 1.027681 2.265687 1.978723
v 0.988063 2.273956 2.072261
v 2.969915 2.243326 1.934254
v 3.075678 2.265687 1.978723
v 3.115296 2.273956 2.072261
v 3.036438 1.909256 1.929858
v 3.150900 1.880503 1.974488
v 3.193159 1.850249 2.067985
v 2.969915 1.572249 1.927160
v 3.075678 1.494420 1.970772
v 3.115296 1.426430 2.063774
v 1.653443 2.673916 1.938849
v 1.614962 2.781170 1.984054
v 1.597741 2.842713 2.077959
v 2.051680 2.727742 1.938575
v 2.051680 2.846716 1.984473
v 2.051680 2.915287 2.078653
v 2.449916 2.673917 1.938850
v 2.488397 2.781170 1.984054
v 2.505618 2.842713 2.077959
vn 0.0630 0.0693 0.9956
vn 0.0494 0.0736 -0.9961
vn 0.0546 -0.0769 0.9955
vn 0.0440 -0.0425 -0.9981
vn -0.0630 0.0693 0.9956
vn -0.0494 0.0736 -0.9961
vn -0.0546 -0.0769 0.9955
vn -0.0440 -0.0425 -0.9981
vn 0.6989 0.7113 0.0751
vn -0.6817 -0.7015 0.2075
vn 0.6817 -0.7015 0.2075
vn -0.6989 0.7113 0.0751
vn 0.6987 0.7125 -0.0635
vn 0.6810 -0.6967 -0.2254
vn -0.6987 0.7125 -0.0635
vn -0.6810 -0.6967 -0.2254
vn -0.0560 0.0419 -0.9976
vn -0.0546 0.0115 -0.9984
vn -0.0516 -0.0163 -0.9985
vn 0.0231 0.0758 -0.9969
vn -0.0000 0.0746 -0.9972
vn -0.0231 0.0758 -0.9969
vn 0.6564 0.6941 -0.2956
vn 0.4455 0.4902 -0.7491
vn 0.1673 0.2060 -0.9641
vn -0.5927 -0.6277 0.5046
vn -0.3758 -0.4028 0.8346
vn -0.1519 -0.1787 0.9721
vn 0.5867 -0.6105 -0.5320
vn 0.3608 -0.3678 -0.8571
vn 0.1356 -0.1396 -0.9809
vn -0.6564 0.6941 -0.2956
vn -0.4455 0.4902 -0.7491
vn -0.1673 0.2060 -0.9641
vn 0.0246 -0.0786 0.9966
vn -0.0000 -0.0777 0.9970
vn -0.0246 -0.0786 0.9966
vn 0.0711 0.0292 0.9970
vn 0.0691 -0.0098 0.9976
vn 0.0645 -0.0450 0.9969
vn -0.0195 -0.0437 -0.9989
vn -0.0000 -0.0428 -0.9991
vn 0.0195 -0.0437 -0.9989
vn -0.0645 -0.0450 0.9969
vn -0.0691 -0.0098 0.9976
vn -0.0711 0.0292 0.9970
vn -0.0300 0.0725 0.9969
vn -0.0000 0.0714 0.9975
vn 0.0300 0.0725 0.9969
vn 0.0516 -0.0163 -0.9985
vn 0.0546 0.0115 -0.9984
vn 0.0560 0.0419 -0.9976
vn 0.1893 0.2113 0.9589
vn 0.4632 0.4951 0.7351
vn 0.6594 0.6917 0.2944
vn -0.7064 -0.7027 -0.0847
vn -0.7123 -0.7018 -0.0067
vn -0.7065 -0.7042 0.0706
vn 0.1519 -0.1787 0.9721
vn 0.3758 -0.4028 0.8346
vn 0.5927 -0.6277 0.5046
vn -0.1893 0.2113 0.9589
vn -0.4632 0.4951 0.7351
vn -0.6594 0.6917 0.2944
vn -0.3460 0.9290 0.1311
vn -0.0000 0.9883 0.1528
vn 0.3460 0.9290 0.1311
vn 0.9328 0.3595 0.0247
vn 0.9996 -0.0035 0.0270
vn 0.9262 -0.3646 0.0963
vn -0.9262 -0.3646 0.0963
vn -0.9996 -0.0035 0.0270
vn -0.9328 0.3595 0.0247
vn 0.3314 -0.8968 0.2931
vn -0.0000 -0.9470 0.3213
vn -0.3314 -0.8968 0.2931
vn 0.7105 0.7032 0.0268
vn 0.7140 0.7001 0.0066
vn 0.7105 0.7036 -0.0137
vn 0.7065 -0.7042 0.0706
vn 0.7123 -0.7018 -0.0067
vn 0.7064 -0.7027 -0.0847
vn -0.7105 0.7032 0.0268
vn -0.7140 0.7001 0.0066
vn -0.7105 0.7036 -0.0137
vn -0.1356 -0.1396 -0.9809
vn -0.3608 -0.3678 -0.8571
vn -0.5867 -0.6105 -0.5320
vn 0.3308 -0.8892 -0.3160
vn -0.0000 -0.9384 -0.3454
vn -0.3308 -0.8892 -0.3160
vn -0.9259 -0.3627 -0.1057
vn -0.9996 -0.0031 -0.0279
vn -0.9328 0.3599 -0.0186
vn 0.9328 0.3599 -0.0186
vn 0.9996 -0.0031 -0.0279
vn 0.9259 -0.3627 -0.1057
vn -0.3458 0.9310 -0.1167
vn -0.0000 0.9904 -0.1379
vn 0.3458 0.9310 -0.1167
vn 0.0214 0.0162 0.9996
vn -0.0000 0.0162 0.9999
vn -0.0214 0.0162 0.9996
vn 0.0212 -0.0106 0.9997
vn -0.0000 -0.0108 0.9999
vn -0.0212 -0.0106 0.9997
vn 0.0198 -0.0355 0.9992
vn -0.0000 -0.0356 0.9994
vn -0.0198 -0.0355 0.9992
vn 0.2691 -0.7521 0.6017
vn 0.1584 -0.4602 0.8736
vn 0.0630 -0.2026 0.9772
vn -0.0000 -0.7762 0.6305
vn -0.0000 -0.4662 0.8847
vn -0.0000 -0.2023 0.9793
vn -0.2691 -0.7521 0.6017
vn -0.1584 -0.4602 0.8736
vn -0.0630 -0.2026 0.9772
vn -0.8655 -0.3548 0.3535
vn -0.5876 -0.2391 0.7730
vn -0.2295 -0.1036 0.9678
vn -0.9721 -0.0065 0.2346
vn -0.6915 -0.0010 0.7224
vn -0.2658 -0.0040 0.9640
vn -0.9063 0.3603 0.2208
vn -0.6534 0.2653 0.7090
vn -0.2583 0.1085 0.9600
vn -0.0159 0.0312 -0.9994
vn -0.0000 0.0313 -0.9995
vn 0.0159 0.0312 -0.9994
vn -0.0159 0.0112 -0.9998
vn -0.0000 0.0112 -0.9999
vn 0.0159 0.0112 -0.9998
vn -0.0151 -0.0077 -0.9999
vn -0.0000 -0.0077 -1.0000
vn 0.0151 -0.0077 -0.9999
vn 0.9063 0.3603 0.2208
vn 0.6534 0.2653 0.7090
vn 0.2583 0.1085 0.9600
vn 0.9721 -0.0065 0.2346
vn 0.6915 -0.0010 0.7224
vn 0.2658 -0.0040 0.9640
vn 0.8655 -0.3548 0.3535
vn 0.5876 -0.2391 0.7730
vn 0.2295 -0.1036 0.9678
vn -0.3149 0.8730 0.3726
vn -0.2107 0.6015 0.7706
vn -0.0846 0.2528 0.9638
vn -0.0000 0.9157 0.4018
vn -0.0000 0.6198 0.7847
vn -0.0000 0.2553 0.9669
vn 0.3149 0.8730 0.3726
vn 0.2107 0.6015 0.7706
vn 0.0846 0.2528 0.9638
vn -0.3572 0.9334 -0.0337
vn -0.3607 0.9327 0.0088
vn -0.3572 0.9326 0.0509
vn -0.0000 0.9991 -0.0420
vn -0.0000 1.0000 0.0094
vn -0.0000 0.9982 0.0604
vn 0.3572 0.9334 -0.0337
vn 0.3607 0.9327 0.0088
vn 0.3572 0.9326 0.0509
vn 0.9363 0.3512 0.0017
vn 0.9374 0.3482 0.0033
vn 0.9363 0.3511 0.0049
vn 1.0000 -0.0017 -0.0034
vn 1.0000 -0.0013 -0.0000
vn 1.0000 -0.0017 0.0033
vn 0.9346 -0.3539 -0.0344
vn 0.9365 -0.3507 -0.0034
vn 0.9347 -0.3545 0.0274
vn -0.9346 -0.3539 -0.0344
vn -0.9365 -0.3507 -0.0034
vn -0.9347 -0.3545 0.0274
vn -1.0000 -0.0017 -0.0034
vn -1.0000 -0.0013 -0.0000
vn -1.0000 -0.0017 0.0033
vn -0.9363 0.3512 0.0017
vn -0.9374 0.3482 0.0033
vn -0.9363 0.3511 0.0049
vn 0.3540 -0.9267 -0.1262
vn 0.3597 -0.9330 -0.0089
vn 0.3541 -0.9290 0.1075
vn -0.0000 -0.9901 -0.1405
vn -0.0000 -1.0000 -0.0096
vn -0.0000 -0.9927 0.1205
vn -0.3540 -0.9267 -0.1262
vn -0.3597 -0.9330 -0.0089
vn -0.3541 -0.9290 0.1075
vn 0.0559 -0.1606 -0.9854
vn 0.1512 -0.4203 -0.8947
vn 0.2655 -0.7291 -0.6309
vn -0.0000 -0.1599 -0.9871
vn -0.0000 -0.4252 -0.9051
vn -0.0000 -0.7514 -0.6598
vn -0.0559 -0.1606 -0.9854
vn -0.1512 -0.4203 -0.8947
vn -0.2655 -0.7291 -0.6309
vn -0.2048 -0.0725 -0.9761
vn -0.5666 -0.2129 -0.7960
vn -0.8603 -0.3454 -0.3750
vn -0.2368 0.0160 -0.9714
vn -0.6679 0.0149 -0.7441
vn -0.9691 -0.0019 -0.2468
vn -0.2296 0.1157 -0.9664
vn -0.6307 0.2704 -0.7273
vn -0.9038 0.3635 -0.2256
vn 0.2296 0.1157 -0.9664
vn 0.6307 0.2704 -0.7273
vn 0.9038 0.3635 -0.2256
vn 0.2368 0.0160 -0.9714
vn 0.6679 0.0149 -0.7441
vn 0.9691 -0.0019 -0.2468
vn 0.2048 -0.0725 -0.9761
vn 0.5666 -0.2129 -0.7960
vn 0.8603 -0.3454 -0.3750
vn -0.0742 0.2412 -0.9676
vn -0.2014 0.5897 -0.7821
vn -0.3126 0.8737 -0.3728
vn -0.0000 0.2428 -0.9701
vn -0.0000 0.6058 -0.7956
vn -0.0000 0.9156 -0.4021
vn 0.0742 0.2412 -0.9676
vn 0.2014 0.5897 -0.7821
vn 0.3126 0.8737 -0.3728
vt 0.693249 0.562500
vt 0.751519 0.562500
vt 0.752210 0.625000
vt 0.695510 0.625000
vt 0.812690 0.562500
vt 0.812776 0.625000
vt 0.751519 0.687500
vt 0.693249 0.687500
vt 0.812690 0.687500
vt 0.625000 0.500000
vt 0.687500 0.500000
vt 0.643265 0.562500
vt 0.750000 0.500000
vt 0.812500 0.500000
vt 0.875000 0.500000
vt 0.875000 0.562500
vt 0.875000 0.625000
vt 0.875000 0.687500
vt 0.875000 0.750000
vt 0.812500 0.750000
vt 0.750000 0.750000
vt 0.687500 0.750000
vt 0.643264 0.687500
vt 0.625000 0.750000
vt 0.647097 0.625000
vt 0.553067 0.812500
vt 0.578506 0.812500
vt 0.578602 0.875000
vt 0.553534 0.875000
vt 0.602282 0.812500
vt 0.602156 0.875000
vt 0.579005 0.937500
vt 0.554785 0.937500
vt 0.602206 0.937500
vt 0.525011 0.750000
vt 0.553059 0.750000
vt 0.525106 0.812500
vt 0.578965 0.750000
vt 0.603790 0.750000
vt 0.625000 0.812500
vt 0.625000 0.875000
vt 0.625000 0.937500
vt 0.625000 1.000000
vt 0.602274 1.000000
vt 0.579549 1.000000
vt 0.556823 1.000000
vt 0.527756 0.937500
vt 0.534098 1.000000
vt 0.525769 0.875000
vt 0.554785 0.062500
vt 0.579005 0.062500
vt 0.578602 0.125000
vt 0.553534 0.125000
vt 0.602206 0.062500
vt 0.602156 0.125000
vt 0.578437 0.187500
vt 0.553058 0.187500
vt 0.602135 0.187500
vt 0.534098 0.000000
vt 0.556823 0.000000
vt 0.527756 0.062500
vt 0.579549 0.000000
vt 0.602274 0.000000
vt 0.625000 0.000000
vt 0.625000 0.062500
vt 0.625000 0.125000
vt 0.625000 0.187500
vt 0.625000 0.250000
vt 0.602133 0.250000
vt 0.578413 0.250000
vt 0.552990 0.250000
vt 0.525106 0.187500
vt 0.525011 0.250000
vt 0.525769 0.125000
vt 0.187218 0.562500
vt 0.247743 0.562500
vt 0.246718 0.625000
vt 0.187090 0.625000
vt 0.303961 0.562500
vt 0.300602 0.625000
vt 0.247743 0.687500
vt 0.187218 0.687500
vt 0.303961 0.687500
vt 0.125000 0.500000
vt 0.187500 0.500000
vt 0.125000 0.562500
vt 0.250000 0.500000
vt 0.312500 0.500000
vt 0.375000 0.500000
vt 0.347870 0.562500
vt 0.342177 0.625000
vt 0.347870 0.687500
vt 0.375000 0.750000
vt 0.312500 0.750000
vt 0.250000 0.750000
vt 0.187500 0.750000
vt 0.125000 0.687500
vt 0.125000 0.750000
vt 0.125000 0.625000
vt 0.553189 0.562500
vt 0.580001 0.562500
vt 0.580623 0.625000
vt 0.553266 0.625000
vt 0.608028 0.562500
vt 0.610143 0.625000
vt 0.580001 0.687500
vt 0.553189 0.687500
vt 0.608028 0.687500
vt 0.525011 0.500000
vt 0.553059 0.500000
vt 0.525011 0.562500
vt 0.578965 0.500000
vt 0.603790 0.500000
vt 0.525011 0.687500
vt 0.525011 0.625000
vt 0.552990 0.312500
vt 0.578413 0.312500
vt 0.578413 0.375000
vt 0.552990 0.375000
vt 0.602132 0.312500
vt 0.602132 0.375000
vt 0.578482 0.437500
vt 0.552999 0.437500
vt 0.602279 0.437500
vt 0.525011 0.312500
vt 0.625000 0.312500
vt 0.625000 0.375000
vt 0.625000 0.437500
vt 0.525011 0.437500
vt 0.525011 0.375000
vt 0.434154 0.312500
vt 0.462997 0.312500
vt 0.462996 0.375000
vt 0.434154 0.375000
vt 0.494252 0.312500
vt 0.494252 0.375000
vt 0.462997 0.437500
vt 0.434154 0.437500
vt 0.494253 0.437500
vt 0.410635 0.250000
vt 0.434154 0.250000
vt 0.410635 0.312500
vt 0.462997 0.250000
vt 0.494252 0.250000
vt 0.525011 0.312500
vt 0.525011 0.375000
vt 0.525011 0.437500
vt 0.525011 0.500000
vt 0.494253 0.500000
vt 0.462997 0.500000
vt 0.434154 0.500000
vt 0.410635 0.437500
vt 0.410635 0.500000
vt 0.410635 0.375000
vt 0.434154 0.562500
vt 0.462997 0.562500
vt 0.462996 0.625000
vt 0.434154 0.625000
vt 0.494252 0.562500
vt 0.494252 0.625000
vt 0.462997 0.687500
vt 0.434154 0.687500
vt 0.494253 0.687500
vt 0.410635 0.562500
vt 0.525011 0.625000
vt 0.525011 0.750000
vt 0.494252 0.750000
vt 0.462997 0.750000
vt 0.434154 0.750000
vt 0.410635 0.687500
vt 0.410635 0.750000
vt 0.410635 0.625000
vt 0.429889 0.062500
vt 0.462159 0.062500
vt 0.462728 0.125000
vt 0.432862 0.125000
vt 0.495869 0.062500
vt 0.494740 0.125000
vt 0.462963 0.187500
vt 0.433992 0.187500
vt 0.494313 0.187500
vt 0.388678 0.000000
vt 0.425033 0.000000
vt 0.404002 0.062500
vt 0.461388 0.000000
vt 0.497743 0.000000
vt 0.494252 0.250000
vt 0.462997 0.250000
vt 0.434154 0.250000
vt 0.410406 0.187500
vt 0.408805 0.125000
vt 0.433992 0.812500
vt 0.462963 0.812500
vt 0.462728 0.875000
vt 0.432862 0.875000
vt 0.494313 0.812500
vt 0.494740 0.875000
vt 0.462159 0.937500
vt 0.429889 0.937500
vt 0.495869 0.937500
vt 0.410635 0.750000
vt 0.410406 0.812500
vt 0.462996 0.750000
vt 0.494252 0.750000
vt 0.497743 1.000000
vt 0.461388 1.000000
vt 0.425033 1.000000
vt 0.404002 0.937500
vt 0.388678 1.000000
vt 0.408805 0.875000
vt 0.378537 0.812500
vt 0.384424 0.812500
vt 0.384126 0.875000
vt 0.378705 0.875000
vt 0.394344 0.812500
vt 0.393206 0.875000
vt 0.383154 0.937500
vt 0.378584 0.937500
vt 0.390183 0.937500
vt 0.376301 0.750000
vt 0.375000 0.812500
vt 0.383763 0.750000
vt 0.394419 0.750000
vt 0.385258 1.000000
vt 0.381839 1.000000
vt 0.378419 1.000000
vt 0.375000 0.937500
vt 0.375000 1.000000
vt 0.375000 0.875000
vt 0.378584 0.062500
vt 0.383154 0.062500
vt 0.384126 0.125000
vt 0.378705 0.125000
vt 0.390183 0.062500
vt 0.393206 0.125000
vt 0.384526 0.187500
vt 0.378755 0.187500
vt 0.394357 0.187500
vt 0.375000 0.000000
vt 0.378419 0.000000
vt 0.375000 0.062500
vt 0.381839 0.000000
vt 0.385258 0.000000
vt 0.394521 0.250000
vt 0.384583 0.250000
vt 0.378763 0.250000
vt 0.375000 0.187500
vt 0.375000 0.250000
vt 0.375000 0.125000
vt 0.370006 0.562500
vt 0.382224 0.562500
vt 0.381301 0.625000
vt 0.366864 0.625000
vt 0.394226 0.562500
vt 0.394111 0.625000
vt 0.382224 0.687500
vt 0.370006 0.687500
vt 0.394226 0.687500
vt 0.376301 0.500000
vt 0.383763 0.500000
vt 0.394419 0.500000
vt 0.410635 0.500000
vt 0.410635 0.562500
vt 0.410635 0.625000
vt 0.410635 0.687500
vt 0.378762 0.312500
vt 0.384584 0.312500
vt 0.384583 0.375000
vt 0.378762 0.375000
vt 0.394521 0.312500
vt 0.394521 0.375000
vt 0.384481 0.437500
vt 0.378545 0.437500
vt 0.394509 0.437500
vt 0.375000 0.312500
vt 0.410635 0.312500
vt 0.410635 0.375000
vt 0.410635 0.437500
vt 0.375000 0.437500
vt 0.375000 0.375000
s 1
usemtl Material
f 327/281/327 328/282/328 331/283/331 330/284/330
f 328/282/328 329/285/329 332/286/332 331/283/331
f 330/284/330 331/283/331 334/287/334 333/288/333
f 331/283/331 332/286/332 335/289/335 334/287/334
f 227/290/227 275/291/275 327/281/327 264/292/264
f 275/291/275 274/293/274 328/282/328 327/281/327
f 274/293/274 273/294/273 329/285/329 328/282/328
f 273/294/273 231/295/231 272/296/272 329/285/329
f 329/285/329 272/296/272 271/297/271 332/286/332
f 332/286/332 271/297/271 270/298/270 335/289/335
f 335/289/335 270/298/270 233/299/233 263/300/263
f 334/287/334 335/289/335 263/300/263 262/301/262
f 333/288/333 334/287/334 262/301/262 261/302/261
f 266/303/266 333/288/333 261/302/261 229/304/229
f 265/305/265 330/284/330 333/288/333 266/303/266
f 264/292/264 327/281/327 330/284/330 265/305/265
f 336/306/336 337/307/337 340/308/340 339/309/339
f 337/307/337 338/310/338 341/311/341 340/308/340
f 339/309/339 340/308/340 343/312/343 342/313/342
f 340/308/340 341/311/341 344/314/344 343/312/343
f 237/315/237 287/316/287 336/306/336 300/317/300
f 287/316/287 286/318/286 337/307/337 336/306/336
f 286/318/286 285/319/285 338/310/338 337/307/337
f 285/319/285 229/304/229 261/320/261 338/310/338
f 338/310/338 261/320/261 262/321/262 341/311/341
f 341/311/341 262/321/262 263/322/263 344/314/344
f 344/314/344 263/322/263 233/323/233 254/324/254
f 343/312/343 344/314/344 254/324/254 253/325/253
f 342/313/342 343/312/343 253/325/253 252/326/252
f 302/327/302 342/313/342 252/326/252 236/328/236
f 301/329/301 339/309/339 342/313/342 302/327/302
f 300/317/300 336/306/336 339/309/339 301/329/301
f 345/330/345 346/331/346 349/332/349 348/333/348
f 346/331/346 347/334/347 350/335/350 349/332/349
f 348/333/348 349/332/349 352/336/352 351/337/351
f 349/332/349 350/335/350 353/338/353 352/336/352
f 236/339/236 252/340/252 345/330/345 297/341/297
f 252/340/252 253/342/253 346/331/346 345/330/345
f 253/342/253 254/343/254 347/334/347 346/331/346
f 254/343/254 233/344/233 270/345/270 347/334/347
f 347/334/347 270/345/270 271/346/271 350/335/350
f 350/335/350 271/346/271 272/347/272 353/338/353
f 353/338/353 272/347/272 231/348/231 288/349/288
f 352/336/352 353/338/353 288/349/288 289/350/289
f 351/337/351 352/336/352 289/350/289 290/351/290
f 299/352/299 351/337/351 290/351/290 238/353/238
f 298/354/298 348/333/348 351/337/351 299/352/299
f 297/341/297 345/330/345 348/333/348 298/354/298
f 354/355/354 355/356/355 358/357/358 357/358/357
f 355/356/355 356/359/356 359/360/359 358/357/358
f 357/358/357 358/357/358 361/361/361 360/362/360
f 358/357/358 359/360/359 362/363/362 361/361/361
f 232/364/232 248/365/248 354/355/354 243/366/243
f 248/365/248 247/367/247 355/356/355 354/355/354
f 247/367/247 246/368/246 356/359/356 355/356/355
f 246/368/246 228/369/228 278/370/278 356/359/356
f 356/359/356 278/370/278 277/371/277 359/360/359
f 359/360/359 277/371/277 276/372/276 362/363/362
f 362/363/362 276/372/276 230/373/230 269/374/269
f 361/361/361 362/363/362 269/374/269 268/375/268
f 360/362/360 361/361/361 268/375/268 267/376/267
f 245/377/245 360/362/360 267/376/267 234/378/234
f 244/379/244 357/358/357 360/362/360 245/377/245
f 243/366/243 354/355/354 357/358/357 244/379/244
f 363/380/363 364/381/364 367/382/367 366/383/366
f 364/381/364 365/384/365 368/385/368 367/382/367
f 366/383/366 367/382/367 370/386/370 369/387/369
f 367/382/367 368/385/368 371/388/371 370/386/370
f 235/389/235 281/390/281 363/380/363 294/391/294
f 281/390/281 280/392/280 364/381/364 363/380/363
f 280/392/280 279/393/279 365/384/365 364/381/364
f 279/393/279 227/290/227 264/292/264 365/384/365
f 365/384/365 264/292/264 265/305/265 368/385/368
f 368/385/368 265/305/265 266/303/266 371/388/371
f 371/388/371 266/303/266 229/304/229 285/319/285
f 370/386/370 371/388/371 285/319/285 286/318/286
f 369/387/369 370/386/370 286/318/286 287/316/287
f 296/394/296 369/387/369 287/316/287 237/315/237
f 295/395/295 366/383/366 369/387/369 296/394/296
f 294/391/294 363/380/363 366/383/366 295/395/295
f 372/396/372 373/397/373 376/398/376 375/399/375
f 373/397/373 374/400/374 377/401/377 376/398/376
f 375/399/375 376/398/376 379/402/379 378/403/378
f 376/398/376 377/401/377 380/404/380 379/402/379
f 238/353/238 290/351/290 372/396/372 291/405/291
f 290/351/290 289/350/289 373/397/373 372/396/372
f 289/350/289 288/349/288 374/400/374 373/397/373
f 288/349/288 231/348/231 273/406/273 374/400/374
f 374/400/374 273/406/273 274/407/274 377/401/377
f 377/401/377 274/407/274 275/408/275 380/404/380
f 380/404/380 275/408/275 227/290/227 279/393/279
f 379/402/379 380/404/380 279/393/279 280/392/280
f 378/403/378 379/402/379 280/392/280 281/390/281
f 293/409/293 378/403/378 281/390/281 235/389/235
f 292/410/292 375/399/375 378/403/378 293/409/293
f 291/405/291 372/396/372 375/399/375 292/410/292
f 381/411/381 382/412/382 385/413/385 384/414/384
f 382/412/382 383/415/383 386/416/386 385/413/385
f 384/414/384 385/413/385 388/417/388 387/418/387
f 385/413/385 386/416/386 389/419/389 388/417/388
f 241/420/241 311/421/311 381/411/381 324/422/324
f 311/421/311 310/423/310 382/412/382 381/411/381
f 310/423/310 309/424/309 383/415/383 382/412/382
f 309/424/309 238/353/238 291/425/291 383/415/383
f 383/415/383 291/425/291 292/426/292 386/416/386
f 386/416/386 292/426/292 293/427/293 389/419/389
f 389/419/389 293/427/293 235/428/235 303/429/303
f 388/417/388 389/419/389 303/429/303 304/430/304
f 387/418/387 388/417/388 304/430/304 305/431/305
f 326/432/326 387/418/387 305/431/305 239/433/239
f 325/434/325 384/414/384 387/418/387 326/432/326
f 324/422/324 381/411/381 384/414/384 325/434/325
f 390/435/390 391/436/391 394/437/394 393/438/393
f 391/436/391 392/439/392 395/440/395 394/437/394
f 393/438/393 394/437/394 397/441/397 396/442/396
f 394/437/394 395/440/395 398/443/398 397/441/397
f 239/433/239 305/431/305 390/435/390 321/444/321
f 305/431/305 304/430/304 391/436/391 390/435/390
f 304/430/304 303/429/303 392/439/392 391/436/391
f 303/429/303 235/428/235 294/391/294 392/439/392
f 392/439/392 294/391/294 295/445/295 395/440/395
f 395/440/395 295/445/295 296/394/296 398/443/398
f 398/443/398 296/394/296 237/446/237 306/447/306
f 397/441/397 398/443/398 306/447/306 307/448/307
f 396/442/396 397/441/397 307/448/307 308/449/308
f 323/450/323 396/442/396 308/449/308 240/451/240
f 322/452/322 393/438/393 396/442/396 323/450/323
f 321/444/321 390/435/390 393/438/393 322/452/322
f 399/453/399 400/454/400 403/455/403 402/456/402
f 400/454/400 401/457/401 404/458/404 403/455/403
f 402/456/402 403/455/403 406/459/406 405/460/405
f 403/455/403 404/458/404 407/461/407 406/459/406
f 242/462/242 282/463/282 399/453/399 318/464/318
f 282/463/282 283/465/283 400/454/400 399/453/399
f 283/465/283 284/466/284 401/457/401 400/454/400
f 284/466/284 236/339/236 297/341/297 401/457/401
f 401/457/401 297/341/297 298/354/298 404/458/404
f 404/458/404 298/354/298 299/352/299 407/461/407
f 407/461/407 299/352/299 238/353/238 309/467/309
f 406/459/406 407/461/407 309/467/309 310/468/310
f 405/460/405 406/459/406 310/468/310 311/469/311
f 320/470/320 405/460/405 311/469/311 241/420/241
f 319/471/319 402/456/402 405/460/405 320/470/320
f 318/464/318 399/453/399 402/456/402 319/471/319
f 408/472/408 409/473/409 412/474/412 411/475/411
f 409/473/409 410/476/410 413/477/413 412/474/412
f 411/475/411 412/474/412 415/478/415 414/479/414
f 412/474/412 413/477/413 416/480/416 415/478/415
f 240/481/240 308/449/308 408/472/408 315/482/315
f 308/449/308 307/483/307 409/473/409 408/472/408
f 307/483/307 306/484/306 410/476/410 409/473/409
f 306/484/306 237/315/237 300/317/300 410/476/410
f 410/476/410 300/317/300 301/329/301 413/477/413
f 413/477/413 301/329/301 302/327/302 416/480/416
f 416/480/416 302/327/302 236/328/236 284/485/284
f 415/478/415 416/480/416 284/485/284 283/486/283
f 414/479/414 415/478/415 283/486/283 282/487/282
f 317/488/317 414/479/414 282/487/282 242/489/242
f 316/490/316 411/475/411 414/479/414 317/488/317
f 315/482/315 408/472/408 411/475/411 316/490/316
f 417/491/417 418/492/418 421/493/421 420/494/420
f 418/492/418 419/495/419 422/496/422 421/493/421
f 420/494/420 421/493/421 424/497/424 423/498/423
f 421/493/421 422/496/422 425/499/425 424/497/424
f 230/373/230 257/500/257 417/491/417 269/501/269
f 257/500/257 256/502/256 418/492/418 417/491/417
f 256/502/256 255/503/255 419/495/419 418/492/418
f 255/503/255 240/481/240 315/482/315 419/495/419
f 419/495/419 315/482/315 316/490/316 422/496/422
f 422/496/422 316/490/316 317/488/317 425/499/425
f 425/499/425 317/488/317 242/489/242 314/504/314
f 424/497/424 425/499/425 314/504/314 313/505/313
f 423/498/423 424/497/424 313/505/313 312/506/312
f 267/507/267 423/498/423 312/506/312 234/508/234
f 268/509/268 420/494/420 423/498/423 267/507/267
f 269/501/269 417/491/417 420/494/420 268/509/268
f 426/510/426 427/511/427 430/512/430 429/513/429
f 427/511/427 428/514/428 431/515/431 430/512/430
f 429/513/429 430/512/430 433/516/433 432/517/432
f 430/512/430 431/515/431 434/518/434 433/516/433
f 234/519/234 312/520/312 426/510/426 245/521/245
f 312/520/312 313/522/313 427/511/427 426/510/426
f 313/522/313 314/523/314 428/514/428 427/511/427
f 314/523/314 242/462/242 318/464/318 428/514/428
f 428/514/428 318/464/318 319/471/319 431/515/431
f 431/515/431 319/471/319 320/470/320 434/518/434
f 434/518/434 320/470/320 241/420/241 258/524/258
f 433/516/433 434/518/434 258/524/258 259/525/259
f 432/517/432 433/516/433 259/525/259 260/526/260
f 243/527/243 432/517/432 260/526/260 232/528/232
f 244/529/244 429/513/429 432/517/432 243/527/243
f 245/521/245 426/510/426 429/513/429 244/529/244
f 435/530/435 436/531/436 439/532/439 438/533/438
f 436/531/436 437/534/437 440/535/440 439/532/439
f 438/533/438 439/532/439 442/536/442 441/537/441
f 439/532/439 440/535/440 443/538/443 442/536/442
f 228/369/228 251/539/251 435/530/435 278/370/278
f 251/539/251 250/540/250 436/531/436 435/530/435
f 250/540/250 249/541/249 437/534/437 436/531/436
f 249/541/249 239/542/239 321/543/321 437/534/437
f 437/534/437 321/543/321 322/544/322 440/535/440
f 440/535/440 322/544/322 323/545/323 443/538/443
f 443/538/443 323/545/323 240/481/240 255/503/255
f 442/536/442 443/538/443 255/503/255 256/502/256
f 441/537/441 442/536/442 256/502/256 257/500/257
f 276/372/276 441/537/441 257/500/257 230/373/230
f 277/371/277 438/533/438 441/537/441 276/372/276
f 278/370/278 435/530/435 438/533/438 277/371/277
f 444/546/444 445/547/445 448/548/448 447/549/447
f 445/547/445 446/550/446 449/551/449 448/548/448
f 447/549/447 448/548/448 451/552/451 450/553/450
f 448/548/448 449/551/449 452/554/452 451/552/451
f 232/528/232 260/526/260 444/546/444 248/555/248
f 260/526/260 259/525/259 445/547/445 444/546/444
f 259/525/259 258/524/258 446/550/446 445/547/445
f 258/524/258 241/420/241 324/556/324 446/550/446
f 446/550/446 324/556/324 325/557/325 449/551/449
f 449/551/449 325/557/325 326/558/326 452/554/452
f 452/554/452 326/558/326 239/542/239 249/541/249
f 451/552/451 452/554/452 249/541/249 250/540/250
f 450/553/450 451/552/451 250/540/250 251/539/251
f 246/559/246 450/553/450 251/539/251 228/369/228
f 247/560/247 447/549/447 450/553/450 246/559/246
f 248/555/248 444/546/444 447/549/447 247/560/247
