# Blender 4.2.1 LTS
# www.blender.org
mtllib worm_turn_body.mtl
o Cube
v 4.912597 2.587238 0.448175
v 4.912597 1.849184 0.448175
v 4.912597 2.462744 1.948175
v 4.912597 1.525501 1.948175
v 3.669769 2.587238 0.448175
v 3.669769 1.849184 0.448175
v 3.669769 2.462744 1.948175
v 3.669769 1.525501 1.948175
v 3.462631 1.643180 1.614842
v 5.119735 2.693647 1.614842
v 3.462631 2.693647 1.614842
v 5.119735 1.643180 1.614842
v 3.467067 1.572371 1.807550
v 3.498113 1.512438 1.906509
v 3.574691 1.498080 1.942967
v 4.659868 1.795356 0.375242
v 4.291183 1.768317 0.338607
v 3.922498 1.795356 0.375242
v 5.003240 2.437155 0.375242
v 5.048771 2.218211 0.338607
v 5.003240 1.999268 0.375242
v 3.579126 1.703920 1.948175
v 3.533595 1.977754 1.948175
v 3.579126 2.262535 1.948175
v 5.003240 2.262534 1.948175
v 5.048771 1.977754 1.948175
v 5.003240 1.703920 1.948175
v 3.579126 2.437155 0.375242
v 3.533595 2.218211 0.338607
v 3.579126 1.999268 0.375242
v 4.659868 2.526668 1.948175
v 4.291183 2.559288 1.948175
v 3.922498 2.526668 1.948175
v 5.115299 2.675005 1.807550
v 5.084252 2.631655 1.906509
v 5.007675 2.551729 1.942967
v 3.922498 1.439786 1.948175
v 4.291183 1.396220 1.948175
v 4.659868 1.439786 1.948175
v 3.467067 2.700610 1.315459
v 3.498113 2.687101 0.969780
v 3.574691 2.643441 0.654226
v 3.922498 2.641066 0.375242
v 4.291183 2.668105 0.338607
v 4.659868 2.641066 0.375242
v 5.115299 1.693796 1.315459
v 5.084253 1.736872 0.969780
v 5.007675 1.791425 0.654226
v 3.574691 1.791425 0.654226
v 3.498113 1.736872 0.969780
v 3.467067 1.693796 1.315459
v 5.007675 2.643440 0.654226
v 5.084253 2.687101 0.969780
v 5.115299 2.700610 1.315459
v 3.574691 2.551730 1.942967
v 3.498113 2.631655 1.906509
v 3.467067 2.675005 1.807550
v 5.007675 1.498080 1.942967
v 5.084253 1.512438 1.906509
v 5.115299 1.572371 1.807550
v 5.352765 2.455651 1.614842
v 5.430441 2.168414 1.614842
v 5.352765 1.881177 1.614842
v 4.744297 1.495458 1.614842
v 4.291183 1.446217 1.614842
v 3.838069 1.495458 1.614842
v 3.229601 2.455651 1.614842
v 3.151925 2.168414 1.614842
v 3.229601 1.881176 1.614842
v 3.838069 2.841369 1.614842
v 4.291183 2.890610 1.614842
v 4.744297 2.841369 1.614842
v 4.741855 2.830176 1.807550
v 4.291183 2.881900 1.807550
v 3.840511 2.830176 1.807550
v 4.724758 2.789949 1.906509
v 4.291183 2.842712 1.906509
v 3.857608 2.789949 1.906509
v 4.686554 2.695968 1.942967
v 4.291183 2.744386 1.942967
v 3.895812 2.695968 1.942967
v 4.684112 1.655312 1.948175
v 4.705219 1.952020 1.948175
v 4.684112 2.264515 1.948175
v 4.291183 1.628480 1.948175
v 4.291183 1.943403 1.948175
v 4.291183 2.275559 1.948175
v 3.898254 1.655312 1.948175
v 3.877147 1.952020 1.948175
v 3.898254 2.264515 1.948175
v 3.235220 1.921912 1.314784
v 3.157918 2.197203 1.314109
v 3.235220 2.472494 1.314784
v 3.274553 1.952238 0.964379
v 3.199873 2.211986 0.958978
v 3.274553 2.471735 0.964379
v 3.379555 1.982358 0.634044
v 3.313511 2.217433 0.616385
v 3.379555 2.452508 0.634044
v 3.840511 1.416999 1.807550
v 4.291183 1.365073 1.807550
v 4.741855 1.416999 1.807550
v 3.857608 1.352530 1.906509
v 4.291183 1.298153 1.906509
v 4.724758 1.352530 1.906509
v 3.895812 1.347812 1.942967
v 4.291183 1.294118 1.942967
v 4.686554 1.347812 1.942967
v 5.347146 1.822142 1.807550
v 5.424448 2.123487 1.807550
v 5.347146 2.425032 1.807550
v 5.307813 1.765657 1.906509
v 5.382493 2.070433 1.906509
v 5.307813 2.376822 1.906509
v 5.202811 1.731853 1.942967
v 5.268855 2.019252 1.942967
v 5.202811 2.311927 1.942967
v 3.898254 1.984870 0.219185
v 3.877147 2.218211 0.166346
v 3.898254 2.451552 0.219185
v 4.291183 1.972336 0.166346
v 4.291183 2.218211 0.108669
v 4.291183 2.464087 0.166346
v 4.684112 1.984870 0.219185
v 4.705219 2.218211 0.166346
v 4.684112 2.451552 0.219185
v 5.202810 1.982358 0.634044
v 5.268855 2.217433 0.616385
v 5.202811 2.452508 0.634044
v 5.307813 1.952238 0.964379
v 5.382493 2.211986 0.958978
v 5.307813 2.471735 0.964379
v 5.347146 1.921912 1.314784
v 5.424448 2.197203 1.314109
v 5.347146 2.472494 1.314784
v 3.895812 1.675398 0.634044
v 4.291183 1.636129 0.616385
v 4.686554 1.675398 0.634044
v 3.857608 1.602944 0.964379
v 4.291183 1.558206 0.958978
v 4.724758 1.602944 0.964379
v 3.840511 1.552175 1.314784
v 4.291183 1.504956 1.314109
v 4.741855 1.552174 1.314784
v 3.379555 1.731853 1.942967
v 3.313511 2.019252 1.942967
v 3.379555 2.311927 1.942967
v 3.274553 1.765656 1.906509
v 3.199873 2.070433 1.906509
v 3.274553 2.376822 1.906509
v 3.235220 1.822142 1.807550
v 3.157918 2.123487 1.807550
v 3.235220 2.425032 1.807550
v 4.686554 2.759468 0.634044
v 4.291183 2.798737 0.616385
v 3.895812 2.759468 0.634044
v 4.724758 2.821029 0.964379
v 4.291183 2.865767 0.958978
v 3.857608 2.821029 0.964379
v 4.741855 2.842231 1.314784
v 4.291183 2.889450 1.314109
v 3.840511 2.842231 1.314784
vn 0.4378 0.7093 -0.5525
vn 0.4370 -0.7080 -0.5547
vn 0.0107 0.0177 0.9998
vn 0.0166 -0.0311 0.9994
vn -0.4378 0.7093 -0.5525
vn -0.4370 -0.7080 -0.5547
vn -0.0107 0.0177 0.9998
vn -0.0165 -0.0311 0.9994
vn -0.5613 -0.8008 -0.2091
vn 0.5707 0.8193 0.0545
vn -0.5707 0.8193 0.0545
vn 0.5613 -0.8008 -0.2091
vn -0.5822 -0.7693 -0.2630
vn -0.5815 -0.7097 0.3977
vn -0.1950 -0.3227 0.9262
vn 0.2315 -0.7469 -0.6233
vn -0.0000 -0.7665 -0.6423
vn -0.2315 -0.7469 -0.6233
vn 0.5719 0.3962 -0.7183
vn 0.6232 0.0001 -0.7821
vn 0.5713 -0.3959 -0.7190
vn -0.0185 -0.0104 0.9998
vn -0.0148 -0.0003 0.9999
vn -0.0146 0.0071 0.9999
vn 0.0146 0.0071 0.9999
vn 0.0148 -0.0003 0.9999
vn 0.0185 -0.0104 0.9998
vn -0.5719 0.3962 -0.7183
vn -0.6232 0.0001 -0.7821
vn -0.5713 -0.3959 -0.7190
vn 0.0037 0.0161 0.9999
vn -0.0000 0.0150 0.9999
vn -0.0037 0.0161 0.9999
vn 0.5687 0.7644 0.3037
vn 0.3488 0.4496 0.8223
vn 0.0983 0.1481 0.9841
vn -0.0071 -0.0289 0.9996
vn -0.0000 -0.0273 0.9996
vn 0.0071 -0.0289 0.9996
vn -0.5590 0.8285 -0.0338
vn -0.5459 0.8223 -0.1608
vn -0.5159 0.7827 -0.3482
vn -0.2316 0.7481 -0.6219
vn -0.0000 0.7676 -0.6410
vn 0.2316 0.7481 -0.6219
vn 0.5540 -0.8194 -0.1469
vn 0.5412 -0.8148 -0.2080
vn 0.5129 -0.7781 -0.3627
vn -0.5129 -0.7781 -0.3627
vn -0.5412 -0.8148 -0.2080
vn -0.5540 -0.8194 -0.1469
vn 0.5159 0.7827 -0.3482
vn 0.5459 0.8223 -0.1608
vn 0.5590 0.8285 -0.0338
vn -0.0983 0.1481 0.9841
vn -0.3488 0.4496 0.8223
vn -0.5687 0.7644 0.3037
vn 0.1950 -0.3227 0.9262
vn 0.5815 -0.7097 0.3977
vn 0.5822 -0.7693 -0.2630
vn 0.8889 0.4552 0.0505
vn 1.0000 0.0040 -0.0008
vn 0.8889 -0.4480 -0.0954
vn 0.2356 -0.9328 -0.2727
vn -0.0000 -0.9571 -0.2899
vn -0.2356 -0.9328 -0.2727
vn -0.8889 0.4552 0.0505
vn -1.0000 0.0040 -0.0008
vn -0.8889 -0.4480 -0.0954
vn -0.2439 0.9692 0.0350
vn -0.0000 0.9997 0.0257
vn 0.2439 0.9692 0.0350
vn 0.2513 0.9351 0.2499
vn -0.0000 0.9745 0.2242
vn -0.2513 0.9351 0.2499
vn 0.1616 0.5700 0.8056
vn -0.0000 0.6042 0.7968
vn -0.1616 0.5700 0.8056
vn 0.0415 0.1745 0.9838
vn -0.0000 0.1775 0.9841
vn -0.0415 0.1745 0.9838
vn -0.0000 -0.0000 1.0000
vn -0.8812 -0.4601 -0.1089
vn -0.9974 0.0018 -0.0718
vn -0.8844 0.4644 -0.0460
vn -0.8599 -0.4597 -0.2221
vn -0.9759 0.0009 -0.2183
vn -0.8644 0.4629 -0.1962
vn -0.7849 -0.4354 -0.4409
vn -0.8792 0.0005 -0.4764
vn -0.7879 0.4372 -0.4336
vn -0.2377 -0.8723 -0.4273
vn -0.0000 -0.8824 -0.4705
vn 0.2377 -0.8723 -0.4273
vn -0.2941 -0.9467 -0.1312
vn -0.0000 -0.9452 -0.3266
vn 0.2941 -0.9467 -0.1312
vn -0.0979 -0.4258 0.8995
vn -0.0000 -0.4429 0.8965
vn 0.0979 -0.4258 0.8995
vn 0.9053 -0.4245 0.0150
vn 0.9798 0.0042 0.1999
vn 0.8591 0.4160 0.2980
vn 0.6901 -0.3369 0.6405
vn 0.7099 -0.0155 0.7041
vn 0.5511 0.2603 0.7928
vn 0.2355 -0.1553 0.9594
vn 0.2085 -0.0093 0.9780
vn 0.1564 0.0852 0.9840
vn -0.2710 -0.3858 -0.8819
vn -0.2914 -0.0000 -0.9566
vn -0.2710 0.3858 -0.8819
vn -0.0000 -0.3899 -0.9209
vn -0.0000 -0.0000 -1.0000
vn -0.0000 0.3899 -0.9209
vn 0.2710 -0.3858 -0.8819
vn 0.2914 -0.0000 -0.9566
vn 0.2710 0.3858 -0.8819
vn 0.7849 -0.4354 -0.4409
vn 0.8792 0.0005 -0.4764
vn 0.7879 0.4372 -0.4336
vn 0.8599 -0.4597 -0.2221
vn 0.9759 0.0009 -0.2183
vn 0.8644 0.4629 -0.1962
vn 0.8812 -0.4601 -0.1089
vn 0.9974 0.0018 -0.0718
vn 0.8844 0.4644 -0.0460
vn -0.2223 -0.9171 -0.3309
vn -0.0000 -0.9422 -0.3350
vn 0.2223 -0.9171 -0.3309
vn -0.2315 -0.9537 -0.1919
vn -0.0000 -0.9824 -0.1867
vn 0.2315 -0.9537 -0.1919
vn -0.2340 -0.9582 -0.1647
vn -0.0000 -0.9856 -0.1688
vn 0.2340 -0.9582 -0.1647
vn -0.2355 -0.1553 0.9594
vn -0.2085 -0.0093 0.9780
vn -0.1564 0.0852 0.9840
vn -0.6901 -0.3369 0.6405
vn -0.7099 -0.0155 0.7041
vn -0.5511 0.2603 0.7928
vn -0.9053 -0.4245 0.0150
vn -0.9798 0.0042 0.1999
vn -0.8591 0.4160 0.2980
vn 0.2227 0.9228 -0.3145
vn -0.0000 0.9477 -0.3191
vn -0.2227 0.9228 -0.3145
vn 0.2328 0.9628 -0.1370
vn -0.0000 0.9914 -0.1309
vn -0.2328 0.9628 -0.1370
vn 0.2366 0.9711 -0.0327
vn -0.0000 0.9994 -0.0335
vn -0.2366 0.9711 -0.0327
vt 0.687500 0.732747
vt 0.750000 0.734918
vt 0.750000 0.745660
vt 0.687500 0.745009
vt 0.812500 0.740655
vt 0.812500 0.747504
vt 0.750000 0.749458
vt 0.687500 0.749593
vt 0.812500 0.749688
vt 0.625000 0.708333
vt 0.687500 0.708767
vt 0.625000 0.732530
vt 0.750000 0.711806
vt 0.812500 0.720920
vt 0.875000 0.750000
vt 0.875000 0.750000
vt 0.875000 0.750000
vt 0.812500 0.750000
vt 0.750000 0.750000
vt 0.687500 0.750000
vt 0.625000 0.751953
vt 0.625000 0.750000
vt 0.625000 0.745660
vt 0.437500 0.821533
vt 0.500000 0.825087
vt 0.500000 0.878472
vt 0.437500 0.877387
vt 0.562500 0.821533
vt 0.562500 0.877387
vt 0.500000 0.937934
vt 0.437500 0.937799
vt 0.562500 0.937798
vt 0.375000 0.750000
vt 0.437500 0.778700
vt 0.375000 0.812500
vt 0.500000 0.784722
vt 0.562500 0.778700
vt 0.625000 0.812500
vt 0.625000 0.875000
vt 0.625000 0.937500
vt 0.625000 1.000000
vt 0.562500 1.000000
vt 0.500000 1.000000
vt 0.437500 1.000000
vt 0.375000 0.937500
vt 0.375000 1.000000
vt 0.375000 0.875000
vt 0.437500 0.071533
vt 0.500000 0.075087
vt 0.500000 0.128472
vt 0.437500 0.127387
vt 0.562500 0.071533
vt 0.562500 0.127387
vt 0.500000 0.187934
vt 0.437500 0.187798
vt 0.562500 0.187798
vt 0.375000 0.000000
vt 0.437500 0.028646
vt 0.375000 0.062500
vt 0.500000 0.034722
vt 0.562500 0.028646
vt 0.625000 0.000000
vt 0.625000 0.062500
vt 0.625000 0.125000
vt 0.625000 0.187500
vt 0.625000 0.250000
vt 0.562500 0.250000
vt 0.500000 0.250000
vt 0.437500 0.250000
vt 0.375000 0.187500
vt 0.375000 0.250000
vt 0.375000 0.125000
vt 0.187500 0.740655
vt 0.250000 0.734918
vt 0.250000 0.745660
vt 0.187500 0.747504
vt 0.312500 0.732747
vt 0.312500 0.745009
vt 0.250000 0.749458
vt 0.187500 0.749688
vt 0.312500 0.749593
vt 0.125000 0.750000
vt 0.187500 0.720920
vt 0.125000 0.750000
vt 0.250000 0.711806
vt 0.312500 0.708767
vt 0.375000 0.708333
vt 0.375000 0.732530
vt 0.375000 0.745660
vt 0.375000 0.751953
vt 0.312500 0.750000
vt 0.250000 0.750000
vt 0.187500 0.750000
vt 0.125000 0.750000
vt 0.437500 0.732734
vt 0.500000 0.732856
vt 0.500000 0.748264
vt 0.437500 0.747287
vt 0.562500 0.732734
vt 0.562500 0.747287
vt 0.500000 0.761936
vt 0.437500 0.758613
vt 0.562500 0.758613
vt 0.437500 0.708333
vt 0.500000 0.708333
vt 0.562500 0.708333
vt 0.437500 0.312500
vt 0.500000 0.312500
vt 0.500000 0.375000
vt 0.437500 0.375000
vt 0.562500 0.312500
vt 0.562500 0.375000
vt 0.500000 0.437500
vt 0.437500 0.437500
vt 0.562500 0.437500
vt 0.375000 0.312500
vt 0.625000 0.312500
vt 0.625000 0.375000
vt 0.625000 0.437500
vt 0.625000 0.500000
vt 0.562500 0.500000
vt 0.500000 0.500000
vt 0.437500 0.500000
vt 0.375000 0.437500
vt 0.375000 0.500000
vt 0.375000 0.375000
vt 0.437500 0.561849
vt 0.500000 0.561849
vt 0.500000 0.619792
vt 0.437500 0.619792
vt 0.562500 0.561849
vt 0.562500 0.619792
vt 0.500000 0.669922
vt 0.437500 0.669922
vt 0.562500 0.669922
vt 0.375000 0.561849
vt 0.625000 0.561849
vt 0.625000 0.619792
vt 0.625000 0.669922
vt 0.375000 0.669922
vt 0.375000 0.619792
vt 0.187500 0.562188
vt 0.250000 0.561958
vt 0.250000 0.620660
vt 0.187500 0.622504
vt 0.312500 0.561863
vt 0.312500 0.619900
vt 0.250000 0.672418
vt 0.187500 0.678155
vt 0.312500 0.670234
vt 0.125000 0.500000
vt 0.187500 0.500000
vt 0.125000 0.562500
vt 0.250000 0.500000
vt 0.312500 0.500000
vt 0.125000 0.687500
vt 0.125000 0.625000
vt 0.437500 0.000298
vt 0.500000 0.000434
vt 0.500000 0.003472
vt 0.437500 0.002387
vt 0.562500 0.000298
vt 0.562500 0.002387
vt 0.500000 0.012587
vt 0.437500 0.009033
vt 0.562500 0.009033
vt 0.375000 0.000000
vt 0.437500 0.000000
vt 0.375000 0.000000
vt 0.500000 0.000000
vt 0.562500 0.000000
vt 0.625000 0.000000
vt 0.687500 0.561863
vt 0.750000 0.561958
vt 0.750000 0.620660
vt 0.687500 0.619900
vt 0.812500 0.562188
vt 0.812500 0.622504
vt 0.750000 0.672418
vt 0.687500 0.670234
vt 0.812500 0.678155
vt 0.687500 0.500000
vt 0.750000 0.500000
vt 0.812500 0.500000
vt 0.875000 0.500000
vt 0.875000 0.562500
vt 0.875000 0.625000
vt 0.875000 0.687500
s 1
usemtl Material.002
f 73/1/73 74/2/74 77/3/77 76/4/76
f 74/2/74 75/5/75 78/6/78 77/3/77
f 76/4/76 77/3/77 80/7/80 79/8/79
f 77/3/77 78/6/78 81/9/81 80/7/80
f 10/10/10 72/11/72 73/1/73 34/12/34
f 72/11/72 71/13/71 74/2/74 73/1/73
f 71/13/71 70/14/70 75/5/75 74/2/74
f 70/14/70 11/15/11 57/16/57 75/5/75
f 75/5/75 57/16/57 56/16/56 78/6/78
f 78/6/78 56/16/56 55/16/55 81/9/81
f 81/9/81 55/16/55 7/17/7 33/18/33
f 80/7/80 81/9/81 33/18/33 32/19/32
f 79/8/79 80/7/80 32/19/32 31/20/31
f 36/21/36 79/8/79 31/20/31 3/22/3
f 35/23/35 76/4/76 79/8/79 36/21/36
f 34/12/34 73/1/73 76/4/76 35/23/35
f 82/24/82 83/25/82 86/26/82 85/27/82
f 83/25/82 84/28/82 87/29/82 86/26/82
f 85/27/82 86/26/82 89/30/82 88/31/82
f 86/26/82 87/29/82 90/32/82 89/30/82
f 4/33/4 27/34/27 82/24/82 39/35/39
f 27/34/27 26/36/26 83/25/82 82/24/82
f 26/36/26 25/37/25 84/28/82 83/25/82
f 25/37/25 3/22/3 31/38/31 84/28/82
f 84/28/82 31/38/31 32/39/32 87/29/82
f 87/29/82 32/39/32 33/40/33 90/32/82
f 90/32/82 33/40/33 7/41/7 24/42/24
f 89/30/82 90/32/82 24/42/24 23/43/23
f 88/31/82 89/30/82 23/43/23 22/44/22
f 37/45/37 88/31/82 22/44/22 8/46/8
f 38/47/38 85/27/82 88/31/82 37/45/37
f 39/35/39 82/24/82 85/27/82 38/47/38
f 91/48/83 92/49/84 95/50/87 94/51/86
f 92/49/84 93/52/85 96/53/88 95/50/87
f 94/51/86 95/50/87 98/54/90 97/55/89
f 95/50/87 96/53/88 99/56/91 98/54/90
f 9/57/9 69/58/69 91/48/83 51/59/51
f 69/58/69 68/60/68 92/49/84 91/48/83
f 68/60/68 67/61/67 93/52/85 92/49/84
f 67/61/67 11/62/11 40/63/40 93/52/85
f 93/52/85 40/63/40 41/64/41 96/53/88
f 96/53/88 41/64/41 42/65/42 99/56/91
f 99/56/91 42/65/42 5/66/5 28/67/28
f 98/54/90 99/56/91 28/67/28 29/68/29
f 97/55/89 98/54/90 29/68/29 30/69/30
f 49/70/49 97/55/89 30/69/30 6/71/6
f 50/72/50 94/51/86 97/55/89 49/70/49
f 51/59/51 91/48/83 94/51/86 50/72/50
f 100/73/92 101/74/93 104/75/96 103/76/95
f 101/74/93 102/77/94 105/78/97 104/75/96
f 103/76/95 104/75/96 107/79/99 106/80/98
f 104/75/96 105/78/97 108/81/100 107/79/99
f 9/82/9 66/83/66 100/73/92 13/84/13
f 66/83/66 65/85/65 101/74/93 100/73/92
f 65/85/65 64/86/64 102/77/94 101/74/93
f 64/86/64 12/87/12 60/88/60 102/77/94
f 102/77/94 60/88/60 59/89/59 105/78/97
f 105/78/97 59/89/59 58/90/58 108/81/100
f 108/81/100 58/90/58 4/33/4 39/91/39
f 107/79/99 108/81/100 39/91/39 38/92/38
f 106/80/98 107/79/99 38/92/38 37/93/37
f 15/84/15 106/80/98 37/93/37 8/94/8
f 14/84/14 103/76/95 106/80/98 15/84/15
f 13/84/13 100/73/92 103/76/95 14/84/14
f 109/95/101 110/96/102 113/97/105 112/98/104
f 110/96/102 111/99/103 114/100/106 113/97/105
f 112/98/104 113/97/105 116/101/108 115/102/107
f 113/97/105 114/100/106 117/103/109 116/101/108
f 12/87/12 63/104/63 109/95/101 60/88/60
f 63/104/63 62/105/62 110/96/102 109/95/101
f 62/105/62 61/106/61 111/99/103 110/96/102
f 61/106/61 10/10/10 34/12/34 111/99/103
f 111/99/103 34/12/34 35/23/35 114/100/106
f 114/100/106 35/23/35 36/21/36 117/103/109
f 117/103/109 36/21/36 3/22/3 25/37/25
f 116/101/108 117/103/109 25/37/25 26/36/26
f 115/102/107 116/101/108 26/36/26 27/34/27
f 58/90/58 115/102/107 27/34/27 4/33/4
f 59/89/59 112/98/104 115/102/107 58/90/58
f 60/88/60 109/95/101 112/98/104 59/89/59
f 118/107/110 119/108/111 122/109/114 121/110/113
f 119/108/111 120/111/112 123/112/115 122/109/114
f 121/110/113 122/109/114 125/113/117 124/114/116
f 122/109/114 123/112/115 126/115/118 125/113/117
f 6/71/6 30/69/30 118/107/110 18/116/18
f 30/69/30 29/68/29 119/108/111 118/107/110
f 29/68/29 28/67/28 120/111/112 119/108/111
f 28/67/28 5/66/5 43/117/43 120/111/112
f 120/111/112 43/117/43 44/118/44 123/112/115
f 123/112/115 44/118/44 45/119/45 126/115/118
f 126/115/118 45/119/45 1/120/1 19/121/19
f 125/113/117 126/115/118 19/121/19 20/122/20
f 124/114/116 125/113/117 20/122/20 21/123/21
f 16/124/16 124/114/116 21/123/21 2/125/2
f 17/126/17 121/110/113 124/114/116 16/124/16
f 18/116/18 118/107/110 121/110/113 17/126/17
f 127/127/119 128/128/120 131/129/123 130/130/122
f 128/128/120 129/131/121 132/132/124 131/129/123
f 130/130/122 131/129/123 134/133/126 133/134/125
f 131/129/123 132/132/124 135/135/127 134/133/126
f 2/125/2 21/123/21 127/127/119 48/136/48
f 21/123/21 20/122/20 128/128/120 127/127/119
f 20/122/20 19/121/19 129/131/121 128/128/120
f 19/121/19 1/120/1 52/137/52 129/131/121
f 129/131/121 52/137/52 53/138/53 132/132/124
f 132/132/124 53/138/53 54/139/54 135/135/127
f 135/135/127 54/139/54 10/10/10 61/106/61
f 134/133/126 135/135/127 61/106/61 62/105/62
f 133/134/125 134/133/126 62/105/62 63/104/63
f 46/140/46 133/134/125 63/104/63 12/87/12
f 47/141/47 130/130/122 133/134/125 46/140/46
f 48/136/48 127/127/119 130/130/122 47/141/47
f 136/142/128 137/143/129 140/144/132 139/145/131
f 137/143/129 138/146/130 141/147/133 140/144/132
f 139/145/131 140/144/132 143/148/135 142/149/134
f 140/144/132 141/147/133 144/150/136 143/148/135
f 6/151/6 18/152/18 136/142/128 49/153/49
f 18/152/18 17/154/17 137/143/129 136/142/128
f 17/154/17 16/155/16 138/146/130 137/143/129
f 16/155/16 2/125/2 48/136/48 138/146/130
f 138/146/130 48/136/48 47/141/47 141/147/133
f 141/147/133 47/141/47 46/140/46 144/150/136
f 144/150/136 46/140/46 12/87/12 64/86/64
f 143/148/135 144/150/136 64/86/64 65/85/65
f 142/149/134 143/148/135 65/85/65 66/83/66
f 51/156/51 142/149/134 66/83/66 9/82/9
f 50/157/50 139/145/131 142/149/134 51/156/51
f 49/153/49 136/142/128 139/145/131 50/157/50
f 145/158/137 146/159/138 149/160/141 148/161/140
f 146/159/138 147/162/139 150/163/142 149/160/141
f 148/161/140 149/160/141 152/164/144 151/165/143
f 149/160/141 150/163/142 153/166/145 152/164/144
f 8/167/8 22/168/22 145/158/137 15/169/15
f 22/168/22 23/170/23 146/159/138 145/158/137
f 23/170/23 24/171/24 147/162/139 146/159/138
f 24/171/24 7/172/7 55/172/55 147/162/139
f 147/162/139 55/172/55 56/172/56 150/163/142
f 150/163/142 56/172/56 57/172/57 153/166/145
f 153/166/145 57/172/57 11/62/11 67/61/67
f 152/164/144 153/166/145 67/61/67 68/60/68
f 151/165/143 152/164/144 68/60/68 69/58/69
f 13/169/13 151/165/143 69/58/69 9/57/9
f 14/169/14 148/161/140 151/165/143 13/169/13
f 15/169/15 145/158/137 148/161/140 14/169/14
f 154/173/146 155/174/147 158/175/150 157/176/149
f 155/174/147 156/177/148 159/178/151 158/175/150
f 157/176/149 158/175/150 161/179/153 160/180/152
f 158/175/150 159/178/151 162/181/154 161/179/153
f 1/120/1 45/182/45 154/173/146 52/137/52
f 45/182/45 44/183/44 155/174/147 154/173/146
f 44/183/44 43/184/43 156/177/148 155/174/147
f 43/184/43 5/185/5 42/186/42 156/177/148
f 156/177/148 42/186/42 41/187/41 159/178/151
f 159/178/151 41/187/41 40/188/40 162/181/154
f 162/181/154 40/188/40 11/15/11 70/14/70
f 161/179/153 162/181/154 70/14/70 71/13/71
f 160/180/152 161/179/153 71/13/71 72/11/72
f 54/139/54 160/180/152 72/11/72 10/10/10
f 53/138/53 157/176/149 160/180/152 54/139/54
f 52/137/52 154/173/146 157/176/149 53/138/53
o Cube.007
v 4.837856 2.280812 0.394529
v 4.837856 1.151662 0.394529
v 4.837856 2.280812 1.894530
v 4.837856 1.151662 1.894530
v 3.588903 2.280812 0.394529
v 3.588902 1.151662 0.394529
v 3.588902 2.280812 1.894530
v 3.588902 1.151662 1.894530
v 3.380744 0.963471 1.561196
v 5.046015 2.469004 1.561196
v 3.380744 2.469003 1.561196
v 5.046015 0.963471 1.561196
v 3.385201 0.967501 1.753905
v 3.416401 0.995707 1.852863
v 3.493356 1.065281 1.889321
v 4.583881 1.069310 0.321597
v 4.213379 1.027944 0.284962
v 3.842877 1.069310 0.321597
v 4.928946 2.051199 0.321597
v 4.974701 1.716237 0.284962
v 4.928946 1.381275 0.321597
v 3.497813 1.381275 1.894530
v 3.452057 1.716237 1.894530
v 3.497813 2.051199 1.894529
v 4.928946 2.051199 1.894529
v 4.974701 1.716237 1.894530
v 4.928946 1.381275 1.894530
v 3.497813 2.051199 0.321597
v 3.452057 1.716237 0.284962
v 3.497813 1.381275 0.321597
v 4.583881 2.363164 1.894530
v 4.213379 2.404531 1.894530
v 3.842877 2.363164 1.894529
v 5.041558 2.464974 1.753905
v 5.010358 2.436767 1.852863
v 4.933403 2.367193 1.889321
v 3.842877 1.069310 1.894529
v 4.213379 1.027944 1.894530
v 4.583881 1.069310 1.894530
v 3.385201 2.464974 1.261813
v 3.416401 2.436767 0.916134
v 3.493356 2.367193 0.600580
v 3.842877 2.363164 0.321597
v 4.213379 2.404531 0.284962
v 4.583881 2.363164 0.321597
v 5.041558 0.967500 1.261813
v 5.010358 0.995707 0.916134
v 4.933403 1.065281 0.600580
v 3.493356 1.065281 0.600580
v 3.416400 0.995707 0.916134
v 3.385201 0.967500 1.261813
v 4.933403 2.367193 0.600580
v 5.010358 2.436767 0.916134
v 5.041558 2.464974 1.261813
v 3.493356 2.367193 1.889321
v 3.416400 2.436767 1.852863
v 3.385201 2.464974 1.753905
v 4.933403 1.065281 1.889321
v 5.010358 0.995707 1.852863
v 5.041558 0.967500 1.753905
v 5.280194 2.127906 1.561196
v 5.358253 1.716237 1.561196
v 5.280194 1.304568 1.561196
v 4.668727 0.751755 1.561196
v 4.213379 0.681183 1.561196
v 3.758032 0.751755 1.561196
v 3.146565 2.127906 1.561196
v 3.068505 1.716237 1.561196
v 3.146565 1.304568 1.561196
v 3.758032 2.680719 1.561196
v 4.213379 2.751291 1.561196
v 4.668727 2.680719 1.561196
v 4.666273 2.675614 1.753905
v 4.213379 2.745845 1.753905
v 3.760486 2.675614 1.753905
v 4.649092 2.639879 1.852863
v 4.213379 2.707728 1.852863
v 3.777667 2.639879 1.852863
v 4.610699 2.544481 1.889321
v 4.213379 2.604484 1.889321
v 3.816059 2.544481 1.889321
v 4.608245 1.359249 1.894529
v 4.629457 1.716237 1.894530
v 4.608245 2.073226 1.894530
v 4.213379 1.340072 1.894530
v 4.213379 1.716237 1.894530
v 4.213379 2.092402 1.894530
v 3.818514 1.359249 1.894529
v 3.797302 1.716237 1.894530
v 3.818514 2.073226 1.894530
v 3.152212 1.306787 1.261138
v 3.074528 1.716237 1.260463
v 3.152212 2.125687 1.261138
v 3.191738 1.322320 0.910733
v 3.116690 1.716237 0.905332
v 3.191738 2.110154 0.910733
v 3.297258 1.357030 0.580398
v 3.230888 1.716237 0.562739
v 3.297258 2.075445 0.580398
v 3.760486 0.756860 1.753905
v 4.213379 0.686629 1.753905
v 4.666273 0.756860 1.753905
v 3.777667 0.792596 1.852863
v 4.213379 0.724746 1.852863
v 4.649092 0.792596 1.852863
v 3.816059 0.887994 1.889321
v 4.213379 0.827990 1.889321
v 4.610699 0.887994 1.889321
v 5.274547 1.306787 1.753905
v 5.352230 1.716237 1.753905
v 5.274547 2.125687 1.753905
v 5.235021 1.322320 1.852863
v 5.310069 1.716237 1.852863
v 5.235021 2.110154 1.852863
v 5.129500 1.357030 1.889321
v 5.195870 1.716237 1.889321
v 5.129500 2.075445 1.889321
v 3.818514 1.359249 0.165540
v 3.797302 1.716237 0.112701
v 3.818514 2.073226 0.165540
v 4.213379 1.340072 0.112701
v 4.213379 1.716237 0.055023
v 4.213379 2.092402 0.112701
v 4.608245 1.359249 0.165540
v 4.629457 1.716237 0.112701
v 4.608245 2.073226 0.165540
v 5.129500 1.357030 0.580398
v 5.195870 1.716237 0.562739
v 5.129500 2.075445 0.580398
v 5.235021 1.322320 0.910733
v 5.310069 1.716237 0.905332
v 5.235021 2.110154 0.910733
v 5.274547 1.306787 1.261138
v 5.352231 1.716237 1.260463
v 5.274547 2.125687 1.261138
v 3.816059 0.887994 0.580398
v 4.213379 0.827990 0.562739
v 4.610699 0.887994 0.580398
v 3.777667 0.792596 0.910733
v 4.213379 0.724746 0.905332
v 4.649092 0.792596 0.910733
v 3.760486 0.756860 1.261138
v 4.213379 0.686629 1.260463
v 4.666273 0.756860 1.261138
v 3.297258 1.357030 1.889321
v 3.230888 1.716237 1.889321
v 3.297258 2.075445 1.889321
v 3.191738 1.322320 1.852863
v 3.116690 1.716237 1.852863
v 3.191738 2.110154 1.852863
v 3.152212 1.306787 1.753905
v 3.074528 1.716237 1.753905
v 3.152212 2.125687 1.753905
v 4.610699 2.544481 0.580398
v 4.213379 2.604484 0.562739
v 3.816059 2.544481 0.580398
v 4.649092 2.639879 0.910733
v 4.213379 2.707728 0.905332
v 3.777667 2.639879 0.910733
v 4.666273 2.675614 1.261138
v 4.213379 2.745846 1.260463
v 3.760486 2.675614 1.261138
vn 0.5107 0.5648 -0.6482
vn 0.5107 -0.5648 -0.6482
vn 0.0140 0.0155 0.9998
vn 0.0140 -0.0155 0.9998
vn -0.5107 0.5648 -0.6482
vn -0.5107 -0.5648 -0.6482
vn -0.0140 0.0155 0.9998
vn -0.0140 -0.0155 0.9998
vn -0.6706 -0.7418 0.0055
vn 0.6706 0.7418 0.0055
vn -0.6706 0.7418 0.0055
vn 0.6706 -0.7418 0.0055
vn -0.6556 -0.7252 0.2105
vn -0.4635 -0.5127 0.7227
vn -0.1355 -0.1499 0.9794
vn 0.2708 -0.6341 -0.7243
vn -0.0000 -0.6593 -0.7519
vn -0.2708 -0.6341 -0.7243
vn 0.5903 0.3085 -0.7459
vn 0.6212 -0.0000 -0.7836
vn 0.5903 -0.3085 -0.7459
vn -0.0144 -0.0055 0.9999
vn -0.0132 -0.0000 0.9999
vn -0.0144 0.0056 0.9999
vn 0.0144 0.0055 0.9999
vn 0.0132 -0.0000 0.9999
vn 0.0144 -0.0055 0.9999
vn -0.5903 0.3085 -0.7459
vn -0.6212 -0.0000 -0.7836
vn -0.5903 -0.3085 -0.7459
vn 0.0050 0.0160 0.9999
vn -0.0000 0.0146 0.9999
vn -0.0050 0.0160 0.9999
vn 0.6556 0.7252 0.2105
vn 0.4635 0.5127 0.7227
vn 0.1355 0.1499 0.9794
vn -0.0050 -0.0160 0.9999
vn -0.0000 -0.0146 0.9999
vn 0.0050 -0.0160 0.9999
vn -0.6690 0.7400 -0.0690
vn -0.6554 0.7249 -0.2122
vn -0.6072 0.6716 -0.4247
vn -0.2708 0.6341 -0.7243
vn -0.0000 0.6593 -0.7519
vn 0.2708 0.6341 -0.7243
vn 0.6690 -0.7400 -0.0690
vn 0.6554 -0.7249 -0.2122
vn 0.6072 -0.6716 -0.4247
vn -0.6072 -0.6716 -0.4247
vn -0.6554 -0.7249 -0.2122
vn -0.6690 -0.7400 -0.0690
vn 0.6072 0.6716 -0.4247
vn 0.6554 0.7249 -0.2122
vn 0.6690 0.7400 -0.0690
vn -0.1355 0.1499 0.9794
vn -0.4635 0.5127 0.7227
vn -0.6556 0.7252 0.2105
vn 0.1355 -0.1499 0.9794
vn 0.4635 -0.5127 0.7227
vn 0.6556 -0.7252 0.2105
vn 0.9220 0.3871 0.0056
vn 1.0000 -0.0000 0.0056
vn 0.9220 -0.3871 0.0056
vn 0.3246 -0.9458 0.0052
vn -0.0000 -1.0000 0.0051
vn -0.3246 -0.9458 0.0052
vn -0.9220 0.3871 0.0056
vn -1.0000 -0.0000 0.0056
vn -0.9220 -0.3871 0.0056
vn -0.3246 0.9458 0.0052
vn -0.0000 1.0000 0.0051
vn 0.3246 0.9458 0.0052
vn 0.3187 0.9264 0.2003
vn -0.0000 0.9807 0.1954
vn -0.3187 0.9264 0.2003
vn 0.2266 0.6641 0.7125
vn -0.0000 0.7038 0.7104
vn -0.2266 0.6641 0.7124
vn 0.0649 0.1913 0.9794
vn -0.0000 0.1983 0.9801
vn -0.0649 0.1913 0.9794
vn -0.0000 -0.0000 1.0000
vn -0.9195 -0.3869 -0.0701
vn -0.9976 -0.0000 -0.0695
vn -0.9195 0.3869 -0.0701
vn -0.8984 -0.3810 -0.2184
vn -0.9755 -0.0000 -0.2201
vn -0.8984 0.3810 -0.2184
vn -0.8181 -0.3493 -0.4569
vn -0.8768 -0.0000 -0.4809
vn -0.8181 0.3493 -0.4569
vn -0.3187 -0.9264 0.2003
vn -0.0000 -0.9807 0.1954
vn 0.3187 -0.9264 0.2003
vn -0.2266 -0.6641 0.7124
vn -0.0000 -0.7038 0.7104
vn 0.2266 -0.6641 0.7125
vn -0.0649 -0.1913 0.9794
vn -0.0000 -0.1983 0.9801
vn 0.0649 -0.1913 0.9794
vn 0.9001 -0.3789 0.2153
vn 0.9766 -0.0000 0.2153
vn 0.9001 0.3789 0.2153
vn 0.6223 -0.2598 0.7384
vn 0.6672 -0.0000 0.7449
vn 0.6223 0.2598 0.7384
vn 0.1734 -0.0720 0.9822
vn 0.1799 -0.0000 0.9837
vn 0.1734 0.0720 0.9822
vn -0.2784 -0.3079 -0.9098
vn -0.2918 -0.0000 -0.9565
vn -0.2784 0.3079 -0.9098
vn -0.0000 -0.3197 -0.9475
vn -0.0000 -0.0000 -1.0000
vn -0.0000 0.3197 -0.9475
vn 0.2784 -0.3079 -0.9098
vn 0.2918 -0.0000 -0.9565
vn 0.2784 0.3079 -0.9098
vn 0.8181 -0.3493 -0.4569
vn 0.8768 -0.0000 -0.4809
vn 0.8181 0.3493 -0.4569
vn 0.8984 -0.3810 -0.2184
vn 0.9755 -0.0000 -0.2201
vn 0.8984 0.3810 -0.2184
vn 0.9195 -0.3869 -0.0701
vn 0.9976 -0.0000 -0.0695
vn 0.9195 0.3869 -0.0701
vn -0.2975 -0.8523 -0.4303
vn -0.0000 -0.8959 -0.4443
vn 0.2975 -0.8523 -0.4303
vn -0.3206 -0.9251 -0.2033
vn -0.0000 -0.9798 -0.1999
vn 0.3206 -0.9251 -0.2033
vn -0.3245 -0.9436 -0.0650
vn -0.0000 -0.9980 -0.0629
vn 0.3245 -0.9436 -0.0650
vn -0.1734 -0.0720 0.9822
vn -0.1799 -0.0000 0.9837
vn -0.1734 0.0720 0.9822
vn -0.6223 -0.2598 0.7384
vn -0.6672 -0.0000 0.7449
vn -0.6223 0.2598 0.7384
vn -0.9001 -0.3789 0.2153
vn -0.9766 -0.0000 0.2153
vn -0.9001 0.3789 0.2153
vn 0.2975 0.8523 -0.4303
vn -0.0000 0.8959 -0.4443
vn -0.2975 0.8523 -0.4303
vn 0.3206 0.9251 -0.2033
vn -0.0000 0.9798 -0.1999
vn -0.3206 0.9251 -0.2033
vn 0.3245 0.9436 -0.0650
vn -0.0000 0.9980 -0.0629
vn -0.3245 0.9436 -0.0650
vt 0.687500 0.732747
vt 0.750000 0.734918
vt 0.750000 0.745660
vt 0.687500 0.745009
vt 0.812500 0.740655
vt 0.812500 0.747504
vt 0.750000 0.749458
vt 0.687500 0.749593
vt 0.812500 0.749688
vt 0.625000 0.708333
vt 0.687500 0.708767
vt 0.625000 0.732530
vt 0.750000 0.711806
vt 0.812500 0.720920
vt 0.875000 0.750000
vt 0.875000 0.750000
vt 0.875000 0.750000
vt 0.812500 0.750000
vt 0.750000 0.750000
vt 0.687500 0.750000
vt 0.625000 0.751953
vt 0.625000 0.750000
vt 0.625000 0.745660
vt 0.437500 0.821533
vt 0.500000 0.825087
vt 0.500000 0.878472
vt 0.437500 0.877387
vt 0.562500 0.821533
vt 0.562500 0.877387
vt 0.500000 0.937934
vt 0.437500 0.937799
vt 0.562500 0.937798
vt 0.375000 0.750000
vt 0.437500 0.778700
vt 0.375000 0.812500
vt 0.500000 0.784722
vt 0.562500 0.778700
vt 0.625000 0.812500
vt 0.625000 0.875000
vt 0.625000 0.937500
vt 0.625000 1.000000
vt 0.562500 1.000000
vt 0.500000 1.000000
vt 0.437500 1.000000
vt 0.375000 0.937500
vt 0.375000 1.000000
vt 0.375000 0.875000
vt 0.437500 0.071533
vt 0.500000 0.075087
vt 0.500000 0.128472
vt 0.437500 0.127387
vt 0.562500 0.071533
vt 0.562500 0.127387
vt 0.500000 0.187934
vt 0.437500 0.187798
vt 0.562500 0.187798
vt 0.375000 0.000000
vt 0.437500 0.028646
vt 0.375000 0.062500
vt 0.500000 0.034722
vt 0.562500 0.028646
vt 0.625000 0.000000
vt 0.625000 0.062500
vt 0.625000 0.125000
vt 0.625000 0.187500
vt 0.625000 0.250000
vt 0.562500 0.250000
vt 0.500000 0.250000
vt 0.437500 0.250000
vt 0.375000 0.187500
vt 0.375000 0.250000
vt 0.375000 0.125000
vt 0.187500 0.740655
vt 0.250000 0.734918
vt 0.250000 0.745660
vt 0.187500 0.747504
vt 0.312500 0.732747
vt 0.312500 0.745009
vt 0.250000 0.749458
vt 0.187500 0.749688
vt 0.312500 0.749593
vt 0.125000 0.750000
vt 0.187500 0.720920
vt 0.125000 0.750000
vt 0.250000 0.711806
vt 0.312500 0.708767
vt 0.375000 0.708333
vt 0.375000 0.732530
vt 0.375000 0.745660
vt 0.375000 0.751953
vt 0.312500 0.750000
vt 0.250000 0.750000
vt 0.187500 0.750000
vt 0.125000 0.750000
vt 0.437500 0.732734
vt 0.500000 0.732856
vt 0.500000 0.748264
vt 0.437500 0.747287
vt 0.562500 0.732734
vt 0.562500 0.747287
vt 0.500000 0.761936
vt 0.437500 0.758613
vt 0.562500 0.758613
vt 0.437500 0.708333
vt 0.500000 0.708333
vt 0.562500 0.708333
vt 0.437500 0.312500
vt 0.500000 0.312500
vt 0.500000 0.375000
vt 0.437500 0.375000
vt 0.562500 0.312500
vt 0.562500 0.375000
vt 0.500000 0.437500
vt 0.437500 0.437500
vt 0.562500 0.437500
vt 0.375000 0.312500
vt 0.625000 0.312500
vt 0.625000 0.375000
vt 0.625000 0.437500
vt 0.625000 0.500000
vt 0.562500 0.500000
vt 0.500000 0.500000
vt 0.437500 0.500000
vt 0.375000 0.437500
vt 0.375000 0.500000
vt 0.375000 0.375000
vt 0.437500 0.561849
vt 0.500000 0.561849
vt 0.500000 0.619792
vt 0.437500 0.619792
vt 0.562500 0.561849
vt 0.562500 0.619792
vt 0.500000 0.669922
vt 0.437500 0.669922
vt 0.562500 0.669922
vt 0.375000 0.561849
vt 0.625000 0.561849
vt 0.625000 0.619792
vt 0.625000 0.669922
vt 0.375000 0.669922
vt 0.375000 0.619792
vt 0.187500 0.562188
vt 0.250000 0.561958
vt 0.250000 0.620660
vt 0.187500 0.622504
vt 0.312500 0.561863
vt 0.312500 0.619900
vt 0.250000 0.672418
vt 0.187500 0.678155
vt 0.312500 0.670234
vt 0.125000 0.500000
vt 0.187500 0.500000
vt 0.125000 0.562500
vt 0.250000 0.500000
vt 0.312500 0.500000
vt 0.125000 0.687500
vt 0.125000 0.625000
vt 0.437500 0.000298
vt 0.500000 0.000434
vt 0.500000 0.003472
vt 0.437500 0.002387
vt 0.562500 0.000298
vt 0.562500 0.002387
vt 0.500000 0.012587
vt 0.437500 0.009033
vt 0.562500 0.009033
vt 0.375000 0.000000
vt 0.437500 0.000000
vt 0.375000 0.000000
vt 0.500000 0.000000
vt 0.562500 0.000000
vt 0.625000 0.000000
vt 0.687500 0.561863
vt 0.750000 0.561958
vt 0.750000 0.620660
vt 0.687500 0.619900
vt 0.812500 0.562188
vt 0.812500 0.622504
vt 0.750000 0.672418
vt 0.687500 0.670234
vt 0.812500 0.678155
vt 0.687500 0.500000
vt 0.750000 0.500000
vt 0.812500 0.500000
vt 0.875000 0.500000
vt 0.875000 0.562500
vt 0.875000 0.625000
vt 0.875000 0.687500
s 1
usemtl Material.001
f 235/189/227 236/190/228 239/191/231 238/192/230
f 236/190/228 237/193/229 240/194/232 239/191/231
f 238/192/230 239/191/231 242/195/234 241/196/233
f 239/191/231 240/194/232 243/197/235 242/195/234
f 172/198/164 234/199/226 235/189/227 196/200/188
f 234/199/226 233/201/225 236/190/228 235/189/227
f 233/201/225 232/202/224 237/193/229 236/190/228
f 232/202/224 173/203/165 219/204/211 237/193/229
f 237/193/229 219/204/211 218/204/210 240/194/232
f 240/194/232 218/204/210 217/204/209 243/197/235
f 243/197/235 217/204/209 169/205/161 195/206/187
f 242/195/234 243/197/235 195/206/187 194/207/186
f 241/196/233 242/195/234 194/207/186 193/208/185
f 198/209/190 241/196/233 193/208/185 165/210/157
f 197/211/189 238/192/230 241/196/233 198/209/190
f 196/200/188 235/189/227 238/192/230 197/211/189
f 244/212/236 245/213/236 248/214/236 247/215/236
f 245/213/236 246/216/236 249/217/236 248/214/236
f 247/215/236 248/214/236 251/218/236 250/219/236
f 248/214/236 249/217/236 252/220/236 251/218/236
f 166/221/158 189/222/181 244/212/236 201/223/193
f 189/222/181 188/224/180 245/213/236 244/212/236
f 188/224/180 187/225/179 246/216/236 245/213/236
f 187/225/179 165/210/157 193/226/185 246/216/236
f 246/216/236 193/226/185 194/227/186 249/217/236
f 249/217/236 194/227/186 195/228/187 252/220/236
f 252/220/236 195/228/187 169/229/161 186/230/178
f 251/218/236 252/220/236 186/230/178 185/231/177
f 250/219/236 251/218/236 185/231/177 184/232/176
f 199/233/191 250/219/236 184/232/176 170/234/162
f 200/235/192 247/215/236 250/219/236 199/233/191
f 201/223/193 244/212/236 247/215/236 200/235/192
f 253/236/237 254/237/238 257/238/241 256/239/240
f 254/237/238 255/240/239 258/241/242 257/238/241
f 256/239/240 257/238/241 260/242/244 259/243/243
f 257/238/241 258/241/242 261/244/245 260/242/244
f 171/245/163 231/246/223 253/236/237 213/247/205
f 231/246/223 230/248/222 254/237/238 253/236/237
f 230/248/222 229/249/221 255/240/239 254/237/238
f 229/249/221 173/250/165 202/251/194 255/240/239
f 255/240/239 202/251/194 203/252/195 258/241/242
f 258/241/242 203/252/195 204/253/196 261/244/245
f 261/244/245 204/253/196 167/254/159 190/255/182
f 260/242/244 261/244/245 190/255/182 191/256/183
f 259/243/243 260/242/244 191/256/183 192/257/184
f 211/258/203 259/243/243 192/257/184 168/259/160
f 212/260/204 256/239/240 259/243/243 211/258/203
f 213/247/205 253/236/237 256/239/240 212/260/204
f 262/261/246 263/262/247 266/263/250 265/264/249
f 263/262/247 264/265/248 267/266/251 266/263/250
f 265/264/249 266/263/250 269/267/253 268/268/252
f 266/263/250 267/266/251 270/269/254 269/267/253
f 171/270/163 228/271/220 262/261/246 175/272/167
f 228/271/220 227/273/219 263/262/247 262/261/246
f 227/273/219 226/274/218 264/265/248 263/262/247
f 226/274/218 174/275/166 222/276/214 264/265/248
f 264/265/248 222/276/214 221/277/213 267/266/251
f 267/266/251 221/277/213 220/278/212 270/269/254
f 270/269/254 220/278/212 166/221/158 201/279/193
f 269/267/253 270/269/254 201/279/193 200/280/192
f 268/268/252 269/267/253 200/280/192 199/281/191
f 177/272/169 268/268/252 199/281/191 170/282/162
f 176/272/168 265/264/249 268/268/252 177/272/169
f 175/272/167 262/261/246 265/264/249 176/272/168
f 271/283/255 272/284/256 275/285/259 274/286/258
f 272/284/256 273/287/257 276/288/260 275/285/259
f 274/286/258 275/285/259 278/289/262 277/290/261
f 275/285/259 276/288/260 279/291/263 278/289/262
f 174/275/166 225/292/217 271/283/255 222/276/214
f 225/292/217 224/293/216 272/284/256 271/283/255
f 224/293/216 223/294/215 273/287/257 272/284/256
f 223/294/215 172/198/164 196/200/188 273/287/257
f 273/287/257 196/200/188 197/211/189 276/288/260
f 276/288/260 197/211/189 198/209/190 279/291/263
f 279/291/263 198/209/190 165/210/157 187/225/179
f 278/289/262 279/291/263 187/225/179 188/224/180
f 277/290/261 278/289/262 188/224/180 189/222/181
f 220/278/212 277/290/261 189/222/181 166/221/158
f 221/277/213 274/286/258 277/290/261 220/278/212
f 222/276/214 271/283/255 274/286/258 221/277/213
f 280/295/264 281/296/265 284/297/268 283/298/267
f 281/296/265 282/299/266 285/300/269 284/297/268
f 283/298/267 284/297/268 287/301/271 286/302/270
f 284/297/268 285/300/269 288/303/272 287/301/271
f 168/259/160 192/257/184 280/295/264 180/304/172
f 192/257/184 191/256/183 281/296/265 280/295/264
f 191/256/183 190/255/182 282/299/266 281/296/265
f 190/255/182 167/254/159 205/305/197 282/299/266
f 282/299/266 205/305/197 206/306/198 285/300/269
f 285/300/269 206/306/198 207/307/199 288/303/272
f 288/303/272 207/307/199 163/308/155 181/309/173
f 287/301/271 288/303/272 181/309/173 182/310/174
f 286/302/270 287/301/271 182/310/174 183/311/175
f 178/312/170 286/302/270 183/311/175 164/313/156
f 179/314/171 283/298/267 286/302/270 178/312/170
f 180/304/172 280/295/264 283/298/267 179/314/171
f 289/315/273 290/316/274 293/317/277 292/318/276
f 290/316/274 291/319/275 294/320/278 293/317/277
f 292/318/276 293/317/277 296/321/280 295/322/279
f 293/317/277 294/320/278 297/323/281 296/321/280
f 164/313/156 183/311/175 289/315/273 210/324/202
f 183/311/175 182/310/174 290/316/274 289/315/273
f 182/310/174 181/309/173 291/319/275 290/316/274
f 181/309/173 163/308/155 214/325/206 291/319/275
f 291/319/275 214/325/206 215/326/207 294/320/278
f 294/320/278 215/326/207 216/327/208 297/323/281
f 297/323/281 216/327/208 172/198/164 223/294/215
f 296/321/280 297/323/281 223/294/215 224/293/216
f 295/322/279 296/321/280 224/293/216 225/292/217
f 208/328/200 295/322/279 225/292/217 174/275/166
f 209/329/201 292/318/276 295/322/279 208/328/200
f 210/324/202 289/315/273 292/318/276 209/329/201
f 298/330/282 299/331/283 302/332/286 301/333/285
f 299/331/283 300/334/284 303/335/287 302/332/286
f 301/333/285 302/332/286 305/336/289 304/337/288
f 302/332/286 303/335/287 306/338/290 305/336/289
f 168/339/160 180/340/172 298/330/282 211/341/203
f 180/340/172 179/342/171 299/331/283 298/330/282
f 179/342/171 178/343/170 300/334/284 299/331/283
f 178/343/170 164/313/156 210/324/202 300/334/284
f 300/334/284 210/324/202 209/329/201 303/335/287
f 303/335/287 209/329/201 208/328/200 306/338/290
f 306/338/290 208/328/200 174/275/166 226/274/218
f 305/336/289 306/338/290 226/274/218 227/273/219
f 304/337/288 305/336/289 227/273/219 228/271/220
f 213/344/205 304/337/288 228/271/220 171/270/163
f 212/345/204 301/333/285 304/337/288 213/344/205
f 211/341/203 298/330/282 301/333/285 212/345/204
f 307/346/291 308/347/292 311/348/295 310/349/294
f 308/347/292 309/350/293 312/351/296 311/348/295
f 310/349/294 311/348/295 314/352/298 313/353/297
f 311/348/295 312/351/296 315/354/299 314/352/298
f 170/355/162 184/356/176 307/346/291 177/357/169
f 184/356/176 185/358/177 308/347/292 307/346/291
f 185/358/177 186/359/178 309/350/293 308/347/292
f 186/359/178 169/360/161 217/360/209 309/350/293
f 309/350/293 217/360/209 218/360/210 312/351/296
f 312/351/296 218/360/210 219/360/211 315/354/299
f 315/354/299 219/360/211 173/250/165 229/249/221
f 314/352/298 315/354/299 229/249/221 230/248/222
f 313/353/297 314/352/298 230/248/222 231/246/223
f 175/357/167 313/353/297 231/246/223 171/245/163
f 176/357/168 310/349/294 313/353/297 175/357/167
f 177/357/169 307/346/291 310/349/294 176/357/168
f 316/361/300 317/362/301 320/363/304 319/364/303
f 317/362/301 318/365/302 321/366/305 320/363/304
f 319/364/303 320/363/304 323/367/307 322/368/306
f 320/363/304 321/366/305 324/369/308 323/367/307
f 163/308/155 207/370/199 316/361/300 214/325/206
f 207/370/199 206/371/198 317/362/301 316/361/300
f 206/371/198 205/372/197 318/365/302 317/362/301
f 205/372/197 167/373/159 204/374/196 318/365/302
f 318/365/302 204/374/196 203/375/195 321/366/305
f 321/366/305 203/375/195 202/376/194 324/369/308
f 324/369/308 202/376/194 173/203/165 232/202/224
f 323/367/307 324/369/308 232/202/224 233/201/225
f 322/368/306 323/367/307 233/201/225 234/199/226
f 216/327/208 322/368/306 234/199/226 172/198/164
f 215/326/207 319/364/303 322/368/306 216/327/208
f 214/325/206 316/361/300 319/364/303 215/326/207
o Cube.008
v 4.589252 2.306749 1.348315
v 4.560967 1.180363 1.422024
v 3.090016 2.346174 1.375484
v 3.061731 1.219788 1.449193
v 4.564542 2.225828 0.102231
v 4.536258 1.099442 0.175940
v 3.065306 2.265253 0.129400
v 3.037022 1.138867 0.203109
v 3.361353 0.928888 0.001675
v 3.432012 2.538631 1.564842
v 3.399066 2.430736 -0.096603
v 3.394299 1.036783 1.663121
v 3.168932 0.938261 0.009349
v 3.071348 0.971022 0.040429
v 3.038173 1.046369 0.113326
v 4.626775 1.079840 1.172688
v 4.655025 1.013607 0.805073
v 4.612115 1.031830 0.433386
v 4.658197 2.081683 1.452863
v 4.687328 1.749543 1.519716
v 4.641416 1.413399 1.496595
v 3.040971 1.362016 0.097239
v 3.048457 1.693194 0.029723
v 3.057753 2.030301 0.053508
v 3.086066 2.123026 1.481353
v 3.078581 1.791848 1.548869
v 3.069285 1.454741 1.525084
v 4.629884 1.988958 0.025018
v 4.657205 1.650889 0.000570
v 4.613103 1.320674 0.068750
v 3.087054 2.411870 1.116717
v 3.080760 2.429130 0.744366
v 3.072394 2.363859 0.377415
v 3.239212 2.539388 1.564149
v 3.138981 2.511829 1.536654
v 3.099276 2.438398 1.465078
v 3.039984 1.073172 0.461876
v 3.046277 1.055912 0.834227
v 3.054644 1.121182 1.201177
v 3.698283 2.419136 -0.097316
v 4.043697 2.383934 -0.070608
v 4.358870 2.311223 0.004997
v 4.644526 2.322517 0.348925
v 4.689508 2.386824 0.715212
v 4.659185 2.370527 1.088227
v 3.693542 1.032645 1.652988
v 4.039134 1.049676 1.613758
v 4.354748 1.105799 1.526722
v 4.326258 1.012497 0.089983
v 4.007599 0.946401 0.023462
v 3.660772 0.925327 0.000436
v 4.387360 2.404526 1.441735
v 4.075232 2.487209 1.519688
v 3.731053 2.526454 1.555236
v 3.070786 2.345096 0.028339
v 3.107446 2.408555 -0.053641
v 3.206443 2.432070 -0.088403
v 3.066663 1.139672 1.550065
v 3.102883 1.074296 1.630724
v 3.201701 1.045579 1.661901
v 3.428100 2.213542 1.820749
v 3.419333 1.807938 1.925503
v 3.407476 1.392218 1.874496
v 3.381531 0.801141 1.300520
v 3.370755 0.701239 0.850825
v 3.363514 0.742135 0.391917
v 3.385889 2.075301 -0.307978
v 3.374032 1.659582 -0.358985
v 3.365264 1.253978 -0.254232
v 3.411834 2.666378 0.265997
v 3.422610 2.766280 0.715692
v 3.429851 2.725384 1.174600
v 3.237064 2.725197 1.175975
v 3.229863 2.765913 0.719538
v 3.219144 2.666510 0.272270
v 3.136921 2.691037 1.162959
v 3.130001 2.730490 0.723819
v 3.119681 2.634576 0.293536
v 3.097332 2.594343 1.131543
v 3.090974 2.628457 0.731219
v 3.081611 2.542858 0.338728
v 3.062388 1.411990 1.206558
v 3.071750 1.769479 1.204417
v 3.080273 2.124219 1.159951
v 3.054096 1.367276 0.813852
v 3.063519 1.742521 0.789296
v 3.072942 2.117765 0.764741
v 3.046764 1.360822 0.418641
v 3.055287 1.715562 0.374175
v 3.064649 2.073052 0.372034
v 3.665337 1.248670 -0.254178
v 3.674731 1.652068 -0.358423
v 3.685850 2.065567 -0.307634
v 4.016734 1.257516 -0.222103
v 4.030515 1.645465 -0.322790
v 4.036469 2.043423 -0.273531
v 4.349858 1.290295 -0.125074
v 4.375193 1.643860 -0.215060
v 4.367854 2.006953 -0.171971
v 3.171080 0.752452 0.397523
v 3.178281 0.711736 0.853960
v 3.189000 0.811139 1.301229
v 3.073407 0.791814 0.414124
v 3.080328 0.752361 0.853264
v 3.090648 0.848275 1.283547
v 3.040117 0.890424 0.446861
v 3.046474 0.856311 0.847185
v 3.055838 0.941910 1.239675
v 3.214810 1.399131 1.872207
v 3.226603 1.812612 1.922984
v 3.235323 2.216027 1.818751
v 3.115509 1.414666 1.833550
v 3.126861 1.812482 1.882711
v 3.135244 2.200572 1.782121
v 3.077851 1.443412 1.726667
v 3.088162 1.806041 1.769436
v 3.095847 2.160069 1.679770
v 4.774873 1.315378 0.387325
v 4.836208 1.668730 0.341902
v 4.792758 2.027608 0.340718
v 4.835017 1.320443 0.781578
v 4.902088 1.694172 0.755978
v 4.853862 2.070933 0.732467
v 4.790497 1.366546 1.175242
v 4.852672 1.722646 1.172144
v 4.808382 2.078776 1.128634
v 4.386107 1.409009 1.702959
v 4.414068 1.771173 1.745408
v 4.404103 2.125666 1.656062
v 4.057158 1.389903 1.816486
v 4.073909 1.787577 1.865549
v 4.076893 2.175810 1.765057
v 3.707325 1.386179 1.863282
v 3.719793 1.799643 1.914046
v 3.727838 2.203075 1.809825
v 4.348373 0.856021 0.423153
v 4.372380 0.821444 0.823157
v 4.364094 0.907507 1.215967
v 4.015057 0.767051 0.397060
v 4.027376 0.727457 0.836102
v 4.032297 0.823512 1.266482
v 3.663595 0.739500 0.388598
v 3.671471 0.698767 0.845023
v 3.681515 0.798188 1.292303
v 3.041602 1.324698 -0.101366
v 3.049287 1.678727 -0.191032
v 3.059598 2.041356 -0.148263
v 3.075085 1.282279 -0.205038
v 3.083467 1.670370 -0.305628
v 3.094820 2.068185 -0.256467
v 3.172822 1.261622 -0.245253
v 3.181541 1.665037 -0.349486
v 3.193335 2.078518 -0.298709
v 4.405589 2.559940 1.107835
v 4.416881 2.593590 0.707191
v 4.389867 2.508454 0.315020
v 4.078571 2.666275 1.145895
v 4.077049 2.705585 0.706656
v 4.061330 2.609814 0.276472
v 3.729579 2.712245 1.167050
v 3.723053 2.752944 0.710600
v 3.711659 2.653558 0.263344
vn 0.6721 0.5795 0.4609
vn 0.6438 -0.5474 0.5346
vn -0.9986 0.0426 0.0311
vn -0.9994 0.0118 0.0331
vn 0.6519 0.5133 -0.5581
vn 0.6236 -0.6136 -0.4844
vn -0.9992 0.0408 0.0031
vn -0.9999 0.0099 0.0052
vn -0.0373 -0.7833 -0.6206
vn 0.0264 0.7836 0.6208
vn -0.0002 0.6967 -0.7174
vn -0.0108 -0.6964 0.7176
vn -0.2416 -0.7603 -0.6029
vn -0.7444 -0.5225 -0.4159
vn -0.9853 -0.1326 -0.1077
vn 0.7134 -0.6340 0.2985
vn 0.7350 -0.6774 0.0294
vn 0.7027 -0.6691 -0.2419
vn 0.7649 0.3264 0.5553
vn 0.7955 0.0197 0.6056
vn 0.7495 -0.2891 0.5956
vn -0.9998 0.0198 0.0041
vn -0.9997 0.0254 0.0050
vn -0.9995 0.0309 0.0034
vn -0.9989 0.0328 0.0321
vn -0.9991 0.0271 0.0313
vn -0.9992 0.0217 0.0329
vn 0.7415 0.2499 -0.6226
vn 0.7710 -0.0608 -0.6340
vn 0.7261 -0.3656 -0.5824
vn -0.9989 0.0425 0.0221
vn -0.9990 0.0408 0.0172
vn -0.9991 0.0419 0.0121
vn -0.1793 0.7714 0.6106
vn -0.7003 0.5605 0.4421
vn -0.9724 0.1841 0.1432
vn -0.9998 0.0100 0.0141
vn -0.9997 0.0117 0.0191
vn -0.9997 0.0107 0.0242
vn 0.0743 0.6930 -0.7171
vn 0.2173 0.6751 -0.7050
vn 0.4293 0.6194 -0.6573
vn 0.7344 0.5959 -0.3247
vn 0.7680 0.6379 -0.0567
vn 0.7452 0.6310 0.2157
vn 0.0637 -0.6967 0.7146
vn 0.2069 -0.6862 0.6973
vn 0.4196 -0.6418 0.6419
vn 0.3956 -0.7204 -0.5696
vn 0.1810 -0.7712 -0.6104
vn 0.0372 -0.7834 -0.6204
vn 0.4533 0.6981 0.5542
vn 0.2432 0.7600 0.6027
vn 0.1008 0.7797 0.6179
vn -0.9778 0.1665 -0.1273
vn -0.7187 0.5004 -0.4828
vn -0.2052 0.6864 -0.6976
vn -0.9799 -0.1150 0.1628
vn -0.7260 -0.4624 0.5090
vn -0.2156 -0.6754 0.7052
vn 0.0223 0.4461 0.8947
vn 0.0142 0.0649 0.9978
vn 0.0029 -0.3263 0.9453
vn -0.0225 -0.9223 0.3857
vn -0.0301 -0.9974 0.0654
vn -0.0353 -0.9644 -0.2620
vn -0.0142 0.3266 -0.9451
vn -0.0254 -0.0646 -0.9976
vn -0.0335 -0.4458 -0.8945
vn 0.0121 0.9226 -0.3855
vn 0.0200 0.9977 -0.0652
vn 0.0249 0.9647 0.2622
vn -0.1707 0.9501 0.2611
vn -0.1708 0.9835 -0.0605
vn -0.1833 0.9088 -0.3748
vn -0.6910 0.6959 0.1957
vn -0.6924 0.7208 -0.0331
vn -0.6999 0.6665 -0.2566
vn -0.9728 0.2208 0.0700
vn -0.9747 0.2236 0.0048
vn -0.9754 0.2124 -0.0595
vn -0.9995 0.0263 0.0181
vn 0.0422 -0.4474 -0.8934
vn 0.0498 -0.0665 -0.9965
vn 0.0615 0.3245 -0.9439
vn 0.1910 -0.4440 -0.8754
vn 0.2007 -0.0690 -0.9772
vn 0.2101 0.3161 -0.9252
vn 0.4317 -0.4135 -0.8017
vn 0.4634 -0.0694 -0.8834
vn 0.4492 0.2835 -0.8473
vn -0.2297 -0.9396 -0.2539
vn -0.2199 -0.9732 0.0676
vn -0.2171 -0.8983 0.3821
vn -0.7332 -0.6584 -0.1699
vn -0.7277 -0.6834 0.0588
vn -0.7242 -0.6291 0.2824
vn -0.9850 -0.1693 -0.0345
vn -0.9846 -0.1720 0.0307
vn -0.9824 -0.1609 0.0950
vn -0.2069 -0.3139 0.9266
vn -0.1958 0.0689 0.9782
vn -0.1879 0.4419 0.8772
vn -0.7322 -0.1995 0.6512
vn -0.7313 0.0628 0.6792
vn -0.7192 0.3189 0.6173
vn -0.9801 -0.0348 0.1955
vn -0.9796 0.0375 0.1973
vn -0.9765 0.1089 0.1861
vn 0.8961 -0.3491 -0.2741
vn 0.9502 -0.0440 -0.3084
vn 0.9115 0.2652 -0.3143
vn 0.9390 -0.3438 0.0037
vn 0.9995 -0.0263 -0.0181
vn 0.9550 0.2940 -0.0380
vn 0.9071 -0.3130 0.2814
vn 0.9618 -0.0062 0.2738
vn 0.9225 0.3013 0.2412
vn 0.4641 -0.3075 0.8307
vn 0.4980 0.0442 0.8660
vn 0.4816 0.3895 0.7851
vn 0.2265 -0.3276 0.9173
vn 0.2393 0.0574 0.9692
vn 0.2456 0.4325 0.8675
vn 0.0785 -0.3282 0.9413
vn 0.0892 0.0628 0.9940
vn 0.0979 0.4437 0.8908
vn 0.4029 -0.8808 -0.2489
vn 0.4216 -0.9054 0.0504
vn 0.4146 -0.8422 0.3446
vn 0.1737 -0.9490 -0.2632
vn 0.1752 -0.9827 0.0603
vn 0.1864 -0.9074 0.3766
vn 0.0349 -0.9641 -0.2634
vn 0.0379 -0.9972 0.0640
vn 0.0478 -0.9220 0.3842
vn -0.9869 -0.0572 -0.1506
vn -0.9867 0.0142 -0.1617
vn -0.9833 0.0864 -0.1600
vn -0.7569 -0.2801 -0.5905
vn -0.7577 -0.0237 -0.6522
vn -0.7438 0.2383 -0.6244
vn -0.2425 -0.4306 -0.8694
vn -0.2345 -0.0576 -0.9704
vn -0.2235 0.3253 -0.9188
vn 0.4573 0.8581 0.2333
vn 0.4665 0.8820 -0.0665
vn 0.4456 0.8196 -0.3602
vn 0.2328 0.9383 0.2558
vn 0.2243 0.9722 -0.0676
vn 0.2201 0.8967 -0.3840
vn 0.0950 0.9606 0.2610
vn 0.0879 0.9939 -0.0663
vn 0.0822 0.9186 -0.3866
vt 0.687500 0.732747
vt 0.750000 0.734918
vt 0.750000 0.745660
vt 0.687500 0.745009
vt 0.812500 0.740655
vt 0.812500 0.747504
vt 0.750000 0.749458
vt 0.687500 0.749593
vt 0.812500 0.749688
vt 0.625000 0.708333
vt 0.687500 0.708767
vt 0.625000 0.732530
vt 0.750000 0.711806
vt 0.812500 0.720920
vt 0.875000 0.750000
vt 0.875000 0.750000
vt 0.875000 0.750000
vt 0.812500 0.750000
vt 0.750000 0.750000
vt 0.687500 0.750000
vt 0.625000 0.751953
vt 0.625000 0.750000
vt 0.625000 0.745660
vt 0.437500 0.821533
vt 0.500000 0.825087
vt 0.500000 0.878472
vt 0.437500 0.877387
vt 0.562500 0.821533
vt 0.562500 0.877387
vt 0.500000 0.937934
vt 0.437500 0.937799
vt 0.562500 0.937798
vt 0.375000 0.750000
vt 0.437500 0.778700
vt 0.375000 0.812500
vt 0.500000 0.784722
vt 0.562500 0.778700
vt 0.625000 0.812500
vt 0.625000 0.875000
vt 0.625000 0.937500
vt 0.625000 1.000000
vt 0.562500 1.000000
vt 0.500000 1.000000
vt 0.437500 1.000000
vt 0.375000 0.937500
vt 0.375000 1.000000
vt 0.375000 0.875000
vt 0.437500 0.071533
vt 0.500000 0.075087
vt 0.500000 0.128472
vt 0.437500 0.127387
vt 0.562500 0.071533
vt 0.562500 0.127387
vt 0.500000 0.187934
vt 0.437500 0.187798
vt 0.562500 0.187798
vt 0.375000 0.000000
vt 0.437500 0.028646
vt 0.375000 0.062500
vt 0.500000 0.034722
vt 0.562500 0.028646
vt 0.625000 0.000000
vt 0.625000 0.062500
vt 0.625000 0.125000
vt 0.625000 0.187500
vt 0.625000 0.250000
vt 0.562500 0.250000
vt 0.500000 0.250000
vt 0.437500 0.250000
vt 0.375000 0.187500
vt 0.375000 0.250000
vt 0.375000 0.125000
vt 0.187500 0.740655
vt 0.250000 0.734918
vt 0.250000 0.745660
vt 0.187500 0.747504
vt 0.312500 0.732747
vt 0.312500 0.745009
vt 0.250000 0.749458
vt 0.187500 0.749688
vt 0.312500 0.749593
vt 0.125000 0.750000
vt 0.187500 0.720920
vt 0.125000 0.750000
vt 0.250000 0.711806
vt 0.312500 0.708767
vt 0.375000 0.708333
vt 0.375000 0.732530
vt 0.375000 0.745660
vt 0.375000 0.751953
vt 0.312500 0.750000
vt 0.250000 0.750000
vt 0.187500 0.750000
vt 0.125000 0.750000
vt 0.437500 0.732734
vt 0.500000 0.732856
vt 0.500000 0.748264
vt 0.437500 0.747287
vt 0.562500 0.732734
vt 0.562500 0.747287
vt 0.500000 0.761936
vt 0.437500 0.758613
vt 0.562500 0.758613
vt 0.437500 0.708333
vt 0.500000 0.708333
vt 0.562500 0.708333
vt 0.437500 0.312500
vt 0.500000 0.312500
vt 0.500000 0.375000
vt 0.437500 0.375000
vt 0.562500 0.312500
vt 0.562500 0.375000
vt 0.500000 0.437500
vt 0.437500 0.437500
vt 0.562500 0.437500
vt 0.375000 0.312500
vt 0.625000 0.312500
vt 0.625000 0.375000
vt 0.625000 0.437500
vt 0.625000 0.500000
vt 0.562500 0.500000
vt 0.500000 0.500000
vt 0.437500 0.500000
vt 0.375000 0.437500
vt 0.375000 0.500000
vt 0.375000 0.375000
vt 0.437500 0.561849
vt 0.500000 0.561849
vt 0.500000 0.619792
vt 0.437500 0.619792
vt 0.562500 0.561849
vt 0.562500 0.619792
vt 0.500000 0.669922
vt 0.437500 0.669922
vt 0.562500 0.669922
vt 0.375000 0.561849
vt 0.625000 0.561849
vt 0.625000 0.619792
vt 0.625000 0.669922
vt 0.375000 0.669922
vt 0.375000 0.619792
vt 0.187500 0.562188
vt 0.250000 0.561958
vt 0.250000 0.620660
vt 0.187500 0.622504
vt 0.312500 0.561863
vt 0.312500 0.619900
vt 0.250000 0.672418
vt 0.187500 0.678155
vt 0.312500 0.670234
vt 0.125000 0.500000
vt 0.187500 0.500000
vt 0.125000 0.562500
vt 0.250000 0.500000
vt 0.312500 0.500000
vt 0.125000 0.687500
vt 0.125000 0.625000
vt 0.437500 0.000298
vt 0.500000 0.000434
vt 0.500000 0.003472
vt 0.437500 0.002387
vt 0.562500 0.000298
vt 0.562500 0.002387
vt 0.500000 0.012587
vt 0.437500 0.009033
vt 0.562500 0.009033
vt 0.375000 0.000000
vt 0.437500 0.000000
vt 0.375000 0.000000
vt 0.500000 0.000000
vt 0.562500 0.000000
vt 0.625000 0.000000
vt 0.687500 0.561863
vt 0.750000 0.561958
vt 0.750000 0.620660
vt 0.687500 0.619900
vt 0.812500 0.562188
vt 0.812500 0.622504
vt 0.750000 0.672418
vt 0.687500 0.670234
vt 0.812500 0.678155
vt 0.687500 0.500000
vt 0.750000 0.500000
vt 0.812500 0.500000
vt 0.875000 0.500000
vt 0.875000 0.562500
vt 0.875000 0.625000
vt 0.875000 0.687500
s 1
usemtl Material.001
f 397/377/381 398/378/382 401/379/385 400/380/384
f 398/378/382 399/381/383 402/382/386 401/379/385
f 400/380/384 401/379/385 404/383/388 403/384/387
f 401/379/385 402/382/386 405/385/389 404/383/388
f 334/386/318 396/387/380 397/377/381 358/388/342
f 396/387/380 395/389/379 398/378/382 397/377/381
f 395/389/379 394/390/378 399/381/383 398/378/382
f 394/390/378 335/391/319 381/392/365 399/381/383
f 399/381/383 381/392/365 380/392/364 402/382/386
f 402/382/386 380/392/364 379/392/363 405/385/389
f 405/385/389 379/392/363 331/393/315 357/394/341
f 404/383/388 405/385/389 357/394/341 356/395/340
f 403/384/387 404/383/388 356/395/340 355/396/339
f 360/397/344 403/384/387 355/396/339 327/398/311
f 359/399/343 400/380/384 403/384/387 360/397/344
f 358/388/342 397/377/381 400/380/384 359/399/343
f 406/400/390 407/401/390 410/402/390 409/403/390
f 407/401/390 408/404/390 411/405/390 410/402/390
f 409/403/390 410/402/390 413/406/390 412/407/390
f 410/402/390 411/405/390 414/408/390 413/406/390
f 328/409/312 351/410/335 406/400/390 363/411/347
f 351/410/335 350/412/334 407/401/390 406/400/390
f 350/412/334 349/413/333 408/404/390 407/401/390
f 349/413/333 327/398/311 355/414/339 408/404/390
f 408/404/390 355/414/339 356/415/340 411/405/390
f 411/405/390 356/415/340 357/416/341 414/408/390
f 414/408/390 357/416/341 331/417/315 348/418/332
f 413/406/390 414/408/390 348/418/332 347/419/331
f 412/407/390 413/406/390 347/419/331 346/420/330
f 361/421/345 412/407/390 346/420/330 332/422/316
f 362/423/346 409/403/390 412/407/390 361/421/345
f 363/411/347 406/400/390 409/403/390 362/423/346
f 415/424/391 416/425/392 419/426/395 418/427/394
f 416/425/392 417/428/393 420/429/396 419/426/395
f 418/427/394 419/426/395 422/430/398 421/431/397
f 419/426/395 420/429/396 423/432/399 422/430/398
f 333/433/317 393/434/377 415/424/391 375/435/359
f 393/434/377 392/436/376 416/425/392 415/424/391
f 392/436/376 391/437/375 417/428/393 416/425/392
f 391/437/375 335/438/319 364/439/348 417/428/393
f 417/428/393 364/439/348 365/440/349 420/429/396
f 420/429/396 365/440/349 366/441/350 423/432/399
f 423/432/399 366/441/350 329/442/313 352/443/336
f 422/430/398 423/432/399 352/443/336 353/444/337
f 421/431/397 422/430/398 353/444/337 354/445/338
f 373/446/357 421/431/397 354/445/338 330/447/314
f 374/448/358 418/427/394 421/431/397 373/446/357
f 375/435/359 415/424/391 418/427/394 374/448/358
f 424/449/400 425/450/401 428/451/404 427/452/403
f 425/450/401 426/453/402 429/454/405 428/451/404
f 427/452/403 428/451/404 431/455/407 430/456/406
f 428/451/404 429/454/405 432/457/408 431/455/407
f 333/458/317 390/459/374 424/449/400 337/460/321
f 390/459/374 389/461/373 425/450/401 424/449/400
f 389/461/373 388/462/372 426/453/402 425/450/401
f 388/462/372 336/463/320 384/464/368 426/453/402
f 426/453/402 384/464/368 383/465/367 429/454/405
f 429/454/405 383/465/367 382/466/366 432/457/408
f 432/457/408 382/466/366 328/409/312 363/467/347
f 431/455/407 432/457/408 363/467/347 362/468/346
f 430/456/406 431/455/407 362/468/346 361/469/345
f 339/460/323 430/456/406 361/469/345 332/470/316
f 338/460/322 427/452/403 430/456/406 339/460/323
f 337/460/321 424/449/400 427/452/403 338/460/322
f 433/471/409 434/472/410 437/473/413 436/474/412
f 434/472/410 435/475/411 438/476/414 437/473/413
f 436/474/412 437/473/413 440/477/416 439/478/415
f 437/473/413 438/476/414 441/479/417 440/477/416
f 336/463/320 387/480/371 433/471/409 384/464/368
f 387/480/371 386/481/370 434/472/410 433/471/409
f 386/481/370 385/482/369 435/475/411 434/472/410
f 385/482/369 334/386/318 358/388/342 435/475/411
f 435/475/411 358/388/342 359/399/343 438/476/414
f 438/476/414 359/399/343 360/397/344 441/479/417
f 441/479/417 360/397/344 327/398/311 349/413/333
f 440/477/416 441/479/417 349/413/333 350/412/334
f 439/478/415 440/477/416 350/412/334 351/410/335
f 382/466/366 439/478/415 351/410/335 328/409/312
f 383/465/367 436/474/412 439/478/415 382/466/366
f 384/464/368 433/471/409 436/474/412 383/465/367
f 442/483/418 443/484/419 446/485/422 445/486/421
f 443/484/419 444/487/420 447/488/423 446/485/422
f 445/486/421 446/485/422 449/489/425 448/490/424
f 446/485/422 447/488/423 450/491/426 449/489/425
f 330/447/314 354/445/338 442/483/418 342/492/326
f 354/445/338 353/444/337 443/484/419 442/483/418
f 353/444/337 352/443/336 444/487/420 443/484/419
f 352/443/336 329/442/313 367/493/351 444/487/420
f 444/487/420 367/493/351 368/494/352 447/488/423
f 447/488/423 368/494/352 369/495/353 450/491/426
f 450/491/426 369/495/353 325/496/309 343/497/327
f 449/489/425 450/491/426 343/497/327 344/498/328
f 448/490/424 449/489/425 344/498/328 345/499/329
f 340/500/324 448/490/424 345/499/329 326/501/310
f 341/502/325 445/486/421 448/490/424 340/500/324
f 342/492/326 442/483/418 445/486/421 341/502/325
f 451/503/427 452/504/428 455/505/431 454/506/430
f 452/504/428 453/507/429 456/508/432 455/505/431
f 454/506/430 455/505/431 458/509/434 457/510/433
f 455/505/431 456/508/432 459/511/435 458/509/434
f 326/501/310 345/499/329 451/503/427 372/512/356
f 345/499/329 344/498/328 452/504/428 451/503/427
f 344/498/328 343/497/327 453/507/429 452/504/428
f 343/497/327 325/496/309 376/513/360 453/507/429
f 453/507/429 376/513/360 377/514/361 456/508/432
f 456/508/432 377/514/361 378/515/362 459/511/435
f 459/511/435 378/515/362 334/386/318 385/482/369
f 458/509/434 459/511/435 385/482/369 386/481/370
f 457/510/433 458/509/434 386/481/370 387/480/371
f 370/516/354 457/510/433 387/480/371 336/463/320
f 371/517/355 454/506/430 457/510/433 370/516/354
f 372/512/356 451/503/427 454/506/430 371/517/355
f 460/518/436 461/519/437 464/520/440 463/521/439
f 461/519/437 462/522/438 465/523/441 464/520/440
f 463/521/439 464/520/440 467/524/443 466/525/442
f 464/520/440 465/523/441 468/526/444 467/524/443
f 330/527/314 342/528/326 460/518/436 373/529/357
f 342/528/326 341/530/325 461/519/437 460/518/436
f 341/530/325 340/531/324 462/522/438 461/519/437
f 340/531/324 326/501/310 372/512/356 462/522/438
f 462/522/438 372/512/356 371/517/355 465/523/441
f 465/523/441 371/517/355 370/516/354 468/526/444
f 468/526/444 370/516/354 336/463/320 388/462/372
f 467/524/443 468/526/444 388/462/372 389/461/373
f 466/525/442 467/524/443 389/461/373 390/459/374
f 375/532/359 466/525/442 390/459/374 333/458/317
f 374/533/358 463/521/439 466/525/442 375/532/359
f 373/529/357 460/518/436 463/521/439 374/533/358
f 469/534/445 470/535/446 473/536/449 472/537/448
f 470/535/446 471/538/447 474/539/450 473/536/449
f 472/537/448 473/536/449 476/540/452 475/541/451
f 473/536/449 474/539/450 477/542/453 476/540/452
f 332/543/316 346/544/330 469/534/445 339/545/323
f 346/544/330 347/546/331 470/535/446 469/534/445
f 347/546/331 348/547/332 471/538/447 470/535/446
f 348/547/332 331/548/315 379/548/363 471/538/447
f 471/538/447 379/548/363 380/548/364 474/539/450
f 474/539/450 380/548/364 381/548/365 477/542/453
f 477/542/453 381/548/365 335/438/319 391/437/375
f 476/540/452 477/542/453 391/437/375 392/436/376
f 475/541/451 476/540/452 392/436/376 393/434/377
f 337/545/321 475/541/451 393/434/377 333/433/317
f 338/545/322 472/537/448 475/541/451 337/545/321
f 339/545/323 469/534/445 472/537/448 338/545/322
f 478/549/454 479/550/455 482/551/458 481/552/457
f 479/550/455 480/553/456 483/554/459 482/551/458
f 481/552/457 482/551/458 485/555/461 484/556/460
f 482/551/458 483/554/459 486/557/462 485/555/461
f 325/496/309 369/558/353 478/549/454 376/513/360
f 369/558/353 368/559/352 479/550/455 478/549/454
f 368/559/352 367/560/351 480/553/456 479/550/455
f 367/560/351 329/561/313 366/562/350 480/553/456
f 480/553/456 366/562/350 365/563/349 483/554/459
f 483/554/459 365/563/349 364/564/348 486/557/462
f 486/557/462 364/564/348 335/391/319 394/390/378
f 485/555/461 486/557/462 394/390/378 395/389/379
f 484/556/460 485/555/461 395/389/379 396/387/380
f 378/515/362 484/556/460 396/387/380 334/386/318
f 377/514/361 481/552/457 484/556/460 378/515/362
f 376/513/360 478/549/454 481/552/457 377/514/361
o Cube.009
v 4.521608 2.552973 1.377928
v 4.521608 1.814920 1.377928
v 3.021674 2.428480 1.391930
v 3.021674 1.491237 1.391930
v 4.510007 2.552973 0.135155
v 4.510007 1.814920 0.135155
v 3.010072 2.428480 0.149157
v 3.010072 1.491237 0.149157
v 3.341458 1.608916 -0.061083
v 3.356926 2.659383 1.595948
v 3.341458 2.659383 -0.061083
v 3.356926 1.608916 1.595948
v 3.148799 1.538107 -0.054850
v 3.050135 1.478174 -0.022880
v 3.014393 1.463816 0.054034
v 4.592179 1.761092 1.124530
v 4.625371 1.734053 0.755519
v 4.585296 1.761092 0.387192
v 4.595384 2.402890 1.467887
v 4.632442 2.183947 1.513074
v 4.595384 1.965003 1.467887
v 3.009226 1.669655 0.058518
v 3.008801 1.943490 0.012989
v 3.009226 2.228270 0.058518
v 3.022520 2.228270 1.482569
v 3.022945 1.943490 1.528098
v 3.022520 1.669655 1.482569
v 4.582091 2.402890 0.043835
v 4.618299 2.183947 -0.002036
v 4.582091 1.965003 0.043835
v 3.019314 2.492404 1.139212
v 3.015873 2.525024 0.770544
v 3.012432 2.492404 0.401875
v 3.164185 2.640741 1.593312
v 3.064941 2.597391 1.563190
v 3.027769 2.517465 1.486956
v 3.012432 1.405522 0.401875
v 3.015873 1.361956 0.770544
v 3.019315 1.405522 1.139212
v 3.640869 2.666346 -0.059443
v 3.986823 2.652836 -0.031624
v 4.303078 2.609176 0.042005
v 4.585296 2.606802 0.387192
v 4.625371 2.633840 0.755519
v 4.592179 2.606802 1.124530
v 3.656254 1.659531 1.588718
v 4.001628 1.702608 1.554446
v 4.316454 1.757161 1.474926
v 4.303078 1.757161 0.042005
v 3.986823 1.702608 -0.031624
v 3.640869 1.659531 -0.059443
v 4.316454 2.609176 1.474926
v 4.001628 2.652836 1.554446
v 3.656254 2.666345 1.588718
v 3.014393 2.517465 0.054034
v 3.050135 2.597390 -0.022880
v 3.148799 2.640741 -0.054850
v 3.027769 1.463816 1.486956
v 3.064941 1.478174 1.563190
v 3.164185 1.538107 1.593312
v 3.359101 2.421386 1.828968
v 3.359826 2.134149 1.906641
v 3.359101 1.846912 1.828968
v 3.353421 1.461194 1.220527
v 3.349192 1.411953 0.767432
v 3.344962 1.461194 0.314338
v 3.339283 2.421387 -0.294104
v 3.338557 2.134149 -0.371777
v 3.339283 1.846912 -0.294104
v 3.344962 2.807105 0.314338
v 3.349192 2.856346 0.767432
v 3.353421 2.807105 1.220527
v 3.160699 2.795912 1.219883
v 3.156492 2.847635 0.769231
v 3.152285 2.795912 0.318579
v 3.061585 2.755685 1.203711
v 3.057538 2.808448 0.770155
v 3.053491 2.755685 0.336598
v 3.024772 2.661704 1.165849
v 3.021081 2.710122 0.770495
v 3.017390 2.661704 0.375141
v 3.019541 1.621047 1.163455
v 3.019738 1.917755 1.184562
v 3.019541 2.230251 1.163455
v 3.015873 1.594216 0.770544
v 3.015873 1.909139 0.770544
v 3.015873 2.241295 0.770544
v 3.012205 1.621047 0.377632
v 3.012008 1.917755 0.356525
v 3.012205 2.230251 0.377632
v 3.639380 1.887648 -0.291286
v 3.639333 2.162938 -0.368591
v 3.639380 2.438229 -0.291286
v 3.990137 1.917974 -0.255225
v 3.994841 2.177722 -0.329952
v 3.990137 2.437470 -0.255225
v 4.321438 1.948094 -0.153311
v 4.338479 2.183169 -0.219517
v 4.321438 2.418244 -0.153311
v 3.152285 1.382734 0.318579
v 3.156492 1.330809 0.769231
v 3.160699 1.382734 1.219883
v 3.053491 1.318266 0.336598
v 3.057538 1.263888 0.770155
v 3.061585 1.318266 1.203711
v 3.017390 1.313548 0.375141
v 3.021081 1.259853 0.770495
v 3.024772 1.313548 1.165849
v 3.166349 1.787878 1.825148
v 3.167070 2.089222 1.902447
v 3.166349 2.390768 1.825148
v 3.067028 1.731392 1.786740
v 3.067725 2.036168 1.861417
v 3.067028 2.342558 1.786740
v 3.029591 1.697588 1.682083
v 3.030207 1.984988 1.748124
v 3.029591 2.277663 1.682083
v 4.741120 1.950606 0.361493
v 4.793759 2.183947 0.339893
v 4.741120 2.417287 0.361493
v 4.797624 1.938071 0.753911
v 4.855299 2.183947 0.753373
v 4.797624 2.429822 0.753911
v 4.748456 1.950606 1.147316
v 4.801489 2.183947 1.167929
v 4.748456 2.417288 1.147316
v 4.338457 1.948094 1.669865
v 4.356731 2.183169 1.735741
v 4.338457 2.418243 1.669865
v 4.009116 1.917974 1.777946
v 4.015214 2.177722 1.852572
v 4.009116 2.437470 1.777946
v 3.659094 1.887648 1.820548
v 3.660490 2.162938 1.897840
v 3.659094 2.438230 1.820548
v 4.326257 1.641134 0.362923
v 4.347605 1.601865 0.758112
v 4.333638 1.641134 1.153631
v 3.995579 1.568679 0.327804
v 4.005028 1.523942 0.761310
v 4.003674 1.568679 1.194917
v 3.645030 1.517910 0.313979
v 3.649912 1.470691 0.764625
v 3.653444 1.517910 1.215283
v 3.012571 1.697588 -0.141093
v 3.011955 1.984987 -0.207134
v 3.012572 2.277663 -0.141093
v 3.048048 1.731392 -0.246431
v 3.047351 2.036168 -0.321108
v 3.048048 2.342558 -0.246431
v 3.146635 1.787878 -0.286686
v 3.145914 2.089222 -0.363985
v 3.146635 2.390768 -0.286686
v 4.333638 2.725203 1.153631
v 4.347605 2.764472 0.758112
v 4.326257 2.725203 0.362923
v 4.003674 2.786765 1.194917
v 4.005028 2.831502 0.761310
v 3.995579 2.786765 0.327804
v 3.653444 2.807967 1.215283
v 3.649912 2.855186 0.764625
v 3.645030 2.807967 0.313979
vn 0.5565 0.7093 0.4326
vn 0.5587 -0.7080 0.4318
vn -0.9996 0.0177 0.0200
vn -0.9992 -0.0311 0.0259
vn 0.5484 0.7093 -0.4429
vn 0.5506 -0.7080 -0.4422
vn -0.9998 0.0177 -0.0013
vn -0.9995 -0.0311 -0.0072
vn 0.2038 -0.8008 -0.5632
vn -0.0492 0.8193 0.5712
vn -0.0598 0.8193 -0.5702
vn 0.2143 -0.8008 0.5593
vn 0.2576 -0.7693 -0.5847
vn -0.4031 -0.7097 -0.5778
vn -0.9280 -0.3227 -0.1864
vn 0.6255 -0.7469 0.2256
vn 0.6423 -0.7665 -0.0060
vn 0.6211 -0.7469 -0.2373
vn 0.7236 0.3962 0.5651
vn 0.7878 0.0001 0.6159
vn 0.7243 -0.3959 0.5645
vn -0.9999 -0.0104 -0.0091
vn -1.0000 -0.0003 -0.0055
vn -1.0000 0.0071 -0.0053
vn -0.9997 0.0071 0.0240
vn -0.9997 -0.0003 0.0242
vn -0.9996 -0.0104 0.0278
vn 0.7130 0.3962 -0.5785
vn 0.7762 0.0001 -0.6305
vn 0.7136 -0.3959 -0.5779
vn -0.9998 0.0161 0.0130
vn -0.9998 0.0150 0.0093
vn -0.9999 0.0161 0.0057
vn -0.2984 0.7644 0.5715
vn -0.8190 0.4496 0.3565
vn -0.9831 0.1481 0.1075
vn -0.9996 -0.0289 0.0023
vn -0.9996 -0.0273 0.0093
vn -0.9994 -0.0289 0.0164
vn 0.0286 0.8285 -0.5593
vn 0.1557 0.8223 -0.5474
vn 0.3434 0.7827 -0.5191
vn 0.6197 0.7481 -0.2374
vn 0.6409 0.7676 -0.0060
vn 0.6241 0.7481 0.2257
vn 0.1521 -0.8194 0.5526
vn 0.2130 -0.8148 0.5392
vn 0.3675 -0.7781 0.5094
vn 0.3579 -0.7781 -0.5162
vn 0.2029 -0.8148 -0.5431
vn 0.1417 -0.8194 -0.5554
vn 0.3530 0.7827 0.5126
vn 0.1658 0.8223 0.5444
vn 0.0390 0.8285 0.5587
vn -0.9849 0.1481 -0.0891
vn -0.8255 0.4496 -0.3412
vn -0.3090 0.7644 -0.5659
vn -0.9243 -0.3227 0.2037
vn -0.3923 -0.7097 0.5852
vn 0.2684 -0.7693 0.5798
vn -0.0422 0.4552 0.8894
vn 0.0101 0.0040 0.9999
vn 0.1037 -0.4480 0.8880
vn 0.2749 -0.9328 0.2331
vn 0.2899 -0.9571 -0.0027
vn 0.2705 -0.9328 -0.2381
vn -0.0588 0.4552 -0.8884
vn -0.0086 0.0040 -1.0000
vn 0.0871 -0.4480 -0.8898
vn -0.0372 0.9692 -0.2435
vn -0.0257 0.9997 0.0002
vn -0.0327 0.9692 0.2442
vn -0.2475 0.9351 0.2536
vn -0.2242 0.9745 0.0021
vn -0.2522 0.9351 -0.2490
vn -0.8040 0.5700 0.1691
vn -0.7968 0.6042 0.0074
vn -0.8071 0.5700 -0.1541
vn -0.9833 0.1745 0.0507
vn -0.9841 0.1775 0.0092
vn -0.9841 0.1745 -0.0323
vn -1.0000 -0.0000 0.0093
vn 0.1007 -0.4601 -0.8821
vn 0.0625 0.0018 -0.9980
vn 0.0377 0.4644 -0.8848
vn 0.2141 -0.4597 -0.8619
vn 0.2092 0.0009 -0.9779
vn 0.1881 0.4629 -0.8662
vn 0.4336 -0.4354 -0.7890
vn 0.4682 0.0005 -0.8836
vn 0.4262 0.4372 -0.7920
vn 0.4250 -0.8723 -0.2417
vn 0.4705 -0.8824 -0.0044
vn 0.4295 -0.8723 0.2337
vn 0.1285 -0.9467 -0.2953
vn 0.3266 -0.9452 -0.0030
vn 0.1340 -0.9467 0.2929
vn -0.9004 -0.4258 -0.0895
vn -0.8965 -0.4429 0.0084
vn -0.8986 -0.4258 0.1063
vn -0.0066 -0.4245 0.9054
vn -0.1908 0.0042 0.9816
vn -0.2900 0.4160 0.8619
vn -0.6340 -0.3369 0.6961
vn -0.6975 -0.0155 0.7165
vn -0.7877 0.2603 0.5584
vn -0.9572 -0.1553 0.2444
vn -0.9760 -0.0093 0.2177
vn -0.9825 0.0852 0.1656
vn 0.8793 -0.3858 -0.2792
vn 0.9538 -0.0000 -0.3003
vn 0.8793 0.3858 -0.2792
vn 0.9208 -0.3899 -0.0086
vn 1.0000 -0.0000 -0.0093
vn 0.9208 0.3899 -0.0086
vn 0.8844 -0.3858 0.2628
vn 0.9593 -0.0000 0.2825
vn 0.8844 0.3858 0.2628
vn 0.4482 -0.4354 0.7807
vn 0.4846 0.0005 0.8747
vn 0.4409 0.4372 0.7839
vn 0.2301 -0.4597 0.8578
vn 0.2274 0.0009 0.9738
vn 0.2043 0.4629 0.8625
vn 0.1171 -0.4601 0.8801
vn 0.0811 0.0018 0.9967
vn 0.0542 0.4644 0.8840
vn 0.3288 -0.9171 -0.2253
vn 0.3350 -0.9422 -0.0031
vn 0.3329 -0.9171 0.2192
vn 0.1897 -0.9537 -0.2332
vn 0.1867 -0.9824 -0.0017
vn 0.1940 -0.9537 0.2297
vn 0.1625 -0.9582 -0.2356
vn 0.1688 -0.9856 -0.0016
vn 0.1668 -0.9582 0.2325
vn -0.9615 -0.1553 -0.2265
vn -0.9799 -0.0093 -0.1994
vn -0.9854 0.0852 -0.1472
vn -0.6469 -0.3369 -0.6841
vn -0.7107 -0.0155 -0.7033
vn -0.7979 0.2603 -0.5436
vn -0.0235 -0.4245 -0.9051
vn -0.2091 0.0042 -0.9779
vn -0.3060 0.4160 -0.8563
vn 0.3166 0.9228 0.2198
vn 0.3191 0.9477 -0.0030
vn 0.3124 0.9228 -0.2256
vn 0.1392 0.9628 0.2315
vn 0.1309 0.9914 -0.0012
vn 0.1348 0.9628 -0.2340
vn 0.0349 0.9711 0.2362
vn 0.0335 0.9994 -0.0003
vn 0.0305 0.9711 -0.2368
vt 0.687500 0.732747
vt 0.750000 0.734918
vt 0.750000 0.745660
vt 0.687500 0.745009
vt 0.812500 0.740655
vt 0.812500 0.747504
vt 0.750000 0.749458
vt 0.687500 0.749593
vt 0.812500 0.749688
vt 0.625000 0.708333
vt 0.687500 0.708767
vt 0.625000 0.732530
vt 0.750000 0.711806
vt 0.812500 0.720920
vt 0.875000 0.750000
vt 0.875000 0.750000
vt 0.875000 0.750000
vt 0.812500 0.750000
vt 0.750000 0.750000
vt 0.687500 0.750000
vt 0.625000 0.751953
vt 0.625000 0.750000
vt 0.625000 0.745660
vt 0.437500 0.821533
vt 0.500000 0.825087
vt 0.500000 0.878472
vt 0.437500 0.877387
vt 0.562500 0.821533
vt 0.562500 0.877387
vt 0.500000 0.937934
vt 0.437500 0.937799
vt 0.562500 0.937798
vt 0.375000 0.750000
vt 0.437500 0.778700
vt 0.375000 0.812500
vt 0.500000 0.784722
vt 0.562500 0.778700
vt 0.625000 0.812500
vt 0.625000 0.875000
vt 0.625000 0.937500
vt 0.625000 1.000000
vt 0.562500 1.000000
vt 0.500000 1.000000
vt 0.437500 1.000000
vt 0.375000 0.937500
vt 0.375000 1.000000
vt 0.375000 0.875000
vt 0.437500 0.071533
vt 0.500000 0.075087
vt 0.500000 0.128472
vt 0.437500 0.127387
vt 0.562500 0.071533
vt 0.562500 0.127387
vt 0.500000 0.187934
vt 0.437500 0.187798
vt 0.562500 0.187798
vt 0.375000 0.000000
vt 0.437500 0.028646
vt 0.375000 0.062500
vt 0.500000 0.034722
vt 0.562500 0.028646
vt 0.625000 0.000000
vt 0.625000 0.062500
vt 0.625000 0.125000
vt 0.625000 0.187500
vt 0.625000 0.250000
vt 0.562500 0.250000
vt 0.500000 0.250000
vt 0.437500 0.250000
vt 0.375000 0.187500
vt 0.375000 0.250000
vt 0.375000 0.125000
vt 0.187500 0.740655
vt 0.250000 0.734918
vt 0.250000 0.745660
vt 0.187500 0.747504
vt 0.312500 0.732747
vt 0.312500 0.745009
vt 0.250000 0.749458
vt 0.187500 0.749688
vt 0.312500 0.749593
vt 0.125000 0.750000
vt 0.187500 0.720920
vt 0.125000 0.750000
vt 0.250000 0.711806
vt 0.312500 0.708767
vt 0.375000 0.708333
vt 0.375000 0.732530
vt 0.375000 0.745660
vt 0.375000 0.751953
vt 0.312500 0.750000
vt 0.250000 0.750000
vt 0.187500 0.750000
vt 0.125000 0.750000
vt 0.437500 0.732734
vt 0.500000 0.732856
vt 0.500000 0.748264
vt 0.437500 0.747287
vt 0.562500 0.732734
vt 0.562500 0.747287
vt 0.500000 0.761936
vt 0.437500 0.758613
vt 0.562500 0.758613
vt 0.437500 0.708333
vt 0.500000 0.708333
vt 0.562500 0.708333
vt 0.437500 0.312500
vt 0.500000 0.312500
vt 0.500000 0.375000
vt 0.437500 0.375000
vt 0.562500 0.312500
vt 0.562500 0.375000
vt 0.500000 0.437500
vt 0.437500 0.437500
vt 0.562500 0.437500
vt 0.375000 0.312500
vt 0.625000 0.312500
vt 0.625000 0.375000
vt 0.625000 0.437500
vt 0.625000 0.500000
vt 0.562500 0.500000
vt 0.500000 0.500000
vt 0.437500 0.500000
vt 0.375000 0.437500
vt 0.375000 0.500000
vt 0.375000 0.375000
vt 0.437500 0.561849
vt 0.500000 0.561849
vt 0.500000 0.619792
vt 0.437500 0.619792
vt 0.562500 0.561849
vt 0.562500 0.619792
vt 0.500000 0.669922
vt 0.437500 0.669922
vt 0.562500 0.669922
vt 0.375000 0.561849
vt 0.625000 0.561849
vt 0.625000 0.619792
vt 0.625000 0.669922
vt 0.375000 0.669922
vt 0.375000 0.619792
vt 0.187500 0.562188
vt 0.250000 0.561958
vt 0.250000 0.620660
vt 0.187500 0.622504
vt 0.312500 0.561863
vt 0.312500 0.619900
vt 0.250000 0.672418
vt 0.187500 0.678155
vt 0.312500 0.670234
vt 0.125000 0.500000
vt 0.187500 0.500000
vt 0.125000 0.562500
vt 0.250000 0.500000
vt 0.312500 0.500000
vt 0.125000 0.687500
vt 0.125000 0.625000
vt 0.437500 0.000298
vt 0.500000 0.000434
vt 0.500000 0.003472
vt 0.437500 0.002387
vt 0.562500 0.000298
vt 0.562500 0.002387
vt 0.500000 0.012587
vt 0.437500 0.009033
vt 0.562500 0.009033
vt 0.375000 0.000000
vt 0.437500 0.000000
vt 0.375000 0.000000
vt 0.500000 0.000000
vt 0.562500 0.000000
vt 0.625000 0.000000
vt 0.687500 0.561863
vt 0.750000 0.561958
vt 0.750000 0.620660
vt 0.687500 0.619900
vt 0.812500 0.562188
vt 0.812500 0.622504
vt 0.750000 0.672418
vt 0.687500 0.670234
vt 0.812500 0.678155
vt 0.687500 0.500000
vt 0.750000 0.500000
vt 0.812500 0.500000
vt 0.875000 0.500000
vt 0.875000 0.562500
vt 0.875000 0.625000
vt 0.875000 0.687500
s 1
usemtl Material.002
f 559/565/535 560/566/536 563/567/539 562/568/538
f 560/566/536 561/569/537 564/570/540 563/567/539
f 562/568/538 563/567/539 566/571/542 565/572/541
f 563/567/539 564/570/540 567/573/543 566/571/542
f 496/574/472 558/575/534 559/565/535 520/576/496
f 558/575/534 557/577/533 560/566/536 559/565/535
f 557/577/533 556/578/532 561/569/537 560/566/536
f 556/578/532 497/579/473 543/580/519 561/569/537
f 561/569/537 543/580/519 542/580/518 564/570/540
f 564/570/540 542/580/518 541/580/517 567/573/543
f 567/573/543 541/580/517 493/581/469 519/582/495
f 566/571/542 567/573/543 519/582/495 518/583/494
f 565/572/541 566/571/542 518/583/494 517/584/493
f 522/585/498 565/572/541 517/584/493 489/586/465
f 521/587/497 562/568/538 565/572/541 522/585/498
f 520/576/496 559/565/535 562/568/538 521/587/497
f 568/588/544 569/589/544 572/590/544 571/591/544
f 569/589/544 570/592/544 573/593/544 572/590/544
f 571/591/544 572/590/544 575/594/544 574/595/544
f 572/590/544 573/593/544 576/596/544 575/594/544
f 490/597/466 513/598/489 568/588/544 525/599/501
f 513/598/489 512/600/488 569/589/544 568/588/544
f 512/600/488 511/601/487 570/592/544 569/589/544
f 511/601/487 489/586/465 517/602/493 570/592/544
f 570/592/544 517/602/493 518/603/494 573/593/544
f 573/593/544 518/603/494 519/604/495 576/596/544
f 576/596/544 519/604/495 493/605/469 510/606/486
f 575/594/544 576/596/544 510/606/486 509/607/485
f 574/595/544 575/594/544 509/607/485 508/608/484
f 523/609/499 574/595/544 508/608/484 494/610/470
f 524/611/500 571/591/544 574/595/544 523/609/499
f 525/599/501 568/588/544 571/591/544 524/611/500
f 577/612/545 578/613/546 581/614/549 580/615/548
f 578/613/546 579/616/547 582/617/550 581/614/549
f 580/615/548 581/614/549 584/618/552 583/619/551
f 581/614/549 582/617/550 585/620/553 584/618/552
f 495/621/471 555/622/531 577/612/545 537/623/513
f 555/622/531 554/624/530 578/613/546 577/612/545
f 554/624/530 553/625/529 579/616/547 578/613/546
f 553/625/529 497/626/473 526/627/502 579/616/547
f 579/616/547 526/627/502 527/628/503 582/617/550
f 582/617/550 527/628/503 528/629/504 585/620/553
f 585/620/553 528/629/504 491/630/467 514/631/490
f 584/618/552 585/620/553 514/631/490 515/632/491
f 583/619/551 584/618/552 515/632/491 516/633/492
f 535/634/511 583/619/551 516/633/492 492/635/468
f 536/636/512 580/615/548 583/619/551 535/634/511
f 537/623/513 577/612/545 580/615/548 536/636/512
f 586/637/554 587/638/555 590/639/558 589/640/557
f 587/638/555 588/641/556 591/642/559 590/639/558
f 589/640/557 590/639/558 593/643/561 592/644/560
f 590/639/558 591/642/559 594/645/562 593/643/561
f 495/646/471 552/647/528 586/637/554 499/648/475
f 552/647/528 551/649/527 587/638/555 586/637/554
f 551/649/527 550/650/526 588/641/556 587/638/555
f 550/650/526 498/651/474 546/652/522 588/641/556
f 588/641/556 546/652/522 545/653/521 591/642/559
f 591/642/559 545/653/521 544/654/520 594/645/562
f 594/645/562 544/654/520 490/597/466 525/655/501
f 593/643/561 594/645/562 525/655/501 524/656/500
f 592/644/560 593/643/561 524/656/500 523/657/499
f 501/648/477 592/644/560 523/657/499 494/658/470
f 500/648/476 589/640/557 592/644/560 501/648/477
f 499/648/475 586/637/554 589/640/557 500/648/476
f 595/659/563 596/660/564 599/661/567 598/662/566
f 596/660/564 597/663/565 600/664/568 599/661/567
f 598/662/566 599/661/567 602/665/570 601/666/569
f 599/661/567 600/664/568 603/667/571 602/665/570
f 498/651/474 549/668/525 595/659/563 546/652/522
f 549/668/525 548/669/524 596/660/564 595/659/563
f 548/669/524 547/670/523 597/663/565 596/660/564
f 547/670/523 496/574/472 520/576/496 597/663/565
f 597/663/565 520/576/496 521/587/497 600/664/568
f 600/664/568 521/587/497 522/585/498 603/667/571
f 603/667/571 522/585/498 489/586/465 511/601/487
f 602/665/570 603/667/571 511/601/487 512/600/488
f 601/666/569 602/665/570 512/600/488 513/598/489
f 544/654/520 601/666/569 513/598/489 490/597/466
f 545/653/521 598/662/566 601/666/569 544/654/520
f 546/652/522 595/659/563 598/662/566 545/653/521
f 604/671/572 605/672/573 608/673/576 607/674/575
f 605/672/573 606/675/574 609/676/577 608/673/576
f 607/674/575 608/673/576 611/677/579 610/678/578
f 608/673/576 609/676/577 612/679/580 611/677/579
f 492/635/468 516/633/492 604/671/572 504/680/480
f 516/633/492 515/632/491 605/672/573 604/671/572
f 515/632/491 514/631/490 606/675/574 605/672/573
f 514/631/490 491/630/467 529/681/505 606/675/574
f 606/675/574 529/681/505 530/682/506 609/676/577
f 609/676/577 530/682/506 531/683/507 612/679/580
f 612/679/580 531/683/507 487/684/463 505/685/481
f 611/677/579 612/679/580 505/685/481 506/686/482
f 610/678/578 611/677/579 506/686/482 507/687/483
f 502/688/478 610/678/578 507/687/483 488/689/464
f 503/690/479 607/674/575 610/678/578 502/688/478
f 504/680/480 604/671/572 607/674/575 503/690/479
f 613/691/581 614/692/582 617/693/585 616/694/584
f 614/692/582 615/695/583 618/696/586 617/693/585
f 616/694/584 617/693/585 620/697/588 619/698/587
f 617/693/585 618/696/586 621/699/589 620/697/588
f 488/689/464 507/687/483 613/691/581 534/700/510
f 507/687/483 506/686/482 614/692/582 613/691/581
f 506/686/482 505/685/481 615/695/583 614/692/582
f 505/685/481 487/684/463 538/701/514 615/695/583
f 615/695/583 538/701/514 539/702/515 618/696/586
f 618/696/586 539/702/515 540/703/516 621/699/589
f 621/699/589 540/703/516 496/574/472 547/670/523
f 620/697/588 621/699/589 547/670/523 548/669/524
f 619/698/587 620/697/588 548/669/524 549/668/525
f 532/704/508 619/698/587 549/668/525 498/651/474
f 533/705/509 616/694/584 619/698/587 532/704/508
f 534/700/510 613/691/581 616/694/584 533/705/509
f 622/706/590 623/707/591 626/708/594 625/709/593
f 623/707/591 624/710/592 627/711/595 626/708/594
f 625/709/593 626/708/594 629/712/597 628/713/596
f 626/708/594 627/711/595 630/714/598 629/712/597
f 492/715/468 504/716/480 622/706/590 535/717/511
f 504/716/480 503/718/479 623/707/591 622/706/590
f 503/718/479 502/719/478 624/710/592 623/707/591
f 502/719/478 488/689/464 534/700/510 624/710/592
f 624/710/592 534/700/510 533/705/509 627/711/595
f 627/711/595 533/705/509 532/704/508 630/714/598
f 630/714/598 532/704/508 498/651/474 550/650/526
f 629/712/597 630/714/598 550/650/526 551/649/527
f 628/713/596 629/712/597 551/649/527 552/647/528
f 537/720/513 628/713/596 552/647/528 495/646/471
f 536/721/512 625/709/593 628/713/596 537/720/513
f 535/717/511 622/706/590 625/709/593 536/721/512
f 631/722/599 632/723/600 635/724/603 634/725/602
f 632/723/600 633/726/601 636/727/604 635/724/603
f 634/725/602 635/724/603 638/728/606 637/729/605
f 635/724/603 636/727/604 639/730/607 638/728/606
f 494/731/470 508/732/484 631/722/599 501/733/477
f 508/732/484 509/734/485 632/723/600 631/722/599
f 509/734/485 510/735/486 633/726/601 632/723/600
f 510/735/486 493/736/469 541/736/517 633/726/601
f 633/726/601 541/736/517 542/736/518 636/727/604
f 636/727/604 542/736/518 543/736/519 639/730/607
f 639/730/607 543/736/519 497/626/473 553/625/529
f 638/728/606 639/730/607 553/625/529 554/624/530
f 637/729/605 638/728/606 554/624/530 555/622/531
f 499/733/475 637/729/605 555/622/531 495/621/471
f 500/733/476 634/725/602 637/729/605 499/733/475
f 501/733/477 631/722/599 634/725/602 500/733/476
f 640/737/608 641/738/609 644/739/612 643/740/611
f 641/738/609 642/741/610 645/742/613 644/739/612
f 643/740/611 644/739/612 647/743/615 646/744/614
f 644/739/612 645/742/613 648/745/616 647/743/615
f 487/684/463 531/746/507 640/737/608 538/701/514
f 531/746/507 530/747/506 641/738/609 640/737/608
f 530/747/506 529/748/505 642/741/610 641/738/609
f 529/748/505 491/749/467 528/750/504 642/741/610
f 642/741/610 528/750/504 527/751/503 645/742/613
f 645/742/613 527/751/503 526/752/502 648/745/616
f 648/745/616 526/752/502 497/579/473 556/578/532
f 647/743/615 648/745/616 556/578/532 557/577/533
f 646/744/614 647/743/615 557/577/533 558/575/534
f 540/703/516 646/744/614 558/575/534 496/574/472
f 539/702/515 643/740/611 646/744/614 540/703/516
f 538/701/514 640/737/608 643/740/611 539/702/515
